M48
; DRILL file {KiCad 8.0.8} date 2025-02-27T22:47:19-0800
; FORMAT={-:-/ absolute / inch / decimal}
; #@! TF.CreationDate,2025-02-27T22:47:19-08:00
; #@! TF.GenerationSoftware,Kicad,Pcbnew,8.0.8
; #@! TF.FileFunction,Plated,1,2,PTH
FMAT,2
INCH
; #@! TA.AperFunction,Plated,PTH,ComponentDrill
T1C0.0295
; #@! TA.AperFunction,Plated,PTH,ComponentDrill
T2C0.0335
; #@! TA.AperFunction,Plated,PTH,ComponentDrill
T3C0.0394
; #@! TA.AperFunction,Plated,PTH,ComponentDrill
T4C0.0433
%
G90
G05
T1
X7.8783Y-3.7806
X7.8783Y-3.8594
T2
X6.8124Y-3.6375
X6.8124Y-3.7375
X6.8124Y-3.8375
X6.8124Y-3.9375
X6.8124Y-4.0375
X6.8124Y-4.1375
X6.8124Y-4.2375
X7.4124Y-3.6375
X7.4124Y-3.7375
X7.4124Y-3.8375
X7.4124Y-3.9375
X7.4124Y-4.0375
X7.4124Y-4.1375
X7.4124Y-4.2375
T3
X5.3694Y-3.35
X5.4694Y-3.35
X5.5333Y-3.66
X5.5333Y-3.76
X5.5333Y-3.86
X5.5333Y-3.96
X5.5333Y-4.06
X5.5333Y-4.16
X5.5694Y-3.35
X5.76Y-3.35
X5.86Y-3.35
X5.96Y-3.35
X6.1488Y-3.35
X6.2488Y-3.35
X6.3488Y-3.35
X6.5467Y-3.76
X6.5467Y-3.86
X6.5467Y-3.96
X6.5467Y-4.06
X6.5488Y-3.35
X6.6488Y-3.35
X6.7488Y-3.35
X7.59Y-4.2502
X7.59Y-4.3502
T4
X7.072Y-4.5114
X7.072Y-4.6886
X7.328Y-4.5114
X7.328Y-4.6886
M30
