%TF.GenerationSoftware,KiCad,Pcbnew,8.0.8*%
%TF.CreationDate,2025-02-27T22:48:29-08:00*%
%TF.ProjectId,SmartLitterBoxSensor,536d6172-744c-4697-9474-6572426f7853,rev?*%
%TF.SameCoordinates,Original*%
%TF.FileFunction,Soldermask,Bot*%
%TF.FilePolarity,Negative*%
%FSLAX46Y46*%
G04 Gerber Fmt 4.6, Leading zero omitted, Abs format (unit mm)*
G04 Created by KiCad (PCBNEW 8.0.8) date 2025-02-27 22:48:29*
%MOMM*%
%LPD*%
G01*
G04 APERTURE LIST*
G04 Aperture macros list*
%AMRoundRect*
0 Rectangle with rounded corners*
0 $1 Rounding radius*
0 $2 $3 $4 $5 $6 $7 $8 $9 X,Y pos of 4 corners*
0 Add a 4 corners polygon primitive as box body*
4,1,4,$2,$3,$4,$5,$6,$7,$8,$9,$2,$3,0*
0 Add four circle primitives for the rounded corners*
1,1,$1+$1,$2,$3*
1,1,$1+$1,$4,$5*
1,1,$1+$1,$6,$7*
1,1,$1+$1,$8,$9*
0 Add four rect primitives between the rounded corners*
20,1,$1+$1,$2,$3,$4,$5,0*
20,1,$1+$1,$4,$5,$6,$7,0*
20,1,$1+$1,$6,$7,$8,$9,0*
20,1,$1+$1,$8,$9,$2,$3,0*%
G04 Aperture macros list end*
%ADD10C,0.900000*%
%ADD11RoundRect,0.102000X-0.679000X-0.679000X0.679000X-0.679000X0.679000X0.679000X-0.679000X0.679000X0*%
%ADD12C,1.562000*%
%ADD13R,1.700000X1.700000*%
%ADD14O,1.700000X1.700000*%
%ADD15C,2.000000*%
%ADD16RoundRect,0.250000X0.625000X-0.350000X0.625000X0.350000X-0.625000X0.350000X-0.625000X-0.350000X0*%
%ADD17O,1.750000X1.200000*%
G04 APERTURE END LIST*
D10*
%TO.C,SW1*%
X202184000Y-111350000D03*
X202184000Y-104550000D03*
%TD*%
D11*
%TO.C,U2*%
X173034000Y-92392000D03*
D12*
X173034000Y-94932000D03*
X173034000Y-97472000D03*
X173034000Y-100012000D03*
X173034000Y-102552000D03*
X173034000Y-105092000D03*
X173034000Y-107632000D03*
X188274000Y-107632000D03*
X188274000Y-105092000D03*
X188274000Y-102552000D03*
X188274000Y-100012000D03*
X188274000Y-97472000D03*
X188274000Y-94932000D03*
X188274000Y-92392000D03*
%TD*%
D13*
%TO.C,J4*%
X146304000Y-85090000D03*
D14*
X148844000Y-85090000D03*
X151384000Y-85090000D03*
%TD*%
D15*
%TO.C,SW2*%
X179630000Y-114590000D03*
X186130000Y-114590000D03*
X179630000Y-119090000D03*
X186130000Y-119090000D03*
%TD*%
D13*
%TO.C,J1*%
X156180000Y-85090000D03*
D14*
X158720000Y-85090000D03*
X161260000Y-85090000D03*
%TD*%
D13*
%TO.C,J3*%
X136383000Y-85090000D03*
D14*
X138923000Y-85090000D03*
X141463000Y-85090000D03*
%TD*%
D16*
%TO.C,BT1*%
X200110000Y-98028000D03*
D17*
X200110000Y-96028000D03*
%TD*%
D13*
%TO.C,J5*%
X192786000Y-110495000D03*
D14*
X192786000Y-107955000D03*
%TD*%
D13*
%TO.C,J2*%
X166340000Y-85090000D03*
D14*
X168880000Y-85090000D03*
X171420000Y-85090000D03*
%TD*%
D13*
%TO.C,U1*%
X140546000Y-92964000D03*
D14*
X140546000Y-95504000D03*
X140546000Y-98044000D03*
X140546000Y-100584000D03*
X140546000Y-103124000D03*
X140546000Y-105664000D03*
X166286000Y-103124000D03*
X166286000Y-100584000D03*
X166286000Y-98044000D03*
D13*
X166286000Y-95504000D03*
%TD*%
M02*
