%TF.GenerationSoftware,KiCad,Pcbnew,8.0.8*%
%TF.CreationDate,2025-02-27T22:48:28-08:00*%
%TF.ProjectId,SmartLitterBoxSensor,536d6172-744c-4697-9474-6572426f7853,rev?*%
%TF.SameCoordinates,Original*%
%TF.FileFunction,Copper,L2,Bot*%
%TF.FilePolarity,Positive*%
%FSLAX46Y46*%
G04 Gerber Fmt 4.6, Leading zero omitted, Abs format (unit mm)*
G04 Created by KiCad (PCBNEW 8.0.8) date 2025-02-27 22:48:28*
%MOMM*%
%LPD*%
G01*
G04 APERTURE LIST*
G04 Aperture macros list*
%AMRoundRect*
0 Rectangle with rounded corners*
0 $1 Rounding radius*
0 $2 $3 $4 $5 $6 $7 $8 $9 X,Y pos of 4 corners*
0 Add a 4 corners polygon primitive as box body*
4,1,4,$2,$3,$4,$5,$6,$7,$8,$9,$2,$3,0*
0 Add four circle primitives for the rounded corners*
1,1,$1+$1,$2,$3*
1,1,$1+$1,$4,$5*
1,1,$1+$1,$6,$7*
1,1,$1+$1,$8,$9*
0 Add four rect primitives between the rounded corners*
20,1,$1+$1,$2,$3,$4,$5,0*
20,1,$1+$1,$4,$5,$6,$7,0*
20,1,$1+$1,$6,$7,$8,$9,0*
20,1,$1+$1,$8,$9,$2,$3,0*%
G04 Aperture macros list end*
%TA.AperFunction,ComponentPad*%
%ADD10R,1.358000X1.358000*%
%TD*%
%TA.AperFunction,ComponentPad*%
%ADD11C,1.358000*%
%TD*%
%TA.AperFunction,ComponentPad*%
%ADD12R,1.700000X1.700000*%
%TD*%
%TA.AperFunction,ComponentPad*%
%ADD13O,1.700000X1.700000*%
%TD*%
%TA.AperFunction,ComponentPad*%
%ADD14C,2.000000*%
%TD*%
%TA.AperFunction,ComponentPad*%
%ADD15RoundRect,0.250000X0.625000X-0.350000X0.625000X0.350000X-0.625000X0.350000X-0.625000X-0.350000X0*%
%TD*%
%TA.AperFunction,ComponentPad*%
%ADD16O,1.750000X1.200000*%
%TD*%
%TA.AperFunction,Conductor*%
%ADD17C,0.254000*%
%TD*%
G04 APERTURE END LIST*
D10*
%TO.P,U2,1,D0*%
%TO.N,/3V3*%
X173034000Y-92392000D03*
D11*
%TO.P,U2,2,D1*%
%TO.N,unconnected-(U2-D1-Pad2)*%
X173034000Y-94932000D03*
%TO.P,U2,3,D2*%
%TO.N,unconnected-(U2-D2-Pad3)*%
X173034000Y-97472000D03*
%TO.P,U2,4,D3*%
%TO.N,unconnected-(U2-D3-Pad4)*%
X173034000Y-100012000D03*
%TO.P,U2,5,D4*%
%TO.N,/DT*%
X173034000Y-102552000D03*
%TO.P,U2,6,D5*%
%TO.N,/SCK*%
X173034000Y-105092000D03*
%TO.P,U2,7,D6*%
%TO.N,unconnected-(U2-D6-Pad7)*%
X173034000Y-107632000D03*
%TO.P,U2,8,D7*%
%TO.N,unconnected-(U2-D7-Pad8)*%
X188274000Y-107632000D03*
%TO.P,U2,9,D8*%
%TO.N,/3V3*%
X188274000Y-105092000D03*
%TO.P,U2,10,D9*%
%TO.N,Net-(U2-D9)*%
X188274000Y-102552000D03*
%TO.P,U2,11,D10*%
%TO.N,unconnected-(U2-D10-Pad11)*%
X188274000Y-100012000D03*
%TO.P,U2,12,3V3*%
%TO.N,/3V3*%
X188274000Y-97472000D03*
%TO.P,U2,13,GND*%
%TO.N,GND*%
X188274000Y-94932000D03*
%TO.P,U2,14,5V*%
%TO.N,/5V*%
X188274000Y-92392000D03*
%TD*%
D12*
%TO.P,J4,1,VCC*%
%TO.N,/E+*%
X146304000Y-85090000D03*
D13*
%TO.P,J4,2,GND*%
%TO.N,/E-*%
X148844000Y-85090000D03*
%TO.P,J4,3,Signal*%
%TO.N,/A-*%
X151384000Y-85090000D03*
%TD*%
D14*
%TO.P,SW2,1,1*%
%TO.N,Net-(U2-D9)*%
X179630000Y-114590000D03*
X186130000Y-114590000D03*
%TO.P,SW2,2,2*%
%TO.N,GND*%
X179630000Y-119090000D03*
X186130000Y-119090000D03*
%TD*%
D12*
%TO.P,J1,1,VCC*%
%TO.N,/E+*%
X156180000Y-85090000D03*
D13*
%TO.P,J1,2,GND*%
%TO.N,/E-*%
X158720000Y-85090000D03*
%TO.P,J1,3,Signal*%
%TO.N,/A+*%
X161260000Y-85090000D03*
%TD*%
D12*
%TO.P,J3,1,VCC*%
%TO.N,/E+*%
X136383000Y-85090000D03*
D13*
%TO.P,J3,2,GND*%
%TO.N,/E-*%
X138923000Y-85090000D03*
%TO.P,J3,3,Signal*%
%TO.N,/A-*%
X141463000Y-85090000D03*
%TD*%
D15*
%TO.P,BT1,1,+*%
%TO.N,Net-(BT1-+)*%
X200110000Y-98028000D03*
D16*
%TO.P,BT1,2,-*%
%TO.N,GND*%
X200110000Y-96028000D03*
%TD*%
D12*
%TO.P,J5,1,Pin_1*%
%TO.N,+BAT*%
X192786000Y-110495000D03*
D13*
%TO.P,J5,2,Pin_2*%
%TO.N,GND*%
X192786000Y-107955000D03*
%TD*%
D12*
%TO.P,J2,1,VCC*%
%TO.N,/E+*%
X166340000Y-85090000D03*
D13*
%TO.P,J2,2,GND*%
%TO.N,/E-*%
X168880000Y-85090000D03*
%TO.P,J2,3,Signal*%
%TO.N,/A+*%
X171420000Y-85090000D03*
%TD*%
D12*
%TO.P,U1,1,E+*%
%TO.N,/E+*%
X140546000Y-92964000D03*
D13*
%TO.P,U1,2,E-*%
%TO.N,/E-*%
X140546000Y-95504000D03*
%TO.P,U1,3,A-*%
%TO.N,/A-*%
X140546000Y-98044000D03*
%TO.P,U1,4,A+*%
%TO.N,/A+*%
X140546000Y-100584000D03*
%TO.P,U1,5,B-*%
%TO.N,unconnected-(U1-B--Pad5)*%
X140546000Y-103124000D03*
%TO.P,U1,6,B+*%
%TO.N,unconnected-(U1-B+-Pad6)*%
X140546000Y-105664000D03*
%TO.P,U1,7,VCC*%
%TO.N,/5V*%
X166286000Y-103124000D03*
%TO.P,U1,8,SCK*%
%TO.N,/SCK*%
X166286000Y-100584000D03*
%TO.P,U1,9,DT*%
%TO.N,/DT*%
X166286000Y-98044000D03*
D12*
%TO.P,U1,10,GND*%
%TO.N,GND*%
X166286000Y-95504000D03*
%TD*%
D17*
%TO.N,/A+*%
X156133800Y-100584000D02*
X161260000Y-95457800D01*
X140546000Y-100584000D02*
X156133800Y-100584000D01*
X161260000Y-85090000D02*
X162758600Y-83591400D01*
X169921400Y-83591400D02*
X171420000Y-85090000D01*
X162758600Y-83591400D02*
X169921400Y-83591400D01*
X161260000Y-95457800D02*
X161260000Y-85090000D01*
%TO.N,/A-*%
X148894800Y-98044000D02*
X151384000Y-95554800D01*
X151384000Y-95554800D02*
X151384000Y-85090000D01*
X140546000Y-98044000D02*
X148894800Y-98044000D01*
X143393400Y-87020400D02*
X149453600Y-87020400D01*
X141463000Y-85090000D02*
X143393400Y-87020400D01*
X149453600Y-87020400D02*
X151384000Y-85090000D01*
%TD*%
%TA.AperFunction,Conductor*%
%TO.N,GND*%
G36*
X203328339Y-81647785D02*
G01*
X203374094Y-81700589D01*
X203385300Y-81752100D01*
X203385300Y-120508100D01*
X203365615Y-120575139D01*
X203312811Y-120620894D01*
X203261300Y-120632100D01*
X186921724Y-120632100D01*
X186854685Y-120612415D01*
X186808930Y-120559611D01*
X186798986Y-120490453D01*
X186828011Y-120426897D01*
X186862707Y-120399045D01*
X186953230Y-120350056D01*
X186953236Y-120350051D01*
X187000055Y-120313610D01*
X187000056Y-120313609D01*
X186300233Y-119613787D01*
X186342292Y-119602518D01*
X186467708Y-119530110D01*
X186570110Y-119427708D01*
X186642518Y-119302292D01*
X186653787Y-119260234D01*
X187353435Y-119959882D01*
X187453733Y-119806364D01*
X187553587Y-119578717D01*
X187614612Y-119337738D01*
X187614614Y-119337729D01*
X187635141Y-119090005D01*
X187635141Y-119089994D01*
X187614614Y-118842270D01*
X187614612Y-118842261D01*
X187553587Y-118601282D01*
X187453732Y-118373632D01*
X187353435Y-118220116D01*
X186653787Y-118919764D01*
X186642518Y-118877708D01*
X186570110Y-118752292D01*
X186467708Y-118649890D01*
X186342292Y-118577482D01*
X186300233Y-118566212D01*
X187000055Y-117866389D01*
X187000055Y-117866388D01*
X186953236Y-117829947D01*
X186953231Y-117829944D01*
X186734614Y-117711635D01*
X186734603Y-117711630D01*
X186499493Y-117630916D01*
X186254293Y-117590000D01*
X186005707Y-117590000D01*
X185760506Y-117630916D01*
X185525396Y-117711630D01*
X185525385Y-117711635D01*
X185306770Y-117829943D01*
X185259943Y-117866389D01*
X185959766Y-118566212D01*
X185917708Y-118577482D01*
X185792292Y-118649890D01*
X185689890Y-118752292D01*
X185617482Y-118877708D01*
X185606212Y-118919765D01*
X184906563Y-118220117D01*
X184806267Y-118373633D01*
X184806265Y-118373637D01*
X184706412Y-118601282D01*
X184645387Y-118842261D01*
X184645385Y-118842270D01*
X184624859Y-119089994D01*
X184624859Y-119090005D01*
X184645385Y-119337729D01*
X184645387Y-119337738D01*
X184706412Y-119578717D01*
X184806267Y-119806367D01*
X184906562Y-119959881D01*
X185606212Y-119260233D01*
X185617482Y-119302292D01*
X185689890Y-119427708D01*
X185792292Y-119530110D01*
X185917708Y-119602518D01*
X185959766Y-119613787D01*
X185259943Y-120313609D01*
X185306768Y-120350055D01*
X185306771Y-120350057D01*
X185397293Y-120399045D01*
X185446884Y-120448265D01*
X185461992Y-120516481D01*
X185437822Y-120582037D01*
X185382046Y-120624118D01*
X185338276Y-120632100D01*
X180421724Y-120632100D01*
X180354685Y-120612415D01*
X180308930Y-120559611D01*
X180298986Y-120490453D01*
X180328011Y-120426897D01*
X180362707Y-120399045D01*
X180453230Y-120350056D01*
X180453236Y-120350051D01*
X180500055Y-120313610D01*
X180500056Y-120313609D01*
X179800233Y-119613787D01*
X179842292Y-119602518D01*
X179967708Y-119530110D01*
X180070110Y-119427708D01*
X180142518Y-119302292D01*
X180153787Y-119260234D01*
X180853435Y-119959882D01*
X180953733Y-119806364D01*
X181053587Y-119578717D01*
X181114612Y-119337738D01*
X181114614Y-119337729D01*
X181135141Y-119090005D01*
X181135141Y-119089994D01*
X181114614Y-118842270D01*
X181114612Y-118842261D01*
X181053587Y-118601282D01*
X180953732Y-118373632D01*
X180853435Y-118220116D01*
X180153787Y-118919765D01*
X180142518Y-118877708D01*
X180070110Y-118752292D01*
X179967708Y-118649890D01*
X179842292Y-118577482D01*
X179800233Y-118566212D01*
X180500055Y-117866389D01*
X180500055Y-117866388D01*
X180453236Y-117829947D01*
X180453231Y-117829944D01*
X180234614Y-117711635D01*
X180234603Y-117711630D01*
X179999493Y-117630916D01*
X179754293Y-117590000D01*
X179505707Y-117590000D01*
X179260506Y-117630916D01*
X179025396Y-117711630D01*
X179025385Y-117711635D01*
X178806770Y-117829943D01*
X178759943Y-117866389D01*
X179459766Y-118566212D01*
X179417708Y-118577482D01*
X179292292Y-118649890D01*
X179189890Y-118752292D01*
X179117482Y-118877708D01*
X179106212Y-118919766D01*
X178406563Y-118220117D01*
X178306267Y-118373633D01*
X178306265Y-118373637D01*
X178206412Y-118601282D01*
X178145387Y-118842261D01*
X178145385Y-118842270D01*
X178124859Y-119089994D01*
X178124859Y-119090005D01*
X178145385Y-119337729D01*
X178145387Y-119337738D01*
X178206412Y-119578717D01*
X178306267Y-119806367D01*
X178406562Y-119959881D01*
X179106211Y-119260231D01*
X179117482Y-119302292D01*
X179189890Y-119427708D01*
X179292292Y-119530110D01*
X179417708Y-119602518D01*
X179459766Y-119613787D01*
X178759943Y-120313609D01*
X178806768Y-120350055D01*
X178806771Y-120350057D01*
X178897293Y-120399045D01*
X178946884Y-120448265D01*
X178961992Y-120516481D01*
X178937822Y-120582037D01*
X178882046Y-120624118D01*
X178838276Y-120632100D01*
X133847500Y-120632100D01*
X133780461Y-120612415D01*
X133734706Y-120559611D01*
X133723500Y-120508100D01*
X133723500Y-114589994D01*
X178124357Y-114589994D01*
X178124357Y-114590005D01*
X178144890Y-114837812D01*
X178144892Y-114837824D01*
X178205936Y-115078881D01*
X178305826Y-115306606D01*
X178441833Y-115514782D01*
X178441836Y-115514785D01*
X178610256Y-115697738D01*
X178806491Y-115850474D01*
X179025190Y-115968828D01*
X179260386Y-116049571D01*
X179505665Y-116090500D01*
X179754335Y-116090500D01*
X179999614Y-116049571D01*
X180234810Y-115968828D01*
X180453509Y-115850474D01*
X180649744Y-115697738D01*
X180818164Y-115514785D01*
X180954173Y-115306607D01*
X181054063Y-115078881D01*
X181115108Y-114837821D01*
X181135643Y-114590000D01*
X181135643Y-114589994D01*
X184624357Y-114589994D01*
X184624357Y-114590005D01*
X184644890Y-114837812D01*
X184644892Y-114837824D01*
X184705936Y-115078881D01*
X184805826Y-115306606D01*
X184941833Y-115514782D01*
X184941836Y-115514785D01*
X185110256Y-115697738D01*
X185306491Y-115850474D01*
X185525190Y-115968828D01*
X185760386Y-116049571D01*
X186005665Y-116090500D01*
X186254335Y-116090500D01*
X186499614Y-116049571D01*
X186734810Y-115968828D01*
X186953509Y-115850474D01*
X187149744Y-115697738D01*
X187318164Y-115514785D01*
X187454173Y-115306607D01*
X187554063Y-115078881D01*
X187615108Y-114837821D01*
X187635643Y-114590000D01*
X187615108Y-114342179D01*
X187554063Y-114101119D01*
X187454173Y-113873393D01*
X187318166Y-113665217D01*
X187296557Y-113641744D01*
X187149744Y-113482262D01*
X186953509Y-113329526D01*
X186953507Y-113329525D01*
X186953506Y-113329524D01*
X186734811Y-113211172D01*
X186734802Y-113211169D01*
X186499616Y-113130429D01*
X186254335Y-113089500D01*
X186005665Y-113089500D01*
X185760383Y-113130429D01*
X185525197Y-113211169D01*
X185525188Y-113211172D01*
X185306493Y-113329524D01*
X185110257Y-113482261D01*
X184941833Y-113665217D01*
X184805826Y-113873393D01*
X184705936Y-114101118D01*
X184644892Y-114342175D01*
X184644890Y-114342187D01*
X184624357Y-114589994D01*
X181135643Y-114589994D01*
X181115108Y-114342179D01*
X181054063Y-114101119D01*
X180954173Y-113873393D01*
X180818166Y-113665217D01*
X180796557Y-113641744D01*
X180649744Y-113482262D01*
X180453509Y-113329526D01*
X180453507Y-113329525D01*
X180453506Y-113329524D01*
X180234811Y-113211172D01*
X180234802Y-113211169D01*
X179999616Y-113130429D01*
X179754335Y-113089500D01*
X179505665Y-113089500D01*
X179260383Y-113130429D01*
X179025197Y-113211169D01*
X179025188Y-113211172D01*
X178806493Y-113329524D01*
X178610257Y-113482261D01*
X178441833Y-113665217D01*
X178305826Y-113873393D01*
X178205936Y-114101118D01*
X178144892Y-114342175D01*
X178144890Y-114342187D01*
X178124357Y-114589994D01*
X133723500Y-114589994D01*
X133723500Y-109597135D01*
X191435500Y-109597135D01*
X191435500Y-111392870D01*
X191435501Y-111392876D01*
X191441908Y-111452483D01*
X191492202Y-111587328D01*
X191492206Y-111587335D01*
X191578452Y-111702544D01*
X191578455Y-111702547D01*
X191693664Y-111788793D01*
X191693671Y-111788797D01*
X191828517Y-111839091D01*
X191828516Y-111839091D01*
X191835444Y-111839835D01*
X191888127Y-111845500D01*
X193683872Y-111845499D01*
X193743483Y-111839091D01*
X193878331Y-111788796D01*
X193993546Y-111702546D01*
X194079796Y-111587331D01*
X194130091Y-111452483D01*
X194133691Y-111418995D01*
X201483499Y-111418995D01*
X201510418Y-111554322D01*
X201510421Y-111554332D01*
X201563221Y-111681804D01*
X201563228Y-111681817D01*
X201639885Y-111796541D01*
X201639888Y-111796545D01*
X201737454Y-111894111D01*
X201737458Y-111894114D01*
X201852182Y-111970771D01*
X201852195Y-111970778D01*
X201979667Y-112023578D01*
X201979672Y-112023580D01*
X201979676Y-112023580D01*
X201979677Y-112023581D01*
X202115004Y-112050500D01*
X202115007Y-112050500D01*
X202252995Y-112050500D01*
X202344041Y-112032389D01*
X202388328Y-112023580D01*
X202515811Y-111970775D01*
X202630542Y-111894114D01*
X202728114Y-111796542D01*
X202804775Y-111681811D01*
X202857580Y-111554328D01*
X202866389Y-111510041D01*
X202884500Y-111418995D01*
X202884500Y-111281004D01*
X202857581Y-111145677D01*
X202857580Y-111145676D01*
X202857580Y-111145672D01*
X202857578Y-111145667D01*
X202804778Y-111018195D01*
X202804771Y-111018182D01*
X202728114Y-110903458D01*
X202728111Y-110903454D01*
X202630545Y-110805888D01*
X202630541Y-110805885D01*
X202515817Y-110729228D01*
X202515804Y-110729221D01*
X202388332Y-110676421D01*
X202388322Y-110676418D01*
X202252995Y-110649500D01*
X202252993Y-110649500D01*
X202115007Y-110649500D01*
X202115005Y-110649500D01*
X201979677Y-110676418D01*
X201979667Y-110676421D01*
X201852195Y-110729221D01*
X201852182Y-110729228D01*
X201737458Y-110805885D01*
X201737454Y-110805888D01*
X201639888Y-110903454D01*
X201639885Y-110903458D01*
X201563228Y-111018182D01*
X201563221Y-111018195D01*
X201510421Y-111145667D01*
X201510418Y-111145677D01*
X201483500Y-111281004D01*
X201483500Y-111281007D01*
X201483500Y-111418993D01*
X201483500Y-111418995D01*
X201483499Y-111418995D01*
X194133691Y-111418995D01*
X194136500Y-111392873D01*
X194136499Y-109597128D01*
X194130091Y-109537517D01*
X194079796Y-109402669D01*
X194079795Y-109402668D01*
X194079793Y-109402664D01*
X193993547Y-109287455D01*
X193993544Y-109287452D01*
X193878335Y-109201206D01*
X193878328Y-109201202D01*
X193746401Y-109151997D01*
X193690467Y-109110126D01*
X193666050Y-109044662D01*
X193680902Y-108976389D01*
X193702053Y-108948133D01*
X193824108Y-108826078D01*
X193959600Y-108632578D01*
X194059429Y-108418492D01*
X194059432Y-108418486D01*
X194116636Y-108205000D01*
X193219012Y-108205000D01*
X193251925Y-108147993D01*
X193286000Y-108020826D01*
X193286000Y-107889174D01*
X193251925Y-107762007D01*
X193219012Y-107705000D01*
X194116636Y-107705000D01*
X194116635Y-107704999D01*
X194059432Y-107491513D01*
X194059429Y-107491507D01*
X193959600Y-107277422D01*
X193959599Y-107277420D01*
X193824113Y-107083926D01*
X193824108Y-107083920D01*
X193657082Y-106916894D01*
X193463578Y-106781399D01*
X193249492Y-106681570D01*
X193249486Y-106681567D01*
X193036000Y-106624364D01*
X193036000Y-107521988D01*
X192978993Y-107489075D01*
X192851826Y-107455000D01*
X192720174Y-107455000D01*
X192593007Y-107489075D01*
X192536000Y-107521988D01*
X192536000Y-106624364D01*
X192535999Y-106624364D01*
X192322513Y-106681567D01*
X192322507Y-106681570D01*
X192108422Y-106781399D01*
X192108420Y-106781400D01*
X191914926Y-106916886D01*
X191914920Y-106916891D01*
X191747891Y-107083920D01*
X191747886Y-107083926D01*
X191612400Y-107277420D01*
X191612399Y-107277422D01*
X191512570Y-107491507D01*
X191512567Y-107491513D01*
X191455364Y-107704999D01*
X191455364Y-107705000D01*
X192352988Y-107705000D01*
X192320075Y-107762007D01*
X192286000Y-107889174D01*
X192286000Y-108020826D01*
X192320075Y-108147993D01*
X192352988Y-108205000D01*
X191455364Y-108205000D01*
X191512567Y-108418486D01*
X191512570Y-108418492D01*
X191612399Y-108632578D01*
X191747894Y-108826082D01*
X191869946Y-108948134D01*
X191903431Y-109009457D01*
X191898447Y-109079149D01*
X191856575Y-109135082D01*
X191825598Y-109151997D01*
X191693671Y-109201202D01*
X191693664Y-109201206D01*
X191578455Y-109287452D01*
X191578452Y-109287455D01*
X191492206Y-109402664D01*
X191492202Y-109402671D01*
X191441908Y-109537517D01*
X191435501Y-109597116D01*
X191435501Y-109597123D01*
X191435500Y-109597135D01*
X133723500Y-109597135D01*
X133723500Y-84192135D01*
X135032500Y-84192135D01*
X135032500Y-85987870D01*
X135032501Y-85987876D01*
X135038908Y-86047483D01*
X135089202Y-86182328D01*
X135089206Y-86182335D01*
X135175452Y-86297544D01*
X135175455Y-86297547D01*
X135290664Y-86383793D01*
X135290671Y-86383797D01*
X135425517Y-86434091D01*
X135425516Y-86434091D01*
X135432444Y-86434835D01*
X135485127Y-86440500D01*
X137280872Y-86440499D01*
X137340483Y-86434091D01*
X137475331Y-86383796D01*
X137590546Y-86297546D01*
X137676796Y-86182331D01*
X137725810Y-86050916D01*
X137767681Y-85994984D01*
X137833145Y-85970566D01*
X137901418Y-85985417D01*
X137929673Y-86006569D01*
X138051599Y-86128495D01*
X138145988Y-86194587D01*
X138245165Y-86264032D01*
X138245167Y-86264033D01*
X138245170Y-86264035D01*
X138459337Y-86363903D01*
X138687592Y-86425063D01*
X138864034Y-86440500D01*
X138922999Y-86445659D01*
X138923000Y-86445659D01*
X138923001Y-86445659D01*
X138981966Y-86440500D01*
X139158408Y-86425063D01*
X139386663Y-86363903D01*
X139600830Y-86264035D01*
X139794401Y-86128495D01*
X139961495Y-85961401D01*
X140091425Y-85775842D01*
X140146002Y-85732217D01*
X140215500Y-85725023D01*
X140277855Y-85756546D01*
X140294575Y-85775842D01*
X140424500Y-85961395D01*
X140424505Y-85961401D01*
X140591599Y-86128495D01*
X140685988Y-86194587D01*
X140785165Y-86264032D01*
X140785167Y-86264033D01*
X140785170Y-86264035D01*
X140999337Y-86363903D01*
X141227592Y-86425063D01*
X141404034Y-86440500D01*
X141462999Y-86445659D01*
X141463000Y-86445659D01*
X141463001Y-86445659D01*
X141521966Y-86440500D01*
X141698408Y-86425063D01*
X141796642Y-86398741D01*
X141866491Y-86400404D01*
X141916416Y-86430835D01*
X142905989Y-87420408D01*
X142993392Y-87507811D01*
X142993394Y-87507813D01*
X142993396Y-87507814D01*
X143096156Y-87576476D01*
X143096158Y-87576477D01*
X143096167Y-87576483D01*
X143121172Y-87586840D01*
X143143471Y-87596077D01*
X143185654Y-87613549D01*
X143210366Y-87623786D01*
X143331592Y-87647899D01*
X143331596Y-87647900D01*
X143331597Y-87647900D01*
X149515404Y-87647900D01*
X149515405Y-87647899D01*
X149636635Y-87623786D01*
X149717384Y-87590337D01*
X149750833Y-87576483D01*
X149853608Y-87507811D01*
X149941011Y-87420408D01*
X150544819Y-86816600D01*
X150606142Y-86783115D01*
X150675834Y-86788099D01*
X150731767Y-86829971D01*
X150756184Y-86895435D01*
X150756500Y-86904281D01*
X150756500Y-95243519D01*
X150736815Y-95310558D01*
X150720181Y-95331200D01*
X148671200Y-97380181D01*
X148609877Y-97413666D01*
X148583519Y-97416500D01*
X141819826Y-97416500D01*
X141752787Y-97396815D01*
X141718251Y-97363623D01*
X141584494Y-97172597D01*
X141417402Y-97005506D01*
X141417396Y-97005501D01*
X141231842Y-96875575D01*
X141188217Y-96820998D01*
X141181023Y-96751500D01*
X141212546Y-96689145D01*
X141231842Y-96672425D01*
X141340865Y-96596086D01*
X141417401Y-96542495D01*
X141584495Y-96375401D01*
X141720035Y-96181830D01*
X141819903Y-95967663D01*
X141881063Y-95739408D01*
X141901659Y-95504000D01*
X141881063Y-95268592D01*
X141819903Y-95040337D01*
X141720035Y-94826171D01*
X141641728Y-94714337D01*
X141584496Y-94632600D01*
X141530342Y-94578446D01*
X141462567Y-94510671D01*
X141429084Y-94449351D01*
X141434068Y-94379659D01*
X141475939Y-94323725D01*
X141506915Y-94306810D01*
X141638331Y-94257796D01*
X141753546Y-94171546D01*
X141839796Y-94056331D01*
X141890091Y-93921483D01*
X141896500Y-93861873D01*
X141896499Y-92066128D01*
X141890091Y-92006517D01*
X141874268Y-91964094D01*
X141839797Y-91871671D01*
X141839793Y-91871664D01*
X141753547Y-91756455D01*
X141753544Y-91756452D01*
X141638335Y-91670206D01*
X141638328Y-91670202D01*
X141503482Y-91619908D01*
X141503483Y-91619908D01*
X141443883Y-91613501D01*
X141443881Y-91613500D01*
X141443873Y-91613500D01*
X141443864Y-91613500D01*
X139648129Y-91613500D01*
X139648123Y-91613501D01*
X139588516Y-91619908D01*
X139453671Y-91670202D01*
X139453664Y-91670206D01*
X139338455Y-91756452D01*
X139338452Y-91756455D01*
X139252206Y-91871664D01*
X139252202Y-91871671D01*
X139201908Y-92006517D01*
X139195501Y-92066116D01*
X139195501Y-92066123D01*
X139195500Y-92066135D01*
X139195500Y-93861870D01*
X139195501Y-93861876D01*
X139201908Y-93921483D01*
X139252202Y-94056328D01*
X139252206Y-94056335D01*
X139338452Y-94171544D01*
X139338455Y-94171547D01*
X139453664Y-94257793D01*
X139453671Y-94257797D01*
X139585081Y-94306810D01*
X139641015Y-94348681D01*
X139665432Y-94414145D01*
X139650580Y-94482418D01*
X139629430Y-94510673D01*
X139507503Y-94632600D01*
X139371965Y-94826169D01*
X139371964Y-94826171D01*
X139272098Y-95040335D01*
X139272094Y-95040344D01*
X139210938Y-95268586D01*
X139210936Y-95268596D01*
X139190341Y-95503999D01*
X139190341Y-95504000D01*
X139210936Y-95739403D01*
X139210938Y-95739413D01*
X139272094Y-95967655D01*
X139272096Y-95967659D01*
X139272097Y-95967663D01*
X139339181Y-96111525D01*
X139371965Y-96181830D01*
X139371967Y-96181834D01*
X139507501Y-96375395D01*
X139507506Y-96375402D01*
X139674597Y-96542493D01*
X139674603Y-96542498D01*
X139860158Y-96672425D01*
X139903783Y-96727002D01*
X139910977Y-96796500D01*
X139879454Y-96858855D01*
X139860158Y-96875575D01*
X139674597Y-97005505D01*
X139507505Y-97172597D01*
X139371965Y-97366169D01*
X139371964Y-97366171D01*
X139272098Y-97580335D01*
X139272094Y-97580344D01*
X139210938Y-97808586D01*
X139210936Y-97808596D01*
X139190341Y-98043999D01*
X139190341Y-98044000D01*
X139210936Y-98279403D01*
X139210938Y-98279413D01*
X139272094Y-98507655D01*
X139272096Y-98507659D01*
X139272097Y-98507663D01*
X139339300Y-98651780D01*
X139371965Y-98721830D01*
X139371967Y-98721834D01*
X139507501Y-98915395D01*
X139507506Y-98915402D01*
X139674597Y-99082493D01*
X139674603Y-99082498D01*
X139860158Y-99212425D01*
X139903783Y-99267002D01*
X139910977Y-99336500D01*
X139879454Y-99398855D01*
X139860158Y-99415575D01*
X139674597Y-99545505D01*
X139507505Y-99712597D01*
X139371965Y-99906169D01*
X139371964Y-99906171D01*
X139272098Y-100120335D01*
X139272094Y-100120344D01*
X139210938Y-100348586D01*
X139210936Y-100348596D01*
X139190341Y-100583999D01*
X139190341Y-100584000D01*
X139210936Y-100819403D01*
X139210938Y-100819413D01*
X139272094Y-101047655D01*
X139272096Y-101047659D01*
X139272097Y-101047663D01*
X139339300Y-101191780D01*
X139371965Y-101261830D01*
X139371967Y-101261834D01*
X139507501Y-101455395D01*
X139507506Y-101455402D01*
X139674597Y-101622493D01*
X139674603Y-101622498D01*
X139860158Y-101752425D01*
X139903783Y-101807002D01*
X139910977Y-101876500D01*
X139879454Y-101938855D01*
X139860158Y-101955575D01*
X139674597Y-102085505D01*
X139507505Y-102252597D01*
X139371965Y-102446169D01*
X139371964Y-102446171D01*
X139272098Y-102660335D01*
X139272094Y-102660344D01*
X139210938Y-102888586D01*
X139210936Y-102888596D01*
X139190341Y-103123999D01*
X139190341Y-103124000D01*
X139210936Y-103359403D01*
X139210938Y-103359413D01*
X139272094Y-103587655D01*
X139272096Y-103587659D01*
X139272097Y-103587663D01*
X139339300Y-103731780D01*
X139371965Y-103801830D01*
X139371967Y-103801834D01*
X139507501Y-103995395D01*
X139507506Y-103995402D01*
X139674597Y-104162493D01*
X139674603Y-104162498D01*
X139860158Y-104292425D01*
X139903783Y-104347002D01*
X139910977Y-104416500D01*
X139879454Y-104478855D01*
X139860158Y-104495575D01*
X139674597Y-104625505D01*
X139507505Y-104792597D01*
X139371965Y-104986169D01*
X139371964Y-104986171D01*
X139272098Y-105200335D01*
X139272094Y-105200344D01*
X139210938Y-105428586D01*
X139210936Y-105428596D01*
X139190341Y-105663999D01*
X139190341Y-105664000D01*
X139210936Y-105899403D01*
X139210938Y-105899413D01*
X139272094Y-106127655D01*
X139272096Y-106127659D01*
X139272097Y-106127663D01*
X139339300Y-106271780D01*
X139371965Y-106341830D01*
X139371967Y-106341834D01*
X139449457Y-106452500D01*
X139507505Y-106535401D01*
X139674599Y-106702495D01*
X139771384Y-106770265D01*
X139868165Y-106838032D01*
X139868167Y-106838033D01*
X139868170Y-106838035D01*
X140082337Y-106937903D01*
X140310592Y-106999063D01*
X140498918Y-107015539D01*
X140545999Y-107019659D01*
X140546000Y-107019659D01*
X140546001Y-107019659D01*
X140585234Y-107016226D01*
X140781408Y-106999063D01*
X141009663Y-106937903D01*
X141223830Y-106838035D01*
X141417401Y-106702495D01*
X141584495Y-106535401D01*
X141720035Y-106341830D01*
X141819903Y-106127663D01*
X141881063Y-105899408D01*
X141901659Y-105664000D01*
X141881063Y-105428592D01*
X141819903Y-105200337D01*
X141720035Y-104986171D01*
X141641729Y-104874337D01*
X141584494Y-104792597D01*
X141417402Y-104625506D01*
X141417396Y-104625501D01*
X141231842Y-104495575D01*
X141188217Y-104440998D01*
X141181023Y-104371500D01*
X141212546Y-104309145D01*
X141231842Y-104292425D01*
X141337853Y-104218195D01*
X141417401Y-104162495D01*
X141584495Y-103995401D01*
X141720035Y-103801830D01*
X141819903Y-103587663D01*
X141881063Y-103359408D01*
X141901659Y-103124000D01*
X141881063Y-102888592D01*
X141819903Y-102660337D01*
X141720035Y-102446171D01*
X141641729Y-102334337D01*
X141584494Y-102252597D01*
X141417402Y-102085506D01*
X141417396Y-102085501D01*
X141231842Y-101955575D01*
X141188217Y-101900998D01*
X141181023Y-101831500D01*
X141212546Y-101769145D01*
X141231842Y-101752425D01*
X141254026Y-101736891D01*
X141417401Y-101622495D01*
X141584495Y-101455401D01*
X141718252Y-101264375D01*
X141772829Y-101220752D01*
X141819827Y-101211500D01*
X156195604Y-101211500D01*
X156195605Y-101211499D01*
X156316835Y-101187386D01*
X156403873Y-101151333D01*
X156431033Y-101140083D01*
X156533808Y-101071411D01*
X156621211Y-100984008D01*
X159561220Y-98043999D01*
X164930341Y-98043999D01*
X164930341Y-98044000D01*
X164950936Y-98279403D01*
X164950938Y-98279413D01*
X165012094Y-98507655D01*
X165012096Y-98507659D01*
X165012097Y-98507663D01*
X165079300Y-98651780D01*
X165111965Y-98721830D01*
X165111967Y-98721834D01*
X165247501Y-98915395D01*
X165247506Y-98915402D01*
X165414597Y-99082493D01*
X165414603Y-99082498D01*
X165600158Y-99212425D01*
X165643783Y-99267002D01*
X165650977Y-99336500D01*
X165619454Y-99398855D01*
X165600158Y-99415575D01*
X165414597Y-99545505D01*
X165247505Y-99712597D01*
X165111965Y-99906169D01*
X165111964Y-99906171D01*
X165012098Y-100120335D01*
X165012094Y-100120344D01*
X164950938Y-100348586D01*
X164950936Y-100348596D01*
X164930341Y-100583999D01*
X164930341Y-100584000D01*
X164950936Y-100819403D01*
X164950938Y-100819413D01*
X165012094Y-101047655D01*
X165012096Y-101047659D01*
X165012097Y-101047663D01*
X165079300Y-101191780D01*
X165111965Y-101261830D01*
X165111967Y-101261834D01*
X165247501Y-101455395D01*
X165247506Y-101455402D01*
X165414597Y-101622493D01*
X165414603Y-101622498D01*
X165600158Y-101752425D01*
X165643783Y-101807002D01*
X165650977Y-101876500D01*
X165619454Y-101938855D01*
X165600158Y-101955575D01*
X165414597Y-102085505D01*
X165247505Y-102252597D01*
X165111965Y-102446169D01*
X165111964Y-102446171D01*
X165012098Y-102660335D01*
X165012094Y-102660344D01*
X164950938Y-102888586D01*
X164950936Y-102888596D01*
X164930341Y-103123999D01*
X164930341Y-103124000D01*
X164950936Y-103359403D01*
X164950938Y-103359413D01*
X165012094Y-103587655D01*
X165012096Y-103587659D01*
X165012097Y-103587663D01*
X165079300Y-103731780D01*
X165111965Y-103801830D01*
X165111967Y-103801834D01*
X165189457Y-103912500D01*
X165247505Y-103995401D01*
X165414599Y-104162495D01*
X165494128Y-104218182D01*
X165608165Y-104298032D01*
X165608167Y-104298033D01*
X165608170Y-104298035D01*
X165822337Y-104397903D01*
X166050592Y-104459063D01*
X166238918Y-104475539D01*
X166285999Y-104479659D01*
X166286000Y-104479659D01*
X166286001Y-104479659D01*
X166325234Y-104476226D01*
X166521408Y-104459063D01*
X166749663Y-104397903D01*
X166963830Y-104298035D01*
X167157401Y-104162495D01*
X167324495Y-103995401D01*
X167460035Y-103801830D01*
X167559903Y-103587663D01*
X167621063Y-103359408D01*
X167641659Y-103124000D01*
X167621063Y-102888592D01*
X167559903Y-102660337D01*
X167460035Y-102446171D01*
X167381729Y-102334337D01*
X167324494Y-102252597D01*
X167157402Y-102085506D01*
X167157396Y-102085501D01*
X166971842Y-101955575D01*
X166928217Y-101900998D01*
X166921023Y-101831500D01*
X166952546Y-101769145D01*
X166971842Y-101752425D01*
X166994026Y-101736891D01*
X167157401Y-101622495D01*
X167324495Y-101455401D01*
X167460035Y-101261830D01*
X167559903Y-101047663D01*
X167621063Y-100819408D01*
X167641659Y-100584000D01*
X167621063Y-100348592D01*
X167559903Y-100120337D01*
X167460035Y-99906171D01*
X167381729Y-99794337D01*
X167324494Y-99712597D01*
X167157402Y-99545506D01*
X167157396Y-99545501D01*
X166971842Y-99415575D01*
X166928217Y-99360998D01*
X166921023Y-99291500D01*
X166952546Y-99229145D01*
X166971842Y-99212425D01*
X167091699Y-99128500D01*
X167157401Y-99082495D01*
X167324495Y-98915401D01*
X167460035Y-98721830D01*
X167559903Y-98507663D01*
X167621063Y-98279408D01*
X167641659Y-98044000D01*
X167621063Y-97808592D01*
X167559903Y-97580337D01*
X167460035Y-97366171D01*
X167454781Y-97358668D01*
X167324496Y-97172600D01*
X167324493Y-97172597D01*
X167202179Y-97050283D01*
X167168696Y-96988963D01*
X167173680Y-96919271D01*
X167215551Y-96863337D01*
X167246529Y-96846422D01*
X167378086Y-96797354D01*
X167378093Y-96797350D01*
X167493187Y-96711190D01*
X167493190Y-96711187D01*
X167579350Y-96596093D01*
X167579354Y-96596086D01*
X167629596Y-96461379D01*
X167629598Y-96461372D01*
X167635999Y-96401844D01*
X167636000Y-96401827D01*
X167636000Y-95754000D01*
X166719012Y-95754000D01*
X166751925Y-95696993D01*
X166786000Y-95569826D01*
X166786000Y-95438174D01*
X166751925Y-95311007D01*
X166719012Y-95254000D01*
X167636000Y-95254000D01*
X167636000Y-94931999D01*
X171849447Y-94931999D01*
X171849447Y-94932000D01*
X171869615Y-95149660D01*
X171869616Y-95149662D01*
X171929435Y-95359905D01*
X171929441Y-95359920D01*
X172026869Y-95555581D01*
X172026874Y-95555589D01*
X172157017Y-95727925D01*
X172158605Y-95730028D01*
X172320147Y-95877294D01*
X172320149Y-95877295D01*
X172320150Y-95877296D01*
X172505995Y-95992366D01*
X172506001Y-95992369D01*
X172573943Y-96018689D01*
X172709832Y-96071333D01*
X172756795Y-96080112D01*
X172819073Y-96111780D01*
X172854346Y-96172092D01*
X172851412Y-96241900D01*
X172811203Y-96299040D01*
X172756795Y-96323887D01*
X172709832Y-96332667D01*
X172709830Y-96332667D01*
X172709828Y-96332668D01*
X172506001Y-96411630D01*
X172505995Y-96411633D01*
X172320150Y-96526703D01*
X172158604Y-96673972D01*
X172026874Y-96848410D01*
X172026869Y-96848418D01*
X171929441Y-97044079D01*
X171929435Y-97044094D01*
X171869616Y-97254337D01*
X171869615Y-97254339D01*
X171849447Y-97471999D01*
X171849447Y-97472000D01*
X171869615Y-97689660D01*
X171869616Y-97689662D01*
X171929435Y-97899905D01*
X171929441Y-97899920D01*
X172026869Y-98095581D01*
X172026874Y-98095589D01*
X172158604Y-98270027D01*
X172158605Y-98270028D01*
X172320147Y-98417294D01*
X172320149Y-98417295D01*
X172320150Y-98417296D01*
X172505995Y-98532366D01*
X172506001Y-98532369D01*
X172573943Y-98558689D01*
X172709832Y-98611333D01*
X172756795Y-98620112D01*
X172819073Y-98651780D01*
X172854346Y-98712092D01*
X172851412Y-98781900D01*
X172811203Y-98839040D01*
X172756795Y-98863887D01*
X172709832Y-98872667D01*
X172709830Y-98872667D01*
X172709828Y-98872668D01*
X172506001Y-98951630D01*
X172505995Y-98951633D01*
X172320150Y-99066703D01*
X172158604Y-99213972D01*
X172026874Y-99388410D01*
X172026869Y-99388418D01*
X171929441Y-99584079D01*
X171929435Y-99584094D01*
X171869616Y-99794337D01*
X171869615Y-99794339D01*
X171849447Y-100011999D01*
X171849447Y-100012000D01*
X171869615Y-100229660D01*
X171869616Y-100229662D01*
X171929435Y-100439905D01*
X171929441Y-100439920D01*
X172026869Y-100635581D01*
X172026874Y-100635589D01*
X172158604Y-100810027D01*
X172158605Y-100810028D01*
X172320147Y-100957294D01*
X172320149Y-100957295D01*
X172320150Y-100957296D01*
X172505995Y-101072366D01*
X172506001Y-101072369D01*
X172573943Y-101098689D01*
X172709832Y-101151333D01*
X172756795Y-101160112D01*
X172819073Y-101191780D01*
X172854346Y-101252092D01*
X172851412Y-101321900D01*
X172811203Y-101379040D01*
X172756795Y-101403887D01*
X172709832Y-101412667D01*
X172709830Y-101412667D01*
X172709828Y-101412668D01*
X172506001Y-101491630D01*
X172505995Y-101491633D01*
X172320150Y-101606703D01*
X172158604Y-101753972D01*
X172026874Y-101928410D01*
X172026869Y-101928418D01*
X171929441Y-102124079D01*
X171929435Y-102124094D01*
X171869616Y-102334337D01*
X171869615Y-102334339D01*
X171849447Y-102551999D01*
X171849447Y-102552000D01*
X171869615Y-102769660D01*
X171869616Y-102769662D01*
X171929435Y-102979905D01*
X171929441Y-102979920D01*
X172026869Y-103175581D01*
X172026874Y-103175589D01*
X172158604Y-103350027D01*
X172158605Y-103350028D01*
X172320147Y-103497294D01*
X172320149Y-103497295D01*
X172320150Y-103497296D01*
X172505995Y-103612366D01*
X172506001Y-103612369D01*
X172573943Y-103638689D01*
X172709832Y-103691333D01*
X172756795Y-103700112D01*
X172819073Y-103731780D01*
X172854346Y-103792092D01*
X172851412Y-103861900D01*
X172811203Y-103919040D01*
X172756795Y-103943887D01*
X172709832Y-103952667D01*
X172709830Y-103952667D01*
X172709828Y-103952668D01*
X172506001Y-104031630D01*
X172505995Y-104031633D01*
X172320150Y-104146703D01*
X172158604Y-104293972D01*
X172026874Y-104468410D01*
X172026869Y-104468418D01*
X171929441Y-104664079D01*
X171929435Y-104664094D01*
X171869616Y-104874337D01*
X171869615Y-104874339D01*
X171849447Y-105091999D01*
X171849447Y-105092000D01*
X171869615Y-105309660D01*
X171869616Y-105309662D01*
X171929435Y-105519905D01*
X171929441Y-105519920D01*
X172026869Y-105715581D01*
X172026874Y-105715589D01*
X172158604Y-105890027D01*
X172158605Y-105890028D01*
X172320147Y-106037294D01*
X172320149Y-106037295D01*
X172320150Y-106037296D01*
X172505995Y-106152366D01*
X172506001Y-106152369D01*
X172573943Y-106178689D01*
X172709832Y-106231333D01*
X172756795Y-106240112D01*
X172819073Y-106271780D01*
X172854346Y-106332092D01*
X172851412Y-106401900D01*
X172811203Y-106459040D01*
X172756795Y-106483887D01*
X172709832Y-106492667D01*
X172709830Y-106492667D01*
X172709828Y-106492668D01*
X172506001Y-106571630D01*
X172505995Y-106571633D01*
X172320150Y-106686703D01*
X172158604Y-106833972D01*
X172026874Y-107008410D01*
X172026869Y-107008418D01*
X171929441Y-107204079D01*
X171929435Y-107204094D01*
X171869616Y-107414337D01*
X171869615Y-107414339D01*
X171849447Y-107631999D01*
X171849447Y-107632000D01*
X171869615Y-107849660D01*
X171869616Y-107849662D01*
X171929435Y-108059905D01*
X171929441Y-108059920D01*
X172026869Y-108255581D01*
X172026874Y-108255589D01*
X172158604Y-108430027D01*
X172158605Y-108430028D01*
X172320147Y-108577294D01*
X172320149Y-108577295D01*
X172320150Y-108577296D01*
X172505995Y-108692366D01*
X172506001Y-108692369D01*
X172549182Y-108709097D01*
X172709832Y-108771333D01*
X172924703Y-108811500D01*
X172924705Y-108811500D01*
X173143295Y-108811500D01*
X173143297Y-108811500D01*
X173358168Y-108771333D01*
X173562001Y-108692368D01*
X173747853Y-108577294D01*
X173909395Y-108430028D01*
X174041127Y-108255587D01*
X174138563Y-108059910D01*
X174198384Y-107849661D01*
X174218553Y-107632000D01*
X174198384Y-107414339D01*
X174138563Y-107204090D01*
X174138558Y-107204079D01*
X174041130Y-107008418D01*
X174041125Y-107008410D01*
X173909395Y-106833972D01*
X173747853Y-106686706D01*
X173747850Y-106686704D01*
X173747849Y-106686703D01*
X173562004Y-106571633D01*
X173561998Y-106571630D01*
X173401351Y-106509396D01*
X173358168Y-106492667D01*
X173311204Y-106483887D01*
X173248926Y-106452221D01*
X173213653Y-106391908D01*
X173216587Y-106322100D01*
X173256796Y-106264960D01*
X173311204Y-106240112D01*
X173358168Y-106231333D01*
X173562001Y-106152368D01*
X173747853Y-106037294D01*
X173909395Y-105890028D01*
X174041127Y-105715587D01*
X174138563Y-105519910D01*
X174198384Y-105309661D01*
X174218553Y-105092000D01*
X174198384Y-104874339D01*
X174138563Y-104664090D01*
X174138558Y-104664079D01*
X174041130Y-104468418D01*
X174041125Y-104468410D01*
X173909395Y-104293972D01*
X173826272Y-104218195D01*
X173747853Y-104146706D01*
X173747850Y-104146704D01*
X173747849Y-104146703D01*
X173562004Y-104031633D01*
X173561998Y-104031630D01*
X173401351Y-103969396D01*
X173358168Y-103952667D01*
X173311204Y-103943887D01*
X173248926Y-103912221D01*
X173213653Y-103851908D01*
X173216587Y-103782100D01*
X173256796Y-103724960D01*
X173311204Y-103700112D01*
X173358168Y-103691333D01*
X173562001Y-103612368D01*
X173747853Y-103497294D01*
X173909395Y-103350028D01*
X174041127Y-103175587D01*
X174138563Y-102979910D01*
X174198384Y-102769661D01*
X174218553Y-102552000D01*
X174198384Y-102334339D01*
X174138563Y-102124090D01*
X174138558Y-102124079D01*
X174041130Y-101928418D01*
X174041125Y-101928410D01*
X173909395Y-101753972D01*
X173907698Y-101752425D01*
X173747853Y-101606706D01*
X173747850Y-101606704D01*
X173747849Y-101606703D01*
X173562004Y-101491633D01*
X173561998Y-101491630D01*
X173401351Y-101429396D01*
X173358168Y-101412667D01*
X173311204Y-101403887D01*
X173248926Y-101372221D01*
X173213653Y-101311908D01*
X173216587Y-101242100D01*
X173256796Y-101184960D01*
X173311204Y-101160112D01*
X173358168Y-101151333D01*
X173562001Y-101072368D01*
X173747853Y-100957294D01*
X173909395Y-100810028D01*
X174041127Y-100635587D01*
X174138563Y-100439910D01*
X174198384Y-100229661D01*
X174218553Y-100012000D01*
X174198384Y-99794339D01*
X174138563Y-99584090D01*
X174138558Y-99584079D01*
X174041130Y-99388418D01*
X174041125Y-99388410D01*
X173909395Y-99213972D01*
X173804117Y-99117998D01*
X173747853Y-99066706D01*
X173747850Y-99066704D01*
X173747849Y-99066703D01*
X173562004Y-98951633D01*
X173561998Y-98951630D01*
X173401351Y-98889396D01*
X173358168Y-98872667D01*
X173311204Y-98863887D01*
X173248926Y-98832221D01*
X173213653Y-98771908D01*
X173216587Y-98702100D01*
X173256796Y-98644960D01*
X173311204Y-98620112D01*
X173358168Y-98611333D01*
X173562001Y-98532368D01*
X173747853Y-98417294D01*
X173909395Y-98270028D01*
X174041127Y-98095587D01*
X174138563Y-97899910D01*
X174198384Y-97689661D01*
X174218553Y-97472000D01*
X174198384Y-97254339D01*
X174138563Y-97044090D01*
X174138558Y-97044079D01*
X174041130Y-96848418D01*
X174041125Y-96848410D01*
X173909395Y-96673972D01*
X173907698Y-96672425D01*
X173747853Y-96526706D01*
X173747850Y-96526704D01*
X173747849Y-96526703D01*
X173562004Y-96411633D01*
X173561998Y-96411630D01*
X173401351Y-96349396D01*
X173358168Y-96332667D01*
X173311204Y-96323887D01*
X173248926Y-96292221D01*
X173213653Y-96231908D01*
X173216587Y-96162100D01*
X173256796Y-96104960D01*
X173311204Y-96080112D01*
X173358168Y-96071333D01*
X173562001Y-95992368D01*
X173747853Y-95877294D01*
X173909395Y-95730028D01*
X174041127Y-95555587D01*
X174138563Y-95359910D01*
X174198384Y-95149661D01*
X174218553Y-94932000D01*
X174198384Y-94714339D01*
X174138563Y-94504090D01*
X174119350Y-94465505D01*
X174041130Y-94308418D01*
X174041125Y-94308410D01*
X173909395Y-94133972D01*
X173747853Y-93986706D01*
X173747850Y-93986704D01*
X173747849Y-93986703D01*
X173562004Y-93871633D01*
X173561998Y-93871630D01*
X173405816Y-93811126D01*
X173350415Y-93768553D01*
X173326824Y-93702786D01*
X173342535Y-93634706D01*
X173392559Y-93585927D01*
X173450609Y-93571499D01*
X173760872Y-93571499D01*
X173820483Y-93565091D01*
X173955331Y-93514796D01*
X174070546Y-93428546D01*
X174156796Y-93313331D01*
X174207091Y-93178483D01*
X174213500Y-93118873D01*
X174213499Y-92391999D01*
X187089447Y-92391999D01*
X187089447Y-92392000D01*
X187109615Y-92609660D01*
X187109616Y-92609662D01*
X187169435Y-92819905D01*
X187169441Y-92819920D01*
X187266869Y-93015581D01*
X187266874Y-93015589D01*
X187398604Y-93190027D01*
X187398605Y-93190028D01*
X187560147Y-93337294D01*
X187560149Y-93337295D01*
X187560150Y-93337296D01*
X187745995Y-93452366D01*
X187746001Y-93452369D01*
X187907147Y-93514797D01*
X187949832Y-93531333D01*
X187998152Y-93540365D01*
X188060430Y-93572031D01*
X188095704Y-93632343D01*
X188092771Y-93702151D01*
X188052562Y-93759292D01*
X187998152Y-93784141D01*
X187949978Y-93793147D01*
X187949970Y-93793149D01*
X187746226Y-93872079D01*
X187635925Y-93940373D01*
X188205828Y-94510274D01*
X188109956Y-94535963D01*
X188013044Y-94591916D01*
X187933916Y-94671044D01*
X187877963Y-94767956D01*
X187852274Y-94863827D01*
X187280131Y-94291684D01*
X187267297Y-94308681D01*
X187169906Y-94504267D01*
X187110109Y-94714435D01*
X187089949Y-94931999D01*
X187089949Y-94932000D01*
X187110109Y-95149564D01*
X187169906Y-95359732D01*
X187267300Y-95555323D01*
X187280130Y-95572314D01*
X187280131Y-95572315D01*
X187852274Y-95000171D01*
X187877963Y-95096044D01*
X187933916Y-95192956D01*
X188013044Y-95272084D01*
X188109956Y-95328037D01*
X188205827Y-95353725D01*
X187635925Y-95923625D01*
X187746225Y-95991919D01*
X187949971Y-96070850D01*
X187998150Y-96079857D01*
X188060431Y-96111525D01*
X188095704Y-96171838D01*
X188092770Y-96241646D01*
X188052561Y-96298786D01*
X187998151Y-96323634D01*
X187949833Y-96332666D01*
X187746001Y-96411630D01*
X187745995Y-96411633D01*
X187560150Y-96526703D01*
X187398604Y-96673972D01*
X187266874Y-96848410D01*
X187266869Y-96848418D01*
X187169441Y-97044079D01*
X187169435Y-97044094D01*
X187109616Y-97254337D01*
X187109615Y-97254339D01*
X187089447Y-97471999D01*
X187089447Y-97472000D01*
X187109615Y-97689660D01*
X187109616Y-97689662D01*
X187169435Y-97899905D01*
X187169441Y-97899920D01*
X187266869Y-98095581D01*
X187266874Y-98095589D01*
X187398604Y-98270027D01*
X187398605Y-98270028D01*
X187560147Y-98417294D01*
X187560149Y-98417295D01*
X187560150Y-98417296D01*
X187745995Y-98532366D01*
X187746001Y-98532369D01*
X187813943Y-98558689D01*
X187949832Y-98611333D01*
X187996795Y-98620112D01*
X188059073Y-98651780D01*
X188094346Y-98712092D01*
X188091412Y-98781900D01*
X188051203Y-98839040D01*
X187996795Y-98863887D01*
X187949832Y-98872667D01*
X187949830Y-98872667D01*
X187949828Y-98872668D01*
X187746001Y-98951630D01*
X187745995Y-98951633D01*
X187560150Y-99066703D01*
X187398604Y-99213972D01*
X187266874Y-99388410D01*
X187266869Y-99388418D01*
X187169441Y-99584079D01*
X187169435Y-99584094D01*
X187109616Y-99794337D01*
X187109615Y-99794339D01*
X187089447Y-100011999D01*
X187089447Y-100012000D01*
X187109615Y-100229660D01*
X187109616Y-100229662D01*
X187169435Y-100439905D01*
X187169441Y-100439920D01*
X187266869Y-100635581D01*
X187266874Y-100635589D01*
X187398604Y-100810027D01*
X187398605Y-100810028D01*
X187560147Y-100957294D01*
X187560149Y-100957295D01*
X187560150Y-100957296D01*
X187745995Y-101072366D01*
X187746001Y-101072369D01*
X187813943Y-101098689D01*
X187949832Y-101151333D01*
X187996795Y-101160112D01*
X188059073Y-101191780D01*
X188094346Y-101252092D01*
X188091412Y-101321900D01*
X188051203Y-101379040D01*
X187996795Y-101403887D01*
X187949832Y-101412667D01*
X187949830Y-101412667D01*
X187949828Y-101412668D01*
X187746001Y-101491630D01*
X187745995Y-101491633D01*
X187560150Y-101606703D01*
X187398604Y-101753972D01*
X187266874Y-101928410D01*
X187266869Y-101928418D01*
X187169441Y-102124079D01*
X187169435Y-102124094D01*
X187109616Y-102334337D01*
X187109615Y-102334339D01*
X187089447Y-102551999D01*
X187089447Y-102552000D01*
X187109615Y-102769660D01*
X187109616Y-102769662D01*
X187169435Y-102979905D01*
X187169441Y-102979920D01*
X187266869Y-103175581D01*
X187266874Y-103175589D01*
X187398604Y-103350027D01*
X187398605Y-103350028D01*
X187560147Y-103497294D01*
X187560149Y-103497295D01*
X187560150Y-103497296D01*
X187745995Y-103612366D01*
X187746001Y-103612369D01*
X187813943Y-103638689D01*
X187949832Y-103691333D01*
X187996795Y-103700112D01*
X188059073Y-103731780D01*
X188094346Y-103792092D01*
X188091412Y-103861900D01*
X188051203Y-103919040D01*
X187996795Y-103943887D01*
X187949832Y-103952667D01*
X187949830Y-103952667D01*
X187949828Y-103952668D01*
X187746001Y-104031630D01*
X187745995Y-104031633D01*
X187560150Y-104146703D01*
X187398604Y-104293972D01*
X187266874Y-104468410D01*
X187266869Y-104468418D01*
X187169441Y-104664079D01*
X187169435Y-104664094D01*
X187109616Y-104874337D01*
X187109615Y-104874339D01*
X187089447Y-105091999D01*
X187089447Y-105092000D01*
X187109615Y-105309660D01*
X187109616Y-105309662D01*
X187169435Y-105519905D01*
X187169441Y-105519920D01*
X187266869Y-105715581D01*
X187266874Y-105715589D01*
X187398604Y-105890027D01*
X187398605Y-105890028D01*
X187560147Y-106037294D01*
X187560149Y-106037295D01*
X187560150Y-106037296D01*
X187745995Y-106152366D01*
X187746001Y-106152369D01*
X187813943Y-106178689D01*
X187949832Y-106231333D01*
X187996795Y-106240112D01*
X188059073Y-106271780D01*
X188094346Y-106332092D01*
X188091412Y-106401900D01*
X188051203Y-106459040D01*
X187996795Y-106483887D01*
X187949832Y-106492667D01*
X187949830Y-106492667D01*
X187949828Y-106492668D01*
X187746001Y-106571630D01*
X187745995Y-106571633D01*
X187560150Y-106686703D01*
X187398604Y-106833972D01*
X187266874Y-107008410D01*
X187266869Y-107008418D01*
X187169441Y-107204079D01*
X187169435Y-107204094D01*
X187109616Y-107414337D01*
X187109615Y-107414339D01*
X187089447Y-107631999D01*
X187089447Y-107632000D01*
X187109615Y-107849660D01*
X187109616Y-107849662D01*
X187169435Y-108059905D01*
X187169441Y-108059920D01*
X187266869Y-108255581D01*
X187266874Y-108255589D01*
X187398604Y-108430027D01*
X187398605Y-108430028D01*
X187560147Y-108577294D01*
X187560149Y-108577295D01*
X187560150Y-108577296D01*
X187745995Y-108692366D01*
X187746001Y-108692369D01*
X187789182Y-108709097D01*
X187949832Y-108771333D01*
X188164703Y-108811500D01*
X188164705Y-108811500D01*
X188383295Y-108811500D01*
X188383297Y-108811500D01*
X188598168Y-108771333D01*
X188802001Y-108692368D01*
X188987853Y-108577294D01*
X189149395Y-108430028D01*
X189281127Y-108255587D01*
X189378563Y-108059910D01*
X189438384Y-107849661D01*
X189458553Y-107632000D01*
X189438384Y-107414339D01*
X189378563Y-107204090D01*
X189378558Y-107204079D01*
X189281130Y-107008418D01*
X189281125Y-107008410D01*
X189149395Y-106833972D01*
X188987853Y-106686706D01*
X188987850Y-106686704D01*
X188987849Y-106686703D01*
X188802004Y-106571633D01*
X188801998Y-106571630D01*
X188641351Y-106509396D01*
X188598168Y-106492667D01*
X188551204Y-106483887D01*
X188488926Y-106452221D01*
X188453653Y-106391908D01*
X188456587Y-106322100D01*
X188496796Y-106264960D01*
X188551204Y-106240112D01*
X188598168Y-106231333D01*
X188802001Y-106152368D01*
X188987853Y-106037294D01*
X189149395Y-105890028D01*
X189281127Y-105715587D01*
X189378563Y-105519910D01*
X189438384Y-105309661D01*
X189458553Y-105092000D01*
X189438384Y-104874339D01*
X189378563Y-104664090D01*
X189378558Y-104664079D01*
X189356109Y-104618995D01*
X201483499Y-104618995D01*
X201510418Y-104754322D01*
X201510421Y-104754332D01*
X201563221Y-104881804D01*
X201563228Y-104881817D01*
X201639885Y-104996541D01*
X201639888Y-104996545D01*
X201737454Y-105094111D01*
X201737458Y-105094114D01*
X201852182Y-105170771D01*
X201852195Y-105170778D01*
X201979667Y-105223578D01*
X201979672Y-105223580D01*
X201979676Y-105223580D01*
X201979677Y-105223581D01*
X202115004Y-105250500D01*
X202115007Y-105250500D01*
X202252995Y-105250500D01*
X202344041Y-105232389D01*
X202388328Y-105223580D01*
X202515811Y-105170775D01*
X202630542Y-105094114D01*
X202728114Y-104996542D01*
X202804775Y-104881811D01*
X202857580Y-104754328D01*
X202875532Y-104664079D01*
X202884500Y-104618995D01*
X202884500Y-104481004D01*
X202857581Y-104345677D01*
X202857580Y-104345676D01*
X202857580Y-104345672D01*
X202836165Y-104293972D01*
X202804778Y-104218195D01*
X202804771Y-104218182D01*
X202728114Y-104103458D01*
X202728111Y-104103454D01*
X202630545Y-104005888D01*
X202630541Y-104005885D01*
X202515817Y-103929228D01*
X202515804Y-103929221D01*
X202388332Y-103876421D01*
X202388322Y-103876418D01*
X202252995Y-103849500D01*
X202252993Y-103849500D01*
X202115007Y-103849500D01*
X202115005Y-103849500D01*
X201979677Y-103876418D01*
X201979667Y-103876421D01*
X201852195Y-103929221D01*
X201852182Y-103929228D01*
X201737458Y-104005885D01*
X201737454Y-104005888D01*
X201639888Y-104103454D01*
X201639885Y-104103458D01*
X201563228Y-104218182D01*
X201563221Y-104218195D01*
X201510421Y-104345667D01*
X201510418Y-104345677D01*
X201483500Y-104481004D01*
X201483500Y-104481007D01*
X201483500Y-104618993D01*
X201483500Y-104618995D01*
X201483499Y-104618995D01*
X189356109Y-104618995D01*
X189281130Y-104468418D01*
X189281125Y-104468410D01*
X189149395Y-104293972D01*
X189066272Y-104218195D01*
X188987853Y-104146706D01*
X188987850Y-104146704D01*
X188987849Y-104146703D01*
X188802004Y-104031633D01*
X188801998Y-104031630D01*
X188641351Y-103969396D01*
X188598168Y-103952667D01*
X188551204Y-103943887D01*
X188488926Y-103912221D01*
X188453653Y-103851908D01*
X188456587Y-103782100D01*
X188496796Y-103724960D01*
X188551204Y-103700112D01*
X188598168Y-103691333D01*
X188802001Y-103612368D01*
X188987853Y-103497294D01*
X189149395Y-103350028D01*
X189281127Y-103175587D01*
X189378563Y-102979910D01*
X189438384Y-102769661D01*
X189458553Y-102552000D01*
X189438384Y-102334339D01*
X189378563Y-102124090D01*
X189378558Y-102124079D01*
X189281130Y-101928418D01*
X189281125Y-101928410D01*
X189149395Y-101753972D01*
X189147698Y-101752425D01*
X188987853Y-101606706D01*
X188987850Y-101606704D01*
X188987849Y-101606703D01*
X188802004Y-101491633D01*
X188801998Y-101491630D01*
X188641351Y-101429396D01*
X188598168Y-101412667D01*
X188551204Y-101403887D01*
X188488926Y-101372221D01*
X188453653Y-101311908D01*
X188456587Y-101242100D01*
X188496796Y-101184960D01*
X188551204Y-101160112D01*
X188598168Y-101151333D01*
X188802001Y-101072368D01*
X188987853Y-100957294D01*
X189149395Y-100810028D01*
X189281127Y-100635587D01*
X189378563Y-100439910D01*
X189438384Y-100229661D01*
X189458553Y-100012000D01*
X189438384Y-99794339D01*
X189378563Y-99584090D01*
X189378558Y-99584079D01*
X189281130Y-99388418D01*
X189281125Y-99388410D01*
X189149395Y-99213972D01*
X189044117Y-99117998D01*
X188987853Y-99066706D01*
X188987850Y-99066704D01*
X188987849Y-99066703D01*
X188802004Y-98951633D01*
X188801998Y-98951630D01*
X188641351Y-98889396D01*
X188598168Y-98872667D01*
X188551204Y-98863887D01*
X188488926Y-98832221D01*
X188453653Y-98771908D01*
X188456587Y-98702100D01*
X188496796Y-98644960D01*
X188551204Y-98620112D01*
X188598168Y-98611333D01*
X188802001Y-98532368D01*
X188987853Y-98417294D01*
X189149395Y-98270028D01*
X189281127Y-98095587D01*
X189378563Y-97899910D01*
X189438384Y-97689661D01*
X189444099Y-97627983D01*
X198734500Y-97627983D01*
X198734500Y-98428001D01*
X198734501Y-98428019D01*
X198745000Y-98530796D01*
X198745001Y-98530799D01*
X198800185Y-98697331D01*
X198800187Y-98697336D01*
X198835069Y-98753888D01*
X198892288Y-98846656D01*
X199016344Y-98970712D01*
X199165666Y-99062814D01*
X199332203Y-99117999D01*
X199434991Y-99128500D01*
X200785008Y-99128499D01*
X200887797Y-99117999D01*
X201054334Y-99062814D01*
X201203656Y-98970712D01*
X201327712Y-98846656D01*
X201419814Y-98697334D01*
X201474999Y-98530797D01*
X201485500Y-98428009D01*
X201485499Y-97627992D01*
X201474999Y-97525203D01*
X201419814Y-97358666D01*
X201327712Y-97209344D01*
X201203656Y-97085288D01*
X201203655Y-97085287D01*
X201139019Y-97045420D01*
X201092294Y-96993472D01*
X201081071Y-96924510D01*
X201108914Y-96860428D01*
X201116434Y-96852199D01*
X201224035Y-96744598D01*
X201325804Y-96604524D01*
X201404408Y-96450255D01*
X201457914Y-96285584D01*
X201459115Y-96278000D01*
X200390330Y-96278000D01*
X200410075Y-96258255D01*
X200459444Y-96172745D01*
X200485000Y-96077370D01*
X200485000Y-95978630D01*
X200459444Y-95883255D01*
X200410075Y-95797745D01*
X200390330Y-95778000D01*
X201459115Y-95778000D01*
X201459115Y-95777999D01*
X201457914Y-95770415D01*
X201404408Y-95605744D01*
X201325804Y-95451475D01*
X201224032Y-95311397D01*
X201101602Y-95188967D01*
X200961524Y-95087195D01*
X200807257Y-95008591D01*
X200642584Y-94955085D01*
X200471571Y-94928000D01*
X200360000Y-94928000D01*
X200360000Y-95747670D01*
X200340255Y-95727925D01*
X200254745Y-95678556D01*
X200159370Y-95653000D01*
X200060630Y-95653000D01*
X199965255Y-95678556D01*
X199879745Y-95727925D01*
X199860000Y-95747670D01*
X199860000Y-94928000D01*
X199748429Y-94928000D01*
X199577415Y-94955085D01*
X199412742Y-95008591D01*
X199258475Y-95087195D01*
X199118397Y-95188967D01*
X198995967Y-95311397D01*
X198894195Y-95451475D01*
X198815591Y-95605744D01*
X198762085Y-95770415D01*
X198760884Y-95777999D01*
X198760885Y-95778000D01*
X199829670Y-95778000D01*
X199809925Y-95797745D01*
X199760556Y-95883255D01*
X199735000Y-95978630D01*
X199735000Y-96077370D01*
X199760556Y-96172745D01*
X199809925Y-96258255D01*
X199829670Y-96278000D01*
X198760885Y-96278000D01*
X198762085Y-96285584D01*
X198815591Y-96450255D01*
X198894195Y-96604524D01*
X198995967Y-96744602D01*
X199103565Y-96852200D01*
X199137050Y-96913523D01*
X199132066Y-96983215D01*
X199090194Y-97039148D01*
X199080981Y-97045420D01*
X199016342Y-97085289D01*
X198892289Y-97209342D01*
X198800187Y-97358663D01*
X198800185Y-97358668D01*
X198781961Y-97413666D01*
X198745001Y-97525203D01*
X198745001Y-97525204D01*
X198745000Y-97525204D01*
X198734500Y-97627983D01*
X189444099Y-97627983D01*
X189458553Y-97472000D01*
X189438384Y-97254339D01*
X189378563Y-97044090D01*
X189378558Y-97044079D01*
X189281130Y-96848418D01*
X189281125Y-96848410D01*
X189149395Y-96673972D01*
X189147698Y-96672425D01*
X188987853Y-96526706D01*
X188987850Y-96526704D01*
X188987849Y-96526703D01*
X188802004Y-96411633D01*
X188801998Y-96411630D01*
X188641351Y-96349396D01*
X188598168Y-96332667D01*
X188549847Y-96323634D01*
X188487568Y-96291966D01*
X188452295Y-96231654D01*
X188455229Y-96161846D01*
X188495438Y-96104706D01*
X188549849Y-96079857D01*
X188598028Y-96070850D01*
X188598029Y-96070850D01*
X188801781Y-95991916D01*
X188912073Y-95923625D01*
X188342173Y-95353725D01*
X188438044Y-95328037D01*
X188534956Y-95272084D01*
X188614084Y-95192956D01*
X188670037Y-95096044D01*
X188695725Y-95000172D01*
X189267867Y-95572314D01*
X189280699Y-95555323D01*
X189280703Y-95555316D01*
X189378093Y-95359732D01*
X189437890Y-95149564D01*
X189458051Y-94932000D01*
X189458051Y-94931999D01*
X189437890Y-94714435D01*
X189378093Y-94504267D01*
X189280699Y-94308675D01*
X189267868Y-94291684D01*
X188695725Y-94863826D01*
X188670037Y-94767956D01*
X188614084Y-94671044D01*
X188534956Y-94591916D01*
X188438044Y-94535963D01*
X188342172Y-94510274D01*
X188912073Y-93940373D01*
X188912072Y-93940372D01*
X188801780Y-93872082D01*
X188801774Y-93872080D01*
X188598029Y-93793149D01*
X188598021Y-93793147D01*
X188549847Y-93784141D01*
X188487567Y-93752472D01*
X188452295Y-93692160D01*
X188455229Y-93622352D01*
X188495439Y-93565212D01*
X188549846Y-93540365D01*
X188598168Y-93531333D01*
X188802001Y-93452368D01*
X188987853Y-93337294D01*
X189149395Y-93190028D01*
X189281127Y-93015587D01*
X189378563Y-92819910D01*
X189438384Y-92609661D01*
X189458553Y-92392000D01*
X189438384Y-92174339D01*
X189378563Y-91964090D01*
X189332543Y-91871669D01*
X189281130Y-91768418D01*
X189281125Y-91768410D01*
X189149395Y-91593972D01*
X189014141Y-91470671D01*
X188987853Y-91446706D01*
X188987850Y-91446704D01*
X188987849Y-91446703D01*
X188802004Y-91331633D01*
X188801998Y-91331630D01*
X188640850Y-91269202D01*
X188598168Y-91252667D01*
X188383297Y-91212500D01*
X188164703Y-91212500D01*
X187949832Y-91252667D01*
X187949829Y-91252667D01*
X187949829Y-91252668D01*
X187746001Y-91331630D01*
X187745995Y-91331633D01*
X187560150Y-91446703D01*
X187398604Y-91593972D01*
X187266874Y-91768410D01*
X187266869Y-91768418D01*
X187169441Y-91964079D01*
X187169435Y-91964094D01*
X187109616Y-92174337D01*
X187109615Y-92174339D01*
X187089447Y-92391999D01*
X174213499Y-92391999D01*
X174213499Y-91665128D01*
X174207091Y-91605517D01*
X174156796Y-91470669D01*
X174156795Y-91470668D01*
X174156793Y-91470664D01*
X174070547Y-91355455D01*
X174070544Y-91355452D01*
X173955335Y-91269206D01*
X173955328Y-91269202D01*
X173820482Y-91218908D01*
X173820483Y-91218908D01*
X173760883Y-91212501D01*
X173760881Y-91212500D01*
X173760873Y-91212500D01*
X173760864Y-91212500D01*
X172307129Y-91212500D01*
X172307123Y-91212501D01*
X172247516Y-91218908D01*
X172112671Y-91269202D01*
X172112664Y-91269206D01*
X171997455Y-91355452D01*
X171997452Y-91355455D01*
X171911206Y-91470664D01*
X171911202Y-91470671D01*
X171860908Y-91605517D01*
X171854501Y-91665116D01*
X171854501Y-91665123D01*
X171854500Y-91665135D01*
X171854500Y-93118870D01*
X171854501Y-93118876D01*
X171860908Y-93178483D01*
X171911202Y-93313328D01*
X171911206Y-93313335D01*
X171997452Y-93428544D01*
X171997455Y-93428547D01*
X172112664Y-93514793D01*
X172112671Y-93514797D01*
X172247517Y-93565091D01*
X172247516Y-93565091D01*
X172248642Y-93565212D01*
X172307127Y-93571500D01*
X172617389Y-93571499D01*
X172684426Y-93591183D01*
X172730181Y-93643987D01*
X172740125Y-93713146D01*
X172711100Y-93776701D01*
X172662181Y-93811125D01*
X172506010Y-93871626D01*
X172505995Y-93871633D01*
X172320150Y-93986703D01*
X172158604Y-94133972D01*
X172026874Y-94308410D01*
X172026869Y-94308418D01*
X171929441Y-94504079D01*
X171929435Y-94504094D01*
X171869616Y-94714337D01*
X171869615Y-94714339D01*
X171849447Y-94931999D01*
X167636000Y-94931999D01*
X167636000Y-94606172D01*
X167635999Y-94606155D01*
X167629598Y-94546627D01*
X167629596Y-94546620D01*
X167579354Y-94411913D01*
X167579350Y-94411906D01*
X167493190Y-94296812D01*
X167493187Y-94296809D01*
X167378093Y-94210649D01*
X167378086Y-94210645D01*
X167243379Y-94160403D01*
X167243372Y-94160401D01*
X167183844Y-94154000D01*
X166536000Y-94154000D01*
X166536000Y-95070988D01*
X166478993Y-95038075D01*
X166351826Y-95004000D01*
X166220174Y-95004000D01*
X166093007Y-95038075D01*
X166036000Y-95070988D01*
X166036000Y-94154000D01*
X165388155Y-94154000D01*
X165328627Y-94160401D01*
X165328620Y-94160403D01*
X165193913Y-94210645D01*
X165193906Y-94210649D01*
X165078812Y-94296809D01*
X165078809Y-94296812D01*
X164992649Y-94411906D01*
X164992645Y-94411913D01*
X164942403Y-94546620D01*
X164942401Y-94546627D01*
X164936000Y-94606155D01*
X164936000Y-95254000D01*
X165852988Y-95254000D01*
X165820075Y-95311007D01*
X165786000Y-95438174D01*
X165786000Y-95569826D01*
X165820075Y-95696993D01*
X165852988Y-95754000D01*
X164936000Y-95754000D01*
X164936000Y-96401844D01*
X164942401Y-96461372D01*
X164942403Y-96461379D01*
X164992645Y-96596086D01*
X164992649Y-96596093D01*
X165078809Y-96711187D01*
X165078812Y-96711190D01*
X165193906Y-96797350D01*
X165193913Y-96797354D01*
X165325470Y-96846421D01*
X165381403Y-96888292D01*
X165405821Y-96953756D01*
X165390970Y-97022029D01*
X165369819Y-97050284D01*
X165247503Y-97172600D01*
X165111965Y-97366169D01*
X165111964Y-97366171D01*
X165012098Y-97580335D01*
X165012094Y-97580344D01*
X164950938Y-97808586D01*
X164950936Y-97808596D01*
X164930341Y-98043999D01*
X159561220Y-98043999D01*
X161747411Y-95857808D01*
X161761402Y-95836868D01*
X161788820Y-95795836D01*
X161788820Y-95795835D01*
X161800737Y-95778000D01*
X161816083Y-95755033D01*
X161835676Y-95707730D01*
X161863386Y-95640834D01*
X161887500Y-95519603D01*
X161887500Y-95395996D01*
X161887500Y-86363826D01*
X161907185Y-86296787D01*
X161940375Y-86262252D01*
X162131401Y-86128495D01*
X162298495Y-85961401D01*
X162434035Y-85767830D01*
X162533903Y-85553663D01*
X162595063Y-85325408D01*
X162615659Y-85090000D01*
X162595063Y-84854592D01*
X162568741Y-84756357D01*
X162570404Y-84686508D01*
X162600835Y-84636583D01*
X162789636Y-84447783D01*
X162982200Y-84255219D01*
X163043523Y-84221734D01*
X163069881Y-84218900D01*
X164865500Y-84218900D01*
X164932539Y-84238585D01*
X164978294Y-84291389D01*
X164989500Y-84342900D01*
X164989500Y-85987870D01*
X164989501Y-85987876D01*
X164995908Y-86047483D01*
X165046202Y-86182328D01*
X165046206Y-86182335D01*
X165132452Y-86297544D01*
X165132455Y-86297547D01*
X165247664Y-86383793D01*
X165247671Y-86383797D01*
X165382517Y-86434091D01*
X165382516Y-86434091D01*
X165389444Y-86434835D01*
X165442127Y-86440500D01*
X167237872Y-86440499D01*
X167297483Y-86434091D01*
X167432331Y-86383796D01*
X167547546Y-86297546D01*
X167633796Y-86182331D01*
X167682810Y-86050916D01*
X167724681Y-85994984D01*
X167790145Y-85970566D01*
X167858418Y-85985417D01*
X167886673Y-86006569D01*
X168008599Y-86128495D01*
X168102988Y-86194587D01*
X168202165Y-86264032D01*
X168202167Y-86264033D01*
X168202170Y-86264035D01*
X168416337Y-86363903D01*
X168644592Y-86425063D01*
X168821034Y-86440500D01*
X168879999Y-86445659D01*
X168880000Y-86445659D01*
X168880001Y-86445659D01*
X168938966Y-86440500D01*
X169115408Y-86425063D01*
X169343663Y-86363903D01*
X169557830Y-86264035D01*
X169751401Y-86128495D01*
X169918495Y-85961401D01*
X170048425Y-85775842D01*
X170103002Y-85732217D01*
X170172500Y-85725023D01*
X170234855Y-85756546D01*
X170251575Y-85775842D01*
X170381500Y-85961395D01*
X170381505Y-85961401D01*
X170548599Y-86128495D01*
X170642988Y-86194587D01*
X170742165Y-86264032D01*
X170742167Y-86264033D01*
X170742170Y-86264035D01*
X170956337Y-86363903D01*
X171184592Y-86425063D01*
X171361034Y-86440500D01*
X171419999Y-86445659D01*
X171420000Y-86445659D01*
X171420001Y-86445659D01*
X171478966Y-86440500D01*
X171655408Y-86425063D01*
X171883663Y-86363903D01*
X172097830Y-86264035D01*
X172291401Y-86128495D01*
X172458495Y-85961401D01*
X172594035Y-85767830D01*
X172693903Y-85553663D01*
X172755063Y-85325408D01*
X172775659Y-85090000D01*
X172755063Y-84854592D01*
X172693903Y-84626337D01*
X172594035Y-84412171D01*
X172588425Y-84404158D01*
X172458494Y-84218597D01*
X172291402Y-84051506D01*
X172291395Y-84051501D01*
X172097834Y-83915967D01*
X172097830Y-83915965D01*
X172097828Y-83915964D01*
X171883663Y-83816097D01*
X171883659Y-83816096D01*
X171883655Y-83816094D01*
X171655413Y-83754938D01*
X171655403Y-83754936D01*
X171420001Y-83734341D01*
X171419999Y-83734341D01*
X171184596Y-83754936D01*
X171184583Y-83754939D01*
X171086356Y-83781258D01*
X171016507Y-83779595D01*
X170966583Y-83749164D01*
X170321411Y-83103991D01*
X170321407Y-83103988D01*
X170218639Y-83035320D01*
X170218626Y-83035313D01*
X170185185Y-83021462D01*
X170104435Y-82988014D01*
X170104427Y-82988012D01*
X169983207Y-82963900D01*
X169983203Y-82963900D01*
X162820403Y-82963900D01*
X162696796Y-82963900D01*
X162696794Y-82963900D01*
X162575570Y-82988013D01*
X162575560Y-82988016D01*
X162461373Y-83035313D01*
X162461360Y-83035320D01*
X162358592Y-83103988D01*
X162358588Y-83103991D01*
X161713415Y-83749164D01*
X161652092Y-83782649D01*
X161593641Y-83781258D01*
X161495413Y-83754938D01*
X161495403Y-83754936D01*
X161260001Y-83734341D01*
X161259999Y-83734341D01*
X161024596Y-83754936D01*
X161024586Y-83754938D01*
X160796344Y-83816094D01*
X160796335Y-83816098D01*
X160582171Y-83915964D01*
X160582169Y-83915965D01*
X160388597Y-84051505D01*
X160221505Y-84218597D01*
X160091575Y-84404158D01*
X160036998Y-84447783D01*
X159967500Y-84454977D01*
X159905145Y-84423454D01*
X159888425Y-84404158D01*
X159758494Y-84218597D01*
X159591402Y-84051506D01*
X159591395Y-84051501D01*
X159397834Y-83915967D01*
X159397830Y-83915965D01*
X159397828Y-83915964D01*
X159183663Y-83816097D01*
X159183659Y-83816096D01*
X159183655Y-83816094D01*
X158955413Y-83754938D01*
X158955403Y-83754936D01*
X158720001Y-83734341D01*
X158719999Y-83734341D01*
X158484596Y-83754936D01*
X158484586Y-83754938D01*
X158256344Y-83816094D01*
X158256335Y-83816098D01*
X158042171Y-83915964D01*
X158042169Y-83915965D01*
X157848600Y-84051503D01*
X157726673Y-84173430D01*
X157665350Y-84206914D01*
X157595658Y-84201930D01*
X157539725Y-84160058D01*
X157522810Y-84129081D01*
X157473797Y-83997671D01*
X157473793Y-83997664D01*
X157387547Y-83882455D01*
X157387544Y-83882452D01*
X157272335Y-83796206D01*
X157272328Y-83796202D01*
X157137482Y-83745908D01*
X157137483Y-83745908D01*
X157077883Y-83739501D01*
X157077881Y-83739500D01*
X157077873Y-83739500D01*
X157077864Y-83739500D01*
X155282129Y-83739500D01*
X155282123Y-83739501D01*
X155222516Y-83745908D01*
X155087671Y-83796202D01*
X155087664Y-83796206D01*
X154972455Y-83882452D01*
X154972452Y-83882455D01*
X154886206Y-83997664D01*
X154886202Y-83997671D01*
X154835908Y-84132517D01*
X154829501Y-84192116D01*
X154829500Y-84192135D01*
X154829500Y-85987870D01*
X154829501Y-85987876D01*
X154835908Y-86047483D01*
X154886202Y-86182328D01*
X154886206Y-86182335D01*
X154972452Y-86297544D01*
X154972455Y-86297547D01*
X155087664Y-86383793D01*
X155087671Y-86383797D01*
X155222517Y-86434091D01*
X155222516Y-86434091D01*
X155229444Y-86434835D01*
X155282127Y-86440500D01*
X157077872Y-86440499D01*
X157137483Y-86434091D01*
X157272331Y-86383796D01*
X157387546Y-86297546D01*
X157473796Y-86182331D01*
X157522810Y-86050916D01*
X157564681Y-85994984D01*
X157630145Y-85970566D01*
X157698418Y-85985417D01*
X157726673Y-86006569D01*
X157848599Y-86128495D01*
X157942988Y-86194587D01*
X158042165Y-86264032D01*
X158042167Y-86264033D01*
X158042170Y-86264035D01*
X158256337Y-86363903D01*
X158484592Y-86425063D01*
X158661034Y-86440500D01*
X158719999Y-86445659D01*
X158720000Y-86445659D01*
X158720001Y-86445659D01*
X158778966Y-86440500D01*
X158955408Y-86425063D01*
X159183663Y-86363903D01*
X159397830Y-86264035D01*
X159591401Y-86128495D01*
X159758495Y-85961401D01*
X159888425Y-85775842D01*
X159943002Y-85732217D01*
X160012500Y-85725023D01*
X160074855Y-85756546D01*
X160091575Y-85775842D01*
X160221500Y-85961395D01*
X160221505Y-85961401D01*
X160388599Y-86128495D01*
X160579624Y-86262252D01*
X160623248Y-86316828D01*
X160632500Y-86363826D01*
X160632500Y-95146519D01*
X160612815Y-95213558D01*
X160596181Y-95234200D01*
X155910200Y-99920181D01*
X155848877Y-99953666D01*
X155822519Y-99956500D01*
X141819826Y-99956500D01*
X141752787Y-99936815D01*
X141718251Y-99903623D01*
X141584494Y-99712597D01*
X141417402Y-99545506D01*
X141417396Y-99545501D01*
X141231842Y-99415575D01*
X141188217Y-99360998D01*
X141181023Y-99291500D01*
X141212546Y-99229145D01*
X141231842Y-99212425D01*
X141351699Y-99128500D01*
X141417401Y-99082495D01*
X141584495Y-98915401D01*
X141718252Y-98724375D01*
X141772829Y-98680752D01*
X141819827Y-98671500D01*
X148956604Y-98671500D01*
X148956605Y-98671499D01*
X149077835Y-98647386D01*
X149164873Y-98611333D01*
X149192033Y-98600083D01*
X149294808Y-98531411D01*
X149382211Y-98444008D01*
X151871411Y-95954808D01*
X151940083Y-95852033D01*
X151987385Y-95737835D01*
X152004260Y-95653000D01*
X152011500Y-95616606D01*
X152011500Y-86363826D01*
X152031185Y-86296787D01*
X152064375Y-86262252D01*
X152255401Y-86128495D01*
X152422495Y-85961401D01*
X152558035Y-85767830D01*
X152657903Y-85553663D01*
X152719063Y-85325408D01*
X152739659Y-85090000D01*
X152719063Y-84854592D01*
X152657903Y-84626337D01*
X152558035Y-84412171D01*
X152552425Y-84404158D01*
X152422494Y-84218597D01*
X152255402Y-84051506D01*
X152255395Y-84051501D01*
X152061834Y-83915967D01*
X152061830Y-83915965D01*
X152061828Y-83915964D01*
X151847663Y-83816097D01*
X151847659Y-83816096D01*
X151847655Y-83816094D01*
X151619413Y-83754938D01*
X151619403Y-83754936D01*
X151384001Y-83734341D01*
X151383999Y-83734341D01*
X151148596Y-83754936D01*
X151148586Y-83754938D01*
X150920344Y-83816094D01*
X150920335Y-83816098D01*
X150706171Y-83915964D01*
X150706169Y-83915965D01*
X150512597Y-84051505D01*
X150345505Y-84218597D01*
X150215575Y-84404158D01*
X150160998Y-84447783D01*
X150091500Y-84454977D01*
X150029145Y-84423454D01*
X150012425Y-84404158D01*
X149882494Y-84218597D01*
X149715402Y-84051506D01*
X149715395Y-84051501D01*
X149521834Y-83915967D01*
X149521830Y-83915965D01*
X149521828Y-83915964D01*
X149307663Y-83816097D01*
X149307659Y-83816096D01*
X149307655Y-83816094D01*
X149079413Y-83754938D01*
X149079403Y-83754936D01*
X148844001Y-83734341D01*
X148843999Y-83734341D01*
X148608596Y-83754936D01*
X148608586Y-83754938D01*
X148380344Y-83816094D01*
X148380335Y-83816098D01*
X148166171Y-83915964D01*
X148166169Y-83915965D01*
X147972600Y-84051503D01*
X147850673Y-84173430D01*
X147789350Y-84206914D01*
X147719658Y-84201930D01*
X147663725Y-84160058D01*
X147646810Y-84129081D01*
X147597797Y-83997671D01*
X147597793Y-83997664D01*
X147511547Y-83882455D01*
X147511544Y-83882452D01*
X147396335Y-83796206D01*
X147396328Y-83796202D01*
X147261482Y-83745908D01*
X147261483Y-83745908D01*
X147201883Y-83739501D01*
X147201881Y-83739500D01*
X147201873Y-83739500D01*
X147201864Y-83739500D01*
X145406129Y-83739500D01*
X145406123Y-83739501D01*
X145346516Y-83745908D01*
X145211671Y-83796202D01*
X145211664Y-83796206D01*
X145096455Y-83882452D01*
X145096452Y-83882455D01*
X145010206Y-83997664D01*
X145010202Y-83997671D01*
X144959908Y-84132517D01*
X144953501Y-84192116D01*
X144953500Y-84192135D01*
X144953500Y-85987870D01*
X144953501Y-85987876D01*
X144959908Y-86047483D01*
X145010202Y-86182328D01*
X145010204Y-86182332D01*
X145019379Y-86194587D01*
X145043798Y-86260051D01*
X145028948Y-86328324D01*
X144979544Y-86377731D01*
X144920114Y-86392900D01*
X143704681Y-86392900D01*
X143637642Y-86373215D01*
X143617000Y-86356581D01*
X142803835Y-85543416D01*
X142770350Y-85482093D01*
X142771741Y-85423641D01*
X142798063Y-85325408D01*
X142818659Y-85090000D01*
X142798063Y-84854592D01*
X142736903Y-84626337D01*
X142637035Y-84412171D01*
X142631425Y-84404158D01*
X142501494Y-84218597D01*
X142334402Y-84051506D01*
X142334395Y-84051501D01*
X142140834Y-83915967D01*
X142140830Y-83915965D01*
X142140828Y-83915964D01*
X141926663Y-83816097D01*
X141926659Y-83816096D01*
X141926655Y-83816094D01*
X141698413Y-83754938D01*
X141698403Y-83754936D01*
X141463001Y-83734341D01*
X141462999Y-83734341D01*
X141227596Y-83754936D01*
X141227586Y-83754938D01*
X140999344Y-83816094D01*
X140999335Y-83816098D01*
X140785171Y-83915964D01*
X140785169Y-83915965D01*
X140591597Y-84051505D01*
X140424505Y-84218597D01*
X140294575Y-84404158D01*
X140239998Y-84447783D01*
X140170500Y-84454977D01*
X140108145Y-84423454D01*
X140091425Y-84404158D01*
X139961494Y-84218597D01*
X139794402Y-84051506D01*
X139794395Y-84051501D01*
X139600834Y-83915967D01*
X139600830Y-83915965D01*
X139600828Y-83915964D01*
X139386663Y-83816097D01*
X139386659Y-83816096D01*
X139386655Y-83816094D01*
X139158413Y-83754938D01*
X139158403Y-83754936D01*
X138923001Y-83734341D01*
X138922999Y-83734341D01*
X138687596Y-83754936D01*
X138687586Y-83754938D01*
X138459344Y-83816094D01*
X138459335Y-83816098D01*
X138245171Y-83915964D01*
X138245169Y-83915965D01*
X138051600Y-84051503D01*
X137929673Y-84173430D01*
X137868350Y-84206914D01*
X137798658Y-84201930D01*
X137742725Y-84160058D01*
X137725810Y-84129081D01*
X137676797Y-83997671D01*
X137676793Y-83997664D01*
X137590547Y-83882455D01*
X137590544Y-83882452D01*
X137475335Y-83796206D01*
X137475328Y-83796202D01*
X137340482Y-83745908D01*
X137340483Y-83745908D01*
X137280883Y-83739501D01*
X137280881Y-83739500D01*
X137280873Y-83739500D01*
X137280864Y-83739500D01*
X135485129Y-83739500D01*
X135485123Y-83739501D01*
X135425516Y-83745908D01*
X135290671Y-83796202D01*
X135290664Y-83796206D01*
X135175455Y-83882452D01*
X135175452Y-83882455D01*
X135089206Y-83997664D01*
X135089202Y-83997671D01*
X135038908Y-84132517D01*
X135032501Y-84192116D01*
X135032500Y-84192135D01*
X133723500Y-84192135D01*
X133723500Y-81752100D01*
X133743185Y-81685061D01*
X133795989Y-81639306D01*
X133847500Y-81628100D01*
X203261300Y-81628100D01*
X203328339Y-81647785D01*
G37*
%TD.AperFunction*%
%TD*%
M02*
