%TF.GenerationSoftware,KiCad,Pcbnew,8.0.8*%
%TF.CreationDate,2025-02-27T22:48:28-08:00*%
%TF.ProjectId,SmartLitterBoxSensor,536d6172-744c-4697-9474-6572426f7853,rev?*%
%TF.SameCoordinates,Original*%
%TF.FileFunction,Copper,L1,Top*%
%TF.FilePolarity,Positive*%
%FSLAX46Y46*%
G04 Gerber Fmt 4.6, Leading zero omitted, Abs format (unit mm)*
G04 Created by KiCad (PCBNEW 8.0.8) date 2025-02-27 22:48:28*
%MOMM*%
%LPD*%
G01*
G04 APERTURE LIST*
G04 Aperture macros list*
%AMRoundRect*
0 Rectangle with rounded corners*
0 $1 Rounding radius*
0 $2 $3 $4 $5 $6 $7 $8 $9 X,Y pos of 4 corners*
0 Add a 4 corners polygon primitive as box body*
4,1,4,$2,$3,$4,$5,$6,$7,$8,$9,$2,$3,0*
0 Add four circle primitives for the rounded corners*
1,1,$1+$1,$2,$3*
1,1,$1+$1,$4,$5*
1,1,$1+$1,$6,$7*
1,1,$1+$1,$8,$9*
0 Add four rect primitives between the rounded corners*
20,1,$1+$1,$2,$3,$4,$5,0*
20,1,$1+$1,$4,$5,$6,$7,0*
20,1,$1+$1,$6,$7,$8,$9,0*
20,1,$1+$1,$8,$9,$2,$3,0*%
G04 Aperture macros list end*
%TA.AperFunction,SMDPad,CuDef*%
%ADD10RoundRect,0.250000X1.000000X-0.375000X1.000000X0.375000X-1.000000X0.375000X-1.000000X-0.375000X0*%
%TD*%
%TA.AperFunction,SMDPad,CuDef*%
%ADD11RoundRect,0.250000X-0.650000X0.325000X-0.650000X-0.325000X0.650000X-0.325000X0.650000X0.325000X0*%
%TD*%
%TA.AperFunction,ComponentPad*%
%ADD12R,1.358000X1.358000*%
%TD*%
%TA.AperFunction,ComponentPad*%
%ADD13C,1.358000*%
%TD*%
%TA.AperFunction,ComponentPad*%
%ADD14R,1.700000X1.700000*%
%TD*%
%TA.AperFunction,ComponentPad*%
%ADD15O,1.700000X1.700000*%
%TD*%
%TA.AperFunction,ComponentPad*%
%ADD16C,2.000000*%
%TD*%
%TA.AperFunction,ComponentPad*%
%ADD17RoundRect,0.250000X0.625000X-0.350000X0.625000X0.350000X-0.625000X0.350000X-0.625000X-0.350000X0*%
%TD*%
%TA.AperFunction,ComponentPad*%
%ADD18O,1.750000X1.200000*%
%TD*%
%TA.AperFunction,SMDPad,CuDef*%
%ADD19RoundRect,0.250000X0.625000X-0.312500X0.625000X0.312500X-0.625000X0.312500X-0.625000X-0.312500X0*%
%TD*%
%TA.AperFunction,Conductor*%
%ADD20C,0.508000*%
%TD*%
%TA.AperFunction,Conductor*%
%ADD21C,0.254000*%
%TD*%
G04 APERTURE END LIST*
D10*
%TO.P,SW1,1,A*%
%TO.N,+BAT*%
X199434000Y-110450000D03*
%TO.P,SW1,2,B*%
%TO.N,Net-(BT1-+)*%
X199434000Y-107950000D03*
%TO.P,SW1,3,C*%
%TO.N,unconnected-(SW1-C-Pad3)*%
X199434000Y-105450000D03*
%TD*%
D11*
%TO.P,C2,1*%
%TO.N,+BAT*%
X192786000Y-113841000D03*
%TO.P,C2,2*%
%TO.N,GND*%
X192786000Y-116791000D03*
%TD*%
D12*
%TO.P,U2,1,D0*%
%TO.N,/3V3*%
X173034000Y-92392000D03*
D13*
%TO.P,U2,2,D1*%
%TO.N,unconnected-(U2-D1-Pad2)*%
X173034000Y-94932000D03*
%TO.P,U2,3,D2*%
%TO.N,unconnected-(U2-D2-Pad3)*%
X173034000Y-97472000D03*
%TO.P,U2,4,D3*%
%TO.N,unconnected-(U2-D3-Pad4)*%
X173034000Y-100012000D03*
%TO.P,U2,5,D4*%
%TO.N,/DT*%
X173034000Y-102552000D03*
%TO.P,U2,6,D5*%
%TO.N,/SCK*%
X173034000Y-105092000D03*
%TO.P,U2,7,D6*%
%TO.N,unconnected-(U2-D6-Pad7)*%
X173034000Y-107632000D03*
%TO.P,U2,8,D7*%
%TO.N,unconnected-(U2-D7-Pad8)*%
X188274000Y-107632000D03*
%TO.P,U2,9,D8*%
%TO.N,/3V3*%
X188274000Y-105092000D03*
%TO.P,U2,10,D9*%
%TO.N,Net-(U2-D9)*%
X188274000Y-102552000D03*
%TO.P,U2,11,D10*%
%TO.N,unconnected-(U2-D10-Pad11)*%
X188274000Y-100012000D03*
%TO.P,U2,12,3V3*%
%TO.N,/3V3*%
X188274000Y-97472000D03*
%TO.P,U2,13,GND*%
%TO.N,GND*%
X188274000Y-94932000D03*
%TO.P,U2,14,5V*%
%TO.N,/5V*%
X188274000Y-92392000D03*
%TD*%
D14*
%TO.P,J4,1,VCC*%
%TO.N,/E+*%
X146304000Y-85090000D03*
D15*
%TO.P,J4,2,GND*%
%TO.N,/E-*%
X148844000Y-85090000D03*
%TO.P,J4,3,Signal*%
%TO.N,/A-*%
X151384000Y-85090000D03*
%TD*%
D16*
%TO.P,SW2,1,1*%
%TO.N,Net-(U2-D9)*%
X179630000Y-114590000D03*
X186130000Y-114590000D03*
%TO.P,SW2,2,2*%
%TO.N,GND*%
X179630000Y-119090000D03*
X186130000Y-119090000D03*
%TD*%
D14*
%TO.P,J1,1,VCC*%
%TO.N,/E+*%
X156180000Y-85090000D03*
D15*
%TO.P,J1,2,GND*%
%TO.N,/E-*%
X158720000Y-85090000D03*
%TO.P,J1,3,Signal*%
%TO.N,/A+*%
X161260000Y-85090000D03*
%TD*%
D14*
%TO.P,J3,1,VCC*%
%TO.N,/E+*%
X136383000Y-85090000D03*
D15*
%TO.P,J3,2,GND*%
%TO.N,/E-*%
X138923000Y-85090000D03*
%TO.P,J3,3,Signal*%
%TO.N,/A-*%
X141463000Y-85090000D03*
%TD*%
D17*
%TO.P,BT1,1,+*%
%TO.N,Net-(BT1-+)*%
X200110000Y-98028000D03*
D18*
%TO.P,BT1,2,-*%
%TO.N,GND*%
X200110000Y-96028000D03*
%TD*%
D14*
%TO.P,J5,1,Pin_1*%
%TO.N,+BAT*%
X192786000Y-110495000D03*
D15*
%TO.P,J5,2,Pin_2*%
%TO.N,GND*%
X192786000Y-107955000D03*
%TD*%
D19*
%TO.P,R2,1*%
%TO.N,/3V3*%
X189391000Y-116745500D03*
%TO.P,R2,2*%
%TO.N,Net-(U2-D9)*%
X189391000Y-113820500D03*
%TD*%
D14*
%TO.P,J2,1,VCC*%
%TO.N,/E+*%
X166340000Y-85090000D03*
D15*
%TO.P,J2,2,GND*%
%TO.N,/E-*%
X168880000Y-85090000D03*
%TO.P,J2,3,Signal*%
%TO.N,/A+*%
X171420000Y-85090000D03*
%TD*%
D14*
%TO.P,U1,1,E+*%
%TO.N,/E+*%
X140546000Y-92964000D03*
D15*
%TO.P,U1,2,E-*%
%TO.N,/E-*%
X140546000Y-95504000D03*
%TO.P,U1,3,A-*%
%TO.N,/A-*%
X140546000Y-98044000D03*
%TO.P,U1,4,A+*%
%TO.N,/A+*%
X140546000Y-100584000D03*
%TO.P,U1,5,B-*%
%TO.N,unconnected-(U1-B--Pad5)*%
X140546000Y-103124000D03*
%TO.P,U1,6,B+*%
%TO.N,unconnected-(U1-B+-Pad6)*%
X140546000Y-105664000D03*
%TO.P,U1,7,VCC*%
%TO.N,/5V*%
X166286000Y-103124000D03*
%TO.P,U1,8,SCK*%
%TO.N,/SCK*%
X166286000Y-100584000D03*
%TO.P,U1,9,DT*%
%TO.N,/DT*%
X166286000Y-98044000D03*
D14*
%TO.P,U1,10,GND*%
%TO.N,GND*%
X166286000Y-95504000D03*
%TD*%
D11*
%TO.P,C1,1*%
%TO.N,+BAT*%
X195580000Y-113841000D03*
%TO.P,C1,2*%
%TO.N,GND*%
X195580000Y-116791000D03*
%TD*%
D20*
%TO.N,Net-(BT1-+)*%
X195834000Y-102108000D02*
X195834000Y-107188000D01*
X200110000Y-98028000D02*
X199914000Y-98028000D01*
X199914000Y-98028000D02*
X195834000Y-102108000D01*
X195834000Y-107188000D02*
X196596000Y-107950000D01*
X196596000Y-107950000D02*
X199434000Y-107950000D01*
%TO.N,+BAT*%
X199434000Y-110450000D02*
X199434000Y-112732000D01*
X198325000Y-113841000D02*
X195580000Y-113841000D01*
X195580000Y-113841000D02*
X192786000Y-113841000D01*
X192786000Y-110495000D02*
X192786000Y-113841000D01*
X199434000Y-112732000D02*
X198325000Y-113841000D01*
%TO.N,/E+*%
X148386800Y-83007200D02*
X154097200Y-83007200D01*
X136383000Y-85090000D02*
X136383000Y-92085400D01*
X164231800Y-82981800D02*
X166340000Y-85090000D01*
X158288200Y-82981800D02*
X164231800Y-82981800D01*
X137261600Y-92964000D02*
X140546000Y-92964000D01*
X146304000Y-85090000D02*
X148386800Y-83007200D01*
X136383000Y-85090000D02*
X136383000Y-83758800D01*
X136383000Y-83758800D02*
X137160000Y-82981800D01*
X136383000Y-92085400D02*
X137261600Y-92964000D01*
X137160000Y-82981800D02*
X144195800Y-82981800D01*
X154097200Y-83007200D02*
X156180000Y-85090000D01*
X156180000Y-85090000D02*
X158288200Y-82981800D01*
X144195800Y-82981800D02*
X146304000Y-85090000D01*
%TO.N,/E-*%
X146151600Y-87782400D02*
X148844000Y-85090000D01*
X138923000Y-85090000D02*
X141615400Y-87782400D01*
X161387000Y-87757000D02*
X166213000Y-87757000D01*
X148844000Y-94081600D02*
X148844000Y-85090000D01*
X158720000Y-85090000D02*
X161387000Y-87757000D01*
X147421600Y-95504000D02*
X148844000Y-94081600D01*
X151511000Y-87757000D02*
X156053000Y-87757000D01*
X140546000Y-95504000D02*
X147421600Y-95504000D01*
X166213000Y-87757000D02*
X168880000Y-85090000D01*
X148844000Y-85090000D02*
X151511000Y-87757000D01*
X156053000Y-87757000D02*
X158720000Y-85090000D01*
X141615400Y-87782400D02*
X146151600Y-87782400D01*
D21*
%TO.N,Net-(U2-D9)*%
X189074500Y-113820500D02*
X188290200Y-114604800D01*
X189391000Y-113820500D02*
X189055300Y-113820500D01*
X187008000Y-102552000D02*
X188274000Y-102552000D01*
X189055300Y-113820500D02*
X185394600Y-110159800D01*
X189391000Y-113820500D02*
X189074500Y-113820500D01*
X185394600Y-104165400D02*
X187008000Y-102552000D01*
X185394600Y-110159800D02*
X185394600Y-104165400D01*
X188290200Y-114604800D02*
X186144800Y-114604800D01*
X179630000Y-114590000D02*
X186130000Y-114590000D01*
X186144800Y-114604800D02*
X186130000Y-114590000D01*
%TO.N,/3V3*%
X188274000Y-105092000D02*
X188302400Y-105092000D01*
X188274000Y-97472000D02*
X190068200Y-99266200D01*
X178091600Y-92392000D02*
X183171600Y-97472000D01*
X183171600Y-97472000D02*
X188274000Y-97472000D01*
X191058800Y-115392200D02*
X189705500Y-116745500D01*
X188302400Y-105092000D02*
X191058800Y-107848400D01*
X173034000Y-92392000D02*
X178091600Y-92392000D01*
X190068200Y-99266200D02*
X190068200Y-103297800D01*
X191058800Y-107848400D02*
X191058800Y-115392200D01*
X190068200Y-103297800D02*
X188274000Y-105092000D01*
X189705500Y-116745500D02*
X189391000Y-116745500D01*
D20*
%TO.N,/5V*%
X166286000Y-103124000D02*
X164490400Y-103124000D01*
X162915600Y-93040200D02*
X165836600Y-90119200D01*
X165836600Y-90119200D02*
X186001200Y-90119200D01*
X162915600Y-101549200D02*
X162915600Y-93040200D01*
X186001200Y-90119200D02*
X188274000Y-92392000D01*
X164490400Y-103124000D02*
X162915600Y-101549200D01*
D21*
%TO.N,/SCK*%
X168526000Y-100584000D02*
X173034000Y-105092000D01*
X166286000Y-100584000D02*
X168526000Y-100584000D01*
%TO.N,/DT*%
X166286000Y-98044000D02*
X168526000Y-98044000D01*
X168526000Y-98044000D02*
X173034000Y-102552000D01*
%TD*%
%TA.AperFunction,Conductor*%
%TO.N,GND*%
G36*
X185704352Y-90893385D02*
G01*
X185724994Y-90910019D01*
X187058252Y-92243277D01*
X187091737Y-92304600D01*
X187094042Y-92342397D01*
X187089447Y-92391996D01*
X187089447Y-92392000D01*
X187109615Y-92609660D01*
X187109616Y-92609662D01*
X187169435Y-92819905D01*
X187169441Y-92819920D01*
X187266869Y-93015581D01*
X187266874Y-93015589D01*
X187389889Y-93178486D01*
X187398605Y-93190028D01*
X187560147Y-93337294D01*
X187560149Y-93337295D01*
X187560150Y-93337296D01*
X187745995Y-93452366D01*
X187746001Y-93452369D01*
X187907147Y-93514797D01*
X187949832Y-93531333D01*
X187998152Y-93540365D01*
X188060430Y-93572031D01*
X188095704Y-93632343D01*
X188092771Y-93702151D01*
X188052562Y-93759292D01*
X187998152Y-93784141D01*
X187949978Y-93793147D01*
X187949970Y-93793149D01*
X187746226Y-93872079D01*
X187635925Y-93940373D01*
X188205828Y-94510274D01*
X188109956Y-94535963D01*
X188013044Y-94591916D01*
X187933916Y-94671044D01*
X187877963Y-94767956D01*
X187852274Y-94863827D01*
X187280131Y-94291684D01*
X187267297Y-94308681D01*
X187169906Y-94504267D01*
X187110109Y-94714435D01*
X187089949Y-94931999D01*
X187089949Y-94932000D01*
X187110109Y-95149564D01*
X187169906Y-95359732D01*
X187267300Y-95555323D01*
X187280130Y-95572314D01*
X187280131Y-95572315D01*
X187852274Y-95000171D01*
X187877963Y-95096044D01*
X187933916Y-95192956D01*
X188013044Y-95272084D01*
X188109956Y-95328037D01*
X188205827Y-95353725D01*
X187635925Y-95923625D01*
X187746225Y-95991919D01*
X187949971Y-96070850D01*
X187998150Y-96079857D01*
X188060431Y-96111525D01*
X188095704Y-96171838D01*
X188092770Y-96241646D01*
X188052561Y-96298786D01*
X187998151Y-96323634D01*
X187949833Y-96332666D01*
X187746001Y-96411630D01*
X187745995Y-96411633D01*
X187560150Y-96526703D01*
X187398604Y-96673972D01*
X187307037Y-96795227D01*
X187250928Y-96836863D01*
X187208083Y-96844500D01*
X183482881Y-96844500D01*
X183415842Y-96824815D01*
X183395200Y-96808181D01*
X178491611Y-91904591D01*
X178491607Y-91904588D01*
X178388839Y-91835920D01*
X178388826Y-91835913D01*
X178355385Y-91822062D01*
X178274635Y-91788614D01*
X178274627Y-91788612D01*
X178153407Y-91764500D01*
X178153403Y-91764500D01*
X174335566Y-91764500D01*
X174268527Y-91744815D01*
X174222772Y-91692011D01*
X174212276Y-91653753D01*
X174207091Y-91605516D01*
X174156797Y-91470671D01*
X174156793Y-91470664D01*
X174070547Y-91355455D01*
X174070544Y-91355452D01*
X173955335Y-91269206D01*
X173955328Y-91269202D01*
X173820482Y-91218908D01*
X173820483Y-91218908D01*
X173760883Y-91212501D01*
X173760881Y-91212500D01*
X173760873Y-91212500D01*
X173760864Y-91212500D01*
X172307129Y-91212500D01*
X172307123Y-91212501D01*
X172247516Y-91218908D01*
X172112671Y-91269202D01*
X172112664Y-91269206D01*
X171997455Y-91355452D01*
X171997452Y-91355455D01*
X171911206Y-91470664D01*
X171911202Y-91470671D01*
X171860908Y-91605517D01*
X171854501Y-91665116D01*
X171854500Y-91665135D01*
X171854500Y-93118870D01*
X171854501Y-93118876D01*
X171860908Y-93178483D01*
X171911202Y-93313328D01*
X171911206Y-93313335D01*
X171997452Y-93428544D01*
X171997455Y-93428547D01*
X172112664Y-93514793D01*
X172112671Y-93514797D01*
X172247517Y-93565091D01*
X172247516Y-93565091D01*
X172248642Y-93565212D01*
X172307127Y-93571500D01*
X172617389Y-93571499D01*
X172684426Y-93591183D01*
X172730181Y-93643987D01*
X172740125Y-93713146D01*
X172711100Y-93776701D01*
X172662181Y-93811125D01*
X172506010Y-93871626D01*
X172505995Y-93871633D01*
X172320150Y-93986703D01*
X172158604Y-94133972D01*
X172026874Y-94308410D01*
X172026869Y-94308418D01*
X171929441Y-94504079D01*
X171929435Y-94504094D01*
X171869616Y-94714337D01*
X171869615Y-94714339D01*
X171849447Y-94931999D01*
X171849447Y-94932000D01*
X171869615Y-95149660D01*
X171869616Y-95149662D01*
X171929435Y-95359905D01*
X171929441Y-95359920D01*
X172026869Y-95555581D01*
X172026874Y-95555589D01*
X172100436Y-95653000D01*
X172158605Y-95730028D01*
X172320147Y-95877294D01*
X172320149Y-95877295D01*
X172320150Y-95877296D01*
X172505995Y-95992366D01*
X172506001Y-95992369D01*
X172573943Y-96018689D01*
X172709832Y-96071333D01*
X172756795Y-96080112D01*
X172819073Y-96111780D01*
X172854346Y-96172092D01*
X172851412Y-96241900D01*
X172811203Y-96299040D01*
X172756795Y-96323887D01*
X172709832Y-96332667D01*
X172709830Y-96332667D01*
X172709828Y-96332668D01*
X172506001Y-96411630D01*
X172505995Y-96411633D01*
X172320150Y-96526703D01*
X172158604Y-96673972D01*
X172026874Y-96848410D01*
X172026869Y-96848418D01*
X171929441Y-97044079D01*
X171929435Y-97044094D01*
X171869616Y-97254337D01*
X171869615Y-97254339D01*
X171849447Y-97471999D01*
X171849447Y-97472000D01*
X171869615Y-97689660D01*
X171869616Y-97689662D01*
X171929435Y-97899905D01*
X171929441Y-97899920D01*
X172026869Y-98095581D01*
X172026874Y-98095589D01*
X172088197Y-98176793D01*
X172158605Y-98270028D01*
X172320147Y-98417294D01*
X172320149Y-98417295D01*
X172320150Y-98417296D01*
X172505995Y-98532366D01*
X172506001Y-98532369D01*
X172573943Y-98558689D01*
X172709832Y-98611333D01*
X172756795Y-98620112D01*
X172819073Y-98651780D01*
X172854346Y-98712092D01*
X172851412Y-98781900D01*
X172811203Y-98839040D01*
X172756795Y-98863887D01*
X172709832Y-98872667D01*
X172709830Y-98872667D01*
X172709828Y-98872668D01*
X172506001Y-98951630D01*
X172505995Y-98951633D01*
X172320150Y-99066703D01*
X172158604Y-99213972D01*
X172026874Y-99388410D01*
X172026869Y-99388418D01*
X171929441Y-99584079D01*
X171929435Y-99584094D01*
X171869616Y-99794337D01*
X171869615Y-99794339D01*
X171849447Y-100011999D01*
X171849447Y-100012000D01*
X171865557Y-100185863D01*
X171852142Y-100254433D01*
X171803785Y-100304865D01*
X171735839Y-100321147D01*
X171669876Y-100298109D01*
X171654405Y-100284985D01*
X168926010Y-97556590D01*
X168879034Y-97525202D01*
X168823238Y-97487920D01*
X168823226Y-97487913D01*
X168779739Y-97469901D01*
X168779738Y-97469900D01*
X168779738Y-97469901D01*
X168709035Y-97440614D01*
X168709032Y-97440613D01*
X168709028Y-97440612D01*
X168587807Y-97416500D01*
X168587803Y-97416500D01*
X167559826Y-97416500D01*
X167492787Y-97396815D01*
X167458251Y-97363623D01*
X167324496Y-97172600D01*
X167324493Y-97172597D01*
X167202179Y-97050283D01*
X167168696Y-96988963D01*
X167173680Y-96919271D01*
X167215551Y-96863337D01*
X167246529Y-96846422D01*
X167378086Y-96797354D01*
X167378093Y-96797350D01*
X167493187Y-96711190D01*
X167493190Y-96711187D01*
X167579350Y-96596093D01*
X167579354Y-96596086D01*
X167629596Y-96461379D01*
X167629598Y-96461372D01*
X167635999Y-96401844D01*
X167636000Y-96401827D01*
X167636000Y-95754000D01*
X166719012Y-95754000D01*
X166751925Y-95696993D01*
X166786000Y-95569826D01*
X166786000Y-95438174D01*
X166751925Y-95311007D01*
X166719012Y-95254000D01*
X167636000Y-95254000D01*
X167636000Y-94606172D01*
X167635999Y-94606155D01*
X167629598Y-94546627D01*
X167629596Y-94546620D01*
X167579354Y-94411913D01*
X167579350Y-94411906D01*
X167493190Y-94296812D01*
X167493187Y-94296809D01*
X167378093Y-94210649D01*
X167378086Y-94210645D01*
X167243379Y-94160403D01*
X167243372Y-94160401D01*
X167183844Y-94154000D01*
X166536000Y-94154000D01*
X166536000Y-95070988D01*
X166478993Y-95038075D01*
X166351826Y-95004000D01*
X166220174Y-95004000D01*
X166093007Y-95038075D01*
X166036000Y-95070988D01*
X166036000Y-94154000D01*
X165388155Y-94154000D01*
X165328627Y-94160401D01*
X165328620Y-94160403D01*
X165193913Y-94210645D01*
X165193906Y-94210649D01*
X165078812Y-94296809D01*
X165078809Y-94296812D01*
X164992649Y-94411906D01*
X164992645Y-94411913D01*
X164942403Y-94546620D01*
X164942401Y-94546627D01*
X164936000Y-94606155D01*
X164936000Y-95254000D01*
X165852988Y-95254000D01*
X165820075Y-95311007D01*
X165786000Y-95438174D01*
X165786000Y-95569826D01*
X165820075Y-95696993D01*
X165852988Y-95754000D01*
X164936000Y-95754000D01*
X164936000Y-96401844D01*
X164942401Y-96461372D01*
X164942403Y-96461379D01*
X164992645Y-96596086D01*
X164992649Y-96596093D01*
X165078809Y-96711187D01*
X165078812Y-96711190D01*
X165193906Y-96797350D01*
X165193913Y-96797354D01*
X165325470Y-96846421D01*
X165381403Y-96888292D01*
X165405821Y-96953756D01*
X165390970Y-97022029D01*
X165369819Y-97050284D01*
X165247503Y-97172600D01*
X165111965Y-97366169D01*
X165111964Y-97366171D01*
X165012098Y-97580335D01*
X165012094Y-97580344D01*
X164950938Y-97808586D01*
X164950936Y-97808596D01*
X164930341Y-98043999D01*
X164930341Y-98044000D01*
X164950936Y-98279403D01*
X164950938Y-98279413D01*
X165012094Y-98507655D01*
X165012096Y-98507659D01*
X165012097Y-98507663D01*
X165079300Y-98651780D01*
X165111965Y-98721830D01*
X165111967Y-98721834D01*
X165247501Y-98915395D01*
X165247506Y-98915402D01*
X165414597Y-99082493D01*
X165414603Y-99082498D01*
X165600158Y-99212425D01*
X165643783Y-99267002D01*
X165650977Y-99336500D01*
X165619454Y-99398855D01*
X165600158Y-99415575D01*
X165414597Y-99545505D01*
X165247505Y-99712597D01*
X165111965Y-99906169D01*
X165111964Y-99906171D01*
X165012098Y-100120335D01*
X165012094Y-100120344D01*
X164950938Y-100348586D01*
X164950936Y-100348596D01*
X164930341Y-100583999D01*
X164930341Y-100584000D01*
X164950936Y-100819403D01*
X164950938Y-100819413D01*
X165012094Y-101047655D01*
X165012096Y-101047659D01*
X165012097Y-101047663D01*
X165092810Y-101220752D01*
X165111965Y-101261830D01*
X165111967Y-101261834D01*
X165247501Y-101455395D01*
X165247506Y-101455402D01*
X165414597Y-101622493D01*
X165414603Y-101622498D01*
X165600158Y-101752425D01*
X165643783Y-101807002D01*
X165650977Y-101876500D01*
X165619454Y-101938855D01*
X165600158Y-101955575D01*
X165414597Y-102085505D01*
X165247506Y-102252597D01*
X165247505Y-102252599D01*
X165202674Y-102316624D01*
X165148096Y-102360249D01*
X165101099Y-102369500D01*
X164854286Y-102369500D01*
X164787247Y-102349815D01*
X164766605Y-102333181D01*
X163706419Y-101272994D01*
X163672934Y-101211671D01*
X163670100Y-101185313D01*
X163670100Y-93404086D01*
X163689785Y-93337047D01*
X163706419Y-93316405D01*
X166112805Y-90910019D01*
X166174128Y-90876534D01*
X166200486Y-90873700D01*
X185637313Y-90873700D01*
X185704352Y-90893385D01*
G37*
%TD.AperFunction*%
%TA.AperFunction,Conductor*%
G36*
X203328339Y-81647785D02*
G01*
X203374094Y-81700589D01*
X203385300Y-81752100D01*
X203385300Y-120508100D01*
X203365615Y-120575139D01*
X203312811Y-120620894D01*
X203261300Y-120632100D01*
X186921724Y-120632100D01*
X186854685Y-120612415D01*
X186808930Y-120559611D01*
X186798986Y-120490453D01*
X186828011Y-120426897D01*
X186862707Y-120399045D01*
X186953230Y-120350056D01*
X186953236Y-120350051D01*
X187000055Y-120313610D01*
X187000056Y-120313609D01*
X186300233Y-119613787D01*
X186342292Y-119602518D01*
X186467708Y-119530110D01*
X186570110Y-119427708D01*
X186642518Y-119302292D01*
X186653787Y-119260234D01*
X187353435Y-119959882D01*
X187453733Y-119806364D01*
X187553587Y-119578717D01*
X187614612Y-119337738D01*
X187614614Y-119337729D01*
X187635141Y-119090005D01*
X187635141Y-119089994D01*
X187614614Y-118842270D01*
X187614612Y-118842261D01*
X187553587Y-118601282D01*
X187453732Y-118373632D01*
X187353435Y-118220116D01*
X186653787Y-118919764D01*
X186642518Y-118877708D01*
X186570110Y-118752292D01*
X186467708Y-118649890D01*
X186342292Y-118577482D01*
X186300233Y-118566212D01*
X187000055Y-117866389D01*
X187000055Y-117866388D01*
X186953236Y-117829947D01*
X186953231Y-117829944D01*
X186734614Y-117711635D01*
X186734603Y-117711630D01*
X186499493Y-117630916D01*
X186254293Y-117590000D01*
X186005707Y-117590000D01*
X185760506Y-117630916D01*
X185525396Y-117711630D01*
X185525385Y-117711635D01*
X185306770Y-117829943D01*
X185259943Y-117866389D01*
X185959766Y-118566212D01*
X185917708Y-118577482D01*
X185792292Y-118649890D01*
X185689890Y-118752292D01*
X185617482Y-118877708D01*
X185606212Y-118919765D01*
X184906563Y-118220117D01*
X184806267Y-118373633D01*
X184806265Y-118373637D01*
X184706412Y-118601282D01*
X184645387Y-118842261D01*
X184645385Y-118842270D01*
X184624859Y-119089994D01*
X184624859Y-119090005D01*
X184645385Y-119337729D01*
X184645387Y-119337738D01*
X184706412Y-119578717D01*
X184806267Y-119806367D01*
X184906562Y-119959881D01*
X185606212Y-119260233D01*
X185617482Y-119302292D01*
X185689890Y-119427708D01*
X185792292Y-119530110D01*
X185917708Y-119602518D01*
X185959766Y-119613787D01*
X185259943Y-120313609D01*
X185306768Y-120350055D01*
X185306771Y-120350057D01*
X185397293Y-120399045D01*
X185446884Y-120448265D01*
X185461992Y-120516481D01*
X185437822Y-120582037D01*
X185382046Y-120624118D01*
X185338276Y-120632100D01*
X180421724Y-120632100D01*
X180354685Y-120612415D01*
X180308930Y-120559611D01*
X180298986Y-120490453D01*
X180328011Y-120426897D01*
X180362707Y-120399045D01*
X180453230Y-120350056D01*
X180453236Y-120350051D01*
X180500055Y-120313610D01*
X180500056Y-120313609D01*
X179800233Y-119613787D01*
X179842292Y-119602518D01*
X179967708Y-119530110D01*
X180070110Y-119427708D01*
X180142518Y-119302292D01*
X180153787Y-119260234D01*
X180853435Y-119959882D01*
X180953733Y-119806364D01*
X181053587Y-119578717D01*
X181114612Y-119337738D01*
X181114614Y-119337729D01*
X181135141Y-119090005D01*
X181135141Y-119089994D01*
X181114614Y-118842270D01*
X181114612Y-118842261D01*
X181053587Y-118601282D01*
X180953732Y-118373632D01*
X180853435Y-118220116D01*
X180153787Y-118919765D01*
X180142518Y-118877708D01*
X180070110Y-118752292D01*
X179967708Y-118649890D01*
X179842292Y-118577482D01*
X179800233Y-118566212D01*
X180500055Y-117866389D01*
X180500055Y-117866388D01*
X180453236Y-117829947D01*
X180453231Y-117829944D01*
X180234614Y-117711635D01*
X180234603Y-117711630D01*
X179999493Y-117630916D01*
X179754293Y-117590000D01*
X179505707Y-117590000D01*
X179260506Y-117630916D01*
X179025396Y-117711630D01*
X179025385Y-117711635D01*
X178806770Y-117829943D01*
X178759943Y-117866389D01*
X179459766Y-118566212D01*
X179417708Y-118577482D01*
X179292292Y-118649890D01*
X179189890Y-118752292D01*
X179117482Y-118877708D01*
X179106212Y-118919766D01*
X178406563Y-118220117D01*
X178306267Y-118373633D01*
X178306265Y-118373637D01*
X178206412Y-118601282D01*
X178145387Y-118842261D01*
X178145385Y-118842270D01*
X178124859Y-119089994D01*
X178124859Y-119090005D01*
X178145385Y-119337729D01*
X178145387Y-119337738D01*
X178206412Y-119578717D01*
X178306267Y-119806367D01*
X178406562Y-119959881D01*
X179106211Y-119260231D01*
X179117482Y-119302292D01*
X179189890Y-119427708D01*
X179292292Y-119530110D01*
X179417708Y-119602518D01*
X179459766Y-119613787D01*
X178759943Y-120313609D01*
X178806768Y-120350055D01*
X178806771Y-120350057D01*
X178897293Y-120399045D01*
X178946884Y-120448265D01*
X178961992Y-120516481D01*
X178937822Y-120582037D01*
X178882046Y-120624118D01*
X178838276Y-120632100D01*
X133847500Y-120632100D01*
X133780461Y-120612415D01*
X133734706Y-120559611D01*
X133723500Y-120508100D01*
X133723500Y-84192135D01*
X135032500Y-84192135D01*
X135032500Y-85987870D01*
X135032501Y-85987876D01*
X135038908Y-86047483D01*
X135089202Y-86182328D01*
X135089206Y-86182335D01*
X135175452Y-86297544D01*
X135175455Y-86297547D01*
X135290664Y-86383793D01*
X135290671Y-86383797D01*
X135335618Y-86400561D01*
X135425517Y-86434091D01*
X135485127Y-86440500D01*
X135504497Y-86440499D01*
X135571535Y-86460181D01*
X135617292Y-86512983D01*
X135628500Y-86564499D01*
X135628500Y-92005952D01*
X135628499Y-92005978D01*
X135628499Y-92011088D01*
X135628499Y-92159712D01*
X135628499Y-92159714D01*
X135628498Y-92159714D01*
X135657493Y-92305473D01*
X135657496Y-92305483D01*
X135714366Y-92442781D01*
X135714372Y-92442792D01*
X135796942Y-92566368D01*
X136780631Y-93550057D01*
X136780634Y-93550059D01*
X136904211Y-93632630D01*
X136984643Y-93665945D01*
X136984644Y-93665946D01*
X137008203Y-93675704D01*
X137041520Y-93689505D01*
X137041529Y-93689506D01*
X137041530Y-93689507D01*
X137065703Y-93694315D01*
X137065710Y-93694316D01*
X137187286Y-93718501D01*
X137187288Y-93718501D01*
X137342026Y-93718501D01*
X137342046Y-93718500D01*
X139071501Y-93718500D01*
X139138540Y-93738185D01*
X139184295Y-93790989D01*
X139195501Y-93842500D01*
X139195501Y-93861876D01*
X139201908Y-93921483D01*
X139252202Y-94056328D01*
X139252206Y-94056335D01*
X139338452Y-94171544D01*
X139338455Y-94171547D01*
X139453664Y-94257793D01*
X139453671Y-94257797D01*
X139585081Y-94306810D01*
X139641015Y-94348681D01*
X139665432Y-94414145D01*
X139650580Y-94482418D01*
X139629430Y-94510673D01*
X139507503Y-94632600D01*
X139371965Y-94826169D01*
X139371964Y-94826171D01*
X139272098Y-95040335D01*
X139272094Y-95040344D01*
X139210938Y-95268586D01*
X139210936Y-95268596D01*
X139190341Y-95503999D01*
X139190341Y-95504000D01*
X139210936Y-95739403D01*
X139210938Y-95739413D01*
X139272094Y-95967655D01*
X139272096Y-95967659D01*
X139272097Y-95967663D01*
X139339181Y-96111525D01*
X139371965Y-96181830D01*
X139371967Y-96181834D01*
X139454036Y-96299040D01*
X139507504Y-96375400D01*
X139507506Y-96375402D01*
X139674597Y-96542493D01*
X139674603Y-96542498D01*
X139860158Y-96672425D01*
X139903783Y-96727002D01*
X139910977Y-96796500D01*
X139879454Y-96858855D01*
X139860158Y-96875575D01*
X139674597Y-97005505D01*
X139507505Y-97172597D01*
X139371965Y-97366169D01*
X139371964Y-97366171D01*
X139272098Y-97580335D01*
X139272094Y-97580344D01*
X139210938Y-97808586D01*
X139210936Y-97808596D01*
X139190341Y-98043999D01*
X139190341Y-98044000D01*
X139210936Y-98279403D01*
X139210938Y-98279413D01*
X139272094Y-98507655D01*
X139272096Y-98507659D01*
X139272097Y-98507663D01*
X139339300Y-98651780D01*
X139371965Y-98721830D01*
X139371967Y-98721834D01*
X139507501Y-98915395D01*
X139507506Y-98915402D01*
X139674597Y-99082493D01*
X139674603Y-99082498D01*
X139860158Y-99212425D01*
X139903783Y-99267002D01*
X139910977Y-99336500D01*
X139879454Y-99398855D01*
X139860158Y-99415575D01*
X139674597Y-99545505D01*
X139507505Y-99712597D01*
X139371965Y-99906169D01*
X139371964Y-99906171D01*
X139272098Y-100120335D01*
X139272094Y-100120344D01*
X139210938Y-100348586D01*
X139210936Y-100348596D01*
X139190341Y-100583999D01*
X139190341Y-100584000D01*
X139210936Y-100819403D01*
X139210938Y-100819413D01*
X139272094Y-101047655D01*
X139272096Y-101047659D01*
X139272097Y-101047663D01*
X139352810Y-101220752D01*
X139371965Y-101261830D01*
X139371967Y-101261834D01*
X139507501Y-101455395D01*
X139507506Y-101455402D01*
X139674597Y-101622493D01*
X139674603Y-101622498D01*
X139860158Y-101752425D01*
X139903783Y-101807002D01*
X139910977Y-101876500D01*
X139879454Y-101938855D01*
X139860158Y-101955575D01*
X139674597Y-102085505D01*
X139507505Y-102252597D01*
X139371965Y-102446169D01*
X139371964Y-102446171D01*
X139272098Y-102660335D01*
X139272094Y-102660344D01*
X139210938Y-102888586D01*
X139210936Y-102888596D01*
X139190341Y-103123999D01*
X139190341Y-103124000D01*
X139210936Y-103359403D01*
X139210938Y-103359413D01*
X139272094Y-103587655D01*
X139272096Y-103587659D01*
X139272097Y-103587663D01*
X139362765Y-103782100D01*
X139371965Y-103801830D01*
X139371967Y-103801834D01*
X139449457Y-103912500D01*
X139507504Y-103995400D01*
X139507506Y-103995402D01*
X139674597Y-104162493D01*
X139674603Y-104162498D01*
X139860158Y-104292425D01*
X139903783Y-104347002D01*
X139910977Y-104416500D01*
X139879454Y-104478855D01*
X139860158Y-104495575D01*
X139674597Y-104625505D01*
X139507505Y-104792597D01*
X139371965Y-104986169D01*
X139371964Y-104986171D01*
X139272098Y-105200335D01*
X139272094Y-105200344D01*
X139210938Y-105428586D01*
X139210936Y-105428596D01*
X139190341Y-105663999D01*
X139190341Y-105664000D01*
X139210936Y-105899403D01*
X139210938Y-105899413D01*
X139272094Y-106127655D01*
X139272096Y-106127659D01*
X139272097Y-106127663D01*
X139362765Y-106322100D01*
X139371965Y-106341830D01*
X139371967Y-106341834D01*
X139449457Y-106452500D01*
X139507505Y-106535401D01*
X139674599Y-106702495D01*
X139771384Y-106770265D01*
X139868165Y-106838032D01*
X139868167Y-106838033D01*
X139868170Y-106838035D01*
X140082337Y-106937903D01*
X140310592Y-106999063D01*
X140498918Y-107015539D01*
X140545999Y-107019659D01*
X140546000Y-107019659D01*
X140546001Y-107019659D01*
X140585234Y-107016226D01*
X140781408Y-106999063D01*
X141009663Y-106937903D01*
X141223830Y-106838035D01*
X141417401Y-106702495D01*
X141584495Y-106535401D01*
X141720035Y-106341830D01*
X141819903Y-106127663D01*
X141881063Y-105899408D01*
X141901659Y-105664000D01*
X141881063Y-105428592D01*
X141819903Y-105200337D01*
X141720035Y-104986171D01*
X141675245Y-104922203D01*
X141584494Y-104792597D01*
X141417402Y-104625506D01*
X141417396Y-104625501D01*
X141231842Y-104495575D01*
X141188217Y-104440998D01*
X141181023Y-104371500D01*
X141212546Y-104309145D01*
X141231842Y-104292425D01*
X141337853Y-104218195D01*
X141417401Y-104162495D01*
X141584495Y-103995401D01*
X141720035Y-103801830D01*
X141819903Y-103587663D01*
X141881063Y-103359408D01*
X141901659Y-103124000D01*
X141881063Y-102888592D01*
X141819903Y-102660337D01*
X141720035Y-102446171D01*
X141676646Y-102384204D01*
X141584494Y-102252597D01*
X141417402Y-102085506D01*
X141417396Y-102085501D01*
X141231842Y-101955575D01*
X141188217Y-101900998D01*
X141181023Y-101831500D01*
X141212546Y-101769145D01*
X141231842Y-101752425D01*
X141261250Y-101731833D01*
X141417401Y-101622495D01*
X141584495Y-101455401D01*
X141720035Y-101261830D01*
X141819903Y-101047663D01*
X141881063Y-100819408D01*
X141901659Y-100584000D01*
X141881063Y-100348592D01*
X141819903Y-100120337D01*
X141720035Y-99906171D01*
X141641729Y-99794337D01*
X141584494Y-99712597D01*
X141417402Y-99545506D01*
X141417396Y-99545501D01*
X141231842Y-99415575D01*
X141188217Y-99360998D01*
X141181023Y-99291500D01*
X141212546Y-99229145D01*
X141231842Y-99212425D01*
X141254026Y-99196891D01*
X141417401Y-99082495D01*
X141584495Y-98915401D01*
X141720035Y-98721830D01*
X141819903Y-98507663D01*
X141881063Y-98279408D01*
X141901659Y-98044000D01*
X141901478Y-98041936D01*
X141897539Y-97996918D01*
X141881063Y-97808592D01*
X141819903Y-97580337D01*
X141720035Y-97366171D01*
X141714782Y-97358668D01*
X141584494Y-97172597D01*
X141417402Y-97005506D01*
X141417396Y-97005501D01*
X141231842Y-96875575D01*
X141188217Y-96820998D01*
X141181023Y-96751500D01*
X141212546Y-96689145D01*
X141231842Y-96672425D01*
X141340865Y-96596086D01*
X141417401Y-96542495D01*
X141584495Y-96375401D01*
X141629326Y-96311376D01*
X141683904Y-96267751D01*
X141730901Y-96258500D01*
X147341154Y-96258500D01*
X147341174Y-96258501D01*
X147347288Y-96258501D01*
X147495914Y-96258501D01*
X147617494Y-96234315D01*
X147617494Y-96234316D01*
X147617500Y-96234313D01*
X147641680Y-96229505D01*
X147677542Y-96214649D01*
X147698544Y-96205951D01*
X147698547Y-96205949D01*
X147698555Y-96205946D01*
X147778989Y-96172630D01*
X147902566Y-96090059D01*
X149324963Y-94667660D01*
X149324966Y-94667659D01*
X149430059Y-94562566D01*
X149512629Y-94438990D01*
X149569505Y-94301680D01*
X149598500Y-94155912D01*
X149598500Y-92965885D01*
X162161099Y-92965885D01*
X162161099Y-93120625D01*
X162161100Y-93120646D01*
X162161100Y-101469752D01*
X162161099Y-101469778D01*
X162161099Y-101623514D01*
X162182646Y-101731833D01*
X162182646Y-101731834D01*
X162190092Y-101769272D01*
X162190095Y-101769281D01*
X162213653Y-101826155D01*
X162241131Y-101892494D01*
X162246970Y-101906589D01*
X162306654Y-101995913D01*
X162329541Y-102030166D01*
X162329543Y-102030169D01*
X163900000Y-103600624D01*
X163900021Y-103600647D01*
X164009431Y-103710057D01*
X164086845Y-103761783D01*
X164133006Y-103792627D01*
X164133007Y-103792627D01*
X164133011Y-103792630D01*
X164213443Y-103825945D01*
X164213444Y-103825946D01*
X164253661Y-103842604D01*
X164270320Y-103849505D01*
X164292327Y-103853882D01*
X164292330Y-103853884D01*
X164292330Y-103853883D01*
X164332633Y-103861900D01*
X164416087Y-103878501D01*
X164416088Y-103878501D01*
X164570826Y-103878501D01*
X164570846Y-103878500D01*
X165101099Y-103878500D01*
X165168138Y-103898185D01*
X165202674Y-103931376D01*
X165247505Y-103995401D01*
X165414599Y-104162495D01*
X165494128Y-104218182D01*
X165608165Y-104298032D01*
X165608167Y-104298033D01*
X165608170Y-104298035D01*
X165822337Y-104397903D01*
X166050592Y-104459063D01*
X166238918Y-104475539D01*
X166285999Y-104479659D01*
X166286000Y-104479659D01*
X166286001Y-104479659D01*
X166325234Y-104476226D01*
X166521408Y-104459063D01*
X166749663Y-104397903D01*
X166963830Y-104298035D01*
X167157401Y-104162495D01*
X167324495Y-103995401D01*
X167460035Y-103801830D01*
X167559903Y-103587663D01*
X167621063Y-103359408D01*
X167641659Y-103124000D01*
X167621063Y-102888592D01*
X167559903Y-102660337D01*
X167460035Y-102446171D01*
X167416646Y-102384204D01*
X167324494Y-102252597D01*
X167157402Y-102085506D01*
X167157396Y-102085501D01*
X166971842Y-101955575D01*
X166928217Y-101900998D01*
X166921023Y-101831500D01*
X166952546Y-101769145D01*
X166971842Y-101752425D01*
X167001250Y-101731833D01*
X167157401Y-101622495D01*
X167324495Y-101455401D01*
X167458252Y-101264375D01*
X167512829Y-101220752D01*
X167559827Y-101211500D01*
X168214719Y-101211500D01*
X168281758Y-101231185D01*
X168302400Y-101247819D01*
X171833484Y-104778903D01*
X171866969Y-104840226D01*
X171869274Y-104878025D01*
X171849447Y-105091999D01*
X171849447Y-105092000D01*
X171869615Y-105309660D01*
X171869616Y-105309662D01*
X171929435Y-105519905D01*
X171929441Y-105519920D01*
X172026869Y-105715581D01*
X172026874Y-105715589D01*
X172158604Y-105890027D01*
X172158605Y-105890028D01*
X172320147Y-106037294D01*
X172320149Y-106037295D01*
X172320150Y-106037296D01*
X172505995Y-106152366D01*
X172506001Y-106152369D01*
X172573943Y-106178689D01*
X172709832Y-106231333D01*
X172756795Y-106240112D01*
X172819073Y-106271780D01*
X172854346Y-106332092D01*
X172851412Y-106401900D01*
X172811203Y-106459040D01*
X172756795Y-106483887D01*
X172709832Y-106492667D01*
X172709830Y-106492667D01*
X172709828Y-106492668D01*
X172506001Y-106571630D01*
X172505995Y-106571633D01*
X172320150Y-106686703D01*
X172158604Y-106833972D01*
X172026874Y-107008410D01*
X172026869Y-107008418D01*
X171929441Y-107204079D01*
X171929435Y-107204094D01*
X171869616Y-107414337D01*
X171869615Y-107414339D01*
X171849447Y-107631999D01*
X171849447Y-107632000D01*
X171869615Y-107849660D01*
X171869616Y-107849662D01*
X171929435Y-108059905D01*
X171929441Y-108059920D01*
X172026869Y-108255581D01*
X172026874Y-108255589D01*
X172156034Y-108426624D01*
X172158605Y-108430028D01*
X172320147Y-108577294D01*
X172320149Y-108577295D01*
X172320150Y-108577296D01*
X172505995Y-108692366D01*
X172506001Y-108692369D01*
X172537315Y-108704500D01*
X172709832Y-108771333D01*
X172924703Y-108811500D01*
X172924705Y-108811500D01*
X173143295Y-108811500D01*
X173143297Y-108811500D01*
X173358168Y-108771333D01*
X173562001Y-108692368D01*
X173747853Y-108577294D01*
X173909395Y-108430028D01*
X174041127Y-108255587D01*
X174138563Y-108059910D01*
X174198384Y-107849661D01*
X174218553Y-107632000D01*
X174198384Y-107414339D01*
X174138563Y-107204090D01*
X174116201Y-107159181D01*
X174041130Y-107008418D01*
X174041125Y-107008410D01*
X173909395Y-106833972D01*
X173898580Y-106824113D01*
X173747853Y-106686706D01*
X173747850Y-106686704D01*
X173747849Y-106686703D01*
X173562004Y-106571633D01*
X173561998Y-106571630D01*
X173401351Y-106509396D01*
X173358168Y-106492667D01*
X173311204Y-106483887D01*
X173248926Y-106452221D01*
X173213653Y-106391908D01*
X173216587Y-106322100D01*
X173256796Y-106264960D01*
X173311204Y-106240112D01*
X173358168Y-106231333D01*
X173562001Y-106152368D01*
X173747853Y-106037294D01*
X173909395Y-105890028D01*
X174041127Y-105715587D01*
X174138563Y-105519910D01*
X174198384Y-105309661D01*
X174218553Y-105092000D01*
X174198384Y-104874339D01*
X174138563Y-104664090D01*
X174138558Y-104664079D01*
X174041130Y-104468418D01*
X174041125Y-104468410D01*
X173909395Y-104293972D01*
X173826272Y-104218195D01*
X173747853Y-104146706D01*
X173747850Y-104146704D01*
X173747849Y-104146703D01*
X173562004Y-104031633D01*
X173561998Y-104031630D01*
X173401351Y-103969396D01*
X173358168Y-103952667D01*
X173311204Y-103943887D01*
X173248926Y-103912221D01*
X173213653Y-103851908D01*
X173216587Y-103782100D01*
X173256796Y-103724960D01*
X173311204Y-103700112D01*
X173358168Y-103691333D01*
X173562001Y-103612368D01*
X173747853Y-103497294D01*
X173909395Y-103350028D01*
X174041127Y-103175587D01*
X174138563Y-102979910D01*
X174198384Y-102769661D01*
X174218553Y-102552000D01*
X174198384Y-102334339D01*
X174138563Y-102124090D01*
X174138558Y-102124079D01*
X174041130Y-101928418D01*
X174041125Y-101928410D01*
X173909395Y-101753972D01*
X173885110Y-101731833D01*
X173747853Y-101606706D01*
X173747850Y-101606704D01*
X173747849Y-101606703D01*
X173562004Y-101491633D01*
X173561998Y-101491630D01*
X173401351Y-101429396D01*
X173358168Y-101412667D01*
X173311204Y-101403887D01*
X173248926Y-101372221D01*
X173213653Y-101311908D01*
X173216587Y-101242100D01*
X173256796Y-101184960D01*
X173311204Y-101160112D01*
X173358168Y-101151333D01*
X173562001Y-101072368D01*
X173747853Y-100957294D01*
X173909395Y-100810028D01*
X174041127Y-100635587D01*
X174138563Y-100439910D01*
X174198384Y-100229661D01*
X174218553Y-100012000D01*
X174198384Y-99794339D01*
X174138563Y-99584090D01*
X174138558Y-99584079D01*
X174041130Y-99388418D01*
X174041125Y-99388410D01*
X173909395Y-99213972D01*
X173765915Y-99083172D01*
X173747853Y-99066706D01*
X173747850Y-99066704D01*
X173747849Y-99066703D01*
X173562004Y-98951633D01*
X173561998Y-98951630D01*
X173401351Y-98889396D01*
X173358168Y-98872667D01*
X173311204Y-98863887D01*
X173248926Y-98832221D01*
X173213653Y-98771908D01*
X173216587Y-98702100D01*
X173256796Y-98644960D01*
X173311204Y-98620112D01*
X173358168Y-98611333D01*
X173562001Y-98532368D01*
X173747853Y-98417294D01*
X173909395Y-98270028D01*
X174041127Y-98095587D01*
X174138563Y-97899910D01*
X174198384Y-97689661D01*
X174218553Y-97472000D01*
X174218358Y-97469900D01*
X174198384Y-97254339D01*
X174198383Y-97254337D01*
X174185581Y-97209344D01*
X174138563Y-97044090D01*
X174138558Y-97044079D01*
X174041130Y-96848418D01*
X174041125Y-96848410D01*
X173909395Y-96673972D01*
X173907698Y-96672425D01*
X173747853Y-96526706D01*
X173747850Y-96526704D01*
X173747849Y-96526703D01*
X173562004Y-96411633D01*
X173561998Y-96411630D01*
X173401351Y-96349396D01*
X173358168Y-96332667D01*
X173311204Y-96323887D01*
X173248926Y-96292221D01*
X173213653Y-96231908D01*
X173216587Y-96162100D01*
X173256796Y-96104960D01*
X173311204Y-96080112D01*
X173358168Y-96071333D01*
X173562001Y-95992368D01*
X173747853Y-95877294D01*
X173909395Y-95730028D01*
X174041127Y-95555587D01*
X174138563Y-95359910D01*
X174198384Y-95149661D01*
X174218553Y-94932000D01*
X174201379Y-94746666D01*
X174198384Y-94714339D01*
X174198383Y-94714337D01*
X174198054Y-94713181D01*
X174138563Y-94504090D01*
X174111306Y-94449350D01*
X174041130Y-94308418D01*
X174041125Y-94308410D01*
X173909395Y-94133972D01*
X173747853Y-93986706D01*
X173747850Y-93986704D01*
X173747849Y-93986703D01*
X173562004Y-93871633D01*
X173561998Y-93871630D01*
X173405816Y-93811126D01*
X173350415Y-93768553D01*
X173326824Y-93702786D01*
X173342535Y-93634706D01*
X173392559Y-93585927D01*
X173450609Y-93571499D01*
X173760872Y-93571499D01*
X173820483Y-93565091D01*
X173955331Y-93514796D01*
X174070546Y-93428546D01*
X174156796Y-93313331D01*
X174207091Y-93178483D01*
X174212277Y-93130242D01*
X174239014Y-93065694D01*
X174296406Y-93025846D01*
X174335566Y-93019500D01*
X177780319Y-93019500D01*
X177847358Y-93039185D01*
X177868000Y-93055819D01*
X182684189Y-97872008D01*
X182771592Y-97959411D01*
X182771594Y-97959413D01*
X182771597Y-97959414D01*
X182874367Y-98028083D01*
X182907815Y-98041937D01*
X182988565Y-98075386D01*
X183090125Y-98095587D01*
X183109792Y-98099499D01*
X183109796Y-98099500D01*
X183109797Y-98099500D01*
X187208083Y-98099500D01*
X187275122Y-98119185D01*
X187307038Y-98148773D01*
X187398605Y-98270028D01*
X187560147Y-98417294D01*
X187560149Y-98417295D01*
X187560150Y-98417296D01*
X187745995Y-98532366D01*
X187746001Y-98532369D01*
X187813943Y-98558689D01*
X187949832Y-98611333D01*
X187996795Y-98620112D01*
X188059073Y-98651780D01*
X188094346Y-98712092D01*
X188091412Y-98781900D01*
X188051203Y-98839040D01*
X187996795Y-98863887D01*
X187949832Y-98872667D01*
X187949830Y-98872667D01*
X187949828Y-98872668D01*
X187746001Y-98951630D01*
X187745995Y-98951633D01*
X187560150Y-99066703D01*
X187398604Y-99213972D01*
X187266874Y-99388410D01*
X187266869Y-99388418D01*
X187169441Y-99584079D01*
X187169435Y-99584094D01*
X187109616Y-99794337D01*
X187109615Y-99794339D01*
X187089447Y-100011999D01*
X187089447Y-100012000D01*
X187109615Y-100229660D01*
X187109616Y-100229662D01*
X187169435Y-100439905D01*
X187169441Y-100439920D01*
X187266869Y-100635581D01*
X187266874Y-100635589D01*
X187398604Y-100810027D01*
X187398605Y-100810028D01*
X187560147Y-100957294D01*
X187560149Y-100957295D01*
X187560150Y-100957296D01*
X187745995Y-101072366D01*
X187746001Y-101072369D01*
X187813943Y-101098689D01*
X187949832Y-101151333D01*
X187996795Y-101160112D01*
X188059073Y-101191780D01*
X188094346Y-101252092D01*
X188091412Y-101321900D01*
X188051203Y-101379040D01*
X187996795Y-101403887D01*
X187949832Y-101412667D01*
X187949830Y-101412667D01*
X187949828Y-101412668D01*
X187746001Y-101491630D01*
X187745995Y-101491633D01*
X187560150Y-101606703D01*
X187398604Y-101753972D01*
X187307037Y-101875227D01*
X187250928Y-101916863D01*
X187208083Y-101924500D01*
X186946195Y-101924500D01*
X186824970Y-101948613D01*
X186824960Y-101948616D01*
X186710773Y-101995913D01*
X186710766Y-101995917D01*
X186685138Y-102013041D01*
X186659510Y-102030166D01*
X186654239Y-102033688D01*
X186607989Y-102064590D01*
X186607988Y-102064591D01*
X185393408Y-103279173D01*
X184994592Y-103677989D01*
X184972470Y-103700111D01*
X184907186Y-103765394D01*
X184907185Y-103765396D01*
X184837833Y-103869189D01*
X184836186Y-103873793D01*
X184803515Y-103952668D01*
X184791214Y-103982365D01*
X184770590Y-104086051D01*
X184770590Y-104086053D01*
X184767100Y-104103596D01*
X184767100Y-110221607D01*
X184791212Y-110342827D01*
X184791214Y-110342835D01*
X184824662Y-110423585D01*
X184838515Y-110457029D01*
X184838520Y-110457039D01*
X184907188Y-110559807D01*
X184907191Y-110559811D01*
X187979181Y-113631800D01*
X188012666Y-113693123D01*
X188015500Y-113719480D01*
X188015501Y-113853299D01*
X187995817Y-113920339D01*
X187943013Y-113966094D01*
X187891501Y-113977300D01*
X187580764Y-113977300D01*
X187513725Y-113957615D01*
X187467970Y-113904811D01*
X187467208Y-113903109D01*
X187454174Y-113873394D01*
X187318166Y-113665217D01*
X187287403Y-113631800D01*
X187149744Y-113482262D01*
X186953509Y-113329526D01*
X186953507Y-113329525D01*
X186953506Y-113329524D01*
X186734811Y-113211172D01*
X186734802Y-113211169D01*
X186499616Y-113130429D01*
X186254335Y-113089500D01*
X186005665Y-113089500D01*
X185760383Y-113130429D01*
X185525197Y-113211169D01*
X185525188Y-113211172D01*
X185306493Y-113329524D01*
X185110257Y-113482261D01*
X184941833Y-113665217D01*
X184805827Y-113873392D01*
X184799285Y-113888308D01*
X184754330Y-113941795D01*
X184687594Y-113962486D01*
X184685728Y-113962500D01*
X181074272Y-113962500D01*
X181007233Y-113942815D01*
X180961478Y-113890011D01*
X180960715Y-113888308D01*
X180954173Y-113873394D01*
X180954173Y-113873393D01*
X180853617Y-113719480D01*
X180818166Y-113665217D01*
X180787403Y-113631800D01*
X180649744Y-113482262D01*
X180453509Y-113329526D01*
X180453507Y-113329525D01*
X180453506Y-113329524D01*
X180234811Y-113211172D01*
X180234802Y-113211169D01*
X179999616Y-113130429D01*
X179754335Y-113089500D01*
X179505665Y-113089500D01*
X179260383Y-113130429D01*
X179025197Y-113211169D01*
X179025188Y-113211172D01*
X178806493Y-113329524D01*
X178610257Y-113482261D01*
X178441833Y-113665217D01*
X178305826Y-113873393D01*
X178205936Y-114101118D01*
X178144892Y-114342175D01*
X178144890Y-114342187D01*
X178124357Y-114589994D01*
X178124357Y-114590005D01*
X178144890Y-114837812D01*
X178144892Y-114837824D01*
X178205936Y-115078881D01*
X178305826Y-115306606D01*
X178441833Y-115514782D01*
X178441836Y-115514785D01*
X178610256Y-115697738D01*
X178806491Y-115850474D01*
X178806493Y-115850475D01*
X179016900Y-115964342D01*
X179025190Y-115968828D01*
X179260386Y-116049571D01*
X179505665Y-116090500D01*
X179754335Y-116090500D01*
X179999614Y-116049571D01*
X180234810Y-115968828D01*
X180453509Y-115850474D01*
X180649744Y-115697738D01*
X180818164Y-115514785D01*
X180954173Y-115306607D01*
X180960715Y-115291691D01*
X181005670Y-115238205D01*
X181072406Y-115217514D01*
X181074272Y-115217500D01*
X184685728Y-115217500D01*
X184752767Y-115237185D01*
X184798522Y-115289989D01*
X184799285Y-115291692D01*
X184805827Y-115306607D01*
X184941833Y-115514782D01*
X184941836Y-115514785D01*
X185110256Y-115697738D01*
X185306491Y-115850474D01*
X185306493Y-115850475D01*
X185516900Y-115964342D01*
X185525190Y-115968828D01*
X185760386Y-116049571D01*
X186005665Y-116090500D01*
X186254335Y-116090500D01*
X186499614Y-116049571D01*
X186734810Y-115968828D01*
X186953509Y-115850474D01*
X187149744Y-115697738D01*
X187318164Y-115514785D01*
X187454173Y-115306607D01*
X187454228Y-115306482D01*
X187454265Y-115306437D01*
X187456615Y-115302096D01*
X187457508Y-115302579D01*
X187499188Y-115252999D01*
X187565925Y-115232314D01*
X187567781Y-115232300D01*
X188352004Y-115232300D01*
X188352005Y-115232299D01*
X188473235Y-115208186D01*
X188553984Y-115174737D01*
X188587433Y-115160883D01*
X188690208Y-115092211D01*
X188777611Y-115004808D01*
X188862601Y-114919818D01*
X188923924Y-114886333D01*
X188950282Y-114883499D01*
X190066002Y-114883499D01*
X190066008Y-114883499D01*
X190168797Y-114872999D01*
X190268296Y-114840027D01*
X190338124Y-114837626D01*
X190398166Y-114873358D01*
X190429359Y-114935878D01*
X190431300Y-114957734D01*
X190431300Y-115080918D01*
X190411615Y-115147957D01*
X190394981Y-115168599D01*
X189917399Y-115646181D01*
X189856076Y-115679666D01*
X189829718Y-115682500D01*
X188715998Y-115682500D01*
X188715981Y-115682501D01*
X188613203Y-115693000D01*
X188613200Y-115693001D01*
X188446668Y-115748185D01*
X188446663Y-115748187D01*
X188297342Y-115840289D01*
X188173289Y-115964342D01*
X188081187Y-116113663D01*
X188081185Y-116113668D01*
X188070180Y-116146880D01*
X188026001Y-116280203D01*
X188026001Y-116280204D01*
X188026000Y-116280204D01*
X188015500Y-116382983D01*
X188015500Y-117108001D01*
X188015501Y-117108019D01*
X188026000Y-117210796D01*
X188026001Y-117210799D01*
X188045187Y-117268697D01*
X188081186Y-117377334D01*
X188173288Y-117526656D01*
X188297344Y-117650712D01*
X188446666Y-117742814D01*
X188613203Y-117797999D01*
X188715991Y-117808500D01*
X190066008Y-117808499D01*
X190168797Y-117797999D01*
X190335334Y-117742814D01*
X190484656Y-117650712D01*
X190608712Y-117526656D01*
X190700814Y-117377334D01*
X190755999Y-117210797D01*
X190760577Y-117165986D01*
X191386001Y-117165986D01*
X191396494Y-117268697D01*
X191451641Y-117435119D01*
X191451643Y-117435124D01*
X191543684Y-117584345D01*
X191667654Y-117708315D01*
X191816875Y-117800356D01*
X191816880Y-117800358D01*
X191983302Y-117855505D01*
X191983309Y-117855506D01*
X192086019Y-117865999D01*
X192535999Y-117865999D01*
X193036000Y-117865999D01*
X193485972Y-117865999D01*
X193485986Y-117865998D01*
X193588697Y-117855505D01*
X193755119Y-117800358D01*
X193755124Y-117800356D01*
X193904345Y-117708315D01*
X194028315Y-117584345D01*
X194077461Y-117504668D01*
X194129409Y-117457944D01*
X194198372Y-117446721D01*
X194262454Y-117474565D01*
X194288539Y-117504668D01*
X194337684Y-117584345D01*
X194461654Y-117708315D01*
X194610875Y-117800356D01*
X194610880Y-117800358D01*
X194777302Y-117855505D01*
X194777309Y-117855506D01*
X194880019Y-117865999D01*
X195329999Y-117865999D01*
X195830000Y-117865999D01*
X196279972Y-117865999D01*
X196279986Y-117865998D01*
X196382697Y-117855505D01*
X196549119Y-117800358D01*
X196549124Y-117800356D01*
X196698345Y-117708315D01*
X196822315Y-117584345D01*
X196914356Y-117435124D01*
X196914358Y-117435119D01*
X196969505Y-117268697D01*
X196969506Y-117268690D01*
X196979999Y-117165986D01*
X196980000Y-117165973D01*
X196980000Y-117041000D01*
X195830000Y-117041000D01*
X195830000Y-117865999D01*
X195329999Y-117865999D01*
X195330000Y-117865998D01*
X195330000Y-117041000D01*
X193036000Y-117041000D01*
X193036000Y-117865999D01*
X192535999Y-117865999D01*
X192536000Y-117865998D01*
X192536000Y-117041000D01*
X191386001Y-117041000D01*
X191386001Y-117165986D01*
X190760577Y-117165986D01*
X190766500Y-117108009D01*
X190766499Y-116623279D01*
X190786183Y-116556241D01*
X190802813Y-116535604D01*
X191210588Y-116127830D01*
X191271910Y-116094346D01*
X191341602Y-116099330D01*
X191397535Y-116141202D01*
X191421952Y-116206666D01*
X191415974Y-116254515D01*
X191396495Y-116313298D01*
X191396493Y-116313309D01*
X191386000Y-116416013D01*
X191386000Y-116541000D01*
X192536000Y-116541000D01*
X193036000Y-116541000D01*
X195330000Y-116541000D01*
X195830000Y-116541000D01*
X196979999Y-116541000D01*
X196979999Y-116416028D01*
X196979998Y-116416013D01*
X196969505Y-116313302D01*
X196914358Y-116146880D01*
X196914356Y-116146875D01*
X196822315Y-115997654D01*
X196698345Y-115873684D01*
X196549124Y-115781643D01*
X196549119Y-115781641D01*
X196382697Y-115726494D01*
X196382690Y-115726493D01*
X196279986Y-115716000D01*
X195830000Y-115716000D01*
X195830000Y-116541000D01*
X195330000Y-116541000D01*
X195330000Y-115716000D01*
X194880028Y-115716000D01*
X194880012Y-115716001D01*
X194777302Y-115726494D01*
X194610880Y-115781641D01*
X194610875Y-115781643D01*
X194461654Y-115873684D01*
X194337683Y-115997655D01*
X194337680Y-115997659D01*
X194288538Y-116077331D01*
X194236590Y-116124056D01*
X194167628Y-116135277D01*
X194103546Y-116107434D01*
X194077462Y-116077331D01*
X194028319Y-115997659D01*
X194028316Y-115997655D01*
X193904345Y-115873684D01*
X193755124Y-115781643D01*
X193755119Y-115781641D01*
X193588697Y-115726494D01*
X193588690Y-115726493D01*
X193485986Y-115716000D01*
X193036000Y-115716000D01*
X193036000Y-116541000D01*
X192536000Y-116541000D01*
X192536000Y-115716000D01*
X192086028Y-115716000D01*
X192086012Y-115716001D01*
X191983302Y-115726494D01*
X191816880Y-115781641D01*
X191810330Y-115784696D01*
X191809269Y-115782421D01*
X191753261Y-115797728D01*
X191686604Y-115776785D01*
X191641851Y-115723129D01*
X191633211Y-115653795D01*
X191641032Y-115626301D01*
X191662185Y-115575235D01*
X191670076Y-115535561D01*
X191686300Y-115454005D01*
X191686300Y-114979334D01*
X191705985Y-114912295D01*
X191758789Y-114866540D01*
X191827947Y-114856596D01*
X191849289Y-114861624D01*
X191983203Y-114905999D01*
X192085991Y-114916500D01*
X193486008Y-114916499D01*
X193588797Y-114905999D01*
X193755334Y-114850814D01*
X193904656Y-114758712D01*
X194028712Y-114634656D01*
X194028712Y-114634655D01*
X194031549Y-114631819D01*
X194092872Y-114598334D01*
X194119230Y-114595500D01*
X194246770Y-114595500D01*
X194313809Y-114615185D01*
X194334451Y-114631819D01*
X194337288Y-114634656D01*
X194461344Y-114758712D01*
X194610666Y-114850814D01*
X194777203Y-114905999D01*
X194879991Y-114916500D01*
X196280008Y-114916499D01*
X196382797Y-114905999D01*
X196549334Y-114850814D01*
X196698656Y-114758712D01*
X196822712Y-114634656D01*
X196822712Y-114634655D01*
X196825549Y-114631819D01*
X196886872Y-114598334D01*
X196913230Y-114595500D01*
X198244554Y-114595500D01*
X198244574Y-114595501D01*
X198250688Y-114595501D01*
X198399314Y-114595501D01*
X198520894Y-114571315D01*
X198520894Y-114571316D01*
X198520900Y-114571313D01*
X198545080Y-114566505D01*
X198580942Y-114551649D01*
X198601944Y-114542951D01*
X198601947Y-114542949D01*
X198601955Y-114542946D01*
X198682389Y-114509630D01*
X198805966Y-114427059D01*
X199914963Y-113318060D01*
X199914966Y-113318059D01*
X200020059Y-113212966D01*
X200102629Y-113089390D01*
X200102630Y-113089389D01*
X200102633Y-113089385D01*
X200159503Y-112952083D01*
X200159505Y-112952079D01*
X200183553Y-112831186D01*
X200188501Y-112806314D01*
X200188501Y-112652578D01*
X200188500Y-112652552D01*
X200188500Y-111699499D01*
X200208185Y-111632460D01*
X200260989Y-111586705D01*
X200312500Y-111575499D01*
X200484002Y-111575499D01*
X200484008Y-111575499D01*
X200586797Y-111564999D01*
X200753334Y-111509814D01*
X200900576Y-111418995D01*
X201483499Y-111418995D01*
X201510418Y-111554322D01*
X201510421Y-111554332D01*
X201563221Y-111681804D01*
X201563228Y-111681817D01*
X201639885Y-111796541D01*
X201639888Y-111796545D01*
X201737454Y-111894111D01*
X201737458Y-111894114D01*
X201852182Y-111970771D01*
X201852195Y-111970778D01*
X201979667Y-112023578D01*
X201979672Y-112023580D01*
X201979676Y-112023580D01*
X201979677Y-112023581D01*
X202115004Y-112050500D01*
X202115007Y-112050500D01*
X202252995Y-112050500D01*
X202344041Y-112032389D01*
X202388328Y-112023580D01*
X202515811Y-111970775D01*
X202630542Y-111894114D01*
X202728114Y-111796542D01*
X202804775Y-111681811D01*
X202857580Y-111554328D01*
X202866435Y-111509812D01*
X202884500Y-111418995D01*
X202884500Y-111281004D01*
X202857581Y-111145677D01*
X202857580Y-111145676D01*
X202857580Y-111145672D01*
X202857025Y-111144331D01*
X202804778Y-111018195D01*
X202804771Y-111018182D01*
X202728114Y-110903458D01*
X202728111Y-110903454D01*
X202630545Y-110805888D01*
X202630541Y-110805885D01*
X202515817Y-110729228D01*
X202515804Y-110729221D01*
X202388332Y-110676421D01*
X202388322Y-110676418D01*
X202252995Y-110649500D01*
X202252993Y-110649500D01*
X202115007Y-110649500D01*
X202115005Y-110649500D01*
X201979677Y-110676418D01*
X201979667Y-110676421D01*
X201852195Y-110729221D01*
X201852182Y-110729228D01*
X201737458Y-110805885D01*
X201737454Y-110805888D01*
X201639888Y-110903454D01*
X201639885Y-110903458D01*
X201563228Y-111018182D01*
X201563221Y-111018195D01*
X201510421Y-111145667D01*
X201510418Y-111145677D01*
X201483500Y-111281004D01*
X201483500Y-111281007D01*
X201483500Y-111418993D01*
X201483500Y-111418995D01*
X201483499Y-111418995D01*
X200900576Y-111418995D01*
X200902656Y-111417712D01*
X201026712Y-111293656D01*
X201118814Y-111144334D01*
X201173999Y-110977797D01*
X201184500Y-110875009D01*
X201184499Y-110024992D01*
X201173999Y-109922203D01*
X201118814Y-109755666D01*
X201026712Y-109606344D01*
X200902656Y-109482288D01*
X200773576Y-109402671D01*
X200753336Y-109390187D01*
X200753331Y-109390185D01*
X200751862Y-109389698D01*
X200586797Y-109335001D01*
X200586795Y-109335000D01*
X200484010Y-109324500D01*
X198383998Y-109324500D01*
X198383981Y-109324501D01*
X198281203Y-109335000D01*
X198281200Y-109335001D01*
X198114668Y-109390185D01*
X198114663Y-109390187D01*
X197965342Y-109482289D01*
X197841289Y-109606342D01*
X197749187Y-109755663D01*
X197749186Y-109755666D01*
X197694001Y-109922203D01*
X197694001Y-109922204D01*
X197694000Y-109922204D01*
X197683500Y-110024983D01*
X197683500Y-110875001D01*
X197683501Y-110875019D01*
X197694000Y-110977796D01*
X197694001Y-110977799D01*
X197749185Y-111144331D01*
X197749186Y-111144334D01*
X197841288Y-111293656D01*
X197965344Y-111417712D01*
X198114666Y-111509814D01*
X198281203Y-111564999D01*
X198383991Y-111575500D01*
X198555500Y-111575499D01*
X198622539Y-111595183D01*
X198668294Y-111647987D01*
X198679500Y-111699499D01*
X198679500Y-112368113D01*
X198659815Y-112435152D01*
X198643181Y-112455794D01*
X198048794Y-113050181D01*
X197987471Y-113083666D01*
X197961113Y-113086500D01*
X196913230Y-113086500D01*
X196846191Y-113066815D01*
X196825549Y-113050181D01*
X196698657Y-112923289D01*
X196698656Y-112923288D01*
X196549334Y-112831186D01*
X196382797Y-112776001D01*
X196382795Y-112776000D01*
X196280010Y-112765500D01*
X194879998Y-112765500D01*
X194879981Y-112765501D01*
X194777203Y-112776000D01*
X194777200Y-112776001D01*
X194610668Y-112831185D01*
X194610663Y-112831187D01*
X194461342Y-112923289D01*
X194334451Y-113050181D01*
X194273128Y-113083666D01*
X194246770Y-113086500D01*
X194119230Y-113086500D01*
X194052191Y-113066815D01*
X194031549Y-113050181D01*
X193904657Y-112923289D01*
X193904656Y-112923288D01*
X193755334Y-112831186D01*
X193625495Y-112788161D01*
X193568051Y-112748389D01*
X193541228Y-112683873D01*
X193540500Y-112670456D01*
X193540500Y-111969499D01*
X193560185Y-111902460D01*
X193612989Y-111856705D01*
X193664500Y-111845499D01*
X193683871Y-111845499D01*
X193683872Y-111845499D01*
X193743483Y-111839091D01*
X193878331Y-111788796D01*
X193993546Y-111702546D01*
X194079796Y-111587331D01*
X194130091Y-111452483D01*
X194136500Y-111392873D01*
X194136499Y-109597128D01*
X194130091Y-109537517D01*
X194109492Y-109482289D01*
X194079797Y-109402671D01*
X194079793Y-109402664D01*
X193993547Y-109287455D01*
X193993544Y-109287452D01*
X193878335Y-109201206D01*
X193878328Y-109201202D01*
X193746401Y-109151997D01*
X193690467Y-109110126D01*
X193666050Y-109044662D01*
X193680902Y-108976389D01*
X193702053Y-108948133D01*
X193824108Y-108826078D01*
X193959600Y-108632578D01*
X194059429Y-108418492D01*
X194059432Y-108418486D01*
X194116636Y-108205000D01*
X193219012Y-108205000D01*
X193251925Y-108147993D01*
X193286000Y-108020826D01*
X193286000Y-107889174D01*
X193251925Y-107762007D01*
X193219012Y-107705000D01*
X194116636Y-107705000D01*
X194116635Y-107704999D01*
X194059432Y-107491513D01*
X194059429Y-107491507D01*
X193959600Y-107277422D01*
X193959599Y-107277420D01*
X193949022Y-107262314D01*
X195079498Y-107262314D01*
X195108493Y-107408073D01*
X195108496Y-107408083D01*
X195165366Y-107545381D01*
X195165372Y-107545392D01*
X195247942Y-107668968D01*
X195247943Y-107668969D01*
X196005600Y-108426624D01*
X196005621Y-108426647D01*
X196115030Y-108536056D01*
X196115034Y-108536059D01*
X196176747Y-108577294D01*
X196238611Y-108618630D01*
X196300667Y-108644334D01*
X196375920Y-108675505D01*
X196375922Y-108675505D01*
X196375924Y-108675506D01*
X196400104Y-108680315D01*
X196400110Y-108680316D01*
X196521686Y-108704501D01*
X196521688Y-108704501D01*
X196676426Y-108704501D01*
X196676446Y-108704500D01*
X197717089Y-108704500D01*
X197784128Y-108724185D01*
X197822627Y-108763403D01*
X197841285Y-108793652D01*
X197841288Y-108793656D01*
X197965344Y-108917712D01*
X198114666Y-109009814D01*
X198281203Y-109064999D01*
X198383991Y-109075500D01*
X200484008Y-109075499D01*
X200586797Y-109064999D01*
X200753334Y-109009814D01*
X200902656Y-108917712D01*
X201026712Y-108793656D01*
X201118814Y-108644334D01*
X201173999Y-108477797D01*
X201184500Y-108375009D01*
X201184499Y-107524992D01*
X201181078Y-107491507D01*
X201173999Y-107422203D01*
X201173998Y-107422200D01*
X201169317Y-107408073D01*
X201118814Y-107255666D01*
X201026712Y-107106344D01*
X200902656Y-106982288D01*
X200753334Y-106890186D01*
X200586797Y-106835001D01*
X200586795Y-106835000D01*
X200484010Y-106824500D01*
X198383998Y-106824500D01*
X198383981Y-106824501D01*
X198281203Y-106835000D01*
X198281200Y-106835001D01*
X198114668Y-106890185D01*
X198114663Y-106890187D01*
X197965342Y-106982289D01*
X197841288Y-107106343D01*
X197841285Y-107106347D01*
X197822627Y-107136597D01*
X197770679Y-107183322D01*
X197717089Y-107195500D01*
X196959886Y-107195500D01*
X196892847Y-107175815D01*
X196872205Y-107159181D01*
X196624819Y-106911794D01*
X196591334Y-106850471D01*
X196588500Y-106824113D01*
X196588500Y-105024983D01*
X197683500Y-105024983D01*
X197683500Y-105875001D01*
X197683501Y-105875019D01*
X197694000Y-105977796D01*
X197694001Y-105977799D01*
X197713716Y-106037294D01*
X197749186Y-106144334D01*
X197841288Y-106293656D01*
X197965344Y-106417712D01*
X198114666Y-106509814D01*
X198281203Y-106564999D01*
X198383991Y-106575500D01*
X200484008Y-106575499D01*
X200586797Y-106564999D01*
X200753334Y-106509814D01*
X200902656Y-106417712D01*
X201026712Y-106293656D01*
X201118814Y-106144334D01*
X201173999Y-105977797D01*
X201184500Y-105875009D01*
X201184499Y-105024992D01*
X201180533Y-104986171D01*
X201173999Y-104922203D01*
X201173998Y-104922200D01*
X201159360Y-104878025D01*
X201118814Y-104755666D01*
X201034515Y-104618995D01*
X201483499Y-104618995D01*
X201510418Y-104754322D01*
X201510421Y-104754332D01*
X201563221Y-104881804D01*
X201563228Y-104881817D01*
X201639885Y-104996541D01*
X201639888Y-104996545D01*
X201737454Y-105094111D01*
X201737458Y-105094114D01*
X201852182Y-105170771D01*
X201852195Y-105170778D01*
X201979667Y-105223578D01*
X201979672Y-105223580D01*
X201979676Y-105223580D01*
X201979677Y-105223581D01*
X202115004Y-105250500D01*
X202115007Y-105250500D01*
X202252995Y-105250500D01*
X202344041Y-105232389D01*
X202388328Y-105223580D01*
X202515811Y-105170775D01*
X202630542Y-105094114D01*
X202728114Y-104996542D01*
X202804775Y-104881811D01*
X202857580Y-104754328D01*
X202875532Y-104664079D01*
X202884500Y-104618995D01*
X202884500Y-104481004D01*
X202857581Y-104345677D01*
X202857580Y-104345676D01*
X202857580Y-104345672D01*
X202836165Y-104293972D01*
X202804778Y-104218195D01*
X202804771Y-104218182D01*
X202728114Y-104103458D01*
X202728111Y-104103454D01*
X202630545Y-104005888D01*
X202630541Y-104005885D01*
X202515817Y-103929228D01*
X202515804Y-103929221D01*
X202388332Y-103876421D01*
X202388322Y-103876418D01*
X202252995Y-103849500D01*
X202252993Y-103849500D01*
X202115007Y-103849500D01*
X202115005Y-103849500D01*
X201979677Y-103876418D01*
X201979667Y-103876421D01*
X201852195Y-103929221D01*
X201852182Y-103929228D01*
X201737458Y-104005885D01*
X201737454Y-104005888D01*
X201639888Y-104103454D01*
X201639885Y-104103458D01*
X201563228Y-104218182D01*
X201563221Y-104218195D01*
X201510421Y-104345667D01*
X201510418Y-104345677D01*
X201483500Y-104481004D01*
X201483500Y-104481007D01*
X201483500Y-104618993D01*
X201483500Y-104618995D01*
X201483499Y-104618995D01*
X201034515Y-104618995D01*
X201026712Y-104606344D01*
X200902656Y-104482288D01*
X200795996Y-104416500D01*
X200753336Y-104390187D01*
X200753331Y-104390185D01*
X200696943Y-104371500D01*
X200586797Y-104335001D01*
X200586795Y-104335000D01*
X200484010Y-104324500D01*
X198383998Y-104324500D01*
X198383981Y-104324501D01*
X198281203Y-104335000D01*
X198281200Y-104335001D01*
X198114668Y-104390185D01*
X198114663Y-104390187D01*
X197965342Y-104482289D01*
X197841289Y-104606342D01*
X197749187Y-104755663D01*
X197749185Y-104755668D01*
X197721349Y-104839670D01*
X197694001Y-104922203D01*
X197694001Y-104922204D01*
X197694000Y-104922204D01*
X197683500Y-105024983D01*
X196588500Y-105024983D01*
X196588500Y-102471885D01*
X196608185Y-102404846D01*
X196624814Y-102384209D01*
X199844205Y-99164817D01*
X199905528Y-99131333D01*
X199931886Y-99128499D01*
X200785002Y-99128499D01*
X200785008Y-99128499D01*
X200785038Y-99128496D01*
X200802895Y-99126671D01*
X200887797Y-99117999D01*
X201054334Y-99062814D01*
X201203656Y-98970712D01*
X201327712Y-98846656D01*
X201419814Y-98697334D01*
X201474999Y-98530797D01*
X201485500Y-98428009D01*
X201485499Y-97627992D01*
X201474999Y-97525203D01*
X201419814Y-97358666D01*
X201327712Y-97209344D01*
X201203656Y-97085288D01*
X201203655Y-97085287D01*
X201139019Y-97045420D01*
X201092294Y-96993472D01*
X201081071Y-96924510D01*
X201108914Y-96860428D01*
X201116434Y-96852199D01*
X201224035Y-96744598D01*
X201325804Y-96604524D01*
X201404408Y-96450255D01*
X201457914Y-96285584D01*
X201459115Y-96278000D01*
X200390330Y-96278000D01*
X200410075Y-96258255D01*
X200459444Y-96172745D01*
X200485000Y-96077370D01*
X200485000Y-95978630D01*
X200459444Y-95883255D01*
X200410075Y-95797745D01*
X200390330Y-95778000D01*
X201459115Y-95778000D01*
X201459115Y-95777999D01*
X201457914Y-95770415D01*
X201404408Y-95605744D01*
X201325804Y-95451475D01*
X201224032Y-95311397D01*
X201101602Y-95188967D01*
X200961524Y-95087195D01*
X200807257Y-95008591D01*
X200642584Y-94955085D01*
X200471571Y-94928000D01*
X200360000Y-94928000D01*
X200360000Y-95747670D01*
X200340255Y-95727925D01*
X200254745Y-95678556D01*
X200159370Y-95653000D01*
X200060630Y-95653000D01*
X199965255Y-95678556D01*
X199879745Y-95727925D01*
X199860000Y-95747670D01*
X199860000Y-94928000D01*
X199748429Y-94928000D01*
X199577415Y-94955085D01*
X199412742Y-95008591D01*
X199258475Y-95087195D01*
X199118397Y-95188967D01*
X198995967Y-95311397D01*
X198894195Y-95451475D01*
X198815591Y-95605744D01*
X198762085Y-95770415D01*
X198760884Y-95777999D01*
X198760885Y-95778000D01*
X199829670Y-95778000D01*
X199809925Y-95797745D01*
X199760556Y-95883255D01*
X199735000Y-95978630D01*
X199735000Y-96077370D01*
X199760556Y-96172745D01*
X199809925Y-96258255D01*
X199829670Y-96278000D01*
X198760885Y-96278000D01*
X198762085Y-96285584D01*
X198815591Y-96450255D01*
X198894195Y-96604524D01*
X198995967Y-96744602D01*
X199103565Y-96852200D01*
X199137050Y-96913523D01*
X199132066Y-96983215D01*
X199090194Y-97039148D01*
X199080981Y-97045420D01*
X199016342Y-97085289D01*
X198892289Y-97209342D01*
X198800187Y-97358663D01*
X198800185Y-97358668D01*
X198745000Y-97525204D01*
X198734500Y-97627983D01*
X198734500Y-98089112D01*
X198714815Y-98156151D01*
X198698181Y-98176793D01*
X195247943Y-101627030D01*
X195247942Y-101627031D01*
X195165372Y-101750607D01*
X195165366Y-101750618D01*
X195108496Y-101887916D01*
X195108493Y-101887926D01*
X195079499Y-102033685D01*
X195079499Y-102188425D01*
X195079500Y-102188446D01*
X195079500Y-107108552D01*
X195079499Y-107108578D01*
X195079499Y-107113688D01*
X195079499Y-107262312D01*
X195079499Y-107262314D01*
X195079498Y-107262314D01*
X193949022Y-107262314D01*
X193824113Y-107083926D01*
X193824108Y-107083920D01*
X193657082Y-106916894D01*
X193463578Y-106781399D01*
X193249492Y-106681570D01*
X193249486Y-106681567D01*
X193036000Y-106624364D01*
X193036000Y-107521988D01*
X192978993Y-107489075D01*
X192851826Y-107455000D01*
X192720174Y-107455000D01*
X192593007Y-107489075D01*
X192536000Y-107521988D01*
X192536000Y-106624364D01*
X192535999Y-106624364D01*
X192322513Y-106681567D01*
X192322507Y-106681570D01*
X192108422Y-106781399D01*
X192108420Y-106781400D01*
X191914926Y-106916886D01*
X191914920Y-106916891D01*
X191747891Y-107083920D01*
X191747886Y-107083926D01*
X191612400Y-107277420D01*
X191612398Y-107277423D01*
X191611820Y-107278665D01*
X191611419Y-107279119D01*
X191609692Y-107282112D01*
X191609090Y-107281764D01*
X191565647Y-107331103D01*
X191498453Y-107350254D01*
X191431572Y-107330037D01*
X191411758Y-107313939D01*
X189476924Y-105379105D01*
X189443439Y-105317782D01*
X189441134Y-105279983D01*
X189458553Y-105092000D01*
X189458553Y-105091999D01*
X189449708Y-104996545D01*
X189438725Y-104878022D01*
X189452140Y-104809455D01*
X189474512Y-104778905D01*
X190555611Y-103697808D01*
X190559937Y-103691333D01*
X190624283Y-103595033D01*
X190664768Y-103497294D01*
X190671586Y-103480835D01*
X190695700Y-103359603D01*
X190695700Y-103235997D01*
X190695700Y-99204397D01*
X190680603Y-99128499D01*
X190680603Y-99128498D01*
X190680603Y-99128496D01*
X190671587Y-99083172D01*
X190671586Y-99083165D01*
X190638137Y-99002415D01*
X190624283Y-98968967D01*
X190588492Y-98915402D01*
X190555614Y-98866196D01*
X190555613Y-98866194D01*
X190521640Y-98832221D01*
X190468208Y-98778789D01*
X189474515Y-97785096D01*
X189441030Y-97723773D01*
X189438725Y-97685977D01*
X189458553Y-97472000D01*
X189458358Y-97469900D01*
X189438384Y-97254339D01*
X189438383Y-97254337D01*
X189425581Y-97209344D01*
X189378563Y-97044090D01*
X189378558Y-97044079D01*
X189281130Y-96848418D01*
X189281125Y-96848410D01*
X189149395Y-96673972D01*
X189147698Y-96672425D01*
X188987853Y-96526706D01*
X188987850Y-96526704D01*
X188987849Y-96526703D01*
X188802004Y-96411633D01*
X188801998Y-96411630D01*
X188641351Y-96349396D01*
X188598168Y-96332667D01*
X188549847Y-96323634D01*
X188487568Y-96291966D01*
X188452295Y-96231654D01*
X188455229Y-96161846D01*
X188495438Y-96104706D01*
X188549849Y-96079857D01*
X188598028Y-96070850D01*
X188598029Y-96070850D01*
X188801781Y-95991916D01*
X188912073Y-95923625D01*
X188342173Y-95353725D01*
X188438044Y-95328037D01*
X188534956Y-95272084D01*
X188614084Y-95192956D01*
X188670037Y-95096044D01*
X188695725Y-95000172D01*
X189267867Y-95572314D01*
X189280699Y-95555323D01*
X189280703Y-95555316D01*
X189378093Y-95359732D01*
X189437890Y-95149564D01*
X189458051Y-94932000D01*
X189458051Y-94931999D01*
X189437890Y-94714435D01*
X189378093Y-94504267D01*
X189280699Y-94308675D01*
X189267868Y-94291684D01*
X188695725Y-94863826D01*
X188670037Y-94767956D01*
X188614084Y-94671044D01*
X188534956Y-94591916D01*
X188438044Y-94535963D01*
X188342172Y-94510274D01*
X188912073Y-93940373D01*
X188912072Y-93940372D01*
X188801780Y-93872082D01*
X188801774Y-93872080D01*
X188598029Y-93793149D01*
X188598021Y-93793147D01*
X188549847Y-93784141D01*
X188487567Y-93752472D01*
X188452295Y-93692160D01*
X188455229Y-93622352D01*
X188495439Y-93565212D01*
X188549846Y-93540365D01*
X188598168Y-93531333D01*
X188802001Y-93452368D01*
X188987853Y-93337294D01*
X189149395Y-93190028D01*
X189281127Y-93015587D01*
X189378563Y-92819910D01*
X189438384Y-92609661D01*
X189458553Y-92392000D01*
X189438384Y-92174339D01*
X189378563Y-91964090D01*
X189348935Y-91904589D01*
X189281130Y-91768418D01*
X189281125Y-91768410D01*
X189149395Y-91593972D01*
X189014141Y-91470671D01*
X188987853Y-91446706D01*
X188987850Y-91446704D01*
X188987849Y-91446703D01*
X188802004Y-91331633D01*
X188801998Y-91331630D01*
X188640850Y-91269202D01*
X188598168Y-91252667D01*
X188383297Y-91212500D01*
X188212886Y-91212500D01*
X188145847Y-91192815D01*
X188125205Y-91176181D01*
X186482169Y-89533143D01*
X186482168Y-89533142D01*
X186440973Y-89505617D01*
X186358589Y-89450570D01*
X186358586Y-89450568D01*
X186358585Y-89450568D01*
X186278155Y-89417253D01*
X186221280Y-89393695D01*
X186197094Y-89388884D01*
X186075514Y-89364699D01*
X186075512Y-89364699D01*
X185926888Y-89364699D01*
X185920774Y-89364699D01*
X185920754Y-89364700D01*
X165917046Y-89364700D01*
X165917026Y-89364699D01*
X165910912Y-89364699D01*
X165762288Y-89364699D01*
X165762286Y-89364699D01*
X165640705Y-89388884D01*
X165626140Y-89391781D01*
X165616518Y-89393695D01*
X165616517Y-89393695D01*
X165559645Y-89417252D01*
X165559645Y-89417253D01*
X165479216Y-89450568D01*
X165479209Y-89450571D01*
X165355633Y-89533141D01*
X165303087Y-89585687D01*
X165250541Y-89638234D01*
X165250539Y-89638236D01*
X162329543Y-92559230D01*
X162329542Y-92559231D01*
X162246972Y-92682807D01*
X162246969Y-92682813D01*
X162244307Y-92689240D01*
X162201741Y-92792006D01*
X162201740Y-92792009D01*
X162190094Y-92820123D01*
X162190093Y-92820125D01*
X162161099Y-92965885D01*
X149598500Y-92965885D01*
X149598500Y-87210886D01*
X149618185Y-87143847D01*
X149670989Y-87098092D01*
X149740147Y-87088148D01*
X149803703Y-87117173D01*
X149810181Y-87123205D01*
X150920600Y-88233624D01*
X150920621Y-88233647D01*
X151030029Y-88343055D01*
X151030032Y-88343057D01*
X151030034Y-88343059D01*
X151112605Y-88398230D01*
X151153611Y-88425630D01*
X151214931Y-88451029D01*
X151214932Y-88451030D01*
X151214933Y-88451030D01*
X151290920Y-88482505D01*
X151290922Y-88482505D01*
X151290924Y-88482506D01*
X151315104Y-88487315D01*
X151315110Y-88487316D01*
X151436686Y-88511501D01*
X151436688Y-88511501D01*
X151591426Y-88511501D01*
X151591446Y-88511500D01*
X155972554Y-88511500D01*
X155972574Y-88511501D01*
X155978688Y-88511501D01*
X156127314Y-88511501D01*
X156248894Y-88487315D01*
X156248894Y-88487316D01*
X156248900Y-88487313D01*
X156273080Y-88482505D01*
X156349067Y-88451030D01*
X156410389Y-88425630D01*
X156533966Y-88343059D01*
X158413700Y-86463322D01*
X158475021Y-86429839D01*
X158512184Y-86427477D01*
X158661034Y-86440500D01*
X158719999Y-86445659D01*
X158720000Y-86445659D01*
X158720001Y-86445659D01*
X158747776Y-86443228D01*
X158927811Y-86427477D01*
X158996310Y-86441243D01*
X159026299Y-86463324D01*
X160796600Y-88233624D01*
X160796621Y-88233647D01*
X160906029Y-88343055D01*
X160906032Y-88343057D01*
X160906034Y-88343059D01*
X160988605Y-88398230D01*
X161029611Y-88425630D01*
X161090931Y-88451029D01*
X161090932Y-88451030D01*
X161090933Y-88451030D01*
X161166920Y-88482505D01*
X161166922Y-88482505D01*
X161166924Y-88482506D01*
X161191104Y-88487315D01*
X161191110Y-88487316D01*
X161312686Y-88511501D01*
X161312688Y-88511501D01*
X161467426Y-88511501D01*
X161467446Y-88511500D01*
X166132554Y-88511500D01*
X166132574Y-88511501D01*
X166138688Y-88511501D01*
X166287314Y-88511501D01*
X166408894Y-88487315D01*
X166408894Y-88487316D01*
X166408900Y-88487313D01*
X166433080Y-88482505D01*
X166509067Y-88451030D01*
X166570389Y-88425630D01*
X166693966Y-88343059D01*
X168573700Y-86463322D01*
X168635021Y-86429839D01*
X168672184Y-86427477D01*
X168821034Y-86440500D01*
X168879999Y-86445659D01*
X168880000Y-86445659D01*
X168880001Y-86445659D01*
X168938966Y-86440500D01*
X169115408Y-86425063D01*
X169343663Y-86363903D01*
X169557830Y-86264035D01*
X169751401Y-86128495D01*
X169918495Y-85961401D01*
X170048425Y-85775842D01*
X170103002Y-85732217D01*
X170172500Y-85725023D01*
X170234855Y-85756546D01*
X170251575Y-85775842D01*
X170381500Y-85961395D01*
X170381505Y-85961401D01*
X170548599Y-86128495D01*
X170645384Y-86196265D01*
X170742165Y-86264032D01*
X170742167Y-86264033D01*
X170742170Y-86264035D01*
X170956337Y-86363903D01*
X171184592Y-86425063D01*
X171361034Y-86440500D01*
X171419999Y-86445659D01*
X171420000Y-86445659D01*
X171420001Y-86445659D01*
X171478966Y-86440500D01*
X171655408Y-86425063D01*
X171883663Y-86363903D01*
X172097830Y-86264035D01*
X172291401Y-86128495D01*
X172458495Y-85961401D01*
X172594035Y-85767830D01*
X172693903Y-85553663D01*
X172755063Y-85325408D01*
X172775659Y-85090000D01*
X172755063Y-84854592D01*
X172693903Y-84626337D01*
X172594035Y-84412171D01*
X172588425Y-84404158D01*
X172458494Y-84218597D01*
X172291402Y-84051506D01*
X172291395Y-84051501D01*
X172097834Y-83915967D01*
X172097830Y-83915965D01*
X172070771Y-83903347D01*
X171883663Y-83816097D01*
X171883659Y-83816096D01*
X171883655Y-83816094D01*
X171655413Y-83754938D01*
X171655403Y-83754936D01*
X171420001Y-83734341D01*
X171419999Y-83734341D01*
X171184596Y-83754936D01*
X171184586Y-83754938D01*
X170956344Y-83816094D01*
X170956335Y-83816098D01*
X170742171Y-83915964D01*
X170742169Y-83915965D01*
X170548597Y-84051505D01*
X170381505Y-84218597D01*
X170251575Y-84404158D01*
X170196998Y-84447783D01*
X170127500Y-84454977D01*
X170065145Y-84423454D01*
X170048425Y-84404158D01*
X169918494Y-84218597D01*
X169751402Y-84051506D01*
X169751395Y-84051501D01*
X169557834Y-83915967D01*
X169557830Y-83915965D01*
X169530771Y-83903347D01*
X169343663Y-83816097D01*
X169343659Y-83816096D01*
X169343655Y-83816094D01*
X169115413Y-83754938D01*
X169115403Y-83754936D01*
X168880001Y-83734341D01*
X168879999Y-83734341D01*
X168644596Y-83754936D01*
X168644586Y-83754938D01*
X168416344Y-83816094D01*
X168416335Y-83816098D01*
X168202171Y-83915964D01*
X168202169Y-83915965D01*
X168008600Y-84051503D01*
X167886673Y-84173430D01*
X167825350Y-84206914D01*
X167755658Y-84201930D01*
X167699725Y-84160058D01*
X167682810Y-84129081D01*
X167633797Y-83997671D01*
X167633793Y-83997664D01*
X167547547Y-83882455D01*
X167547544Y-83882452D01*
X167432335Y-83796206D01*
X167432328Y-83796202D01*
X167297482Y-83745908D01*
X167297483Y-83745908D01*
X167237883Y-83739501D01*
X167237881Y-83739500D01*
X167237873Y-83739500D01*
X167237865Y-83739500D01*
X166107887Y-83739500D01*
X166040848Y-83719815D01*
X166020206Y-83703181D01*
X164712769Y-82395743D01*
X164712768Y-82395742D01*
X164671573Y-82368217D01*
X164589189Y-82313170D01*
X164589186Y-82313168D01*
X164589185Y-82313168D01*
X164508755Y-82279853D01*
X164451880Y-82256295D01*
X164427694Y-82251484D01*
X164306114Y-82227299D01*
X164306112Y-82227299D01*
X164157488Y-82227299D01*
X164151374Y-82227299D01*
X164151354Y-82227300D01*
X158368646Y-82227300D01*
X158368626Y-82227299D01*
X158362512Y-82227299D01*
X158213888Y-82227299D01*
X158213886Y-82227299D01*
X158092305Y-82251484D01*
X158077740Y-82254381D01*
X158068118Y-82256295D01*
X158068117Y-82256295D01*
X158011245Y-82279853D01*
X157930814Y-82313168D01*
X157807231Y-82395742D01*
X157807230Y-82395743D01*
X156499793Y-83703181D01*
X156438470Y-83736666D01*
X156412112Y-83739500D01*
X155947887Y-83739500D01*
X155880848Y-83719815D01*
X155860206Y-83703181D01*
X154578169Y-82421143D01*
X154578168Y-82421142D01*
X154536973Y-82393617D01*
X154454589Y-82338570D01*
X154454586Y-82338568D01*
X154454585Y-82338568D01*
X154374155Y-82305253D01*
X154317280Y-82281695D01*
X154293094Y-82276884D01*
X154171514Y-82252699D01*
X154171512Y-82252699D01*
X154022888Y-82252699D01*
X154016774Y-82252699D01*
X154016754Y-82252700D01*
X148467246Y-82252700D01*
X148467226Y-82252699D01*
X148461112Y-82252699D01*
X148312488Y-82252699D01*
X148312486Y-82252699D01*
X148190905Y-82276884D01*
X148176340Y-82279781D01*
X148166718Y-82281695D01*
X148166717Y-82281695D01*
X148109845Y-82305253D01*
X148029414Y-82338568D01*
X147905831Y-82421142D01*
X147905830Y-82421143D01*
X146623793Y-83703181D01*
X146562470Y-83736666D01*
X146536112Y-83739500D01*
X146071887Y-83739500D01*
X146004848Y-83719815D01*
X145984206Y-83703181D01*
X144676769Y-82395743D01*
X144676768Y-82395742D01*
X144635573Y-82368217D01*
X144553189Y-82313170D01*
X144553186Y-82313168D01*
X144553185Y-82313168D01*
X144472755Y-82279853D01*
X144415880Y-82256295D01*
X144391694Y-82251484D01*
X144270114Y-82227299D01*
X144270112Y-82227299D01*
X144121488Y-82227299D01*
X144115374Y-82227299D01*
X144115354Y-82227300D01*
X137240446Y-82227300D01*
X137240426Y-82227299D01*
X137234312Y-82227299D01*
X137085688Y-82227299D01*
X137085686Y-82227299D01*
X136964105Y-82251484D01*
X136949540Y-82254381D01*
X136939918Y-82256295D01*
X136939917Y-82256295D01*
X136883045Y-82279853D01*
X136802614Y-82313168D01*
X136679031Y-82395742D01*
X135796942Y-83277831D01*
X135714372Y-83401407D01*
X135714366Y-83401418D01*
X135657496Y-83538716D01*
X135657493Y-83538725D01*
X135637409Y-83639693D01*
X135605023Y-83701603D01*
X135544307Y-83736177D01*
X135515796Y-83739500D01*
X135485131Y-83739500D01*
X135485123Y-83739501D01*
X135425516Y-83745908D01*
X135290671Y-83796202D01*
X135290664Y-83796206D01*
X135175455Y-83882452D01*
X135175452Y-83882455D01*
X135089206Y-83997664D01*
X135089202Y-83997671D01*
X135038908Y-84132517D01*
X135032501Y-84192116D01*
X135032500Y-84192135D01*
X133723500Y-84192135D01*
X133723500Y-81752100D01*
X133743185Y-81685061D01*
X133795989Y-81639306D01*
X133847500Y-81628100D01*
X203261300Y-81628100D01*
X203328339Y-81647785D01*
G37*
%TD.AperFunction*%
%TD*%
M02*
