%TF.GenerationSoftware,KiCad,Pcbnew,8.0.8*%
%TF.CreationDate,2025-02-10T17:27:11-08:00*%
%TF.ProjectId,display_pcb,64697370-6c61-4795-9f70-63622e6b6963,rev?*%
%TF.SameCoordinates,Original*%
%TF.FileFunction,Legend,Top*%
%TF.FilePolarity,Positive*%
%FSLAX46Y46*%
G04 Gerber Fmt 4.6, Leading zero omitted, Abs format (unit mm)*
G04 Created by KiCad (PCBNEW 8.0.8) date 2025-02-10 17:27:11*
%MOMM*%
%LPD*%
G01*
G04 APERTURE LIST*
%ADD10C,0.150000*%
%ADD11C,0.120000*%
G04 APERTURE END LIST*
D10*
X154635595Y-120624819D02*
X154635595Y-121434342D01*
X154635595Y-121434342D02*
X154683214Y-121529580D01*
X154683214Y-121529580D02*
X154730833Y-121577200D01*
X154730833Y-121577200D02*
X154826071Y-121624819D01*
X154826071Y-121624819D02*
X155016547Y-121624819D01*
X155016547Y-121624819D02*
X155111785Y-121577200D01*
X155111785Y-121577200D02*
X155159404Y-121529580D01*
X155159404Y-121529580D02*
X155207023Y-121434342D01*
X155207023Y-121434342D02*
X155207023Y-120624819D01*
X155635595Y-120720057D02*
X155683214Y-120672438D01*
X155683214Y-120672438D02*
X155778452Y-120624819D01*
X155778452Y-120624819D02*
X156016547Y-120624819D01*
X156016547Y-120624819D02*
X156111785Y-120672438D01*
X156111785Y-120672438D02*
X156159404Y-120720057D01*
X156159404Y-120720057D02*
X156207023Y-120815295D01*
X156207023Y-120815295D02*
X156207023Y-120910533D01*
X156207023Y-120910533D02*
X156159404Y-121053390D01*
X156159404Y-121053390D02*
X155587976Y-121624819D01*
X155587976Y-121624819D02*
X156207023Y-121624819D01*
X167277976Y-124124819D02*
X167277976Y-123124819D01*
X167277976Y-123124819D02*
X167611309Y-123839104D01*
X167611309Y-123839104D02*
X167944642Y-123124819D01*
X167944642Y-123124819D02*
X167944642Y-124124819D01*
X168944642Y-124124819D02*
X168373214Y-124124819D01*
X168658928Y-124124819D02*
X168658928Y-123124819D01*
X168658928Y-123124819D02*
X168563690Y-123267676D01*
X168563690Y-123267676D02*
X168468452Y-123362914D01*
X168468452Y-123362914D02*
X168373214Y-123410533D01*
X84446667Y-115907200D02*
X84589524Y-115954819D01*
X84589524Y-115954819D02*
X84827619Y-115954819D01*
X84827619Y-115954819D02*
X84922857Y-115907200D01*
X84922857Y-115907200D02*
X84970476Y-115859580D01*
X84970476Y-115859580D02*
X85018095Y-115764342D01*
X85018095Y-115764342D02*
X85018095Y-115669104D01*
X85018095Y-115669104D02*
X84970476Y-115573866D01*
X84970476Y-115573866D02*
X84922857Y-115526247D01*
X84922857Y-115526247D02*
X84827619Y-115478628D01*
X84827619Y-115478628D02*
X84637143Y-115431009D01*
X84637143Y-115431009D02*
X84541905Y-115383390D01*
X84541905Y-115383390D02*
X84494286Y-115335771D01*
X84494286Y-115335771D02*
X84446667Y-115240533D01*
X84446667Y-115240533D02*
X84446667Y-115145295D01*
X84446667Y-115145295D02*
X84494286Y-115050057D01*
X84494286Y-115050057D02*
X84541905Y-115002438D01*
X84541905Y-115002438D02*
X84637143Y-114954819D01*
X84637143Y-114954819D02*
X84875238Y-114954819D01*
X84875238Y-114954819D02*
X85018095Y-115002438D01*
X85351429Y-114954819D02*
X85589524Y-115954819D01*
X85589524Y-115954819D02*
X85780000Y-115240533D01*
X85780000Y-115240533D02*
X85970476Y-115954819D01*
X85970476Y-115954819D02*
X86208572Y-114954819D01*
X87113333Y-115954819D02*
X86541905Y-115954819D01*
X86827619Y-115954819D02*
X86827619Y-114954819D01*
X86827619Y-114954819D02*
X86732381Y-115097676D01*
X86732381Y-115097676D02*
X86637143Y-115192914D01*
X86637143Y-115192914D02*
X86541905Y-115240533D01*
X116763333Y-141254819D02*
X116430000Y-140778628D01*
X116191905Y-141254819D02*
X116191905Y-140254819D01*
X116191905Y-140254819D02*
X116572857Y-140254819D01*
X116572857Y-140254819D02*
X116668095Y-140302438D01*
X116668095Y-140302438D02*
X116715714Y-140350057D01*
X116715714Y-140350057D02*
X116763333Y-140445295D01*
X116763333Y-140445295D02*
X116763333Y-140588152D01*
X116763333Y-140588152D02*
X116715714Y-140683390D01*
X116715714Y-140683390D02*
X116668095Y-140731009D01*
X116668095Y-140731009D02*
X116572857Y-140778628D01*
X116572857Y-140778628D02*
X116191905Y-140778628D01*
X117715714Y-141254819D02*
X117144286Y-141254819D01*
X117430000Y-141254819D02*
X117430000Y-140254819D01*
X117430000Y-140254819D02*
X117334762Y-140397676D01*
X117334762Y-140397676D02*
X117239524Y-140492914D01*
X117239524Y-140492914D02*
X117144286Y-140540533D01*
X137479405Y-139904819D02*
X137479405Y-138904819D01*
X137479405Y-138904819D02*
X137717500Y-138904819D01*
X137717500Y-138904819D02*
X137860357Y-138952438D01*
X137860357Y-138952438D02*
X137955595Y-139047676D01*
X137955595Y-139047676D02*
X138003214Y-139142914D01*
X138003214Y-139142914D02*
X138050833Y-139333390D01*
X138050833Y-139333390D02*
X138050833Y-139476247D01*
X138050833Y-139476247D02*
X138003214Y-139666723D01*
X138003214Y-139666723D02*
X137955595Y-139761961D01*
X137955595Y-139761961D02*
X137860357Y-139857200D01*
X137860357Y-139857200D02*
X137717500Y-139904819D01*
X137717500Y-139904819D02*
X137479405Y-139904819D01*
X139003214Y-139904819D02*
X138431786Y-139904819D01*
X138717500Y-139904819D02*
X138717500Y-138904819D01*
X138717500Y-138904819D02*
X138622262Y-139047676D01*
X138622262Y-139047676D02*
X138527024Y-139142914D01*
X138527024Y-139142914D02*
X138431786Y-139190533D01*
X115024819Y-136391904D02*
X115834342Y-136391904D01*
X115834342Y-136391904D02*
X115929580Y-136344285D01*
X115929580Y-136344285D02*
X115977200Y-136296666D01*
X115977200Y-136296666D02*
X116024819Y-136201428D01*
X116024819Y-136201428D02*
X116024819Y-136010952D01*
X116024819Y-136010952D02*
X115977200Y-135915714D01*
X115977200Y-135915714D02*
X115929580Y-135868095D01*
X115929580Y-135868095D02*
X115834342Y-135820476D01*
X115834342Y-135820476D02*
X115024819Y-135820476D01*
X116024819Y-134820476D02*
X116024819Y-135391904D01*
X116024819Y-135106190D02*
X115024819Y-135106190D01*
X115024819Y-135106190D02*
X115167676Y-135201428D01*
X115167676Y-135201428D02*
X115262914Y-135296666D01*
X115262914Y-135296666D02*
X115310533Y-135391904D01*
D11*
%TO.C,U2*%
X152747500Y-122170000D02*
X152747500Y-142610000D01*
X152747500Y-142610000D02*
X158047500Y-142610000D01*
X154397500Y-122170000D02*
X152747500Y-122170000D01*
X158047500Y-122170000D02*
X156397500Y-122170000D01*
X158047500Y-142610000D02*
X158047500Y-122170000D01*
X156397500Y-122170000D02*
G75*
G02*
X154397500Y-122170000I-1000000J0D01*
G01*
%TO.C,M1*%
X169417500Y-127270000D02*
X169417500Y-134950000D01*
X166757500Y-134950000D02*
X169417500Y-134950000D01*
X166757500Y-127270000D02*
X169417500Y-127270000D01*
X166757500Y-127270000D02*
X166757500Y-134950000D01*
X166757500Y-126000000D02*
X166757500Y-124670000D01*
X166757500Y-124670000D02*
X168087500Y-124670000D01*
%TO.C,SW1*%
X87140000Y-120000000D02*
X87140000Y-122010000D01*
X87140000Y-116390000D02*
X87140000Y-118400000D01*
X87130000Y-122010000D02*
X84430000Y-122010000D01*
X84420000Y-122010000D02*
X84420000Y-121750000D01*
X84420000Y-118220000D02*
X84420000Y-120180000D01*
X84420000Y-116650000D02*
X84420000Y-116400000D01*
X84420000Y-116650000D02*
X83880000Y-116650000D01*
X84420000Y-116390000D02*
X87140000Y-116390000D01*
%TO.C,R1*%
X118290436Y-141715000D02*
X118744564Y-141715000D01*
X118290436Y-143185000D02*
X118744564Y-143185000D01*
%TO.C,D1*%
X136732500Y-140715000D02*
X136732500Y-142185000D01*
X136732500Y-142185000D02*
X139017500Y-142185000D01*
X139017500Y-140715000D02*
X136732500Y-140715000D01*
%TO.C,U1*%
X117060000Y-111340000D02*
X117060000Y-117500000D01*
X117060000Y-111340000D02*
X135300000Y-111340000D01*
X117060000Y-136300000D02*
X117060000Y-137080000D01*
X117060000Y-137080000D02*
X118060000Y-137080000D01*
X135300000Y-111340000D02*
X135300000Y-117755000D01*
X135300000Y-136300000D02*
X135300000Y-137080000D01*
X135300000Y-137080000D02*
X134300000Y-137080000D01*
X117055000Y-118225000D02*
X116555000Y-118225000D01*
X117055000Y-117725000D01*
X117055000Y-118225000D01*
G36*
X117055000Y-118225000D02*
G01*
X116555000Y-118225000D01*
X117055000Y-117725000D01*
X117055000Y-118225000D01*
G37*
%TD*%
M02*
