M48
; DRILL file {KiCad 8.0.8} date 2025-02-10T17:27:08-0800
; FORMAT={-:-/ absolute / inch / decimal}
; #@! TF.CreationDate,2025-02-10T17:27:08-08:00
; #@! TF.GenerationSoftware,Kicad,Pcbnew,8.0.8
; #@! TF.FileFunction,Plated,1,2,PTH
FMAT,2
INCH
; #@! TA.AperFunction,Plated,PTH,ComponentDrill
T1C0.0118
; #@! TA.AperFunction,Plated,PTH,ComponentDrill
T2C0.0315
; #@! TA.AperFunction,Plated,PTH,ComponentDrill
T3C0.0394
%
G90
G05
T1
X4.8809Y-4.942
X4.8809Y-5.0021
X4.9109Y-4.912
X4.9109Y-4.972
X4.9109Y-5.0321
X4.9409Y-4.942
X4.9409Y-5.0021
X4.971Y-4.912
X4.971Y-4.972
X4.971Y-5.0321
X5.001Y-4.942
X5.001Y-5.0021
T2
X5.968Y-4.8622
X5.968Y-4.9622
X5.968Y-5.0622
X5.968Y-5.1622
X5.968Y-5.2622
X5.968Y-5.3622
X5.968Y-5.4622
X5.968Y-5.5622
X6.268Y-4.8622
X6.268Y-4.9622
X6.268Y-5.0622
X6.268Y-5.1622
X6.268Y-5.2622
X6.268Y-5.3622
X6.268Y-5.4622
X6.268Y-5.5622
T3
X6.6176Y-4.9606
X6.6176Y-5.0606
X6.6176Y-5.1606
X6.6176Y-5.2606
M30
