%TF.GenerationSoftware,KiCad,Pcbnew,8.0.8*%
%TF.CreationDate,2025-02-10T17:27:11-08:00*%
%TF.ProjectId,display_pcb,64697370-6c61-4795-9f70-63622e6b6963,rev?*%
%TF.SameCoordinates,Original*%
%TF.FileFunction,Paste,Top*%
%TF.FilePolarity,Positive*%
%FSLAX46Y46*%
G04 Gerber Fmt 4.6, Leading zero omitted, Abs format (unit mm)*
G04 Created by KiCad (PCBNEW 8.0.8) date 2025-02-10 17:27:11*
%MOMM*%
%LPD*%
G01*
G04 APERTURE LIST*
G04 Aperture macros list*
%AMRoundRect*
0 Rectangle with rounded corners*
0 $1 Rounding radius*
0 $2 $3 $4 $5 $6 $7 $8 $9 X,Y pos of 4 corners*
0 Add a 4 corners polygon primitive as box body*
4,1,4,$2,$3,$4,$5,$6,$7,$8,$9,$2,$3,0*
0 Add four circle primitives for the rounded corners*
1,1,$1+$1,$2,$3*
1,1,$1+$1,$4,$5*
1,1,$1+$1,$6,$7*
1,1,$1+$1,$8,$9*
0 Add four rect primitives between the rounded corners*
20,1,$1+$1,$2,$3,$4,$5,0*
20,1,$1+$1,$4,$5,$6,$7,0*
20,1,$1+$1,$6,$7,$8,$9,0*
20,1,$1+$1,$8,$9,$2,$3,0*%
G04 Aperture macros list end*
%ADD10RoundRect,0.250000X-0.550000X0.250000X-0.550000X-0.250000X0.550000X-0.250000X0.550000X0.250000X0*%
%ADD11RoundRect,0.250000X-0.262500X-0.450000X0.262500X-0.450000X0.262500X0.450000X-0.262500X0.450000X0*%
%ADD12RoundRect,0.218750X-0.218750X-0.256250X0.218750X-0.256250X0.218750X0.256250X-0.218750X0.256250X0*%
%ADD13R,1.500000X0.900000*%
%ADD14R,0.900000X1.500000*%
%ADD15R,1.050000X1.050000*%
G04 APERTURE END LIST*
D10*
%TO.C,SW1*%
X84630000Y-120950000D03*
X86930000Y-119200000D03*
X84630000Y-117450000D03*
%TD*%
D11*
%TO.C,R1*%
X117605000Y-142450000D03*
X119430000Y-142450000D03*
%TD*%
D12*
%TO.C,D1*%
X137430000Y-141450000D03*
X139005000Y-141450000D03*
%TD*%
D13*
%TO.C,U1*%
X117430000Y-118950000D03*
X117430000Y-120220000D03*
X117430000Y-121490000D03*
X117430000Y-122760000D03*
X117430000Y-124030000D03*
X117430000Y-125300000D03*
X117430000Y-126570000D03*
X117430000Y-127840000D03*
X117430000Y-129110000D03*
X117430000Y-130380000D03*
X117430000Y-131650000D03*
X117430000Y-132920000D03*
X117430000Y-134190000D03*
X117430000Y-135460000D03*
D14*
X120470000Y-136710000D03*
X121740000Y-136710000D03*
X123010000Y-136710000D03*
X124280000Y-136710000D03*
X125550000Y-136710000D03*
X126820000Y-136710000D03*
X128090000Y-136710000D03*
X129360000Y-136710000D03*
X130630000Y-136710000D03*
X131900000Y-136710000D03*
D13*
X134930000Y-135460000D03*
X134930000Y-134190000D03*
X134930000Y-132920000D03*
X134930000Y-131650000D03*
X134930000Y-130380000D03*
X134930000Y-129110000D03*
X134930000Y-127840000D03*
X134930000Y-126570000D03*
X134930000Y-125300000D03*
X134930000Y-124030000D03*
X134930000Y-122760000D03*
X134930000Y-121490000D03*
X134930000Y-120220000D03*
X134930000Y-118950000D03*
D15*
X123975000Y-124765000D03*
X123975000Y-126290000D03*
X123975000Y-127815000D03*
X125500000Y-124765000D03*
X125500000Y-126290000D03*
X125500000Y-127815000D03*
X127025000Y-124765000D03*
X127025000Y-126290000D03*
X127025000Y-127815000D03*
%TD*%
M02*
