%TF.GenerationSoftware,KiCad,Pcbnew,8.0.8*%
%TF.CreationDate,2025-02-10T17:27:11-08:00*%
%TF.ProjectId,display_pcb,64697370-6c61-4795-9f70-63622e6b6963,rev?*%
%TF.SameCoordinates,Original*%
%TF.FileFunction,Copper,L1,Top*%
%TF.FilePolarity,Positive*%
%FSLAX46Y46*%
G04 Gerber Fmt 4.6, Leading zero omitted, Abs format (unit mm)*
G04 Created by KiCad (PCBNEW 8.0.8) date 2025-02-10 17:27:11*
%MOMM*%
%LPD*%
G01*
G04 APERTURE LIST*
G04 Aperture macros list*
%AMRoundRect*
0 Rectangle with rounded corners*
0 $1 Rounding radius*
0 $2 $3 $4 $5 $6 $7 $8 $9 X,Y pos of 4 corners*
0 Add a 4 corners polygon primitive as box body*
4,1,4,$2,$3,$4,$5,$6,$7,$8,$9,$2,$3,0*
0 Add four circle primitives for the rounded corners*
1,1,$1+$1,$2,$3*
1,1,$1+$1,$4,$5*
1,1,$1+$1,$6,$7*
1,1,$1+$1,$8,$9*
0 Add four rect primitives between the rounded corners*
20,1,$1+$1,$2,$3,$4,$5,0*
20,1,$1+$1,$4,$5,$6,$7,0*
20,1,$1+$1,$6,$7,$8,$9,0*
20,1,$1+$1,$8,$9,$2,$3,0*%
G04 Aperture macros list end*
%TA.AperFunction,ComponentPad*%
%ADD10R,1.600000X1.600000*%
%TD*%
%TA.AperFunction,ComponentPad*%
%ADD11O,1.600000X1.600000*%
%TD*%
%TA.AperFunction,ComponentPad*%
%ADD12O,1.700000X1.700000*%
%TD*%
%TA.AperFunction,ComponentPad*%
%ADD13R,1.700000X1.700000*%
%TD*%
%TA.AperFunction,SMDPad,CuDef*%
%ADD14RoundRect,0.250000X-0.550000X0.250000X-0.550000X-0.250000X0.550000X-0.250000X0.550000X0.250000X0*%
%TD*%
%TA.AperFunction,SMDPad,CuDef*%
%ADD15RoundRect,0.250000X-0.262500X-0.450000X0.262500X-0.450000X0.262500X0.450000X-0.262500X0.450000X0*%
%TD*%
%TA.AperFunction,SMDPad,CuDef*%
%ADD16RoundRect,0.218750X-0.218750X-0.256250X0.218750X-0.256250X0.218750X0.256250X-0.218750X0.256250X0*%
%TD*%
%TA.AperFunction,SMDPad,CuDef*%
%ADD17R,1.500000X0.900000*%
%TD*%
%TA.AperFunction,SMDPad,CuDef*%
%ADD18R,0.900000X1.500000*%
%TD*%
%TA.AperFunction,SMDPad,CuDef*%
%ADD19R,1.050000X1.050000*%
%TD*%
%TA.AperFunction,HeatsinkPad*%
%ADD20C,0.600000*%
%TD*%
%TA.AperFunction,HeatsinkPad*%
%ADD21R,4.200000X4.200000*%
%TD*%
%TA.AperFunction,Conductor*%
%ADD22C,0.200000*%
%TD*%
G04 APERTURE END LIST*
D10*
%TO.P,U2,1,I1*%
%TO.N,Net-(U1-IO4)*%
X151587500Y-123500000D03*
D11*
%TO.P,U2,2,I2*%
%TO.N,Net-(U1-IO5)*%
X151587500Y-126040000D03*
%TO.P,U2,3,I3*%
%TO.N,Net-(U1-IO14)*%
X151587500Y-128580000D03*
%TO.P,U2,4,I4*%
%TO.N,Net-(U1-IO19)*%
X151587500Y-131120000D03*
%TO.P,U2,5,I5*%
%TO.N,unconnected-(U2-I5-Pad5)*%
X151587500Y-133660000D03*
%TO.P,U2,6,I6*%
%TO.N,unconnected-(U2-I6-Pad6)*%
X151587500Y-136200000D03*
%TO.P,U2,7,I7*%
%TO.N,unconnected-(U2-I7-Pad7)*%
X151587500Y-138740000D03*
%TO.P,U2,8,GND*%
%TO.N,Net-(D1-K)*%
X151587500Y-141280000D03*
%TO.P,U2,9,COM*%
%TO.N,Net-(SW1-A)*%
X159207500Y-141280000D03*
%TO.P,U2,10,O7*%
%TO.N,unconnected-(U2-O7-Pad10)*%
X159207500Y-138740000D03*
%TO.P,U2,11,O6*%
%TO.N,unconnected-(U2-O6-Pad11)*%
X159207500Y-136200000D03*
%TO.P,U2,12,O5*%
%TO.N,unconnected-(U2-O5-Pad12)*%
X159207500Y-133660000D03*
%TO.P,U2,13,O4*%
%TO.N,Net-(U2-O4)*%
X159207500Y-131120000D03*
%TO.P,U2,14,O3*%
%TO.N,Net-(U2-O3)*%
X159207500Y-128580000D03*
%TO.P,U2,15,O2*%
%TO.N,Net-(M1--)*%
X159207500Y-126040000D03*
%TO.P,U2,16,O1*%
%TO.N,Net-(U2-O1)*%
X159207500Y-123500000D03*
%TD*%
D12*
%TO.P,M1,4*%
%TO.N,Net-(U2-O4)*%
X168087500Y-133620000D03*
%TO.P,M1,3*%
%TO.N,Net-(U2-O3)*%
X168087500Y-131080000D03*
%TO.P,M1,2,-*%
%TO.N,Net-(M1--)*%
X168087500Y-128540000D03*
D13*
%TO.P,M1,1*%
%TO.N,Net-(U2-O1)*%
X168087500Y-126000000D03*
%TD*%
D14*
%TO.P,SW1,3,A*%
%TO.N,Net-(SW1-A)*%
X84630000Y-120950000D03*
%TO.P,SW1,2,B*%
%TO.N,+5V*%
X86930000Y-119200000D03*
%TO.P,SW1,1,C*%
%TO.N,Net-(D1-K)*%
X84630000Y-117450000D03*
%TD*%
D15*
%TO.P,R1,1*%
%TO.N,Net-(U1-IO34)*%
X117605000Y-142450000D03*
%TO.P,R1,2*%
%TO.N,Net-(D1-A)*%
X119430000Y-142450000D03*
%TD*%
D16*
%TO.P,D1,1,K*%
%TO.N,Net-(D1-K)*%
X137430000Y-141450000D03*
%TO.P,D1,2,A*%
%TO.N,Net-(D1-A)*%
X139005000Y-141450000D03*
%TD*%
D17*
%TO.P,U1,1,GND*%
%TO.N,Net-(D1-K)*%
X117430000Y-118950000D03*
%TO.P,U1,2,VDD*%
%TO.N,Net-(SW1-A)*%
X117430000Y-120220000D03*
%TO.P,U1,3,EN*%
%TO.N,unconnected-(U1-EN-Pad3)*%
X117430000Y-121490000D03*
%TO.P,U1,4,SENSOR_VP*%
%TO.N,unconnected-(U1-SENSOR_VP-Pad4)*%
X117430000Y-122760000D03*
%TO.P,U1,5,SENSOR_VN*%
%TO.N,unconnected-(U1-SENSOR_VN-Pad5)*%
X117430000Y-124030000D03*
%TO.P,U1,6,IO34*%
%TO.N,Net-(U1-IO34)*%
X117430000Y-125300000D03*
%TO.P,U1,7,IO35*%
%TO.N,unconnected-(U1-IO35-Pad7)*%
X117430000Y-126570000D03*
%TO.P,U1,8,IO32*%
%TO.N,unconnected-(U1-IO32-Pad8)*%
X117430000Y-127840000D03*
%TO.P,U1,9,IO33*%
%TO.N,unconnected-(U1-IO33-Pad9)*%
X117430000Y-129110000D03*
%TO.P,U1,10,IO25*%
%TO.N,unconnected-(U1-IO25-Pad10)*%
X117430000Y-130380000D03*
%TO.P,U1,11,IO26*%
%TO.N,unconnected-(U1-IO26-Pad11)*%
X117430000Y-131650000D03*
%TO.P,U1,12,IO27*%
%TO.N,unconnected-(U1-IO27-Pad12)*%
X117430000Y-132920000D03*
%TO.P,U1,13,IO14*%
%TO.N,Net-(U1-IO14)*%
X117430000Y-134190000D03*
%TO.P,U1,14,IO12*%
%TO.N,unconnected-(U1-IO12-Pad14)*%
X117430000Y-135460000D03*
D18*
%TO.P,U1,15,GND*%
%TO.N,Net-(D1-K)*%
X120470000Y-136710000D03*
%TO.P,U1,16,IO13*%
%TO.N,unconnected-(U1-IO13-Pad16)*%
X121740000Y-136710000D03*
%TO.P,U1,17,SHD/SD2*%
%TO.N,unconnected-(U1-SHD{slash}SD2-Pad17)*%
X123010000Y-136710000D03*
%TO.P,U1,18,SWP/SD3*%
%TO.N,unconnected-(U1-SWP{slash}SD3-Pad18)*%
X124280000Y-136710000D03*
%TO.P,U1,19,SCS/CMD*%
%TO.N,unconnected-(U1-SCS{slash}CMD-Pad19)*%
X125550000Y-136710000D03*
%TO.P,U1,20,SCK/CLK*%
%TO.N,unconnected-(U1-SCK{slash}CLK-Pad20)*%
X126820000Y-136710000D03*
%TO.P,U1,21,SDO/SD0*%
%TO.N,unconnected-(U1-SDO{slash}SD0-Pad21)*%
X128090000Y-136710000D03*
%TO.P,U1,22,SDI/SD1*%
%TO.N,unconnected-(U1-SDI{slash}SD1-Pad22)*%
X129360000Y-136710000D03*
%TO.P,U1,23,IO15*%
%TO.N,unconnected-(U1-IO15-Pad23)*%
X130630000Y-136710000D03*
%TO.P,U1,24,IO2*%
%TO.N,unconnected-(U1-IO2-Pad24)*%
X131900000Y-136710000D03*
D17*
%TO.P,U1,25,IO0*%
%TO.N,unconnected-(U1-IO0-Pad25)*%
X134930000Y-135460000D03*
%TO.P,U1,26,IO4*%
%TO.N,Net-(U1-IO4)*%
X134930000Y-134190000D03*
%TO.P,U1,27,IO16*%
%TO.N,unconnected-(U1-IO16-Pad27)*%
X134930000Y-132920000D03*
%TO.P,U1,28,IO17*%
%TO.N,unconnected-(U1-IO17-Pad28)*%
X134930000Y-131650000D03*
%TO.P,U1,29,IO5*%
%TO.N,Net-(U1-IO5)*%
X134930000Y-130380000D03*
%TO.P,U1,30,IO18*%
%TO.N,unconnected-(U1-IO18-Pad30)*%
X134930000Y-129110000D03*
%TO.P,U1,31,IO19*%
%TO.N,Net-(U1-IO19)*%
X134930000Y-127840000D03*
%TO.P,U1,32,NC*%
%TO.N,unconnected-(U1-NC-Pad32)*%
X134930000Y-126570000D03*
%TO.P,U1,33,IO21*%
%TO.N,unconnected-(U1-IO21-Pad33)*%
X134930000Y-125300000D03*
%TO.P,U1,34,RXD0/IO3*%
%TO.N,unconnected-(U1-RXD0{slash}IO3-Pad34)*%
X134930000Y-124030000D03*
%TO.P,U1,35,TXD0/IO1*%
%TO.N,unconnected-(U1-TXD0{slash}IO1-Pad35)*%
X134930000Y-122760000D03*
%TO.P,U1,36,IO22*%
%TO.N,unconnected-(U1-IO22-Pad36)*%
X134930000Y-121490000D03*
%TO.P,U1,37,IO23*%
%TO.N,unconnected-(U1-IO23-Pad37)*%
X134930000Y-120220000D03*
%TO.P,U1,38,GND*%
%TO.N,Net-(D1-K)*%
X134930000Y-118950000D03*
D19*
%TO.P,U1,39,GND*%
X123975000Y-124765000D03*
D20*
X123975000Y-125527500D03*
D19*
X123975000Y-126290000D03*
D20*
X123975000Y-127052500D03*
D19*
X123975000Y-127815000D03*
D20*
X124737500Y-124765000D03*
X124737500Y-126290000D03*
X124737500Y-127815000D03*
D19*
X125500000Y-124765000D03*
D20*
X125500000Y-125527500D03*
D19*
X125500000Y-126290000D03*
D21*
X125500000Y-126290000D03*
D20*
X125500000Y-127052500D03*
D19*
X125500000Y-127815000D03*
D20*
X126262500Y-124765000D03*
X126262500Y-126290000D03*
X126262500Y-127815000D03*
D19*
X127025000Y-124765000D03*
D20*
X127025000Y-125527500D03*
D19*
X127025000Y-126290000D03*
D20*
X127025000Y-127052500D03*
D19*
X127025000Y-127815000D03*
%TD*%
D22*
%TO.N,Net-(D1-K)*%
X123975000Y-127052500D02*
X123975000Y-120355000D01*
X123975000Y-120355000D02*
X124830000Y-119500000D01*
X124830000Y-119500000D02*
X131587500Y-119500000D01*
X131587500Y-119500000D02*
X133880000Y-121792500D01*
X133880000Y-121792500D02*
X133880000Y-136210000D01*
%TO.N,Net-(D1-A)*%
X139005000Y-141450000D02*
X138005000Y-142450000D01*
X138005000Y-142450000D02*
X119430000Y-142450000D01*
%TO.N,Net-(U2-O4)*%
X159207500Y-131120000D02*
X165587500Y-131120000D01*
X165587500Y-131120000D02*
X168087500Y-133620000D01*
%TO.N,Net-(U2-O3)*%
X159207500Y-128580000D02*
X165587500Y-128580000D01*
X165587500Y-128580000D02*
X168087500Y-131080000D01*
%TO.N,Net-(M1--)*%
X159207500Y-126040000D02*
X165587500Y-126040000D01*
X165587500Y-126040000D02*
X168087500Y-128540000D01*
%TO.N,Net-(U2-O1)*%
X159207500Y-123500000D02*
X165587500Y-123500000D01*
X165587500Y-123500000D02*
X168087500Y-126000000D01*
%TO.N,Net-(SW1-A)*%
X159207500Y-141280000D02*
X156587500Y-143900000D01*
X156587500Y-143900000D02*
X107580000Y-143900000D01*
X107580000Y-143900000D02*
X84630000Y-120950000D01*
%TO.N,Net-(D1-K)*%
X151587500Y-141280000D02*
X150787501Y-140480001D01*
X150787501Y-140480001D02*
X138399999Y-140480001D01*
X138399999Y-140480001D02*
X137430000Y-141450000D01*
%TO.N,Net-(U1-IO19)*%
X151587500Y-131120000D02*
X150456130Y-131120000D01*
X150456130Y-131120000D02*
X148967500Y-129631370D01*
X148967500Y-128500000D02*
X150327500Y-127140000D01*
X150327500Y-127140000D02*
X152043135Y-127140000D01*
X148967500Y-129631370D02*
X148967500Y-128500000D01*
X152853185Y-122000000D02*
X142587500Y-122000000D01*
X152043135Y-127140000D02*
X153087500Y-126095635D01*
X153087500Y-126095635D02*
X153087500Y-122234315D01*
X153087500Y-122234315D02*
X152853185Y-122000000D01*
X136747500Y-127840000D02*
X134930000Y-127840000D01*
X142587500Y-122000000D02*
X136747500Y-127840000D01*
%TO.N,Net-(U1-IO14)*%
X151587500Y-128580000D02*
X152687500Y-129680000D01*
X152687500Y-129680000D02*
X152687500Y-141735635D01*
X152687500Y-141735635D02*
X150923135Y-143500000D01*
X150923135Y-143500000D02*
X117157756Y-143500000D01*
X117157756Y-143500000D02*
X116380000Y-142722244D01*
X116380000Y-134290000D02*
X116480000Y-134190000D01*
X116380000Y-142722244D02*
X116380000Y-134290000D01*
X116480000Y-134190000D02*
X117430000Y-134190000D01*
%TO.N,Net-(U1-IO5)*%
X151587500Y-126040000D02*
X152687500Y-124940000D01*
X152687500Y-122400000D02*
X144187500Y-122400000D01*
X152687500Y-124940000D02*
X152687500Y-122400000D01*
X144187500Y-122400000D02*
X136207500Y-130380000D01*
X136207500Y-130380000D02*
X134930000Y-130380000D01*
%TO.N,Net-(U1-IO4)*%
X151587500Y-123500000D02*
X151087500Y-123500000D01*
X151087500Y-123500000D02*
X140397500Y-134190000D01*
X140397500Y-134190000D02*
X134930000Y-134190000D01*
%TO.N,Net-(U1-IO34)*%
X118380000Y-125300000D02*
X117430000Y-125300000D01*
X118480000Y-141575000D02*
X118480000Y-125400000D01*
X118480000Y-125400000D02*
X118380000Y-125300000D01*
X117605000Y-142450000D02*
X118480000Y-141575000D01*
%TO.N,Net-(D1-K)*%
X117430000Y-118950000D02*
X103588578Y-118950000D01*
X128165000Y-124765000D02*
X127025000Y-124765000D01*
X134930000Y-118950000D02*
X133980000Y-118950000D01*
X103588578Y-118950000D02*
X102088578Y-117450000D01*
X125500000Y-126290000D02*
X120470000Y-131320000D01*
X117430000Y-118950000D02*
X118160000Y-118950000D01*
X118160000Y-118950000D02*
X123975000Y-124765000D01*
X137430000Y-141450000D02*
X133880000Y-137900000D01*
X133980000Y-118950000D02*
X128165000Y-124765000D01*
X133880000Y-134670000D02*
X127025000Y-127815000D01*
X102088578Y-117450000D02*
X84630000Y-117450000D01*
X133880000Y-137900000D02*
X133880000Y-134670000D01*
X120470000Y-131320000D02*
X120470000Y-136710000D01*
%TO.N,Net-(SW1-A)*%
X116480000Y-120220000D02*
X115750000Y-120950000D01*
X117430000Y-120220000D02*
X116480000Y-120220000D01*
X115750000Y-120950000D02*
X84630000Y-120950000D01*
%TD*%
M02*
