M48
; DRILL file {KiCad 8.0.8} date 2025-02-27T22:43:33-0800
; FORMAT={-:-/ absolute / inch / decimal}
; #@! TF.CreationDate,2025-02-27T22:43:33-08:00
; #@! TF.GenerationSoftware,Kicad,Pcbnew,8.0.8
; #@! TF.FileFunction,Plated,1,2,PTH
FMAT,2
INCH
; #@! TA.AperFunction,Plated,PTH,ViaDrill
T1C0.0118
; #@! TA.AperFunction,Plated,PTH,ComponentDrill
T2C0.0295
; #@! TA.AperFunction,Plated,PTH,ComponentDrill
T3C0.0315
; #@! TA.AperFunction,Plated,PTH,ComponentDrill
T4C0.0335
; #@! TA.AperFunction,Plated,PTH,ComponentDrill
T5C0.0354
; #@! TA.AperFunction,Plated,PTH,ComponentDrill
T6C0.0394
; #@! TA.AperFunction,Plated,PTH,ComponentDrill
T7C0.0433
%
G90
G05
T1
X6.3855Y-4.4821
T2
X6.7638Y-3.4453
X6.7638Y-3.524
T3
X4.5367Y-3.495
X4.5367Y-3.7943
X5.4343Y-3.495
X5.4343Y-3.7943
T4
X5.7212Y-3.2325
X5.7212Y-3.3325
X5.7212Y-3.4325
X5.7212Y-3.5325
X5.7212Y-3.6325
X5.7212Y-3.7325
X5.7212Y-3.8325
X6.3212Y-3.2325
X6.3212Y-3.3325
X6.3212Y-3.4325
X6.3212Y-3.5325
X6.3212Y-3.6325
X6.3212Y-3.7325
X6.3212Y-3.8325
T5
X4.9465Y-4.425
X5.0465Y-4.425
T6
X6.5167Y-3.925
X6.5167Y-4.025
T7
X5.8587Y-4.3365
X5.8587Y-4.5136
X6.1146Y-4.3365
X6.1146Y-4.5136
M30
