%TF.GenerationSoftware,KiCad,Pcbnew,8.0.8*%
%TF.CreationDate,2025-02-27T22:43:42-08:00*%
%TF.ProjectId,display_pcb,64697370-6c61-4795-9f70-63622e6b6963,rev?*%
%TF.SameCoordinates,Original*%
%TF.FileFunction,Copper,L1,Top*%
%TF.FilePolarity,Positive*%
%FSLAX46Y46*%
G04 Gerber Fmt 4.6, Leading zero omitted, Abs format (unit mm)*
G04 Created by KiCad (PCBNEW 8.0.8) date 2025-02-27 22:43:43*
%MOMM*%
%LPD*%
G01*
G04 APERTURE LIST*
G04 Aperture macros list*
%AMRoundRect*
0 Rectangle with rounded corners*
0 $1 Rounding radius*
0 $2 $3 $4 $5 $6 $7 $8 $9 X,Y pos of 4 corners*
0 Add a 4 corners polygon primitive as box body*
4,1,4,$2,$3,$4,$5,$6,$7,$8,$9,$2,$3,0*
0 Add four circle primitives for the rounded corners*
1,1,$1+$1,$2,$3*
1,1,$1+$1,$4,$5*
1,1,$1+$1,$6,$7*
1,1,$1+$1,$8,$9*
0 Add four rect primitives between the rounded corners*
20,1,$1+$1,$2,$3,$4,$5,0*
20,1,$1+$1,$4,$5,$6,$7,0*
20,1,$1+$1,$6,$7,$8,$9,0*
20,1,$1+$1,$8,$9,$2,$3,0*%
G04 Aperture macros list end*
%TA.AperFunction,ComponentPad*%
%ADD10C,2.000000*%
%TD*%
%TA.AperFunction,SMDPad,CuDef*%
%ADD11RoundRect,0.250000X-0.650000X0.325000X-0.650000X-0.325000X0.650000X-0.325000X0.650000X0.325000X0*%
%TD*%
%TA.AperFunction,ComponentPad*%
%ADD12R,1.800000X1.800000*%
%TD*%
%TA.AperFunction,ComponentPad*%
%ADD13C,1.800000*%
%TD*%
%TA.AperFunction,SMDPad,CuDef*%
%ADD14RoundRect,0.250000X0.312500X0.625000X-0.312500X0.625000X-0.312500X-0.625000X0.312500X-0.625000X0*%
%TD*%
%TA.AperFunction,ComponentPad*%
%ADD15R,1.700000X1.700000*%
%TD*%
%TA.AperFunction,ComponentPad*%
%ADD16O,1.700000X1.700000*%
%TD*%
%TA.AperFunction,ComponentPad*%
%ADD17C,1.600000*%
%TD*%
%TA.AperFunction,SMDPad,CuDef*%
%ADD18RoundRect,0.250000X1.000000X-0.375000X1.000000X0.375000X-1.000000X0.375000X-1.000000X-0.375000X0*%
%TD*%
%TA.AperFunction,SMDPad,CuDef*%
%ADD19RoundRect,0.250000X0.625000X-0.312500X0.625000X0.312500X-0.625000X0.312500X-0.625000X-0.312500X0*%
%TD*%
%TA.AperFunction,ComponentPad*%
%ADD20RoundRect,0.250000X0.625000X-0.350000X0.625000X0.350000X-0.625000X0.350000X-0.625000X-0.350000X0*%
%TD*%
%TA.AperFunction,ComponentPad*%
%ADD21O,1.750000X1.200000*%
%TD*%
%TA.AperFunction,ComponentPad*%
%ADD22R,1.358000X1.358000*%
%TD*%
%TA.AperFunction,ComponentPad*%
%ADD23C,1.358000*%
%TD*%
%TA.AperFunction,ViaPad*%
%ADD24C,0.600000*%
%TD*%
%TA.AperFunction,Conductor*%
%ADD25C,0.508000*%
%TD*%
%TA.AperFunction,Conductor*%
%ADD26C,0.381000*%
%TD*%
G04 APERTURE END LIST*
D10*
%TO.P,SW2,1,1*%
%TO.N,Net-(U1-D9)*%
X148811500Y-110146000D03*
X155311500Y-110146000D03*
%TO.P,SW2,2,2*%
%TO.N,GND*%
X148811500Y-114646000D03*
X155311500Y-114646000D03*
%TD*%
D11*
%TO.P,C1,1*%
%TO.N,+BAT*%
X165523500Y-105079000D03*
%TO.P,C1,2*%
%TO.N,GND*%
X165523500Y-108029000D03*
%TD*%
%TO.P,C2,1*%
%TO.N,+BAT*%
X168063500Y-105079000D03*
%TO.P,C2,2*%
%TO.N,GND*%
X168063500Y-108029000D03*
%TD*%
D12*
%TO.P,D1,1,K*%
%TO.N,GND*%
X125640500Y-112396000D03*
D13*
%TO.P,D1,2,A*%
%TO.N,Net-(D1-A)*%
X128180500Y-112396000D03*
%TD*%
D14*
%TO.P,R1,1*%
%TO.N,Net-(U1-D7)*%
X135744000Y-112396000D03*
%TO.P,R1,2*%
%TO.N,Net-(D1-A)*%
X132819000Y-112396000D03*
%TD*%
D15*
%TO.P,J1,1,Pin_1*%
%TO.N,+BAT*%
X165523500Y-102236000D03*
D16*
%TO.P,J1,2,Pin_2*%
%TO.N,GND*%
X165523500Y-99696000D03*
%TD*%
D17*
%TO.P,M1,1*%
%TO.N,Net-(U1-D5)*%
X138031500Y-88774000D03*
%TO.P,M1,2,-*%
%TO.N,Net-(M1--)*%
X138031500Y-96374000D03*
%TO.P,M1,3*%
%TO.N,Net-(U1-D4)*%
X115231500Y-96374000D03*
%TO.P,M1,4*%
%TO.N,Net-(U1-D3)*%
X115231500Y-88774000D03*
%TD*%
D18*
%TO.P,SW1,1,A*%
%TO.N,+BAT*%
X171409500Y-102196000D03*
%TO.P,SW1,2,B*%
%TO.N,Net-(BT1-+)*%
X171409500Y-99696000D03*
%TO.P,SW1,3,C*%
%TO.N,unconnected-(SW1-C-Pad3)*%
X171409500Y-97196000D03*
%TD*%
D19*
%TO.P,R2,1*%
%TO.N,/3V3*%
X159143500Y-114100500D03*
%TO.P,R2,2*%
%TO.N,Net-(U1-D9)*%
X159143500Y-111175500D03*
%TD*%
D20*
%TO.P,BT1,1,+*%
%TO.N,Net-(BT1-+)*%
X171801500Y-89510000D03*
D21*
%TO.P,BT1,2,-*%
%TO.N,GND*%
X171801500Y-87510000D03*
%TD*%
D22*
%TO.P,U1,1,D0*%
%TO.N,/3V3*%
X145317500Y-82106000D03*
D23*
%TO.P,U1,2,D1*%
%TO.N,unconnected-(U1-D1-Pad2)*%
X145317500Y-84646000D03*
%TO.P,U1,3,D2*%
%TO.N,unconnected-(U1-D2-Pad3)*%
X145317500Y-87186000D03*
%TO.P,U1,4,D3*%
%TO.N,Net-(U1-D3)*%
X145317500Y-89726000D03*
%TO.P,U1,5,D4*%
%TO.N,Net-(U1-D4)*%
X145317500Y-92266000D03*
%TO.P,U1,6,D5*%
%TO.N,Net-(U1-D5)*%
X145317500Y-94806000D03*
%TO.P,U1,7,D6*%
%TO.N,Net-(M1--)*%
X145317500Y-97346000D03*
%TO.P,U1,8,D7*%
%TO.N,Net-(U1-D7)*%
X160557500Y-97346000D03*
%TO.P,U1,9,D8*%
%TO.N,/3V3*%
X160557500Y-94806000D03*
%TO.P,U1,10,D9*%
%TO.N,Net-(U1-D9)*%
X160557500Y-92266000D03*
%TO.P,U1,11,D10*%
%TO.N,unconnected-(U1-D10-Pad11)*%
X160557500Y-89726000D03*
%TO.P,U1,12,3V3*%
%TO.N,/3V3*%
X160557500Y-87186000D03*
%TO.P,U1,13,GND*%
%TO.N,GND*%
X160557500Y-84646000D03*
%TO.P,U1,14,5V*%
%TO.N,unconnected-(U1-5V-Pad14)*%
X160557500Y-82106000D03*
%TD*%
D24*
%TO.N,/3V3*%
X162191500Y-113846500D03*
%TD*%
D25*
%TO.N,Net-(BT1-+)*%
X171449500Y-89510000D02*
X168287500Y-92672000D01*
X171801500Y-89510000D02*
X171449500Y-89510000D01*
X168287500Y-98416000D02*
X169567500Y-99696000D01*
X169567500Y-99696000D02*
X171409500Y-99696000D01*
X168287500Y-92672000D02*
X168287500Y-98416000D01*
%TO.N,+BAT*%
X170514500Y-105079000D02*
X168063500Y-105079000D01*
X165523500Y-105079000D02*
X165523500Y-102236000D01*
X165523500Y-105079000D02*
X168063500Y-105079000D01*
X171409500Y-104184000D02*
X170514500Y-105079000D01*
X171409500Y-102196000D02*
X171409500Y-104184000D01*
D26*
%TO.N,Net-(D1-A)*%
X132819000Y-112396000D02*
X128180500Y-112396000D01*
%TO.N,Net-(U1-D3)*%
X139712500Y-86224000D02*
X117781500Y-86224000D01*
X143214500Y-89726000D02*
X139712500Y-86224000D01*
X117781500Y-86224000D02*
X115231500Y-88774000D01*
X145317500Y-89726000D02*
X143214500Y-89726000D01*
%TO.N,Net-(U1-D5)*%
X138061500Y-88804000D02*
X138061500Y-93336000D01*
X138061500Y-93336000D02*
X139585500Y-94860000D01*
X138031500Y-88774000D02*
X138061500Y-88804000D01*
X139585500Y-94860000D02*
X140347500Y-94860000D01*
X140350688Y-94856812D02*
X145266688Y-94856812D01*
X145266688Y-94856812D02*
X145317500Y-94806000D01*
X140347500Y-94860000D02*
X140350688Y-94856812D01*
%TO.N,Net-(M1--)*%
X139003500Y-97346000D02*
X138031500Y-96374000D01*
X145317500Y-97346000D02*
X139003500Y-97346000D01*
%TO.N,Net-(U1-D7)*%
X135744000Y-112396000D02*
X140591500Y-112396000D01*
X140591500Y-112396000D02*
X155641500Y-97346000D01*
X155641500Y-97346000D02*
X160557500Y-97346000D01*
%TO.N,/3V3*%
X145317500Y-82106000D02*
X150707500Y-82106000D01*
X150707500Y-82106000D02*
X155787500Y-87186000D01*
X161937500Y-114100500D02*
X159143500Y-114100500D01*
X162191500Y-113846500D02*
X161937500Y-114100500D01*
X155787500Y-87186000D02*
X160557500Y-87186000D01*
%TO.N,Net-(U1-D9)*%
X156341000Y-111175500D02*
X159143500Y-111175500D01*
X148811500Y-110146000D02*
X155311500Y-110146000D01*
X162132000Y-111175500D02*
X159143500Y-111175500D01*
X160557500Y-92266000D02*
X163207500Y-94916000D01*
X163207500Y-94916000D02*
X163207500Y-110100000D01*
X155311500Y-110146000D02*
X156341000Y-111175500D01*
X163207500Y-110100000D02*
X162132000Y-111175500D01*
%TD*%
%TA.AperFunction,Conductor*%
%TO.N,/3V3*%
G36*
X160295908Y-86563070D02*
G01*
X160302081Y-86569323D01*
X160556632Y-87181508D01*
X160556644Y-87190463D01*
X160556632Y-87190492D01*
X160302081Y-87802676D01*
X160295741Y-87808999D01*
X160286954Y-87809056D01*
X159206876Y-87379433D01*
X159200455Y-87373191D01*
X159199500Y-87368561D01*
X159199500Y-87003438D01*
X159202927Y-86995165D01*
X159206876Y-86992566D01*
X160286955Y-86562943D01*
X160295908Y-86563070D01*
G37*
%TD.AperFunction*%
%TD*%
%TA.AperFunction,Conductor*%
%TO.N,+BAT*%
G36*
X171417767Y-102203280D02*
G01*
X171417780Y-102203293D01*
X172028082Y-102814572D01*
X172031502Y-102822848D01*
X172029863Y-102828811D01*
X171666900Y-103440272D01*
X171659730Y-103445637D01*
X171656839Y-103446000D01*
X171162161Y-103446000D01*
X171153888Y-103442573D01*
X171152100Y-103440272D01*
X171083995Y-103325541D01*
X170789135Y-102828809D01*
X170787860Y-102819948D01*
X170790916Y-102814573D01*
X171401220Y-102203292D01*
X171409491Y-102199860D01*
X171417767Y-102203280D01*
G37*
%TD.AperFunction*%
%TD*%
%TA.AperFunction,Conductor*%
%TO.N,Net-(U1-D9)*%
G36*
X154933302Y-109232933D02*
G01*
X154933451Y-109233278D01*
X155310636Y-110141513D01*
X155310645Y-110150467D01*
X155310636Y-110150487D01*
X154933451Y-111058721D01*
X154927113Y-111065048D01*
X154918159Y-111065039D01*
X154917814Y-111064890D01*
X153318368Y-110339614D01*
X153312249Y-110333076D01*
X153311500Y-110328958D01*
X153311500Y-109963041D01*
X153314927Y-109954768D01*
X153318365Y-109952386D01*
X154917814Y-109227108D01*
X154926764Y-109226814D01*
X154933302Y-109232933D01*
G37*
%TD.AperFunction*%
%TD*%
%TA.AperFunction,Conductor*%
%TO.N,/3V3*%
G36*
X146004567Y-81432804D02*
G01*
X146670633Y-81911998D01*
X146675347Y-81919611D01*
X146675500Y-81921495D01*
X146675500Y-82290504D01*
X146672073Y-82298777D01*
X146670633Y-82300001D01*
X146004567Y-82779195D01*
X145995850Y-82781245D01*
X145989467Y-82777977D01*
X145324791Y-82114279D01*
X145321358Y-82106009D01*
X145324779Y-82097733D01*
X145324791Y-82097721D01*
X145989468Y-81434021D01*
X145997743Y-81430601D01*
X146004567Y-81432804D01*
G37*
%TD.AperFunction*%
%TD*%
%TA.AperFunction,Conductor*%
%TO.N,Net-(M1--)*%
G36*
X138768818Y-96072300D02*
G01*
X138775117Y-96078564D01*
X139211020Y-97113104D01*
X139227966Y-97153321D01*
X139228884Y-97157864D01*
X139228884Y-97521050D01*
X139225457Y-97529323D01*
X139217184Y-97532750D01*
X139214013Y-97532312D01*
X137738017Y-97116670D01*
X137730982Y-97111129D01*
X137729926Y-97102237D01*
X137730368Y-97100954D01*
X138028646Y-96378489D01*
X138034971Y-96372151D01*
X138034989Y-96372143D01*
X138759865Y-96072295D01*
X138768818Y-96072300D01*
G37*
%TD.AperFunction*%
%TD*%
%TA.AperFunction,Conductor*%
%TO.N,Net-(U1-D3)*%
G36*
X145055908Y-89103070D02*
G01*
X145062081Y-89109323D01*
X145316632Y-89721508D01*
X145316644Y-89730463D01*
X145316632Y-89730492D01*
X145062081Y-90342676D01*
X145055741Y-90348999D01*
X145046954Y-90349056D01*
X143966876Y-89919433D01*
X143960455Y-89913191D01*
X143959500Y-89908561D01*
X143959500Y-89543438D01*
X143962927Y-89535165D01*
X143966876Y-89532566D01*
X145046955Y-89102943D01*
X145055908Y-89103070D01*
G37*
%TD.AperFunction*%
%TD*%
%TA.AperFunction,Conductor*%
%TO.N,+BAT*%
G36*
X165778905Y-103932427D02*
G01*
X165780848Y-103934997D01*
X166094192Y-104496284D01*
X166095232Y-104505178D01*
X166092256Y-104510253D01*
X165531780Y-105071705D01*
X165523510Y-105075139D01*
X165515234Y-105071719D01*
X165515220Y-105071705D01*
X164954743Y-104510253D01*
X164951323Y-104501977D01*
X164952806Y-104496285D01*
X165266152Y-103934996D01*
X165273177Y-103929444D01*
X165276368Y-103929000D01*
X165770632Y-103929000D01*
X165778905Y-103932427D01*
G37*
%TD.AperFunction*%
%TD*%
%TA.AperFunction,Conductor*%
%TO.N,+BAT*%
G36*
X166275303Y-104525568D02*
G01*
X166991277Y-104822009D01*
X166997609Y-104828339D01*
X166998500Y-104832818D01*
X166998500Y-105325181D01*
X166995073Y-105333454D01*
X166991276Y-105335991D01*
X166275307Y-105632429D01*
X166266352Y-105632428D01*
X166263843Y-105631003D01*
X165864233Y-105333454D01*
X165535101Y-105088382D01*
X165530513Y-105080695D01*
X165532706Y-105072012D01*
X165535099Y-105069618D01*
X166263845Y-104526995D01*
X166272526Y-104524803D01*
X166275303Y-104525568D01*
G37*
%TD.AperFunction*%
%TD*%
%TA.AperFunction,Conductor*%
%TO.N,/3V3*%
G36*
X159870625Y-113560208D02*
G01*
X159872963Y-113561359D01*
X160574469Y-113906784D01*
X160580377Y-113913513D01*
X160581000Y-113917280D01*
X160581000Y-114283719D01*
X160577573Y-114291992D01*
X160574469Y-114294215D01*
X159870628Y-114640790D01*
X159861692Y-114641371D01*
X159858421Y-114639640D01*
X159395464Y-114291000D01*
X159154909Y-114109845D01*
X159150362Y-114102132D01*
X159152602Y-114093462D01*
X159154908Y-114091155D01*
X159858423Y-113561358D01*
X159867091Y-113559119D01*
X159870625Y-113560208D01*
G37*
%TD.AperFunction*%
%TD*%
%TA.AperFunction,Conductor*%
%TO.N,Net-(U1-D9)*%
G36*
X158428576Y-110636358D02*
G01*
X158796707Y-110913587D01*
X159132089Y-111166154D01*
X159136637Y-111173868D01*
X159134397Y-111182538D01*
X159132089Y-111184846D01*
X158428578Y-111714640D01*
X158419908Y-111716880D01*
X158416371Y-111715790D01*
X157712531Y-111369215D01*
X157706623Y-111362486D01*
X157706000Y-111358719D01*
X157706000Y-110992280D01*
X157709427Y-110984007D01*
X157712531Y-110981784D01*
X158416373Y-110635208D01*
X158425307Y-110634628D01*
X158428576Y-110636358D01*
G37*
%TD.AperFunction*%
%TD*%
%TA.AperFunction,Conductor*%
%TO.N,+BAT*%
G36*
X168815303Y-104525568D02*
G01*
X169531277Y-104822009D01*
X169537609Y-104828339D01*
X169538500Y-104832818D01*
X169538500Y-105325181D01*
X169535073Y-105333454D01*
X169531276Y-105335991D01*
X168815307Y-105632429D01*
X168806352Y-105632428D01*
X168803843Y-105631003D01*
X168404233Y-105333454D01*
X168075101Y-105088382D01*
X168070513Y-105080695D01*
X168072706Y-105072012D01*
X168075099Y-105069618D01*
X168803845Y-104526995D01*
X168812526Y-104524803D01*
X168815303Y-104525568D01*
G37*
%TD.AperFunction*%
%TD*%
%TA.AperFunction,Conductor*%
%TO.N,Net-(U1-D5)*%
G36*
X145062148Y-94189495D02*
G01*
X145062274Y-94189788D01*
X145316632Y-94801508D01*
X145316644Y-94810463D01*
X145316632Y-94810492D01*
X145061917Y-95423069D01*
X145055577Y-95429392D01*
X145047202Y-95429604D01*
X143977395Y-95050074D01*
X143970744Y-95044078D01*
X143969607Y-95039047D01*
X143969607Y-94673889D01*
X143973034Y-94665616D01*
X143976518Y-94663214D01*
X145046686Y-94183602D01*
X145055637Y-94183347D01*
X145062148Y-94189495D01*
G37*
%TD.AperFunction*%
%TD*%
%TA.AperFunction,Conductor*%
%TO.N,/3V3*%
G36*
X161987537Y-113642499D02*
G01*
X162190828Y-113844836D01*
X162193397Y-113848685D01*
X162301284Y-114111436D01*
X162301257Y-114120391D01*
X162294905Y-114126703D01*
X162293558Y-114127163D01*
X161711507Y-114286938D01*
X161702622Y-114285823D01*
X161697127Y-114278752D01*
X161696710Y-114275655D01*
X161696710Y-113914932D01*
X161700137Y-113906659D01*
X161700190Y-113906606D01*
X161971116Y-113642414D01*
X161979430Y-113639093D01*
X161987537Y-113642499D01*
G37*
%TD.AperFunction*%
%TD*%
%TA.AperFunction,Conductor*%
%TO.N,Net-(U1-D9)*%
G36*
X149204840Y-109226960D02*
G01*
X149205185Y-109227109D01*
X149396328Y-109313783D01*
X150804633Y-109952386D01*
X150810751Y-109958923D01*
X150811500Y-109963041D01*
X150811500Y-110328958D01*
X150808073Y-110337231D01*
X150804632Y-110339614D01*
X149205185Y-111064890D01*
X149196235Y-111065185D01*
X149189697Y-111059066D01*
X149189566Y-111058764D01*
X148812362Y-110150485D01*
X148812354Y-110141535D01*
X149189549Y-109233276D01*
X149195886Y-109226951D01*
X149204840Y-109226960D01*
G37*
%TD.AperFunction*%
%TD*%
%TA.AperFunction,Conductor*%
%TO.N,+BAT*%
G36*
X167320647Y-104525571D02*
G01*
X167323153Y-104526994D01*
X167733876Y-104832818D01*
X168051897Y-105069616D01*
X168056486Y-105077305D01*
X168054293Y-105085988D01*
X168051897Y-105088384D01*
X167323156Y-105631003D01*
X167314473Y-105633196D01*
X167311692Y-105632429D01*
X166595724Y-105335991D01*
X166589391Y-105329660D01*
X166588500Y-105325181D01*
X166588500Y-104832818D01*
X166591927Y-104824545D01*
X166595720Y-104822010D01*
X167311694Y-104525570D01*
X167320647Y-104525571D01*
G37*
%TD.AperFunction*%
%TD*%
%TA.AperFunction,Conductor*%
%TO.N,Net-(M1--)*%
G36*
X145055908Y-96723070D02*
G01*
X145062081Y-96729323D01*
X145316632Y-97341508D01*
X145316644Y-97350463D01*
X145316632Y-97350492D01*
X145062081Y-97962676D01*
X145055741Y-97968999D01*
X145046954Y-97969056D01*
X143966876Y-97539433D01*
X143960455Y-97533191D01*
X143959500Y-97528561D01*
X143959500Y-97163438D01*
X143962927Y-97155165D01*
X143966876Y-97152566D01*
X145046955Y-96722943D01*
X145055908Y-96723070D01*
G37*
%TD.AperFunction*%
%TD*%
%TA.AperFunction,Conductor*%
%TO.N,Net-(U1-D7)*%
G36*
X160295908Y-96723070D02*
G01*
X160302081Y-96729323D01*
X160556632Y-97341508D01*
X160556644Y-97350463D01*
X160556632Y-97350492D01*
X160302081Y-97962676D01*
X160295741Y-97968999D01*
X160286954Y-97969056D01*
X159206876Y-97539433D01*
X159200455Y-97533191D01*
X159199500Y-97528561D01*
X159199500Y-97163438D01*
X159202927Y-97155165D01*
X159206876Y-97152566D01*
X160286955Y-96722943D01*
X160295908Y-96723070D01*
G37*
%TD.AperFunction*%
%TD*%
%TA.AperFunction,Conductor*%
%TO.N,Net-(U1-D7)*%
G36*
X136314462Y-111838766D02*
G01*
X136544213Y-111990708D01*
X136863754Y-112202031D01*
X136868764Y-112209452D01*
X136869000Y-112211789D01*
X136869000Y-112580210D01*
X136865573Y-112588483D01*
X136863754Y-112589969D01*
X136314462Y-112953233D01*
X136305671Y-112954938D01*
X136299742Y-112951754D01*
X135751293Y-112404278D01*
X135747860Y-112396010D01*
X135751279Y-112387735D01*
X136299743Y-111840244D01*
X136308018Y-111836825D01*
X136314462Y-111838766D01*
G37*
%TD.AperFunction*%
%TD*%
%TA.AperFunction,Conductor*%
%TO.N,Net-(U1-D5)*%
G36*
X138759918Y-89075706D02*
G01*
X138766243Y-89082045D01*
X138766281Y-89090880D01*
X138254952Y-90360703D01*
X138248683Y-90367098D01*
X138244099Y-90368033D01*
X137878570Y-90368033D01*
X137870297Y-90364606D01*
X137867898Y-90361128D01*
X137297328Y-89091126D01*
X137297063Y-89082175D01*
X137303205Y-89075659D01*
X137303429Y-89075561D01*
X138027012Y-88774864D01*
X138035961Y-88774854D01*
X138759918Y-89075706D01*
G37*
%TD.AperFunction*%
%TD*%
%TA.AperFunction,Conductor*%
%TO.N,Net-(U1-D9)*%
G36*
X156234519Y-109767381D02*
G01*
X156240367Y-109772695D01*
X156883698Y-110982423D01*
X156885068Y-110987917D01*
X156885068Y-111352550D01*
X156881641Y-111360823D01*
X156873368Y-111364250D01*
X156871748Y-111364137D01*
X155321569Y-111147407D01*
X155313850Y-111142868D01*
X155311489Y-111135834D01*
X155310507Y-110153826D01*
X155313926Y-110145552D01*
X155317730Y-110143008D01*
X156225565Y-109767378D01*
X156234519Y-109767381D01*
G37*
%TD.AperFunction*%
%TD*%
%TA.AperFunction,Conductor*%
%TO.N,+BAT*%
G36*
X165531766Y-102243276D02*
G01*
X166215276Y-102927590D01*
X166366561Y-103079053D01*
X166369983Y-103087328D01*
X166367863Y-103094038D01*
X165780994Y-103931017D01*
X165773438Y-103935824D01*
X165771414Y-103936000D01*
X165275586Y-103936000D01*
X165267313Y-103932573D01*
X165266006Y-103931017D01*
X164679136Y-103094038D01*
X164677192Y-103085297D01*
X164680437Y-103079054D01*
X165515223Y-102243286D01*
X165523493Y-102239855D01*
X165531766Y-102243276D01*
G37*
%TD.AperFunction*%
%TD*%
%TA.AperFunction,Conductor*%
%TO.N,Net-(BT1-+)*%
G36*
X171794788Y-89508371D02*
G01*
X171802576Y-89512792D01*
X171804488Y-89516410D01*
X171991392Y-90099445D01*
X171990654Y-90108370D01*
X171984419Y-90113949D01*
X170731305Y-90591787D01*
X170722353Y-90591533D01*
X170718863Y-90589128D01*
X170371822Y-90242087D01*
X170368395Y-90233814D01*
X170370385Y-90227287D01*
X170922486Y-89406480D01*
X170929947Y-89401529D01*
X170933633Y-89401400D01*
X171794788Y-89508371D01*
G37*
%TD.AperFunction*%
%TD*%
%TA.AperFunction,Conductor*%
%TO.N,Net-(U1-D9)*%
G36*
X161183119Y-92010564D02*
G01*
X161189371Y-92016736D01*
X161566243Y-92891451D01*
X161649314Y-93084256D01*
X161649441Y-93093210D01*
X161646842Y-93097159D01*
X161388659Y-93355342D01*
X161380386Y-93358769D01*
X161375757Y-93357814D01*
X160308236Y-92897871D01*
X160301995Y-92891451D01*
X160302052Y-92882664D01*
X160554938Y-92269787D01*
X160561258Y-92263450D01*
X161174165Y-92010552D01*
X161183119Y-92010564D01*
G37*
%TD.AperFunction*%
%TD*%
%TA.AperFunction,Conductor*%
%TO.N,Net-(D1-A)*%
G36*
X128535623Y-111569226D02*
G01*
X128535818Y-111569309D01*
X129973515Y-112202424D01*
X129979706Y-112208895D01*
X129980500Y-112213132D01*
X129980500Y-112578867D01*
X129977073Y-112587140D01*
X129973515Y-112589575D01*
X128535850Y-113222676D01*
X128526898Y-113222874D01*
X128520427Y-113216683D01*
X128520330Y-113216456D01*
X128258902Y-112587140D01*
X128181363Y-112400487D01*
X128181355Y-112391534D01*
X128181364Y-112391512D01*
X128257226Y-112208895D01*
X128520331Y-111575541D01*
X128526669Y-111569217D01*
X128535623Y-111569226D01*
G37*
%TD.AperFunction*%
%TD*%
%TA.AperFunction,Conductor*%
%TO.N,Net-(BT1-+)*%
G36*
X170238782Y-99147066D02*
G01*
X171389436Y-99686961D01*
X171395469Y-99693577D01*
X171395057Y-99702522D01*
X171390120Y-99707795D01*
X170319076Y-100299073D01*
X170310177Y-100300071D01*
X170308412Y-100299404D01*
X170307713Y-100299073D01*
X169996235Y-100151515D01*
X169379564Y-99859377D01*
X169373554Y-99852738D01*
X169373999Y-99843794D01*
X169376297Y-99840533D01*
X169723007Y-99493823D01*
X169724653Y-99492455D01*
X170227201Y-99148007D01*
X170235962Y-99146158D01*
X170238782Y-99147066D01*
G37*
%TD.AperFunction*%
%TD*%
%TA.AperFunction,Conductor*%
%TO.N,Net-(D1-A)*%
G36*
X132263257Y-111840245D02*
G01*
X132811705Y-112387720D01*
X132815139Y-112395990D01*
X132811719Y-112404266D01*
X132811705Y-112404280D01*
X132263257Y-112951754D01*
X132254981Y-112955174D01*
X132248537Y-112953233D01*
X131699246Y-112589969D01*
X131694236Y-112582547D01*
X131694000Y-112580210D01*
X131694000Y-112211789D01*
X131697427Y-112203516D01*
X131699241Y-112202033D01*
X132248537Y-111838765D01*
X132257328Y-111837061D01*
X132263257Y-111840245D01*
G37*
%TD.AperFunction*%
%TD*%
%TA.AperFunction,Conductor*%
%TO.N,Net-(U1-D9)*%
G36*
X159870625Y-110635208D02*
G01*
X159872963Y-110636359D01*
X160574469Y-110981784D01*
X160580377Y-110988513D01*
X160581000Y-110992280D01*
X160581000Y-111358719D01*
X160577573Y-111366992D01*
X160574469Y-111369215D01*
X159870628Y-111715790D01*
X159861692Y-111716371D01*
X159858421Y-111714640D01*
X159395464Y-111366000D01*
X159154909Y-111184845D01*
X159150362Y-111177132D01*
X159152602Y-111168462D01*
X159154908Y-111166155D01*
X159858423Y-110636358D01*
X159867091Y-110634119D01*
X159870625Y-110635208D01*
G37*
%TD.AperFunction*%
%TD*%
%TA.AperFunction,Conductor*%
%TO.N,Net-(U1-D3)*%
G36*
X116229938Y-87510905D02*
G01*
X116233644Y-87513404D01*
X116492095Y-87771855D01*
X116495522Y-87780128D01*
X116494668Y-87784515D01*
X115975022Y-89069222D01*
X115968743Y-89075607D01*
X115959789Y-89075681D01*
X115959730Y-89075657D01*
X115645789Y-88946043D01*
X115235287Y-88776562D01*
X115228948Y-88770237D01*
X115228937Y-88770212D01*
X114929849Y-88045785D01*
X114929860Y-88036833D01*
X114936197Y-88030509D01*
X116220984Y-87510831D01*
X116229938Y-87510905D01*
G37*
%TD.AperFunction*%
%TD*%
%TA.AperFunction,Conductor*%
%TO.N,GND*%
G36*
X175380039Y-77864185D02*
G01*
X175425794Y-77916989D01*
X175437000Y-77968500D01*
X175437000Y-116597500D01*
X175417315Y-116664539D01*
X175364511Y-116710294D01*
X175313000Y-116721500D01*
X111792000Y-116721500D01*
X111724961Y-116701815D01*
X111679206Y-116649011D01*
X111668000Y-116597500D01*
X111668000Y-114645994D01*
X147306359Y-114645994D01*
X147306359Y-114646005D01*
X147326885Y-114893729D01*
X147326887Y-114893738D01*
X147387912Y-115134717D01*
X147487767Y-115362367D01*
X147588062Y-115515881D01*
X148287712Y-114816233D01*
X148298982Y-114858292D01*
X148371390Y-114983708D01*
X148473792Y-115086110D01*
X148599208Y-115158518D01*
X148641266Y-115169787D01*
X147941443Y-115869609D01*
X147988268Y-115906055D01*
X147988271Y-115906057D01*
X148206885Y-116024364D01*
X148206896Y-116024369D01*
X148442006Y-116105083D01*
X148687207Y-116146000D01*
X148935793Y-116146000D01*
X149180993Y-116105083D01*
X149416103Y-116024369D01*
X149416114Y-116024364D01*
X149634730Y-115906056D01*
X149634736Y-115906051D01*
X149681555Y-115869610D01*
X149681556Y-115869609D01*
X148981733Y-115169787D01*
X149023792Y-115158518D01*
X149149208Y-115086110D01*
X149251610Y-114983708D01*
X149324018Y-114858292D01*
X149335287Y-114816234D01*
X150034935Y-115515882D01*
X150135233Y-115362364D01*
X150235087Y-115134717D01*
X150296112Y-114893738D01*
X150296114Y-114893729D01*
X150316641Y-114646005D01*
X150316641Y-114645994D01*
X153806359Y-114645994D01*
X153806359Y-114646005D01*
X153826885Y-114893729D01*
X153826887Y-114893738D01*
X153887912Y-115134717D01*
X153987767Y-115362367D01*
X154088062Y-115515881D01*
X154787712Y-114816233D01*
X154798982Y-114858292D01*
X154871390Y-114983708D01*
X154973792Y-115086110D01*
X155099208Y-115158518D01*
X155141266Y-115169787D01*
X154441443Y-115869609D01*
X154488268Y-115906055D01*
X154488271Y-115906057D01*
X154706885Y-116024364D01*
X154706896Y-116024369D01*
X154942006Y-116105083D01*
X155187207Y-116146000D01*
X155435793Y-116146000D01*
X155680993Y-116105083D01*
X155916103Y-116024369D01*
X155916114Y-116024364D01*
X156134730Y-115906056D01*
X156134736Y-115906051D01*
X156181555Y-115869610D01*
X156181556Y-115869609D01*
X155481733Y-115169787D01*
X155523792Y-115158518D01*
X155649208Y-115086110D01*
X155751610Y-114983708D01*
X155824018Y-114858292D01*
X155835287Y-114816234D01*
X156534935Y-115515882D01*
X156635233Y-115362364D01*
X156735087Y-115134717D01*
X156796112Y-114893738D01*
X156796114Y-114893729D01*
X156816641Y-114646005D01*
X156816641Y-114645994D01*
X156796114Y-114398270D01*
X156796112Y-114398261D01*
X156735087Y-114157282D01*
X156635232Y-113929632D01*
X156534935Y-113776116D01*
X155835287Y-114475765D01*
X155824018Y-114433708D01*
X155751610Y-114308292D01*
X155649208Y-114205890D01*
X155523792Y-114133482D01*
X155481733Y-114122212D01*
X155865961Y-113737983D01*
X157768000Y-113737983D01*
X157768000Y-114463001D01*
X157768001Y-114463019D01*
X157778500Y-114565796D01*
X157778501Y-114565799D01*
X157833685Y-114732331D01*
X157833687Y-114732336D01*
X157853801Y-114764946D01*
X157925788Y-114881656D01*
X158049844Y-115005712D01*
X158199166Y-115097814D01*
X158365703Y-115152999D01*
X158468491Y-115163500D01*
X159818508Y-115163499D01*
X159921297Y-115152999D01*
X160004565Y-115125406D01*
X160087832Y-115097815D01*
X160088477Y-115097514D01*
X160097292Y-115092639D01*
X160682957Y-114804255D01*
X160737734Y-114791500D01*
X161686113Y-114791500D01*
X161694942Y-114791814D01*
X161702563Y-114792359D01*
X161702573Y-114792357D01*
X161704110Y-114792317D01*
X161717160Y-114791500D01*
X162005560Y-114791500D01*
X162095370Y-114773634D01*
X162139057Y-114764945D01*
X162264811Y-114712856D01*
X162291828Y-114694804D01*
X162377987Y-114637235D01*
X162377987Y-114637234D01*
X162383053Y-114633850D01*
X162384011Y-114635284D01*
X162420003Y-114616653D01*
X162427370Y-114614631D01*
X162456923Y-114605538D01*
X162458270Y-114605078D01*
X162497440Y-114587919D01*
X162506211Y-114584469D01*
X162541022Y-114572289D01*
X162693762Y-114476316D01*
X162821316Y-114348762D01*
X162917289Y-114196022D01*
X162976868Y-114025755D01*
X162987698Y-113929637D01*
X162997065Y-113846503D01*
X162997065Y-113846496D01*
X162976869Y-113667250D01*
X162976868Y-113667245D01*
X162931673Y-113538086D01*
X162917289Y-113496978D01*
X162912688Y-113489656D01*
X162853576Y-113395580D01*
X162821316Y-113344238D01*
X162693762Y-113216684D01*
X162659712Y-113195289D01*
X162541023Y-113120711D01*
X162370754Y-113061131D01*
X162370749Y-113061130D01*
X162191504Y-113040935D01*
X162191496Y-113040935D01*
X162012250Y-113061130D01*
X162012245Y-113061131D01*
X161841976Y-113120711D01*
X161689238Y-113216684D01*
X161689235Y-113216686D01*
X161651681Y-113254239D01*
X161637064Y-113266745D01*
X161618204Y-113280497D01*
X161618201Y-113280500D01*
X161522034Y-113374278D01*
X161460294Y-113406988D01*
X161435463Y-113409500D01*
X160737736Y-113409500D01*
X160682959Y-113396745D01*
X160097286Y-113108357D01*
X160088481Y-113103488D01*
X160087830Y-113103184D01*
X160074685Y-113098828D01*
X160067911Y-113096362D01*
X160019485Y-113077122D01*
X160015962Y-113076037D01*
X160015948Y-113076034D01*
X160005067Y-113074212D01*
X159986545Y-113069621D01*
X159921300Y-113048001D01*
X159818510Y-113037500D01*
X158468498Y-113037500D01*
X158468481Y-113037501D01*
X158365703Y-113048000D01*
X158365700Y-113048001D01*
X158199168Y-113103185D01*
X158199163Y-113103187D01*
X158049842Y-113195289D01*
X157925789Y-113319342D01*
X157833687Y-113468663D01*
X157833685Y-113468668D01*
X157826730Y-113489657D01*
X157778501Y-113635203D01*
X157778501Y-113635204D01*
X157778500Y-113635204D01*
X157768000Y-113737983D01*
X155865961Y-113737983D01*
X156181555Y-113422389D01*
X156181555Y-113422388D01*
X156134736Y-113385947D01*
X156134731Y-113385944D01*
X155916114Y-113267635D01*
X155916103Y-113267630D01*
X155680993Y-113186916D01*
X155435793Y-113146000D01*
X155187207Y-113146000D01*
X154942006Y-113186916D01*
X154706896Y-113267630D01*
X154706885Y-113267635D01*
X154488270Y-113385943D01*
X154441443Y-113422389D01*
X155141266Y-114122212D01*
X155099208Y-114133482D01*
X154973792Y-114205890D01*
X154871390Y-114308292D01*
X154798982Y-114433708D01*
X154787712Y-114475766D01*
X154088063Y-113776117D01*
X153987767Y-113929633D01*
X153987765Y-113929637D01*
X153887912Y-114157282D01*
X153826887Y-114398261D01*
X153826885Y-114398270D01*
X153806359Y-114645994D01*
X150316641Y-114645994D01*
X150296114Y-114398270D01*
X150296112Y-114398261D01*
X150235087Y-114157282D01*
X150135232Y-113929632D01*
X150034935Y-113776116D01*
X149335287Y-114475765D01*
X149324018Y-114433708D01*
X149251610Y-114308292D01*
X149149208Y-114205890D01*
X149023792Y-114133482D01*
X148981733Y-114122212D01*
X149681555Y-113422389D01*
X149681555Y-113422388D01*
X149634736Y-113385947D01*
X149634731Y-113385944D01*
X149416114Y-113267635D01*
X149416103Y-113267630D01*
X149180993Y-113186916D01*
X148935793Y-113146000D01*
X148687207Y-113146000D01*
X148442006Y-113186916D01*
X148206896Y-113267630D01*
X148206885Y-113267635D01*
X147988270Y-113385943D01*
X147941443Y-113422389D01*
X148641266Y-114122212D01*
X148599208Y-114133482D01*
X148473792Y-114205890D01*
X148371390Y-114308292D01*
X148298982Y-114433708D01*
X148287712Y-114475766D01*
X147588063Y-113776117D01*
X147487767Y-113929633D01*
X147487765Y-113929637D01*
X147387912Y-114157282D01*
X147326887Y-114398261D01*
X147326885Y-114398270D01*
X147306359Y-114645994D01*
X111668000Y-114645994D01*
X111668000Y-111448155D01*
X124240500Y-111448155D01*
X124240500Y-112146000D01*
X125265222Y-112146000D01*
X125221167Y-112222306D01*
X125190500Y-112336756D01*
X125190500Y-112455244D01*
X125221167Y-112569694D01*
X125265222Y-112646000D01*
X124240500Y-112646000D01*
X124240500Y-113343844D01*
X124246901Y-113403372D01*
X124246903Y-113403379D01*
X124297145Y-113538086D01*
X124297149Y-113538093D01*
X124383309Y-113653187D01*
X124383312Y-113653190D01*
X124498406Y-113739350D01*
X124498413Y-113739354D01*
X124633120Y-113789596D01*
X124633127Y-113789598D01*
X124692655Y-113795999D01*
X124692672Y-113796000D01*
X125390500Y-113796000D01*
X125390500Y-112771277D01*
X125466806Y-112815333D01*
X125581256Y-112846000D01*
X125699744Y-112846000D01*
X125814194Y-112815333D01*
X125890500Y-112771277D01*
X125890500Y-113796000D01*
X126588328Y-113796000D01*
X126588344Y-113795999D01*
X126647872Y-113789598D01*
X126647879Y-113789596D01*
X126782586Y-113739354D01*
X126782593Y-113739350D01*
X126897687Y-113653190D01*
X126897690Y-113653187D01*
X126983850Y-113538093D01*
X126983855Y-113538084D01*
X127012575Y-113461081D01*
X127054445Y-113405147D01*
X127119909Y-113380729D01*
X127188182Y-113395580D01*
X127219984Y-113420428D01*
X127228716Y-113429913D01*
X127228719Y-113429915D01*
X127228722Y-113429918D01*
X127411865Y-113572464D01*
X127411871Y-113572468D01*
X127411874Y-113572470D01*
X127527794Y-113635203D01*
X127611922Y-113680731D01*
X127615997Y-113682936D01*
X127729987Y-113722068D01*
X127835515Y-113758297D01*
X127835517Y-113758297D01*
X127835519Y-113758298D01*
X128064451Y-113796500D01*
X128064452Y-113796500D01*
X128296548Y-113796500D01*
X128296549Y-113796500D01*
X128525481Y-113758298D01*
X128728289Y-113688673D01*
X128735212Y-113686521D01*
X128739577Y-113685305D01*
X128739895Y-113685164D01*
X128740169Y-113685058D01*
X128744993Y-113682939D01*
X128745003Y-113682936D01*
X128745011Y-113682931D01*
X128749448Y-113680983D01*
X128749939Y-113680741D01*
X130074346Y-113097516D01*
X130124320Y-113087000D01*
X131497114Y-113087000D01*
X131564153Y-113106685D01*
X131565510Y-113107569D01*
X131698149Y-113195288D01*
X131758998Y-113235529D01*
X131804058Y-113288928D01*
X131808303Y-113299950D01*
X131814730Y-113319344D01*
X131821686Y-113340334D01*
X131913788Y-113489656D01*
X132037844Y-113613712D01*
X132187166Y-113705814D01*
X132353703Y-113760999D01*
X132456491Y-113771500D01*
X133181508Y-113771499D01*
X133181516Y-113771498D01*
X133181519Y-113771498D01*
X133237802Y-113765748D01*
X133284297Y-113760999D01*
X133450834Y-113705814D01*
X133600156Y-113613712D01*
X133724212Y-113489656D01*
X133816314Y-113340334D01*
X133871499Y-113173797D01*
X133882000Y-113071009D01*
X133881999Y-111720992D01*
X133881104Y-111712235D01*
X133871499Y-111618203D01*
X133871498Y-111618200D01*
X133867313Y-111605570D01*
X133816314Y-111451666D01*
X133724212Y-111302344D01*
X133600156Y-111178288D01*
X133487925Y-111109064D01*
X133450836Y-111086187D01*
X133450831Y-111086185D01*
X133429718Y-111079189D01*
X133284297Y-111031001D01*
X133284295Y-111031000D01*
X133181510Y-111020500D01*
X132456498Y-111020500D01*
X132456480Y-111020501D01*
X132353703Y-111031000D01*
X132353700Y-111031001D01*
X132187168Y-111086185D01*
X132187163Y-111086187D01*
X132037842Y-111178289D01*
X131913789Y-111302342D01*
X131821687Y-111451663D01*
X131821686Y-111451666D01*
X131808307Y-111492043D01*
X131808306Y-111492045D01*
X131768532Y-111549490D01*
X131759004Y-111556465D01*
X131565511Y-111684428D01*
X131498738Y-111704989D01*
X131497113Y-111705000D01*
X130124323Y-111705000D01*
X130074348Y-111694484D01*
X128749697Y-111111150D01*
X128749224Y-111110919D01*
X128745006Y-111109065D01*
X128745003Y-111109064D01*
X128744999Y-111109062D01*
X128740537Y-111107102D01*
X128740242Y-111106986D01*
X128739520Y-111106668D01*
X128733919Y-111104243D01*
X128733792Y-111104189D01*
X128733597Y-111104106D01*
X128733593Y-111104104D01*
X128733580Y-111104099D01*
X128678530Y-111084347D01*
X128672485Y-111082841D01*
X128672519Y-111082704D01*
X128657981Y-111079189D01*
X128636313Y-111071750D01*
X128525484Y-111033702D01*
X128337904Y-111002401D01*
X128296549Y-110995500D01*
X128064451Y-110995500D01*
X128023096Y-111002401D01*
X127835515Y-111033702D01*
X127616004Y-111109061D01*
X127615995Y-111109064D01*
X127411871Y-111219531D01*
X127411865Y-111219535D01*
X127228722Y-111362081D01*
X127228715Y-111362087D01*
X127219984Y-111371572D01*
X127160095Y-111407561D01*
X127090257Y-111405458D01*
X127032643Y-111365932D01*
X127012575Y-111330918D01*
X126983855Y-111253915D01*
X126983850Y-111253906D01*
X126897690Y-111138812D01*
X126897687Y-111138809D01*
X126782593Y-111052649D01*
X126782586Y-111052645D01*
X126647879Y-111002403D01*
X126647872Y-111002401D01*
X126588344Y-110996000D01*
X125890500Y-110996000D01*
X125890500Y-112020722D01*
X125814194Y-111976667D01*
X125699744Y-111946000D01*
X125581256Y-111946000D01*
X125466806Y-111976667D01*
X125390500Y-112020722D01*
X125390500Y-110996000D01*
X124692655Y-110996000D01*
X124633127Y-111002401D01*
X124633120Y-111002403D01*
X124498413Y-111052645D01*
X124498406Y-111052649D01*
X124383312Y-111138809D01*
X124383309Y-111138812D01*
X124297149Y-111253906D01*
X124297145Y-111253913D01*
X124246903Y-111388620D01*
X124246901Y-111388627D01*
X124240500Y-111448155D01*
X111668000Y-111448155D01*
X111668000Y-101573995D01*
X115825951Y-101573995D01*
X115825951Y-101574004D01*
X115846116Y-101843101D01*
X115906164Y-102106188D01*
X115906166Y-102106195D01*
X116004757Y-102357398D01*
X116139685Y-102591102D01*
X116245506Y-102723797D01*
X116307942Y-102802089D01*
X116404496Y-102891677D01*
X116505759Y-102985635D01*
X116728726Y-103137651D01*
X116971859Y-103254738D01*
X117229728Y-103334280D01*
X117229729Y-103334280D01*
X117229732Y-103334281D01*
X117496563Y-103374499D01*
X117496568Y-103374499D01*
X117496571Y-103374500D01*
X117496572Y-103374500D01*
X117766428Y-103374500D01*
X117766429Y-103374500D01*
X117766436Y-103374499D01*
X118033267Y-103334281D01*
X118033268Y-103334280D01*
X118033272Y-103334280D01*
X118291141Y-103254738D01*
X118534275Y-103137651D01*
X118757241Y-102985635D01*
X118955061Y-102802085D01*
X119123315Y-102591102D01*
X119258243Y-102357398D01*
X119356834Y-102106195D01*
X119416883Y-101843103D01*
X119437049Y-101574000D01*
X119431628Y-101501666D01*
X119416883Y-101304898D01*
X119410862Y-101278517D01*
X119356834Y-101041805D01*
X119258243Y-100790602D01*
X119123315Y-100556898D01*
X118955061Y-100345915D01*
X118955060Y-100345914D01*
X118955057Y-100345910D01*
X118757241Y-100162365D01*
X118696583Y-100121009D01*
X118534275Y-100010349D01*
X118534269Y-100010346D01*
X118534268Y-100010345D01*
X118534267Y-100010344D01*
X118291143Y-99893263D01*
X118291145Y-99893263D01*
X118033273Y-99813720D01*
X118033267Y-99813718D01*
X117766436Y-99773500D01*
X117766429Y-99773500D01*
X117496571Y-99773500D01*
X117496563Y-99773500D01*
X117229732Y-99813718D01*
X117229726Y-99813720D01*
X116971858Y-99893262D01*
X116728730Y-100010346D01*
X116505758Y-100162365D01*
X116307942Y-100345910D01*
X116139685Y-100556898D01*
X116004758Y-100790599D01*
X116004756Y-100790603D01*
X115906166Y-101041804D01*
X115906164Y-101041811D01*
X115846116Y-101304898D01*
X115825951Y-101573995D01*
X111668000Y-101573995D01*
X111668000Y-96373998D01*
X113926032Y-96373998D01*
X113926032Y-96374001D01*
X113945864Y-96600686D01*
X113945866Y-96600697D01*
X114004758Y-96820488D01*
X114004761Y-96820497D01*
X114100931Y-97026732D01*
X114100932Y-97026734D01*
X114231454Y-97213141D01*
X114392358Y-97374045D01*
X114392361Y-97374047D01*
X114578766Y-97504568D01*
X114785004Y-97600739D01*
X115004808Y-97659635D01*
X115166730Y-97673801D01*
X115231498Y-97679468D01*
X115231500Y-97679468D01*
X115231502Y-97679468D01*
X115288173Y-97674509D01*
X115458192Y-97659635D01*
X115677996Y-97600739D01*
X115884234Y-97504568D01*
X116070639Y-97374047D01*
X116231547Y-97213139D01*
X116362068Y-97026734D01*
X116458239Y-96820496D01*
X116517135Y-96600692D01*
X116536968Y-96374000D01*
X116517135Y-96147308D01*
X116463016Y-95945331D01*
X116458241Y-95927511D01*
X116458238Y-95927502D01*
X116362068Y-95721266D01*
X116231547Y-95534861D01*
X116231545Y-95534858D01*
X116070641Y-95373954D01*
X115884234Y-95243432D01*
X115884232Y-95243431D01*
X115677997Y-95147261D01*
X115677988Y-95147258D01*
X115458197Y-95088366D01*
X115458193Y-95088365D01*
X115458192Y-95088365D01*
X115458191Y-95088364D01*
X115458186Y-95088364D01*
X115231502Y-95068532D01*
X115231498Y-95068532D01*
X115004813Y-95088364D01*
X115004802Y-95088366D01*
X114785011Y-95147258D01*
X114785002Y-95147261D01*
X114578767Y-95243431D01*
X114578765Y-95243432D01*
X114392358Y-95373954D01*
X114231454Y-95534858D01*
X114100932Y-95721265D01*
X114100931Y-95721267D01*
X114004761Y-95927502D01*
X114004758Y-95927511D01*
X113945866Y-96147302D01*
X113945864Y-96147313D01*
X113926032Y-96373998D01*
X111668000Y-96373998D01*
X111668000Y-93161027D01*
X111687685Y-93093988D01*
X111740489Y-93048233D01*
X111809647Y-93038289D01*
X111873203Y-93067314D01*
X111895809Y-93093206D01*
X112022516Y-93287147D01*
X112022519Y-93287151D01*
X112022521Y-93287153D01*
X112179716Y-93457913D01*
X112179719Y-93457915D01*
X112179722Y-93457918D01*
X112362865Y-93600464D01*
X112362871Y-93600468D01*
X112362874Y-93600470D01*
X112485195Y-93666667D01*
X112564561Y-93709618D01*
X112566997Y-93710936D01*
X112668057Y-93745630D01*
X112786515Y-93786297D01*
X112786517Y-93786297D01*
X112786519Y-93786298D01*
X113015451Y-93824500D01*
X113015452Y-93824500D01*
X113247548Y-93824500D01*
X113247549Y-93824500D01*
X113476481Y-93786298D01*
X113696003Y-93710936D01*
X113900126Y-93600470D01*
X113944532Y-93565908D01*
X114034221Y-93496100D01*
X114083284Y-93457913D01*
X114240479Y-93287153D01*
X114367424Y-93092849D01*
X114460657Y-92880300D01*
X114517634Y-92655305D01*
X114517635Y-92655297D01*
X114536800Y-92424006D01*
X114536800Y-92423993D01*
X114517635Y-92192702D01*
X114517633Y-92192691D01*
X114460657Y-91967699D01*
X114367424Y-91755151D01*
X114240483Y-91560852D01*
X114240480Y-91560849D01*
X114240479Y-91560847D01*
X114083284Y-91390087D01*
X114083279Y-91390083D01*
X114083277Y-91390081D01*
X113900134Y-91247535D01*
X113900128Y-91247531D01*
X113696004Y-91137064D01*
X113695995Y-91137061D01*
X113476484Y-91061702D01*
X113261979Y-91025908D01*
X113247549Y-91023500D01*
X113015451Y-91023500D01*
X113001021Y-91025908D01*
X112786515Y-91061702D01*
X112567004Y-91137061D01*
X112566995Y-91137064D01*
X112362871Y-91247531D01*
X112362865Y-91247535D01*
X112179722Y-91390081D01*
X112179719Y-91390084D01*
X112179716Y-91390086D01*
X112179716Y-91390087D01*
X112172860Y-91397535D01*
X112022518Y-91560850D01*
X111895809Y-91754794D01*
X111842662Y-91800150D01*
X111773431Y-91809574D01*
X111710095Y-91780072D01*
X111672764Y-91721012D01*
X111668000Y-91686972D01*
X111668000Y-88773998D01*
X113926032Y-88773998D01*
X113926032Y-88774001D01*
X113945864Y-89000686D01*
X113945866Y-89000697D01*
X114004758Y-89220488D01*
X114004761Y-89220497D01*
X114100931Y-89426732D01*
X114100932Y-89426734D01*
X114231454Y-89613141D01*
X114392358Y-89774045D01*
X114392361Y-89774047D01*
X114578766Y-89904568D01*
X114785004Y-90000739D01*
X115004808Y-90059635D01*
X115166730Y-90073801D01*
X115231498Y-90079468D01*
X115231500Y-90079468D01*
X115231502Y-90079468D01*
X115288173Y-90074509D01*
X115458192Y-90059635D01*
X115677996Y-90000739D01*
X115884234Y-89904568D01*
X116070639Y-89774047D01*
X116231547Y-89613139D01*
X116362068Y-89426734D01*
X116424936Y-89291912D01*
X116430135Y-89281966D01*
X116443639Y-89258771D01*
X116923016Y-88073616D01*
X116950285Y-88032435D01*
X118031402Y-86951319D01*
X118092725Y-86917834D01*
X118119083Y-86915000D01*
X139374916Y-86915000D01*
X139441955Y-86934685D01*
X139462597Y-86951319D01*
X142774011Y-90262733D01*
X142815226Y-90290272D01*
X142887182Y-90338352D01*
X142887195Y-90338359D01*
X143012938Y-90390443D01*
X143012943Y-90390445D01*
X143012947Y-90390445D01*
X143012948Y-90390446D01*
X143146439Y-90417000D01*
X143146442Y-90417000D01*
X143146443Y-90417000D01*
X143282557Y-90417000D01*
X143826331Y-90417000D01*
X143872161Y-90425780D01*
X144860119Y-90818761D01*
X144860131Y-90818765D01*
X144860137Y-90818768D01*
X144907675Y-90834990D01*
X144907685Y-90834992D01*
X144907687Y-90834993D01*
X144907688Y-90834993D01*
X144913494Y-90836368D01*
X144913383Y-90836836D01*
X144932579Y-90841798D01*
X144993323Y-90865330D01*
X144993325Y-90865330D01*
X144993332Y-90865333D01*
X145040295Y-90874112D01*
X145102573Y-90905780D01*
X145137846Y-90966092D01*
X145134912Y-91035900D01*
X145094703Y-91093040D01*
X145040295Y-91117887D01*
X144993332Y-91126667D01*
X144993330Y-91126667D01*
X144993328Y-91126668D01*
X144789501Y-91205630D01*
X144789495Y-91205633D01*
X144603650Y-91320703D01*
X144442104Y-91467972D01*
X144310374Y-91642410D01*
X144310369Y-91642418D01*
X144212941Y-91838079D01*
X144212935Y-91838094D01*
X144153116Y-92048337D01*
X144153115Y-92048339D01*
X144132947Y-92265999D01*
X144132947Y-92266000D01*
X144153115Y-92483660D01*
X144153116Y-92483662D01*
X144212935Y-92693905D01*
X144212941Y-92693920D01*
X144310369Y-92889581D01*
X144310374Y-92889589D01*
X144430177Y-93048233D01*
X144442105Y-93064028D01*
X144603647Y-93211294D01*
X144603649Y-93211295D01*
X144603650Y-93211296D01*
X144789495Y-93326366D01*
X144789501Y-93326369D01*
X144834455Y-93343784D01*
X144993332Y-93405333D01*
X145040295Y-93414112D01*
X145102573Y-93445780D01*
X145137846Y-93506092D01*
X145134912Y-93575900D01*
X145094703Y-93633040D01*
X145040295Y-93657887D01*
X145000504Y-93665326D01*
X144993326Y-93666668D01*
X144882460Y-93709618D01*
X144871763Y-93713211D01*
X144839955Y-93722307D01*
X144839943Y-93722311D01*
X143874549Y-94154968D01*
X143823837Y-94165812D01*
X140551022Y-94165812D01*
X140483983Y-94146127D01*
X140438228Y-94093323D01*
X140428284Y-94024165D01*
X140457309Y-93960609D01*
X140510759Y-93924531D01*
X140597167Y-93894866D01*
X140696003Y-93860936D01*
X140900126Y-93750470D01*
X140906345Y-93745630D01*
X141007795Y-93666668D01*
X141083284Y-93607913D01*
X141240479Y-93437153D01*
X141367424Y-93242849D01*
X141460657Y-93030300D01*
X141517634Y-92805305D01*
X141521983Y-92752819D01*
X141536800Y-92574006D01*
X141536800Y-92573993D01*
X141517635Y-92342702D01*
X141517633Y-92342691D01*
X141460657Y-92117699D01*
X141367424Y-91905151D01*
X141240483Y-91710852D01*
X141240480Y-91710849D01*
X141240479Y-91710847D01*
X141083284Y-91540087D01*
X141083279Y-91540083D01*
X141083277Y-91540081D01*
X140900134Y-91397535D01*
X140900128Y-91397531D01*
X140696004Y-91287064D01*
X140695995Y-91287061D01*
X140476484Y-91211702D01*
X140304782Y-91183050D01*
X140247549Y-91173500D01*
X140015451Y-91173500D01*
X139969664Y-91181140D01*
X139786515Y-91211702D01*
X139567004Y-91287061D01*
X139566995Y-91287064D01*
X139362871Y-91397531D01*
X139362865Y-91397535D01*
X139179722Y-91540081D01*
X139179719Y-91540084D01*
X139179716Y-91540086D01*
X139179716Y-91540087D01*
X139044500Y-91686972D01*
X139022515Y-91710854D01*
X138980308Y-91775457D01*
X138927162Y-91820814D01*
X138857930Y-91830237D01*
X138794595Y-91800735D01*
X138757264Y-91741674D01*
X138752500Y-91707635D01*
X138752500Y-90502435D01*
X138761475Y-90456117D01*
X138777227Y-90417000D01*
X139235192Y-89279700D01*
X139246028Y-89248271D01*
X139250865Y-89236306D01*
X139258239Y-89220496D01*
X139317135Y-89000692D01*
X139336968Y-88774000D01*
X139317135Y-88547308D01*
X139258239Y-88327504D01*
X139162068Y-88121266D01*
X139031547Y-87934861D01*
X139031545Y-87934858D01*
X138870640Y-87773953D01*
X138684234Y-87643432D01*
X138684232Y-87643431D01*
X138477997Y-87547261D01*
X138477988Y-87547258D01*
X138258197Y-87488366D01*
X138258193Y-87488365D01*
X138258192Y-87488365D01*
X138258191Y-87488364D01*
X138258186Y-87488364D01*
X138031502Y-87468532D01*
X138031498Y-87468532D01*
X137804813Y-87488364D01*
X137804802Y-87488366D01*
X137585011Y-87547258D01*
X137585002Y-87547261D01*
X137378767Y-87643431D01*
X137378765Y-87643432D01*
X137192360Y-87773953D01*
X137031454Y-87934858D01*
X136900932Y-88121265D01*
X136900931Y-88121267D01*
X136804761Y-88327502D01*
X136804758Y-88327511D01*
X136745866Y-88547302D01*
X136745864Y-88547313D01*
X136726032Y-88773998D01*
X136726032Y-88774001D01*
X136745864Y-89000686D01*
X136745866Y-89000697D01*
X136804758Y-89220488D01*
X136804760Y-89220492D01*
X136804761Y-89220496D01*
X136822605Y-89258763D01*
X136824411Y-89262635D01*
X136831217Y-89280833D01*
X136836225Y-89298283D01*
X136836227Y-89298291D01*
X137359609Y-90463256D01*
X137370500Y-90514072D01*
X137370500Y-93404059D01*
X137380554Y-93454600D01*
X137380554Y-93454602D01*
X137397053Y-93537549D01*
X137397056Y-93537561D01*
X137449142Y-93663309D01*
X137449144Y-93663312D01*
X137524763Y-93776485D01*
X137524769Y-93776492D01*
X138763097Y-95014820D01*
X138796582Y-95076143D01*
X138791598Y-95145835D01*
X138749726Y-95201768D01*
X138684262Y-95226185D01*
X138623011Y-95214883D01*
X138517971Y-95165902D01*
X138477996Y-95147261D01*
X138477992Y-95147260D01*
X138477988Y-95147258D01*
X138258197Y-95088366D01*
X138258193Y-95088365D01*
X138258192Y-95088365D01*
X138258191Y-95088364D01*
X138258186Y-95088364D01*
X138031502Y-95068532D01*
X138031498Y-95068532D01*
X137804813Y-95088364D01*
X137804802Y-95088366D01*
X137585011Y-95147258D01*
X137585002Y-95147261D01*
X137378767Y-95243431D01*
X137378765Y-95243432D01*
X137192358Y-95373954D01*
X137031454Y-95534858D01*
X136900932Y-95721265D01*
X136900931Y-95721267D01*
X136804761Y-95927502D01*
X136804758Y-95927511D01*
X136745866Y-96147302D01*
X136745864Y-96147313D01*
X136726032Y-96373998D01*
X136726032Y-96374001D01*
X136745864Y-96600686D01*
X136745866Y-96600697D01*
X136804758Y-96820488D01*
X136804761Y-96820497D01*
X136900931Y-97026732D01*
X136900932Y-97026734D01*
X137031454Y-97213141D01*
X137192358Y-97374045D01*
X137192361Y-97374047D01*
X137378766Y-97504568D01*
X137585004Y-97600739D01*
X137585006Y-97600739D01*
X137585013Y-97600742D01*
X137660691Y-97621019D01*
X137730508Y-97639726D01*
X137731925Y-97640115D01*
X138489852Y-97853548D01*
X138522102Y-97862630D01*
X138556972Y-97880810D01*
X138557948Y-97879350D01*
X138676182Y-97958352D01*
X138676195Y-97958359D01*
X138801938Y-98010443D01*
X138801943Y-98010445D01*
X138801947Y-98010445D01*
X138801948Y-98010446D01*
X138935439Y-98037000D01*
X138935442Y-98037000D01*
X138935443Y-98037000D01*
X139071557Y-98037000D01*
X143826331Y-98037000D01*
X143872161Y-98045780D01*
X144860119Y-98438761D01*
X144860131Y-98438765D01*
X144860137Y-98438768D01*
X144907675Y-98454990D01*
X144907685Y-98454992D01*
X144907687Y-98454993D01*
X144907688Y-98454993D01*
X144913494Y-98456368D01*
X144913383Y-98456836D01*
X144932579Y-98461798D01*
X144993324Y-98485330D01*
X144993332Y-98485333D01*
X145208203Y-98525500D01*
X145208205Y-98525500D01*
X145426795Y-98525500D01*
X145426797Y-98525500D01*
X145641668Y-98485333D01*
X145845501Y-98406368D01*
X146031353Y-98291294D01*
X146192895Y-98144028D01*
X146324627Y-97969587D01*
X146422063Y-97773910D01*
X146481884Y-97563661D01*
X146502053Y-97346000D01*
X146481884Y-97128339D01*
X146422063Y-96918090D01*
X146421410Y-96916778D01*
X146324630Y-96722418D01*
X146324625Y-96722410D01*
X146192895Y-96547972D01*
X146140626Y-96500322D01*
X146031353Y-96400706D01*
X146031350Y-96400704D01*
X146031349Y-96400703D01*
X145845504Y-96285633D01*
X145845498Y-96285630D01*
X145684851Y-96223396D01*
X145641668Y-96206667D01*
X145594704Y-96197887D01*
X145532426Y-96166221D01*
X145497153Y-96105908D01*
X145500087Y-96036100D01*
X145540296Y-95978960D01*
X145594704Y-95954112D01*
X145641668Y-95945333D01*
X145845501Y-95866368D01*
X146031353Y-95751294D01*
X146192895Y-95604028D01*
X146324627Y-95429587D01*
X146422063Y-95233910D01*
X146481884Y-95023661D01*
X146502053Y-94806000D01*
X146484086Y-94612108D01*
X146481884Y-94588339D01*
X146481883Y-94588337D01*
X146449782Y-94475514D01*
X146422063Y-94378090D01*
X146392006Y-94317727D01*
X146324630Y-94182418D01*
X146324625Y-94182410D01*
X146192895Y-94007972D01*
X146156178Y-93974500D01*
X146031353Y-93860706D01*
X146031350Y-93860704D01*
X146031349Y-93860703D01*
X145845504Y-93745633D01*
X145845498Y-93745630D01*
X145684851Y-93683396D01*
X145641668Y-93666667D01*
X145594704Y-93657887D01*
X145532426Y-93626221D01*
X145497153Y-93565908D01*
X145500087Y-93496100D01*
X145540296Y-93438960D01*
X145594704Y-93414112D01*
X145641668Y-93405333D01*
X145845501Y-93326368D01*
X146031353Y-93211294D01*
X146192895Y-93064028D01*
X146324627Y-92889587D01*
X146422063Y-92693910D01*
X146481884Y-92483661D01*
X146502053Y-92266000D01*
X146495106Y-92191034D01*
X146481884Y-92048339D01*
X146481883Y-92048337D01*
X146480664Y-92044053D01*
X146422063Y-91838090D01*
X146413461Y-91820814D01*
X146324630Y-91642418D01*
X146324625Y-91642410D01*
X146192895Y-91467972D01*
X146031353Y-91320706D01*
X146031350Y-91320704D01*
X146031349Y-91320703D01*
X145845504Y-91205633D01*
X145845498Y-91205630D01*
X145668498Y-91137061D01*
X145641668Y-91126667D01*
X145594704Y-91117887D01*
X145532426Y-91086221D01*
X145497153Y-91025908D01*
X145500087Y-90956100D01*
X145540296Y-90898960D01*
X145594704Y-90874112D01*
X145641668Y-90865333D01*
X145845501Y-90786368D01*
X146031353Y-90671294D01*
X146192895Y-90524028D01*
X146324627Y-90349587D01*
X146422063Y-90153910D01*
X146481884Y-89943661D01*
X146502053Y-89726000D01*
X146481884Y-89508339D01*
X146422063Y-89298090D01*
X146422058Y-89298079D01*
X146324630Y-89102418D01*
X146324625Y-89102410D01*
X146192895Y-88927972D01*
X146031353Y-88780706D01*
X146031350Y-88780704D01*
X146031349Y-88780703D01*
X145845504Y-88665633D01*
X145845498Y-88665630D01*
X145684851Y-88603396D01*
X145641668Y-88586667D01*
X145594704Y-88577887D01*
X145532426Y-88546221D01*
X145497153Y-88485908D01*
X145500087Y-88416100D01*
X145540296Y-88358960D01*
X145594704Y-88334112D01*
X145641668Y-88325333D01*
X145845501Y-88246368D01*
X146031353Y-88131294D01*
X146192895Y-87984028D01*
X146324627Y-87809587D01*
X146422063Y-87613910D01*
X146481884Y-87403661D01*
X146502053Y-87186000D01*
X146481884Y-86968339D01*
X146422063Y-86758090D01*
X146378681Y-86670967D01*
X146324630Y-86562418D01*
X146324625Y-86562410D01*
X146192895Y-86387972D01*
X146031353Y-86240706D01*
X146031350Y-86240704D01*
X146031349Y-86240703D01*
X145845504Y-86125633D01*
X145845498Y-86125630D01*
X145684851Y-86063396D01*
X145641668Y-86046667D01*
X145594704Y-86037887D01*
X145532426Y-86006221D01*
X145497153Y-85945908D01*
X145500087Y-85876100D01*
X145540296Y-85818960D01*
X145594704Y-85794112D01*
X145641668Y-85785333D01*
X145845501Y-85706368D01*
X146031353Y-85591294D01*
X146192895Y-85444028D01*
X146324627Y-85269587D01*
X146422063Y-85073910D01*
X146481884Y-84863661D01*
X146502053Y-84646000D01*
X146481884Y-84428339D01*
X146422063Y-84218090D01*
X146422058Y-84218079D01*
X146324630Y-84022418D01*
X146324625Y-84022410D01*
X146192895Y-83847972D01*
X146126531Y-83787473D01*
X146031353Y-83700706D01*
X146031350Y-83700704D01*
X146031349Y-83700703D01*
X145845504Y-83585633D01*
X145845498Y-83585630D01*
X145689316Y-83525126D01*
X145633915Y-83482553D01*
X145610324Y-83416786D01*
X145626035Y-83348706D01*
X145676059Y-83299927D01*
X145734109Y-83285499D01*
X145955867Y-83285499D01*
X145962634Y-83285684D01*
X145968250Y-83285991D01*
X145968250Y-83285990D01*
X145968251Y-83285991D01*
X145968364Y-83285980D01*
X145979285Y-83285499D01*
X146044371Y-83285499D01*
X146044372Y-83285499D01*
X146103983Y-83279091D01*
X146137660Y-83266529D01*
X146146183Y-83263698D01*
X146172211Y-83256087D01*
X146172212Y-83256086D01*
X146172217Y-83256085D01*
X146181835Y-83251066D01*
X146195846Y-83244828D01*
X146238831Y-83228796D01*
X146263679Y-83210193D01*
X146280629Y-83199525D01*
X146299781Y-83189535D01*
X146812947Y-82820343D01*
X146878863Y-82797171D01*
X146885364Y-82797000D01*
X150369916Y-82797000D01*
X150436955Y-82816685D01*
X150457597Y-82833319D01*
X155347013Y-87722735D01*
X155423667Y-87773953D01*
X155423666Y-87773953D01*
X155460186Y-87798355D01*
X155460190Y-87798357D01*
X155585938Y-87850443D01*
X155585943Y-87850445D01*
X155585947Y-87850445D01*
X155585948Y-87850446D01*
X155719439Y-87877000D01*
X155719442Y-87877000D01*
X155719443Y-87877000D01*
X155855557Y-87877000D01*
X159066331Y-87877000D01*
X159112161Y-87885780D01*
X160100119Y-88278761D01*
X160100131Y-88278765D01*
X160100137Y-88278768D01*
X160147675Y-88294990D01*
X160147685Y-88294992D01*
X160147687Y-88294993D01*
X160147688Y-88294993D01*
X160153494Y-88296368D01*
X160153383Y-88296836D01*
X160172579Y-88301798D01*
X160233323Y-88325330D01*
X160233325Y-88325330D01*
X160233332Y-88325333D01*
X160280295Y-88334112D01*
X160342573Y-88365780D01*
X160377846Y-88426092D01*
X160374912Y-88495900D01*
X160334703Y-88553040D01*
X160280295Y-88577887D01*
X160233332Y-88586667D01*
X160233330Y-88586667D01*
X160233328Y-88586668D01*
X160029501Y-88665630D01*
X160029495Y-88665633D01*
X159843650Y-88780703D01*
X159682104Y-88927972D01*
X159550374Y-89102410D01*
X159550369Y-89102418D01*
X159452941Y-89298079D01*
X159452935Y-89298094D01*
X159393116Y-89508337D01*
X159393115Y-89508339D01*
X159372947Y-89725999D01*
X159372947Y-89726000D01*
X159393115Y-89943660D01*
X159393116Y-89943662D01*
X159452935Y-90153905D01*
X159452941Y-90153920D01*
X159550369Y-90349581D01*
X159550374Y-90349589D01*
X159682104Y-90524027D01*
X159682105Y-90524028D01*
X159843647Y-90671294D01*
X159843649Y-90671295D01*
X159843650Y-90671296D01*
X160029495Y-90786366D01*
X160029501Y-90786369D01*
X160097443Y-90812689D01*
X160233332Y-90865333D01*
X160280295Y-90874112D01*
X160342573Y-90905780D01*
X160377846Y-90966092D01*
X160374912Y-91035900D01*
X160334703Y-91093040D01*
X160280295Y-91117887D01*
X160233332Y-91126667D01*
X160233330Y-91126667D01*
X160233328Y-91126668D01*
X160029501Y-91205630D01*
X160029495Y-91205633D01*
X159843650Y-91320703D01*
X159682104Y-91467972D01*
X159550374Y-91642410D01*
X159550369Y-91642418D01*
X159452941Y-91838079D01*
X159452935Y-91838094D01*
X159393116Y-92048337D01*
X159393115Y-92048339D01*
X159372947Y-92265999D01*
X159372947Y-92266000D01*
X159393115Y-92483660D01*
X159393116Y-92483662D01*
X159452935Y-92693905D01*
X159452941Y-92693920D01*
X159550369Y-92889581D01*
X159550374Y-92889589D01*
X159670177Y-93048233D01*
X159682105Y-93064028D01*
X159843647Y-93211294D01*
X160029499Y-93326368D01*
X160029504Y-93326369D01*
X160029506Y-93326371D01*
X160074456Y-93343784D01*
X160094431Y-93353670D01*
X160108216Y-93362115D01*
X160265367Y-93429823D01*
X160319144Y-93474427D01*
X160340271Y-93541026D01*
X160322038Y-93608474D01*
X160270234Y-93655358D01*
X160239097Y-93665588D01*
X160233335Y-93666665D01*
X160029501Y-93745630D01*
X160029495Y-93745633D01*
X159843650Y-93860703D01*
X159682104Y-94007972D01*
X159550374Y-94182410D01*
X159550369Y-94182418D01*
X159452941Y-94378079D01*
X159452935Y-94378094D01*
X159393116Y-94588337D01*
X159393115Y-94588339D01*
X159372947Y-94805999D01*
X159372947Y-94806000D01*
X159393115Y-95023660D01*
X159393116Y-95023662D01*
X159452935Y-95233905D01*
X159452941Y-95233920D01*
X159550369Y-95429581D01*
X159550374Y-95429589D01*
X159641452Y-95550195D01*
X159682105Y-95604028D01*
X159843647Y-95751294D01*
X159843649Y-95751295D01*
X159843650Y-95751296D01*
X160029495Y-95866366D01*
X160029501Y-95866369D01*
X160070570Y-95882279D01*
X160233332Y-95945333D01*
X160280295Y-95954112D01*
X160342573Y-95985780D01*
X160377846Y-96046092D01*
X160374912Y-96115900D01*
X160334703Y-96173040D01*
X160280295Y-96197887D01*
X160233332Y-96206667D01*
X160233329Y-96206667D01*
X160233329Y-96206668D01*
X160233323Y-96206670D01*
X160142081Y-96242016D01*
X160126259Y-96246957D01*
X160100122Y-96253237D01*
X160100120Y-96253237D01*
X159359154Y-96547972D01*
X159139573Y-96635315D01*
X159112160Y-96646219D01*
X159066329Y-96655000D01*
X155573440Y-96655000D01*
X155439948Y-96681553D01*
X155439938Y-96681556D01*
X155314190Y-96733642D01*
X155314187Y-96733644D01*
X155201014Y-96809263D01*
X155201007Y-96809269D01*
X140341597Y-111668681D01*
X140280274Y-111702166D01*
X140253916Y-111705000D01*
X137065885Y-111705000D01*
X136998846Y-111685315D01*
X136997485Y-111684428D01*
X136823055Y-111569072D01*
X136823053Y-111569071D01*
X136803998Y-111556469D01*
X136758940Y-111503070D01*
X136754693Y-111492043D01*
X136741315Y-111451668D01*
X136713440Y-111406475D01*
X136649212Y-111302344D01*
X136525156Y-111178288D01*
X136412925Y-111109064D01*
X136375836Y-111086187D01*
X136375831Y-111086185D01*
X136354718Y-111079189D01*
X136209297Y-111031001D01*
X136209295Y-111031000D01*
X136106510Y-111020500D01*
X135381498Y-111020500D01*
X135381480Y-111020501D01*
X135278703Y-111031000D01*
X135278700Y-111031001D01*
X135112168Y-111086185D01*
X135112163Y-111086187D01*
X134962842Y-111178289D01*
X134838789Y-111302342D01*
X134746687Y-111451663D01*
X134746685Y-111451668D01*
X134721750Y-111526919D01*
X134691501Y-111618203D01*
X134691501Y-111618204D01*
X134691500Y-111618204D01*
X134681000Y-111720983D01*
X134681000Y-113071001D01*
X134681001Y-113071018D01*
X134691500Y-113173796D01*
X134691501Y-113173799D01*
X134733304Y-113299950D01*
X134746686Y-113340334D01*
X134838788Y-113489656D01*
X134962844Y-113613712D01*
X135112166Y-113705814D01*
X135278703Y-113760999D01*
X135381491Y-113771500D01*
X136106508Y-113771499D01*
X136106516Y-113771498D01*
X136106519Y-113771498D01*
X136162802Y-113765748D01*
X136209297Y-113760999D01*
X136375834Y-113705814D01*
X136525156Y-113613712D01*
X136649212Y-113489656D01*
X136741314Y-113340334D01*
X136754694Y-113299954D01*
X136794464Y-113242510D01*
X136803974Y-113235546D01*
X136997488Y-113107570D01*
X137064262Y-113087011D01*
X137065886Y-113087000D01*
X140659560Y-113087000D01*
X140749370Y-113069134D01*
X140793057Y-113060445D01*
X140918811Y-113008356D01*
X141031987Y-112932735D01*
X155891403Y-98073319D01*
X155952726Y-98039834D01*
X155979084Y-98037000D01*
X159066331Y-98037000D01*
X159112161Y-98045780D01*
X160100119Y-98438761D01*
X160100131Y-98438765D01*
X160100137Y-98438768D01*
X160147675Y-98454990D01*
X160147685Y-98454992D01*
X160147687Y-98454993D01*
X160147688Y-98454993D01*
X160153494Y-98456368D01*
X160153383Y-98456836D01*
X160172579Y-98461798D01*
X160233324Y-98485330D01*
X160233332Y-98485333D01*
X160448203Y-98525500D01*
X160448205Y-98525500D01*
X160666795Y-98525500D01*
X160666797Y-98525500D01*
X160881668Y-98485333D01*
X161085501Y-98406368D01*
X161271353Y-98291294D01*
X161432895Y-98144028D01*
X161564627Y-97969587D01*
X161662063Y-97773910D01*
X161721884Y-97563661D01*
X161742053Y-97346000D01*
X161721884Y-97128339D01*
X161662063Y-96918090D01*
X161661410Y-96916778D01*
X161564630Y-96722418D01*
X161564625Y-96722410D01*
X161432895Y-96547972D01*
X161380626Y-96500322D01*
X161271353Y-96400706D01*
X161271350Y-96400704D01*
X161271349Y-96400703D01*
X161085504Y-96285633D01*
X161085498Y-96285630D01*
X160924851Y-96223396D01*
X160881668Y-96206667D01*
X160834704Y-96197887D01*
X160772426Y-96166221D01*
X160737153Y-96105908D01*
X160740087Y-96036100D01*
X160780296Y-95978960D01*
X160834704Y-95954112D01*
X160881668Y-95945333D01*
X161085501Y-95866368D01*
X161271353Y-95751294D01*
X161432895Y-95604028D01*
X161564627Y-95429587D01*
X161662063Y-95233910D01*
X161721884Y-95023661D01*
X161742053Y-94806000D01*
X161735113Y-94731108D01*
X161748528Y-94662540D01*
X161796884Y-94612108D01*
X161864830Y-94595825D01*
X161930793Y-94618862D01*
X161946265Y-94631987D01*
X162480181Y-95165902D01*
X162513666Y-95227225D01*
X162516500Y-95253583D01*
X162516500Y-109762416D01*
X162496815Y-109829455D01*
X162480181Y-109850097D01*
X161882097Y-110448181D01*
X161820774Y-110481666D01*
X161794416Y-110484500D01*
X160737736Y-110484500D01*
X160682959Y-110471745D01*
X160097286Y-110183357D01*
X160088481Y-110178488D01*
X160087830Y-110178184D01*
X160074685Y-110173828D01*
X160067911Y-110171362D01*
X160019485Y-110152122D01*
X160015962Y-110151037D01*
X160015948Y-110151034D01*
X160005067Y-110149212D01*
X159986545Y-110144621D01*
X159921300Y-110123001D01*
X159818510Y-110112500D01*
X158468498Y-110112500D01*
X158468481Y-110112501D01*
X158365703Y-110123000D01*
X158365700Y-110123001D01*
X158199163Y-110178186D01*
X158198534Y-110178480D01*
X158189722Y-110183352D01*
X157604041Y-110471745D01*
X157549263Y-110484500D01*
X157265939Y-110484500D01*
X157198900Y-110464815D01*
X157156460Y-110418725D01*
X156686681Y-109535346D01*
X156671950Y-109509510D01*
X156671948Y-109509507D01*
X156670255Y-109506538D01*
X156664420Y-109494929D01*
X156635673Y-109429393D01*
X156499666Y-109221217D01*
X156391758Y-109103998D01*
X156331244Y-109038262D01*
X156135009Y-108885526D01*
X156135007Y-108885525D01*
X156135006Y-108885524D01*
X155916311Y-108767172D01*
X155916302Y-108767169D01*
X155681116Y-108686429D01*
X155435835Y-108645500D01*
X155187165Y-108645500D01*
X154941883Y-108686429D01*
X154706692Y-108767171D01*
X154706690Y-108767171D01*
X154706690Y-108767172D01*
X154703351Y-108768978D01*
X154695569Y-108772842D01*
X153215623Y-109443932D01*
X153164413Y-109455000D01*
X150958584Y-109455000D01*
X150907375Y-109443932D01*
X150012962Y-109038356D01*
X149615274Y-108858022D01*
X149615270Y-108858020D01*
X149427449Y-108772851D01*
X149419664Y-108768986D01*
X149416312Y-108767173D01*
X149416311Y-108767172D01*
X149416310Y-108767172D01*
X149415248Y-108766807D01*
X149406984Y-108763568D01*
X149406983Y-108763573D01*
X149406137Y-108763237D01*
X149406126Y-108763263D01*
X149405271Y-108762894D01*
X149405253Y-108762886D01*
X149347737Y-108742078D01*
X149341617Y-108740545D01*
X149341688Y-108740260D01*
X149328925Y-108737172D01*
X149181116Y-108686429D01*
X148935835Y-108645500D01*
X148687165Y-108645500D01*
X148441883Y-108686429D01*
X148206697Y-108767169D01*
X148206688Y-108767172D01*
X147987993Y-108885524D01*
X147909889Y-108946315D01*
X147791756Y-109038262D01*
X147791668Y-109038358D01*
X147623333Y-109221217D01*
X147487326Y-109429393D01*
X147387436Y-109657118D01*
X147326392Y-109898175D01*
X147326390Y-109898187D01*
X147305857Y-110145994D01*
X147305857Y-110146005D01*
X147326390Y-110393812D01*
X147326392Y-110393824D01*
X147387436Y-110634881D01*
X147487326Y-110862606D01*
X147623333Y-111070782D01*
X147654004Y-111104099D01*
X147791756Y-111253738D01*
X147987991Y-111406474D01*
X148206690Y-111524828D01*
X148441886Y-111605571D01*
X148687165Y-111646500D01*
X148935835Y-111646500D01*
X149181114Y-111605571D01*
X149344472Y-111549490D01*
X149416299Y-111524832D01*
X149416300Y-111524831D01*
X149416310Y-111524828D01*
X149419680Y-111523004D01*
X149427454Y-111519143D01*
X150907374Y-110848068D01*
X150958583Y-110837000D01*
X153164417Y-110837000D01*
X153215626Y-110848068D01*
X154695538Y-111519140D01*
X154703339Y-111523014D01*
X154706690Y-111524828D01*
X154707745Y-111525190D01*
X154716013Y-111528432D01*
X154716016Y-111528426D01*
X154716840Y-111528753D01*
X154716852Y-111528727D01*
X154717390Y-111528959D01*
X154717735Y-111529108D01*
X154717745Y-111529111D01*
X154717764Y-111529119D01*
X154775254Y-111549919D01*
X154781378Y-111551453D01*
X154781306Y-111551739D01*
X154794072Y-111554826D01*
X154941886Y-111605571D01*
X155187165Y-111646500D01*
X155231951Y-111646500D01*
X155249121Y-111647694D01*
X155251570Y-111648036D01*
X155251576Y-111648038D01*
X155922610Y-111741855D01*
X155974327Y-111761556D01*
X155986669Y-111769802D01*
X155986672Y-111769804D01*
X156013689Y-111787856D01*
X156139443Y-111839945D01*
X156139447Y-111839945D01*
X156139448Y-111839946D01*
X156272939Y-111866500D01*
X156272942Y-111866500D01*
X156272943Y-111866500D01*
X156409057Y-111866500D01*
X156811836Y-111866500D01*
X156824742Y-111867173D01*
X156836573Y-111868412D01*
X156838193Y-111868525D01*
X156838208Y-111868524D01*
X156838213Y-111868525D01*
X156934587Y-111866718D01*
X156934587Y-111866754D01*
X156938362Y-111866500D01*
X157549265Y-111866500D01*
X157604042Y-111879255D01*
X157965407Y-112057192D01*
X158189721Y-112167646D01*
X158198522Y-112172513D01*
X158199159Y-112172810D01*
X158199166Y-112172814D01*
X158206539Y-112175257D01*
X158212356Y-112177185D01*
X158219142Y-112179655D01*
X158241815Y-112188664D01*
X158267499Y-112198871D01*
X158271036Y-112199961D01*
X158281910Y-112201781D01*
X158300439Y-112206373D01*
X158325925Y-112214818D01*
X158365703Y-112227999D01*
X158468491Y-112238500D01*
X159818508Y-112238499D01*
X159921297Y-112227999D01*
X160009211Y-112198867D01*
X160087832Y-112172815D01*
X160088477Y-112172514D01*
X160097292Y-112167639D01*
X160682957Y-111879255D01*
X160737734Y-111866500D01*
X162200060Y-111866500D01*
X162289870Y-111848634D01*
X162333557Y-111839945D01*
X162459311Y-111787856D01*
X162474111Y-111777967D01*
X162572487Y-111712235D01*
X163744235Y-110540486D01*
X163819856Y-110427311D01*
X163871945Y-110301557D01*
X163891155Y-110204984D01*
X163898500Y-110168058D01*
X163898500Y-108564447D01*
X163918185Y-108497408D01*
X163970989Y-108451653D01*
X164040147Y-108441709D01*
X164103703Y-108470734D01*
X164140206Y-108525443D01*
X164189141Y-108673119D01*
X164189143Y-108673124D01*
X164281184Y-108822345D01*
X164405154Y-108946315D01*
X164554375Y-109038356D01*
X164554380Y-109038358D01*
X164720802Y-109093505D01*
X164720809Y-109093506D01*
X164823519Y-109103999D01*
X165273499Y-109103999D01*
X165773500Y-109103999D01*
X166223472Y-109103999D01*
X166223486Y-109103998D01*
X166326197Y-109093505D01*
X166492619Y-109038358D01*
X166492624Y-109038356D01*
X166641845Y-108946315D01*
X166705819Y-108882342D01*
X166767142Y-108848857D01*
X166836834Y-108853841D01*
X166881181Y-108882342D01*
X166945154Y-108946315D01*
X167094375Y-109038356D01*
X167094380Y-109038358D01*
X167260802Y-109093505D01*
X167260809Y-109093506D01*
X167363519Y-109103999D01*
X167813499Y-109103999D01*
X168313500Y-109103999D01*
X168763472Y-109103999D01*
X168763486Y-109103998D01*
X168866197Y-109093505D01*
X169032619Y-109038358D01*
X169032624Y-109038356D01*
X169181845Y-108946315D01*
X169305815Y-108822345D01*
X169397856Y-108673124D01*
X169397858Y-108673119D01*
X169453005Y-108506697D01*
X169453006Y-108506690D01*
X169463499Y-108403986D01*
X169463500Y-108403973D01*
X169463500Y-108279000D01*
X168313500Y-108279000D01*
X168313500Y-109103999D01*
X167813499Y-109103999D01*
X167813500Y-109103998D01*
X167813500Y-108279000D01*
X165773500Y-108279000D01*
X165773500Y-109103999D01*
X165273499Y-109103999D01*
X165273500Y-109103998D01*
X165273500Y-107779000D01*
X165773500Y-107779000D01*
X167813500Y-107779000D01*
X168313500Y-107779000D01*
X169463499Y-107779000D01*
X169463499Y-107654028D01*
X169463498Y-107654013D01*
X169453005Y-107551302D01*
X169397858Y-107384880D01*
X169397856Y-107384875D01*
X169305815Y-107235654D01*
X169181845Y-107111684D01*
X169032624Y-107019643D01*
X169032619Y-107019641D01*
X168866197Y-106964494D01*
X168866190Y-106964493D01*
X168763486Y-106954000D01*
X168313500Y-106954000D01*
X168313500Y-107779000D01*
X167813500Y-107779000D01*
X167813500Y-106954000D01*
X167363528Y-106954000D01*
X167363512Y-106954001D01*
X167260802Y-106964494D01*
X167094380Y-107019641D01*
X167094375Y-107019643D01*
X166945154Y-107111684D01*
X166881181Y-107175658D01*
X166819858Y-107209143D01*
X166750166Y-107204159D01*
X166705819Y-107175658D01*
X166641845Y-107111684D01*
X166492624Y-107019643D01*
X166492619Y-107019641D01*
X166326197Y-106964494D01*
X166326190Y-106964493D01*
X166223486Y-106954000D01*
X165773500Y-106954000D01*
X165773500Y-107779000D01*
X165273500Y-107779000D01*
X165273500Y-106954000D01*
X164823528Y-106954000D01*
X164823512Y-106954001D01*
X164720802Y-106964494D01*
X164554380Y-107019641D01*
X164554375Y-107019643D01*
X164405154Y-107111684D01*
X164281184Y-107235654D01*
X164189143Y-107384875D01*
X164189141Y-107384880D01*
X164140206Y-107532558D01*
X164100433Y-107590003D01*
X164035918Y-107616826D01*
X163967142Y-107604511D01*
X163915942Y-107556968D01*
X163898500Y-107493554D01*
X163898500Y-105616035D01*
X163918185Y-105548996D01*
X163970989Y-105503241D01*
X164040147Y-105493297D01*
X164103703Y-105522322D01*
X164140205Y-105577030D01*
X164188686Y-105723334D01*
X164280788Y-105872656D01*
X164404844Y-105996712D01*
X164554166Y-106088814D01*
X164720703Y-106143999D01*
X164823491Y-106154500D01*
X166223508Y-106154499D01*
X166326297Y-106143999D01*
X166429672Y-106109743D01*
X166437998Y-106107305D01*
X166468683Y-106099479D01*
X166746064Y-105984631D01*
X166815532Y-105977173D01*
X166840933Y-105984631D01*
X167118315Y-106099479D01*
X167177293Y-106119735D01*
X167180074Y-106120502D01*
X167188104Y-106121745D01*
X167208127Y-106126576D01*
X167260703Y-106143999D01*
X167363491Y-106154500D01*
X168763508Y-106154499D01*
X168866297Y-106143999D01*
X168969672Y-106109743D01*
X168977998Y-106107305D01*
X169008683Y-106099479D01*
X169628305Y-105842931D01*
X169675741Y-105833500D01*
X170434054Y-105833500D01*
X170434074Y-105833501D01*
X170440188Y-105833501D01*
X170588814Y-105833501D01*
X170710394Y-105809315D01*
X170710394Y-105809316D01*
X170710400Y-105809313D01*
X170734580Y-105804505D01*
X170770442Y-105789649D01*
X170791444Y-105780951D01*
X170791447Y-105780949D01*
X170791455Y-105780946D01*
X170871889Y-105747630D01*
X170995466Y-105665059D01*
X171890463Y-104770060D01*
X171890466Y-104770059D01*
X171995559Y-104664966D01*
X172078129Y-104541390D01*
X172135005Y-104404080D01*
X172140883Y-104374528D01*
X172164001Y-104258312D01*
X172164001Y-104109688D01*
X172164001Y-104104578D01*
X172164000Y-104104552D01*
X172164000Y-103627185D01*
X172181371Y-103563890D01*
X172289220Y-103382204D01*
X172340367Y-103334604D01*
X172395849Y-103321499D01*
X172459502Y-103321499D01*
X172459508Y-103321499D01*
X172562297Y-103310999D01*
X172728834Y-103255814D01*
X172876076Y-103164995D01*
X173458999Y-103164995D01*
X173485918Y-103300322D01*
X173485921Y-103300332D01*
X173538721Y-103427804D01*
X173538728Y-103427817D01*
X173615385Y-103542541D01*
X173615388Y-103542545D01*
X173712954Y-103640111D01*
X173712958Y-103640114D01*
X173827682Y-103716771D01*
X173827695Y-103716778D01*
X173955167Y-103769578D01*
X173955172Y-103769580D01*
X173955176Y-103769580D01*
X173955177Y-103769581D01*
X174090504Y-103796500D01*
X174090507Y-103796500D01*
X174228495Y-103796500D01*
X174319541Y-103778389D01*
X174363828Y-103769580D01*
X174491311Y-103716775D01*
X174606042Y-103640114D01*
X174703614Y-103542542D01*
X174780275Y-103427811D01*
X174833080Y-103300328D01*
X174849037Y-103220107D01*
X174860000Y-103164995D01*
X174860000Y-103027004D01*
X174833081Y-102891677D01*
X174833080Y-102891676D01*
X174833080Y-102891672D01*
X174795972Y-102802085D01*
X174780278Y-102764195D01*
X174780271Y-102764182D01*
X174703614Y-102649458D01*
X174703611Y-102649454D01*
X174606045Y-102551888D01*
X174606041Y-102551885D01*
X174491317Y-102475228D01*
X174491304Y-102475221D01*
X174363832Y-102422421D01*
X174363822Y-102422418D01*
X174228495Y-102395500D01*
X174228493Y-102395500D01*
X174090507Y-102395500D01*
X174090505Y-102395500D01*
X173955177Y-102422418D01*
X173955167Y-102422421D01*
X173827695Y-102475221D01*
X173827682Y-102475228D01*
X173712958Y-102551885D01*
X173712954Y-102551888D01*
X173615388Y-102649454D01*
X173615385Y-102649458D01*
X173538728Y-102764182D01*
X173538721Y-102764195D01*
X173485921Y-102891667D01*
X173485918Y-102891677D01*
X173459000Y-103027004D01*
X173459000Y-103027007D01*
X173459000Y-103164993D01*
X173459000Y-103164995D01*
X173458999Y-103164995D01*
X172876076Y-103164995D01*
X172878156Y-103163712D01*
X173002212Y-103039656D01*
X173094314Y-102890334D01*
X173149499Y-102723797D01*
X173160000Y-102621009D01*
X173159999Y-101770992D01*
X173149499Y-101668203D01*
X173094314Y-101501666D01*
X173002212Y-101352344D01*
X172878156Y-101228288D01*
X172728834Y-101136186D01*
X172562297Y-101081001D01*
X172562295Y-101081000D01*
X172459510Y-101070500D01*
X170359498Y-101070500D01*
X170359481Y-101070501D01*
X170256703Y-101081000D01*
X170256700Y-101081001D01*
X170090168Y-101136185D01*
X170090163Y-101136187D01*
X169940842Y-101228289D01*
X169816789Y-101352342D01*
X169724687Y-101501663D01*
X169724685Y-101501668D01*
X169696849Y-101585670D01*
X169669501Y-101668203D01*
X169669501Y-101668204D01*
X169669500Y-101668204D01*
X169659000Y-101770983D01*
X169659000Y-102621001D01*
X169659001Y-102621019D01*
X169669500Y-102723796D01*
X169669501Y-102723799D01*
X169695443Y-102802085D01*
X169724686Y-102890334D01*
X169816788Y-103039656D01*
X169940844Y-103163712D01*
X170090166Y-103255814D01*
X170256703Y-103310999D01*
X170359491Y-103321500D01*
X170423149Y-103321499D01*
X170490188Y-103341183D01*
X170529779Y-103382204D01*
X170556855Y-103427817D01*
X170624955Y-103542541D01*
X170637629Y-103563891D01*
X170655000Y-103627186D01*
X170655000Y-103820113D01*
X170635315Y-103887152D01*
X170618681Y-103907794D01*
X170238294Y-104288181D01*
X170176971Y-104321666D01*
X170150613Y-104324500D01*
X169675744Y-104324500D01*
X169628308Y-104315068D01*
X169132253Y-104109682D01*
X169008680Y-104058518D01*
X168949556Y-104038222D01*
X168947674Y-104037703D01*
X168946773Y-104037455D01*
X168938802Y-104036222D01*
X168918768Y-104031388D01*
X168866298Y-104014001D01*
X168763510Y-104003500D01*
X167363498Y-104003500D01*
X167363481Y-104003501D01*
X167260704Y-104014000D01*
X167157357Y-104048245D01*
X167149012Y-104050689D01*
X167130791Y-104055337D01*
X167118318Y-104058520D01*
X167118309Y-104058523D01*
X167118305Y-104058525D01*
X166840935Y-104173365D01*
X166771464Y-104180823D01*
X166746065Y-104173365D01*
X166487774Y-104066423D01*
X166433363Y-104022590D01*
X166411289Y-103956300D01*
X166428558Y-103888598D01*
X166433680Y-103880666D01*
X166440125Y-103871475D01*
X166781756Y-103384250D01*
X166787447Y-103375959D01*
X166792689Y-103365072D01*
X166805142Y-103344566D01*
X166817296Y-103328331D01*
X166839038Y-103270036D01*
X166843488Y-103259592D01*
X166849877Y-103246329D01*
X166851997Y-103239619D01*
X166853470Y-103233663D01*
X166857660Y-103220107D01*
X166867590Y-103193486D01*
X166867590Y-103193485D01*
X166867591Y-103193483D01*
X166874000Y-103133873D01*
X166873999Y-101338128D01*
X166867591Y-101278517D01*
X166848857Y-101228289D01*
X166817297Y-101143671D01*
X166817293Y-101143664D01*
X166731047Y-101028455D01*
X166731044Y-101028452D01*
X166615835Y-100942206D01*
X166615828Y-100942202D01*
X166483901Y-100892997D01*
X166427967Y-100851126D01*
X166403550Y-100785662D01*
X166418402Y-100717389D01*
X166439553Y-100689133D01*
X166561608Y-100567078D01*
X166697100Y-100373578D01*
X166796929Y-100159492D01*
X166796932Y-100159486D01*
X166854136Y-99946000D01*
X165956512Y-99946000D01*
X165989425Y-99888993D01*
X166023500Y-99761826D01*
X166023500Y-99630174D01*
X165989425Y-99503007D01*
X165956512Y-99446000D01*
X166854136Y-99446000D01*
X166854135Y-99445999D01*
X166796932Y-99232513D01*
X166796929Y-99232507D01*
X166697100Y-99018422D01*
X166697099Y-99018420D01*
X166561613Y-98824926D01*
X166561608Y-98824920D01*
X166394582Y-98657894D01*
X166201078Y-98522399D01*
X165986992Y-98422570D01*
X165986986Y-98422567D01*
X165773500Y-98365364D01*
X165773500Y-99262988D01*
X165716493Y-99230075D01*
X165589326Y-99196000D01*
X165457674Y-99196000D01*
X165330507Y-99230075D01*
X165273500Y-99262988D01*
X165273500Y-98365364D01*
X165273499Y-98365364D01*
X165060013Y-98422567D01*
X165060007Y-98422570D01*
X164845922Y-98522399D01*
X164845920Y-98522400D01*
X164652426Y-98657886D01*
X164652420Y-98657891D01*
X164485391Y-98824920D01*
X164485386Y-98824926D01*
X164349900Y-99018420D01*
X164349899Y-99018422D01*
X164250070Y-99232507D01*
X164250067Y-99232513D01*
X164192864Y-99445999D01*
X164192864Y-99446000D01*
X165090488Y-99446000D01*
X165057575Y-99503007D01*
X165023500Y-99630174D01*
X165023500Y-99761826D01*
X165057575Y-99888993D01*
X165090488Y-99946000D01*
X164192864Y-99946000D01*
X164250067Y-100159486D01*
X164250070Y-100159492D01*
X164349899Y-100373578D01*
X164485394Y-100567082D01*
X164607446Y-100689134D01*
X164640931Y-100750457D01*
X164635947Y-100820149D01*
X164594075Y-100876082D01*
X164563098Y-100892997D01*
X164431171Y-100942202D01*
X164431164Y-100942206D01*
X164315955Y-101028452D01*
X164315952Y-101028455D01*
X164229706Y-101143664D01*
X164229702Y-101143671D01*
X164179408Y-101278517D01*
X164173001Y-101338116D01*
X164173001Y-101338123D01*
X164173000Y-101338135D01*
X164173000Y-103044717D01*
X164172753Y-103052147D01*
X164173000Y-103058666D01*
X164173000Y-103133868D01*
X164173001Y-103133877D01*
X164179408Y-103193482D01*
X164191143Y-103224945D01*
X164194388Y-103234914D01*
X164200246Y-103255886D01*
X164200248Y-103255892D01*
X164206366Y-103267974D01*
X164211919Y-103280650D01*
X164223239Y-103310998D01*
X164229704Y-103328331D01*
X164234158Y-103334281D01*
X164245551Y-103349499D01*
X164256910Y-103367792D01*
X164265243Y-103384250D01*
X164613742Y-103881270D01*
X164636111Y-103947459D01*
X164619145Y-104015237D01*
X164568228Y-104063083D01*
X164559151Y-104066861D01*
X164554169Y-104069184D01*
X164404842Y-104161289D01*
X164280789Y-104285342D01*
X164188687Y-104434663D01*
X164188685Y-104434668D01*
X164140206Y-104580969D01*
X164100433Y-104638414D01*
X164035917Y-104665237D01*
X163967141Y-104652922D01*
X163915942Y-104605379D01*
X163898500Y-104541965D01*
X163898500Y-94847939D01*
X163871946Y-94714448D01*
X163871945Y-94714447D01*
X163871945Y-94714443D01*
X163832354Y-94618862D01*
X163819858Y-94588693D01*
X163819857Y-94588691D01*
X163819620Y-94588337D01*
X163782437Y-94532688D01*
X163744235Y-94475514D01*
X163744233Y-94475511D01*
X162100529Y-92831807D01*
X162074330Y-92793192D01*
X162056935Y-92752819D01*
X162056934Y-92752814D01*
X161990097Y-92597685D01*
X167532999Y-92597685D01*
X167532999Y-92752425D01*
X167533000Y-92752446D01*
X167533000Y-98336552D01*
X167532999Y-98336578D01*
X167532999Y-98490313D01*
X167551039Y-98581000D01*
X167551039Y-98581002D01*
X167561993Y-98636072D01*
X167561995Y-98636080D01*
X167574977Y-98667421D01*
X167618868Y-98773385D01*
X167618872Y-98773392D01*
X167701442Y-98896968D01*
X167701443Y-98896969D01*
X168977100Y-100172624D01*
X168977121Y-100172647D01*
X169086528Y-100282054D01*
X169086535Y-100282060D01*
X169210108Y-100364628D01*
X169210109Y-100364628D01*
X169210110Y-100364629D01*
X169347420Y-100421505D01*
X169397888Y-100431543D01*
X169426774Y-100441096D01*
X169747340Y-100592959D01*
X169747342Y-100592961D01*
X169779818Y-100608345D01*
X169779818Y-100608346D01*
X170080873Y-100750966D01*
X170087573Y-100754605D01*
X170090700Y-100756063D01*
X170098613Y-100759050D01*
X170129708Y-100772262D01*
X170129716Y-100772265D01*
X170131481Y-100772932D01*
X170131492Y-100772935D01*
X170131495Y-100772936D01*
X170188292Y-100788509D01*
X170194497Y-100790385D01*
X170256703Y-100810999D01*
X170359491Y-100821500D01*
X172459508Y-100821499D01*
X172562297Y-100810999D01*
X172728834Y-100755814D01*
X172878156Y-100663712D01*
X173002212Y-100539656D01*
X173094314Y-100390334D01*
X173149499Y-100223797D01*
X173160000Y-100121009D01*
X173159999Y-99270992D01*
X173152338Y-99196000D01*
X173149499Y-99168203D01*
X173149498Y-99168200D01*
X173099866Y-99018422D01*
X173094314Y-99001666D01*
X173002212Y-98852344D01*
X172878156Y-98728288D01*
X172779474Y-98667421D01*
X172728836Y-98636187D01*
X172728831Y-98636185D01*
X172727362Y-98635698D01*
X172562297Y-98581001D01*
X172562295Y-98581000D01*
X172459510Y-98570500D01*
X170359498Y-98570500D01*
X170359481Y-98570501D01*
X170256703Y-98581000D01*
X170256700Y-98581001D01*
X170090168Y-98636185D01*
X170090163Y-98636187D01*
X169940841Y-98728290D01*
X169938935Y-98730196D01*
X169921370Y-98744783D01*
X169865076Y-98783367D01*
X169798650Y-98805031D01*
X169731056Y-98787344D01*
X169707291Y-98768767D01*
X169400322Y-98461798D01*
X169078319Y-98139794D01*
X169044834Y-98078471D01*
X169042000Y-98052113D01*
X169042000Y-96770983D01*
X169659000Y-96770983D01*
X169659000Y-97621001D01*
X169659001Y-97621019D01*
X169669500Y-97723796D01*
X169669501Y-97723799D01*
X169686110Y-97773920D01*
X169724686Y-97890334D01*
X169816788Y-98039656D01*
X169940844Y-98163712D01*
X170090166Y-98255814D01*
X170256703Y-98310999D01*
X170359491Y-98321500D01*
X172459508Y-98321499D01*
X172562297Y-98310999D01*
X172728834Y-98255814D01*
X172878156Y-98163712D01*
X173002212Y-98039656D01*
X173094314Y-97890334D01*
X173149499Y-97723797D01*
X173160000Y-97621009D01*
X173159999Y-96770992D01*
X173149499Y-96668203D01*
X173094314Y-96501666D01*
X173010015Y-96364995D01*
X173458999Y-96364995D01*
X173485918Y-96500322D01*
X173485921Y-96500332D01*
X173538721Y-96627804D01*
X173538728Y-96627817D01*
X173615385Y-96742541D01*
X173615388Y-96742545D01*
X173712954Y-96840111D01*
X173712958Y-96840114D01*
X173827682Y-96916771D01*
X173827695Y-96916778D01*
X173955167Y-96969578D01*
X173955172Y-96969580D01*
X173955176Y-96969580D01*
X173955177Y-96969581D01*
X174090504Y-96996500D01*
X174090507Y-96996500D01*
X174228495Y-96996500D01*
X174319541Y-96978389D01*
X174363828Y-96969580D01*
X174488127Y-96918094D01*
X174491304Y-96916778D01*
X174491304Y-96916777D01*
X174491311Y-96916775D01*
X174606042Y-96840114D01*
X174703614Y-96742542D01*
X174780275Y-96627811D01*
X174833080Y-96500328D01*
X174852897Y-96400703D01*
X174860000Y-96364995D01*
X174860000Y-96227004D01*
X174833081Y-96091677D01*
X174833080Y-96091676D01*
X174833080Y-96091672D01*
X174814200Y-96046092D01*
X174780278Y-95964195D01*
X174780271Y-95964182D01*
X174703614Y-95849458D01*
X174703611Y-95849454D01*
X174606045Y-95751888D01*
X174606041Y-95751885D01*
X174491317Y-95675228D01*
X174491304Y-95675221D01*
X174363832Y-95622421D01*
X174363822Y-95622418D01*
X174228495Y-95595500D01*
X174228493Y-95595500D01*
X174090507Y-95595500D01*
X174090505Y-95595500D01*
X173955177Y-95622418D01*
X173955167Y-95622421D01*
X173827695Y-95675221D01*
X173827682Y-95675228D01*
X173712958Y-95751885D01*
X173712954Y-95751888D01*
X173615388Y-95849454D01*
X173615385Y-95849458D01*
X173538728Y-95964182D01*
X173538721Y-95964195D01*
X173485921Y-96091667D01*
X173485918Y-96091677D01*
X173459000Y-96227004D01*
X173459000Y-96227007D01*
X173459000Y-96364993D01*
X173459000Y-96364995D01*
X173458999Y-96364995D01*
X173010015Y-96364995D01*
X173002212Y-96352344D01*
X172878156Y-96228288D01*
X172728834Y-96136186D01*
X172562297Y-96081001D01*
X172562295Y-96081000D01*
X172459510Y-96070500D01*
X170359498Y-96070500D01*
X170359481Y-96070501D01*
X170256703Y-96081000D01*
X170256700Y-96081001D01*
X170090168Y-96136185D01*
X170090163Y-96136187D01*
X169940842Y-96228289D01*
X169816789Y-96352342D01*
X169724687Y-96501663D01*
X169724686Y-96501666D01*
X169669501Y-96668203D01*
X169669501Y-96668204D01*
X169669500Y-96668204D01*
X169659000Y-96770983D01*
X169042000Y-96770983D01*
X169042000Y-93035885D01*
X169061685Y-92968846D01*
X169078314Y-92948209D01*
X170975106Y-91051416D01*
X171018602Y-91023238D01*
X172079656Y-90618636D01*
X172123837Y-90610499D01*
X172476502Y-90610499D01*
X172476508Y-90610499D01*
X172579297Y-90599999D01*
X172745834Y-90544814D01*
X172895156Y-90452712D01*
X173019212Y-90328656D01*
X173111314Y-90179334D01*
X173166499Y-90012797D01*
X173177000Y-89910009D01*
X173176999Y-89109992D01*
X173176225Y-89102418D01*
X173166499Y-89007203D01*
X173166498Y-89007200D01*
X173140244Y-88927972D01*
X173111314Y-88840666D01*
X173019212Y-88691344D01*
X172895156Y-88567288D01*
X172895155Y-88567287D01*
X172830519Y-88527420D01*
X172783794Y-88475472D01*
X172772571Y-88406510D01*
X172800414Y-88342428D01*
X172807934Y-88334199D01*
X172915535Y-88226598D01*
X173017304Y-88086524D01*
X173095908Y-87932255D01*
X173149414Y-87767584D01*
X173150615Y-87760000D01*
X172081830Y-87760000D01*
X172101575Y-87740255D01*
X172150944Y-87654745D01*
X172176500Y-87559370D01*
X172176500Y-87460630D01*
X172150944Y-87365255D01*
X172101575Y-87279745D01*
X172081830Y-87260000D01*
X173150615Y-87260000D01*
X173150615Y-87259999D01*
X173149414Y-87252415D01*
X173095908Y-87087744D01*
X173017304Y-86933475D01*
X172915532Y-86793397D01*
X172793102Y-86670967D01*
X172653024Y-86569195D01*
X172498757Y-86490591D01*
X172334084Y-86437085D01*
X172163071Y-86410000D01*
X172051500Y-86410000D01*
X172051500Y-87229670D01*
X172031755Y-87209925D01*
X171946245Y-87160556D01*
X171850870Y-87135000D01*
X171752130Y-87135000D01*
X171656755Y-87160556D01*
X171571245Y-87209925D01*
X171551500Y-87229670D01*
X171551500Y-86410000D01*
X171439929Y-86410000D01*
X171268915Y-86437085D01*
X171104242Y-86490591D01*
X170949975Y-86569195D01*
X170809897Y-86670967D01*
X170687467Y-86793397D01*
X170585695Y-86933475D01*
X170507091Y-87087744D01*
X170453585Y-87252415D01*
X170452384Y-87259999D01*
X170452385Y-87260000D01*
X171521170Y-87260000D01*
X171501425Y-87279745D01*
X171452056Y-87365255D01*
X171426500Y-87460630D01*
X171426500Y-87559370D01*
X171452056Y-87654745D01*
X171501425Y-87740255D01*
X171521170Y-87760000D01*
X170452385Y-87760000D01*
X170453585Y-87767584D01*
X170507091Y-87932255D01*
X170585695Y-88086524D01*
X170687467Y-88226602D01*
X170795065Y-88334200D01*
X170828550Y-88395523D01*
X170823566Y-88465215D01*
X170781694Y-88521148D01*
X170772481Y-88527420D01*
X170707842Y-88567289D01*
X170583789Y-88691342D01*
X170491687Y-88840663D01*
X170491686Y-88840666D01*
X170436501Y-89007203D01*
X170436501Y-89007204D01*
X170436500Y-89007204D01*
X170426000Y-89109983D01*
X170426000Y-89201065D01*
X170406315Y-89268104D01*
X170404890Y-89270272D01*
X169965092Y-89924117D01*
X169949883Y-89942591D01*
X167701443Y-92191030D01*
X167701442Y-92191031D01*
X167618868Y-92314614D01*
X167585553Y-92395045D01*
X167562572Y-92450527D01*
X167562564Y-92450548D01*
X167561993Y-92451923D01*
X167532999Y-92597685D01*
X161990097Y-92597685D01*
X161862075Y-92300548D01*
X161653615Y-91816716D01*
X161631469Y-91771624D01*
X161631215Y-91771290D01*
X161619004Y-91751616D01*
X161564632Y-91642422D01*
X161564625Y-91642410D01*
X161432895Y-91467972D01*
X161271353Y-91320706D01*
X161271350Y-91320704D01*
X161271349Y-91320703D01*
X161085504Y-91205633D01*
X161085498Y-91205630D01*
X160908498Y-91137061D01*
X160881668Y-91126667D01*
X160834704Y-91117887D01*
X160772426Y-91086221D01*
X160737153Y-91025908D01*
X160740087Y-90956100D01*
X160780296Y-90898960D01*
X160834704Y-90874112D01*
X160881668Y-90865333D01*
X161085501Y-90786368D01*
X161271353Y-90671294D01*
X161432895Y-90524028D01*
X161564627Y-90349587D01*
X161662063Y-90153910D01*
X161721884Y-89943661D01*
X161742053Y-89726000D01*
X161721884Y-89508339D01*
X161662063Y-89298090D01*
X161662058Y-89298079D01*
X161564630Y-89102418D01*
X161564625Y-89102410D01*
X161432895Y-88927972D01*
X161271353Y-88780706D01*
X161271350Y-88780704D01*
X161271349Y-88780703D01*
X161085504Y-88665633D01*
X161085498Y-88665630D01*
X160924851Y-88603396D01*
X160881668Y-88586667D01*
X160834704Y-88577887D01*
X160772426Y-88546221D01*
X160737153Y-88485908D01*
X160740087Y-88416100D01*
X160780296Y-88358960D01*
X160834704Y-88334112D01*
X160881668Y-88325333D01*
X161085501Y-88246368D01*
X161271353Y-88131294D01*
X161432895Y-87984028D01*
X161564627Y-87809587D01*
X161662063Y-87613910D01*
X161721884Y-87403661D01*
X161742053Y-87186000D01*
X161721884Y-86968339D01*
X161662063Y-86758090D01*
X161618681Y-86670967D01*
X161564630Y-86562418D01*
X161564625Y-86562410D01*
X161432895Y-86387972D01*
X161271353Y-86240706D01*
X161271350Y-86240704D01*
X161271349Y-86240703D01*
X161085504Y-86125633D01*
X161085498Y-86125630D01*
X160924851Y-86063396D01*
X160881668Y-86046667D01*
X160833347Y-86037634D01*
X160771068Y-86005966D01*
X160735795Y-85945654D01*
X160738729Y-85875846D01*
X160778938Y-85818706D01*
X160833349Y-85793857D01*
X160881528Y-85784850D01*
X160881529Y-85784850D01*
X161085281Y-85705916D01*
X161195573Y-85637625D01*
X160625673Y-85067725D01*
X160721544Y-85042037D01*
X160818456Y-84986084D01*
X160897584Y-84906956D01*
X160953537Y-84810044D01*
X160979225Y-84714172D01*
X161551367Y-85286314D01*
X161564199Y-85269323D01*
X161564203Y-85269316D01*
X161661593Y-85073732D01*
X161721390Y-84863564D01*
X161741551Y-84646000D01*
X161741551Y-84645999D01*
X161721390Y-84428435D01*
X161661593Y-84218267D01*
X161564199Y-84022675D01*
X161551368Y-84005684D01*
X160979225Y-84577826D01*
X160953537Y-84481956D01*
X160897584Y-84385044D01*
X160818456Y-84305916D01*
X160721544Y-84249963D01*
X160625672Y-84224274D01*
X161195573Y-83654373D01*
X161195572Y-83654372D01*
X161085280Y-83586082D01*
X161085274Y-83586080D01*
X160881529Y-83507149D01*
X160881521Y-83507147D01*
X160833347Y-83498141D01*
X160771067Y-83466472D01*
X160735795Y-83406160D01*
X160738729Y-83336352D01*
X160778939Y-83279212D01*
X160833346Y-83254365D01*
X160881668Y-83245333D01*
X161085501Y-83166368D01*
X161271353Y-83051294D01*
X161432895Y-82904028D01*
X161564627Y-82729587D01*
X161662063Y-82533910D01*
X161721884Y-82323661D01*
X161742053Y-82106000D01*
X161721884Y-81888339D01*
X161662063Y-81678090D01*
X161658097Y-81670125D01*
X161564630Y-81482418D01*
X161564625Y-81482410D01*
X161432895Y-81307972D01*
X161297641Y-81184671D01*
X161271353Y-81160706D01*
X161271350Y-81160704D01*
X161271349Y-81160703D01*
X161085504Y-81045633D01*
X161085498Y-81045630D01*
X160924350Y-80983202D01*
X160881668Y-80966667D01*
X160666797Y-80926500D01*
X160448203Y-80926500D01*
X160233332Y-80966667D01*
X160233329Y-80966667D01*
X160233329Y-80966668D01*
X160029501Y-81045630D01*
X160029495Y-81045633D01*
X159843650Y-81160703D01*
X159682104Y-81307972D01*
X159550374Y-81482410D01*
X159550369Y-81482418D01*
X159452941Y-81678079D01*
X159452935Y-81678094D01*
X159393116Y-81888337D01*
X159393115Y-81888339D01*
X159372947Y-82105999D01*
X159372947Y-82106000D01*
X159393115Y-82323660D01*
X159393116Y-82323662D01*
X159452935Y-82533905D01*
X159452941Y-82533920D01*
X159550369Y-82729581D01*
X159550374Y-82729589D01*
X159682104Y-82904027D01*
X159682105Y-82904028D01*
X159843647Y-83051294D01*
X159843649Y-83051295D01*
X159843650Y-83051296D01*
X160029495Y-83166366D01*
X160029501Y-83166369D01*
X160190647Y-83228797D01*
X160233332Y-83245333D01*
X160281652Y-83254365D01*
X160343930Y-83286031D01*
X160379204Y-83346343D01*
X160376271Y-83416151D01*
X160336062Y-83473292D01*
X160281652Y-83498141D01*
X160233478Y-83507147D01*
X160233470Y-83507149D01*
X160029726Y-83586079D01*
X159919425Y-83654373D01*
X160489328Y-84224274D01*
X160393456Y-84249963D01*
X160296544Y-84305916D01*
X160217416Y-84385044D01*
X160161463Y-84481956D01*
X160135774Y-84577827D01*
X159563631Y-84005684D01*
X159550797Y-84022681D01*
X159453406Y-84218267D01*
X159393609Y-84428435D01*
X159373449Y-84645999D01*
X159373449Y-84646000D01*
X159393609Y-84863564D01*
X159453406Y-85073732D01*
X159550800Y-85269323D01*
X159563630Y-85286314D01*
X159563631Y-85286315D01*
X160135774Y-84714171D01*
X160161463Y-84810044D01*
X160217416Y-84906956D01*
X160296544Y-84986084D01*
X160393456Y-85042037D01*
X160489327Y-85067725D01*
X159919425Y-85637625D01*
X160029725Y-85705919D01*
X160233471Y-85784850D01*
X160281650Y-85793857D01*
X160343931Y-85825525D01*
X160379204Y-85885838D01*
X160376270Y-85955646D01*
X160336061Y-86012786D01*
X160281651Y-86037634D01*
X160233339Y-86046665D01*
X160233333Y-86046666D01*
X160233332Y-86046667D01*
X160233329Y-86046667D01*
X160233323Y-86046670D01*
X160142081Y-86082016D01*
X160126259Y-86086957D01*
X160100122Y-86093237D01*
X160100120Y-86093237D01*
X159359154Y-86387972D01*
X159139573Y-86475315D01*
X159112160Y-86486219D01*
X159066329Y-86495000D01*
X156125083Y-86495000D01*
X156058044Y-86475315D01*
X156037402Y-86458681D01*
X151147992Y-81569269D01*
X151147985Y-81569263D01*
X151034812Y-81493644D01*
X151034809Y-81493642D01*
X150909061Y-81441556D01*
X150909051Y-81441553D01*
X150775560Y-81415000D01*
X150775558Y-81415000D01*
X146885366Y-81415000D01*
X146818327Y-81395315D01*
X146812949Y-81391657D01*
X146299746Y-81022439D01*
X146289107Y-81014991D01*
X146289106Y-81014990D01*
X146289104Y-81014989D01*
X146277016Y-81009074D01*
X146257208Y-80996961D01*
X146238831Y-80983204D01*
X146238828Y-80983202D01*
X146182766Y-80962293D01*
X146171597Y-80957491D01*
X146159868Y-80951751D01*
X146159863Y-80951749D01*
X146153038Y-80949546D01*
X146146151Y-80947819D01*
X146132990Y-80943728D01*
X146103984Y-80932909D01*
X146103980Y-80932908D01*
X146044383Y-80926501D01*
X146044381Y-80926500D01*
X146044373Y-80926500D01*
X146044364Y-80926500D01*
X144590629Y-80926500D01*
X144590623Y-80926501D01*
X144531016Y-80932908D01*
X144396171Y-80983202D01*
X144396164Y-80983206D01*
X144280955Y-81069452D01*
X144280952Y-81069455D01*
X144194706Y-81184664D01*
X144194702Y-81184671D01*
X144144408Y-81319517D01*
X144138001Y-81379116D01*
X144138000Y-81379135D01*
X144138000Y-82832870D01*
X144138001Y-82832876D01*
X144144408Y-82892483D01*
X144194702Y-83027328D01*
X144194706Y-83027335D01*
X144280952Y-83142544D01*
X144280955Y-83142547D01*
X144396164Y-83228793D01*
X144396171Y-83228797D01*
X144531017Y-83279091D01*
X144531016Y-83279091D01*
X144532142Y-83279212D01*
X144590627Y-83285500D01*
X144900889Y-83285499D01*
X144967926Y-83305183D01*
X145013681Y-83357987D01*
X145023625Y-83427146D01*
X144994600Y-83490701D01*
X144945681Y-83525125D01*
X144789510Y-83585626D01*
X144789495Y-83585633D01*
X144603650Y-83700703D01*
X144442104Y-83847972D01*
X144310374Y-84022410D01*
X144310369Y-84022418D01*
X144212941Y-84218079D01*
X144212935Y-84218094D01*
X144153116Y-84428337D01*
X144153115Y-84428339D01*
X144132947Y-84645999D01*
X144132947Y-84646000D01*
X144153115Y-84863660D01*
X144153116Y-84863662D01*
X144212935Y-85073905D01*
X144212941Y-85073920D01*
X144310369Y-85269581D01*
X144310374Y-85269589D01*
X144323005Y-85286315D01*
X144442105Y-85444028D01*
X144603647Y-85591294D01*
X144603649Y-85591295D01*
X144603650Y-85591296D01*
X144789495Y-85706366D01*
X144789501Y-85706369D01*
X144857443Y-85732689D01*
X144993332Y-85785333D01*
X145040295Y-85794112D01*
X145102573Y-85825780D01*
X145137846Y-85886092D01*
X145134912Y-85955900D01*
X145094703Y-86013040D01*
X145040295Y-86037887D01*
X144993332Y-86046667D01*
X144993330Y-86046667D01*
X144993328Y-86046668D01*
X144789501Y-86125630D01*
X144789495Y-86125633D01*
X144603650Y-86240703D01*
X144442104Y-86387972D01*
X144310374Y-86562410D01*
X144310369Y-86562418D01*
X144212941Y-86758079D01*
X144212935Y-86758094D01*
X144153116Y-86968337D01*
X144153115Y-86968339D01*
X144132947Y-87185999D01*
X144132947Y-87186000D01*
X144153115Y-87403660D01*
X144153116Y-87403662D01*
X144212935Y-87613905D01*
X144212941Y-87613920D01*
X144310369Y-87809581D01*
X144310374Y-87809589D01*
X144442104Y-87984027D01*
X144442105Y-87984028D01*
X144603647Y-88131294D01*
X144603649Y-88131295D01*
X144603650Y-88131296D01*
X144789495Y-88246366D01*
X144789501Y-88246369D01*
X144857443Y-88272689D01*
X144993332Y-88325333D01*
X145040295Y-88334112D01*
X145102573Y-88365780D01*
X145137846Y-88426092D01*
X145134912Y-88495900D01*
X145094703Y-88553040D01*
X145040295Y-88577887D01*
X144993332Y-88586667D01*
X144993329Y-88586667D01*
X144993329Y-88586668D01*
X144993323Y-88586670D01*
X144902081Y-88622016D01*
X144886259Y-88626957D01*
X144860122Y-88633237D01*
X144860120Y-88633237D01*
X144119154Y-88927972D01*
X143899573Y-89015315D01*
X143872160Y-89026219D01*
X143826329Y-89035000D01*
X143552083Y-89035000D01*
X143485044Y-89015315D01*
X143464402Y-88998681D01*
X140152992Y-85687269D01*
X140152985Y-85687263D01*
X140039812Y-85611644D01*
X140039809Y-85611642D01*
X139914061Y-85559556D01*
X139914051Y-85559553D01*
X139780560Y-85533000D01*
X139780558Y-85533000D01*
X117713442Y-85533000D01*
X117713440Y-85533000D01*
X117579948Y-85559553D01*
X117579938Y-85559556D01*
X117454195Y-85611640D01*
X117454182Y-85611647D01*
X117341014Y-85687264D01*
X117341010Y-85687267D01*
X115973067Y-87055209D01*
X115931883Y-87082480D01*
X114746636Y-87561896D01*
X114694397Y-87586591D01*
X114694389Y-87586595D01*
X114694207Y-87586732D01*
X114672417Y-87599761D01*
X114578766Y-87643431D01*
X114392360Y-87773953D01*
X114231454Y-87934858D01*
X114100932Y-88121265D01*
X114100931Y-88121267D01*
X114004761Y-88327502D01*
X114004758Y-88327511D01*
X113945866Y-88547302D01*
X113945864Y-88547313D01*
X113926032Y-88773998D01*
X111668000Y-88773998D01*
X111668000Y-82573994D01*
X124176155Y-82573994D01*
X124176155Y-82574005D01*
X124195514Y-82881725D01*
X124195515Y-82881732D01*
X124195516Y-82881736D01*
X124249812Y-83166368D01*
X124253295Y-83184623D01*
X124348578Y-83477874D01*
X124348580Y-83477879D01*
X124479862Y-83756867D01*
X124479866Y-83756873D01*
X124645077Y-84017206D01*
X124645079Y-84017209D01*
X124645084Y-84017216D01*
X124811266Y-84218094D01*
X124841632Y-84254800D01*
X125066402Y-84465874D01*
X125066412Y-84465882D01*
X125315848Y-84647108D01*
X125315853Y-84647110D01*
X125315860Y-84647116D01*
X125586065Y-84795663D01*
X125586070Y-84795665D01*
X125586072Y-84795666D01*
X125586073Y-84795667D01*
X125872753Y-84909171D01*
X125872756Y-84909172D01*
X126171410Y-84985853D01*
X126171414Y-84985854D01*
X126235591Y-84993961D01*
X126477316Y-85024499D01*
X126477325Y-85024499D01*
X126477328Y-85024500D01*
X126477330Y-85024500D01*
X126785670Y-85024500D01*
X126785672Y-85024500D01*
X126785675Y-85024499D01*
X126785683Y-85024499D01*
X126983147Y-84999553D01*
X127091586Y-84985854D01*
X127390243Y-84909172D01*
X127505189Y-84863662D01*
X127676926Y-84795667D01*
X127676927Y-84795666D01*
X127676925Y-84795666D01*
X127676935Y-84795663D01*
X127947140Y-84647116D01*
X128196596Y-84465876D01*
X128421369Y-84254799D01*
X128617916Y-84017216D01*
X128783135Y-83756871D01*
X128914422Y-83477873D01*
X129009706Y-83184619D01*
X129067484Y-82881736D01*
X129070558Y-82832876D01*
X129086845Y-82574005D01*
X129086845Y-82573994D01*
X129067485Y-82266274D01*
X129067484Y-82266267D01*
X129067484Y-82266264D01*
X129009706Y-81963381D01*
X128914422Y-81670127D01*
X128866959Y-81569263D01*
X128783137Y-81391132D01*
X128783133Y-81391126D01*
X128617922Y-81130793D01*
X128617920Y-81130791D01*
X128617916Y-81130784D01*
X128421369Y-80893201D01*
X128196596Y-80682124D01*
X128196593Y-80682122D01*
X128196587Y-80682117D01*
X127947151Y-80500891D01*
X127947144Y-80500886D01*
X127947140Y-80500884D01*
X127676935Y-80352337D01*
X127676932Y-80352335D01*
X127676927Y-80352333D01*
X127676926Y-80352332D01*
X127390246Y-80238828D01*
X127390243Y-80238827D01*
X127091589Y-80162146D01*
X127091576Y-80162144D01*
X126785683Y-80123500D01*
X126785672Y-80123500D01*
X126477328Y-80123500D01*
X126477316Y-80123500D01*
X126171423Y-80162144D01*
X126171410Y-80162146D01*
X125872756Y-80238827D01*
X125872753Y-80238828D01*
X125586073Y-80352332D01*
X125586072Y-80352333D01*
X125315860Y-80500884D01*
X125315848Y-80500891D01*
X125066412Y-80682117D01*
X125066402Y-80682125D01*
X124841632Y-80893199D01*
X124740877Y-81014991D01*
X124715528Y-81045633D01*
X124645077Y-81130793D01*
X124479866Y-81391126D01*
X124479862Y-81391132D01*
X124348580Y-81670120D01*
X124348578Y-81670125D01*
X124253295Y-81963376D01*
X124195515Y-82266267D01*
X124195514Y-82266274D01*
X124176155Y-82573994D01*
X111668000Y-82573994D01*
X111668000Y-77968500D01*
X111687685Y-77901461D01*
X111740489Y-77855706D01*
X111792000Y-77844500D01*
X175313000Y-77844500D01*
X175380039Y-77864185D01*
G37*
%TD.AperFunction*%
%TD*%
M02*
