%TF.GenerationSoftware,KiCad,Pcbnew,8.0.8*%
%TF.CreationDate,2025-02-27T22:43:43-08:00*%
%TF.ProjectId,display_pcb,64697370-6c61-4795-9f70-63622e6b6963,rev?*%
%TF.SameCoordinates,Original*%
%TF.FileFunction,Legend,Top*%
%TF.FilePolarity,Positive*%
%FSLAX46Y46*%
G04 Gerber Fmt 4.6, Leading zero omitted, Abs format (unit mm)*
G04 Created by KiCad (PCBNEW 8.0.8) date 2025-02-27 22:43:43*
%MOMM*%
%LPD*%
G01*
G04 APERTURE LIST*
%ADD10C,0.150000*%
%ADD11C,0.300000*%
%ADD12C,0.120000*%
%ADD13C,0.203200*%
%ADD14C,0.200000*%
G04 APERTURE END LIST*
D10*
X173032452Y-104992819D02*
X173222928Y-104992819D01*
X173222928Y-104992819D02*
X173318166Y-105040438D01*
X173318166Y-105040438D02*
X173413404Y-105135676D01*
X173413404Y-105135676D02*
X173461023Y-105326152D01*
X173461023Y-105326152D02*
X173461023Y-105659485D01*
X173461023Y-105659485D02*
X173413404Y-105849961D01*
X173413404Y-105849961D02*
X173318166Y-105945200D01*
X173318166Y-105945200D02*
X173222928Y-105992819D01*
X173222928Y-105992819D02*
X173032452Y-105992819D01*
X173032452Y-105992819D02*
X172937214Y-105945200D01*
X172937214Y-105945200D02*
X172841976Y-105849961D01*
X172841976Y-105849961D02*
X172794357Y-105659485D01*
X172794357Y-105659485D02*
X172794357Y-105326152D01*
X172794357Y-105326152D02*
X172841976Y-105135676D01*
X172841976Y-105135676D02*
X172937214Y-105040438D01*
X172937214Y-105040438D02*
X173032452Y-104992819D01*
X173889595Y-105992819D02*
X173889595Y-104992819D01*
X173889595Y-104992819D02*
X174461023Y-105992819D01*
X174461023Y-105992819D02*
X174461023Y-104992819D01*
G36*
X169062854Y-90088489D02*
G01*
X167931609Y-90088489D01*
X167931609Y-89508234D01*
X168042720Y-89508234D01*
X168042720Y-89537498D01*
X168053919Y-89564534D01*
X168074611Y-89585226D01*
X168101647Y-89596425D01*
X168116279Y-89597866D01*
X168422231Y-89597866D01*
X168422231Y-89903819D01*
X168423672Y-89918451D01*
X168434871Y-89945487D01*
X168455563Y-89966179D01*
X168482599Y-89977378D01*
X168511863Y-89977378D01*
X168538899Y-89966179D01*
X168559591Y-89945487D01*
X168570790Y-89918451D01*
X168572231Y-89903819D01*
X168572231Y-89597866D01*
X168878184Y-89597866D01*
X168892816Y-89596425D01*
X168919852Y-89585226D01*
X168940544Y-89564534D01*
X168951743Y-89537498D01*
X168951743Y-89508234D01*
X168940544Y-89481198D01*
X168919852Y-89460506D01*
X168892816Y-89449307D01*
X168878184Y-89447866D01*
X168572231Y-89447866D01*
X168572231Y-89141914D01*
X168570790Y-89127282D01*
X168559591Y-89100246D01*
X168538899Y-89079554D01*
X168511863Y-89068355D01*
X168482599Y-89068355D01*
X168455563Y-89079554D01*
X168434871Y-89100246D01*
X168423672Y-89127282D01*
X168422231Y-89141914D01*
X168422231Y-89447866D01*
X168116279Y-89447866D01*
X168101647Y-89449307D01*
X168074611Y-89460506D01*
X168053919Y-89481198D01*
X168042720Y-89508234D01*
X167931609Y-89508234D01*
X167931609Y-88957244D01*
X169062854Y-88957244D01*
X169062854Y-90088489D01*
G37*
X172699119Y-93308819D02*
X172889595Y-93308819D01*
X172889595Y-93308819D02*
X172984833Y-93356438D01*
X172984833Y-93356438D02*
X173080071Y-93451676D01*
X173080071Y-93451676D02*
X173127690Y-93642152D01*
X173127690Y-93642152D02*
X173127690Y-93975485D01*
X173127690Y-93975485D02*
X173080071Y-94165961D01*
X173080071Y-94165961D02*
X172984833Y-94261200D01*
X172984833Y-94261200D02*
X172889595Y-94308819D01*
X172889595Y-94308819D02*
X172699119Y-94308819D01*
X172699119Y-94308819D02*
X172603881Y-94261200D01*
X172603881Y-94261200D02*
X172508643Y-94165961D01*
X172508643Y-94165961D02*
X172461024Y-93975485D01*
X172461024Y-93975485D02*
X172461024Y-93642152D01*
X172461024Y-93642152D02*
X172508643Y-93451676D01*
X172508643Y-93451676D02*
X172603881Y-93356438D01*
X172603881Y-93356438D02*
X172699119Y-93308819D01*
X173889595Y-93785009D02*
X173556262Y-93785009D01*
X173556262Y-94308819D02*
X173556262Y-93308819D01*
X173556262Y-93308819D02*
X174032452Y-93308819D01*
X174746738Y-93785009D02*
X174413405Y-93785009D01*
X174413405Y-94308819D02*
X174413405Y-93308819D01*
X174413405Y-93308819D02*
X174889595Y-93308819D01*
G36*
X169062854Y-87676977D02*
G01*
X167931609Y-87676977D01*
X167931609Y-87476234D01*
X168042720Y-87476234D01*
X168042720Y-87505498D01*
X168053919Y-87532534D01*
X168074611Y-87553226D01*
X168101647Y-87564425D01*
X168116279Y-87565866D01*
X168878184Y-87565866D01*
X168892816Y-87564425D01*
X168919852Y-87553226D01*
X168940544Y-87532534D01*
X168951743Y-87505498D01*
X168951743Y-87476234D01*
X168940544Y-87449198D01*
X168919852Y-87428506D01*
X168892816Y-87417307D01*
X168878184Y-87415866D01*
X168116279Y-87415866D01*
X168101647Y-87417307D01*
X168074611Y-87428506D01*
X168053919Y-87449198D01*
X168042720Y-87476234D01*
X167931609Y-87476234D01*
X167931609Y-87304755D01*
X169062854Y-87304755D01*
X169062854Y-87676977D01*
G37*
G36*
X168838854Y-99878977D02*
G01*
X167707609Y-99878977D01*
X167707609Y-99678234D01*
X167818720Y-99678234D01*
X167818720Y-99707498D01*
X167829919Y-99734534D01*
X167850611Y-99755226D01*
X167877647Y-99766425D01*
X167892279Y-99767866D01*
X168654184Y-99767866D01*
X168668816Y-99766425D01*
X168695852Y-99755226D01*
X168716544Y-99734534D01*
X168727743Y-99707498D01*
X168727743Y-99678234D01*
X168716544Y-99651198D01*
X168695852Y-99630506D01*
X168668816Y-99619307D01*
X168654184Y-99617866D01*
X167892279Y-99617866D01*
X167877647Y-99619307D01*
X167850611Y-99630506D01*
X167829919Y-99651198D01*
X167818720Y-99678234D01*
X167707609Y-99678234D01*
X167707609Y-99506755D01*
X168838854Y-99506755D01*
X168838854Y-99878977D01*
G37*
D11*
X161912582Y-115568257D02*
X162626868Y-115568257D01*
X161769725Y-115996828D02*
X162269725Y-114496828D01*
X162269725Y-114496828D02*
X162769725Y-115996828D01*
X163912582Y-114996828D02*
X163912582Y-115996828D01*
X163269724Y-114996828D02*
X163269724Y-115782542D01*
X163269724Y-115782542D02*
X163341153Y-115925400D01*
X163341153Y-115925400D02*
X163484010Y-115996828D01*
X163484010Y-115996828D02*
X163698296Y-115996828D01*
X163698296Y-115996828D02*
X163841153Y-115925400D01*
X163841153Y-115925400D02*
X163912582Y-115853971D01*
X164626867Y-115996828D02*
X164626867Y-114996828D01*
X164626867Y-115282542D02*
X164698296Y-115139685D01*
X164698296Y-115139685D02*
X164769725Y-115068257D01*
X164769725Y-115068257D02*
X164912582Y-114996828D01*
X164912582Y-114996828D02*
X165055439Y-114996828D01*
X165555438Y-115996828D02*
X165555438Y-114996828D01*
X165555438Y-114496828D02*
X165484010Y-114568257D01*
X165484010Y-114568257D02*
X165555438Y-114639685D01*
X165555438Y-114639685D02*
X165626867Y-114568257D01*
X165626867Y-114568257D02*
X165555438Y-114496828D01*
X165555438Y-114496828D02*
X165555438Y-114639685D01*
X166912582Y-115996828D02*
X166912582Y-115211114D01*
X166912582Y-115211114D02*
X166841153Y-115068257D01*
X166841153Y-115068257D02*
X166698296Y-114996828D01*
X166698296Y-114996828D02*
X166412582Y-114996828D01*
X166412582Y-114996828D02*
X166269724Y-115068257D01*
X166912582Y-115925400D02*
X166769724Y-115996828D01*
X166769724Y-115996828D02*
X166412582Y-115996828D01*
X166412582Y-115996828D02*
X166269724Y-115925400D01*
X166269724Y-115925400D02*
X166198296Y-115782542D01*
X166198296Y-115782542D02*
X166198296Y-115639685D01*
X166198296Y-115639685D02*
X166269724Y-115496828D01*
X166269724Y-115496828D02*
X166412582Y-115425400D01*
X166412582Y-115425400D02*
X166769724Y-115425400D01*
X166769724Y-115425400D02*
X166912582Y-115353971D01*
X168626867Y-114496828D02*
X169626867Y-114496828D01*
X169626867Y-114496828D02*
X168626867Y-115996828D01*
X168626867Y-115996828D02*
X169626867Y-115996828D01*
X170198295Y-115996828D02*
X170198295Y-114496828D01*
X170841153Y-115996828D02*
X170841153Y-115211114D01*
X170841153Y-115211114D02*
X170769724Y-115068257D01*
X170769724Y-115068257D02*
X170626867Y-114996828D01*
X170626867Y-114996828D02*
X170412581Y-114996828D01*
X170412581Y-114996828D02*
X170269724Y-115068257D01*
X170269724Y-115068257D02*
X170198295Y-115139685D01*
X172198296Y-115996828D02*
X172198296Y-115211114D01*
X172198296Y-115211114D02*
X172126867Y-115068257D01*
X172126867Y-115068257D02*
X171984010Y-114996828D01*
X171984010Y-114996828D02*
X171698296Y-114996828D01*
X171698296Y-114996828D02*
X171555438Y-115068257D01*
X172198296Y-115925400D02*
X172055438Y-115996828D01*
X172055438Y-115996828D02*
X171698296Y-115996828D01*
X171698296Y-115996828D02*
X171555438Y-115925400D01*
X171555438Y-115925400D02*
X171484010Y-115782542D01*
X171484010Y-115782542D02*
X171484010Y-115639685D01*
X171484010Y-115639685D02*
X171555438Y-115496828D01*
X171555438Y-115496828D02*
X171698296Y-115425400D01*
X171698296Y-115425400D02*
X172055438Y-115425400D01*
X172055438Y-115425400D02*
X172198296Y-115353971D01*
X172912581Y-114996828D02*
X172912581Y-115996828D01*
X172912581Y-115139685D02*
X172984010Y-115068257D01*
X172984010Y-115068257D02*
X173126867Y-114996828D01*
X173126867Y-114996828D02*
X173341153Y-114996828D01*
X173341153Y-114996828D02*
X173484010Y-115068257D01*
X173484010Y-115068257D02*
X173555439Y-115211114D01*
X173555439Y-115211114D02*
X173555439Y-115996828D01*
X174912582Y-114996828D02*
X174912582Y-116211114D01*
X174912582Y-116211114D02*
X174841153Y-116353971D01*
X174841153Y-116353971D02*
X174769724Y-116425400D01*
X174769724Y-116425400D02*
X174626867Y-116496828D01*
X174626867Y-116496828D02*
X174412582Y-116496828D01*
X174412582Y-116496828D02*
X174269724Y-116425400D01*
X174912582Y-115925400D02*
X174769724Y-115996828D01*
X174769724Y-115996828D02*
X174484010Y-115996828D01*
X174484010Y-115996828D02*
X174341153Y-115925400D01*
X174341153Y-115925400D02*
X174269724Y-115853971D01*
X174269724Y-115853971D02*
X174198296Y-115711114D01*
X174198296Y-115711114D02*
X174198296Y-115282542D01*
X174198296Y-115282542D02*
X174269724Y-115139685D01*
X174269724Y-115139685D02*
X174341153Y-115068257D01*
X174341153Y-115068257D02*
X174484010Y-114996828D01*
X174484010Y-114996828D02*
X174769724Y-114996828D01*
X174769724Y-114996828D02*
X174912582Y-115068257D01*
D10*
G36*
X168838854Y-102798489D02*
G01*
X167707609Y-102798489D01*
X167707609Y-102218234D01*
X167818720Y-102218234D01*
X167818720Y-102247498D01*
X167829919Y-102274534D01*
X167850611Y-102295226D01*
X167877647Y-102306425D01*
X167892279Y-102307866D01*
X168198231Y-102307866D01*
X168198231Y-102613819D01*
X168199672Y-102628451D01*
X168210871Y-102655487D01*
X168231563Y-102676179D01*
X168258599Y-102687378D01*
X168287863Y-102687378D01*
X168314899Y-102676179D01*
X168335591Y-102655487D01*
X168346790Y-102628451D01*
X168348231Y-102613819D01*
X168348231Y-102307866D01*
X168654184Y-102307866D01*
X168668816Y-102306425D01*
X168695852Y-102295226D01*
X168716544Y-102274534D01*
X168727743Y-102247498D01*
X168727743Y-102218234D01*
X168716544Y-102191198D01*
X168695852Y-102170506D01*
X168668816Y-102159307D01*
X168654184Y-102157866D01*
X168348231Y-102157866D01*
X168348231Y-101851914D01*
X168346790Y-101837282D01*
X168335591Y-101810246D01*
X168314899Y-101789554D01*
X168287863Y-101778355D01*
X168258599Y-101778355D01*
X168231563Y-101789554D01*
X168210871Y-101810246D01*
X168199672Y-101837282D01*
X168198231Y-101851914D01*
X168198231Y-102157866D01*
X167892279Y-102157866D01*
X167877647Y-102159307D01*
X167850611Y-102170506D01*
X167829919Y-102191198D01*
X167818720Y-102218234D01*
X167707609Y-102218234D01*
X167707609Y-101667244D01*
X168838854Y-101667244D01*
X168838854Y-102798489D01*
G37*
X150728167Y-108231200D02*
X150871024Y-108278819D01*
X150871024Y-108278819D02*
X151109119Y-108278819D01*
X151109119Y-108278819D02*
X151204357Y-108231200D01*
X151204357Y-108231200D02*
X151251976Y-108183580D01*
X151251976Y-108183580D02*
X151299595Y-108088342D01*
X151299595Y-108088342D02*
X151299595Y-107993104D01*
X151299595Y-107993104D02*
X151251976Y-107897866D01*
X151251976Y-107897866D02*
X151204357Y-107850247D01*
X151204357Y-107850247D02*
X151109119Y-107802628D01*
X151109119Y-107802628D02*
X150918643Y-107755009D01*
X150918643Y-107755009D02*
X150823405Y-107707390D01*
X150823405Y-107707390D02*
X150775786Y-107659771D01*
X150775786Y-107659771D02*
X150728167Y-107564533D01*
X150728167Y-107564533D02*
X150728167Y-107469295D01*
X150728167Y-107469295D02*
X150775786Y-107374057D01*
X150775786Y-107374057D02*
X150823405Y-107326438D01*
X150823405Y-107326438D02*
X150918643Y-107278819D01*
X150918643Y-107278819D02*
X151156738Y-107278819D01*
X151156738Y-107278819D02*
X151299595Y-107326438D01*
X151632929Y-107278819D02*
X151871024Y-108278819D01*
X151871024Y-108278819D02*
X152061500Y-107564533D01*
X152061500Y-107564533D02*
X152251976Y-108278819D01*
X152251976Y-108278819D02*
X152490072Y-107278819D01*
X152823405Y-107374057D02*
X152871024Y-107326438D01*
X152871024Y-107326438D02*
X152966262Y-107278819D01*
X152966262Y-107278819D02*
X153204357Y-107278819D01*
X153204357Y-107278819D02*
X153299595Y-107326438D01*
X153299595Y-107326438D02*
X153347214Y-107374057D01*
X153347214Y-107374057D02*
X153394833Y-107469295D01*
X153394833Y-107469295D02*
X153394833Y-107564533D01*
X153394833Y-107564533D02*
X153347214Y-107707390D01*
X153347214Y-107707390D02*
X152775786Y-108278819D01*
X152775786Y-108278819D02*
X153394833Y-108278819D01*
X165356833Y-110215580D02*
X165309214Y-110263200D01*
X165309214Y-110263200D02*
X165166357Y-110310819D01*
X165166357Y-110310819D02*
X165071119Y-110310819D01*
X165071119Y-110310819D02*
X164928262Y-110263200D01*
X164928262Y-110263200D02*
X164833024Y-110167961D01*
X164833024Y-110167961D02*
X164785405Y-110072723D01*
X164785405Y-110072723D02*
X164737786Y-109882247D01*
X164737786Y-109882247D02*
X164737786Y-109739390D01*
X164737786Y-109739390D02*
X164785405Y-109548914D01*
X164785405Y-109548914D02*
X164833024Y-109453676D01*
X164833024Y-109453676D02*
X164928262Y-109358438D01*
X164928262Y-109358438D02*
X165071119Y-109310819D01*
X165071119Y-109310819D02*
X165166357Y-109310819D01*
X165166357Y-109310819D02*
X165309214Y-109358438D01*
X165309214Y-109358438D02*
X165356833Y-109406057D01*
X166309214Y-110310819D02*
X165737786Y-110310819D01*
X166023500Y-110310819D02*
X166023500Y-109310819D01*
X166023500Y-109310819D02*
X165928262Y-109453676D01*
X165928262Y-109453676D02*
X165833024Y-109548914D01*
X165833024Y-109548914D02*
X165737786Y-109596533D01*
X167896833Y-110215580D02*
X167849214Y-110263200D01*
X167849214Y-110263200D02*
X167706357Y-110310819D01*
X167706357Y-110310819D02*
X167611119Y-110310819D01*
X167611119Y-110310819D02*
X167468262Y-110263200D01*
X167468262Y-110263200D02*
X167373024Y-110167961D01*
X167373024Y-110167961D02*
X167325405Y-110072723D01*
X167325405Y-110072723D02*
X167277786Y-109882247D01*
X167277786Y-109882247D02*
X167277786Y-109739390D01*
X167277786Y-109739390D02*
X167325405Y-109548914D01*
X167325405Y-109548914D02*
X167373024Y-109453676D01*
X167373024Y-109453676D02*
X167468262Y-109358438D01*
X167468262Y-109358438D02*
X167611119Y-109310819D01*
X167611119Y-109310819D02*
X167706357Y-109310819D01*
X167706357Y-109310819D02*
X167849214Y-109358438D01*
X167849214Y-109358438D02*
X167896833Y-109406057D01*
X168277786Y-109406057D02*
X168325405Y-109358438D01*
X168325405Y-109358438D02*
X168420643Y-109310819D01*
X168420643Y-109310819D02*
X168658738Y-109310819D01*
X168658738Y-109310819D02*
X168753976Y-109358438D01*
X168753976Y-109358438D02*
X168801595Y-109406057D01*
X168801595Y-109406057D02*
X168849214Y-109501295D01*
X168849214Y-109501295D02*
X168849214Y-109596533D01*
X168849214Y-109596533D02*
X168801595Y-109739390D01*
X168801595Y-109739390D02*
X168230167Y-110310819D01*
X168230167Y-110310819D02*
X168849214Y-110310819D01*
X121859405Y-112850819D02*
X121859405Y-111850819D01*
X121859405Y-111850819D02*
X122097500Y-111850819D01*
X122097500Y-111850819D02*
X122240357Y-111898438D01*
X122240357Y-111898438D02*
X122335595Y-111993676D01*
X122335595Y-111993676D02*
X122383214Y-112088914D01*
X122383214Y-112088914D02*
X122430833Y-112279390D01*
X122430833Y-112279390D02*
X122430833Y-112422247D01*
X122430833Y-112422247D02*
X122383214Y-112612723D01*
X122383214Y-112612723D02*
X122335595Y-112707961D01*
X122335595Y-112707961D02*
X122240357Y-112803200D01*
X122240357Y-112803200D02*
X122097500Y-112850819D01*
X122097500Y-112850819D02*
X121859405Y-112850819D01*
X123383214Y-112850819D02*
X122811786Y-112850819D01*
X123097500Y-112850819D02*
X123097500Y-111850819D01*
X123097500Y-111850819D02*
X123002262Y-111993676D01*
X123002262Y-111993676D02*
X122907024Y-112088914D01*
X122907024Y-112088914D02*
X122811786Y-112136533D01*
X137670833Y-112850819D02*
X137337500Y-112374628D01*
X137099405Y-112850819D02*
X137099405Y-111850819D01*
X137099405Y-111850819D02*
X137480357Y-111850819D01*
X137480357Y-111850819D02*
X137575595Y-111898438D01*
X137575595Y-111898438D02*
X137623214Y-111946057D01*
X137623214Y-111946057D02*
X137670833Y-112041295D01*
X137670833Y-112041295D02*
X137670833Y-112184152D01*
X137670833Y-112184152D02*
X137623214Y-112279390D01*
X137623214Y-112279390D02*
X137575595Y-112327009D01*
X137575595Y-112327009D02*
X137480357Y-112374628D01*
X137480357Y-112374628D02*
X137099405Y-112374628D01*
X138623214Y-112850819D02*
X138051786Y-112850819D01*
X138337500Y-112850819D02*
X138337500Y-111850819D01*
X138337500Y-111850819D02*
X138242262Y-111993676D01*
X138242262Y-111993676D02*
X138147024Y-112088914D01*
X138147024Y-112088914D02*
X138051786Y-112136533D01*
X165190166Y-96351819D02*
X165190166Y-97066104D01*
X165190166Y-97066104D02*
X165142547Y-97208961D01*
X165142547Y-97208961D02*
X165047309Y-97304200D01*
X165047309Y-97304200D02*
X164904452Y-97351819D01*
X164904452Y-97351819D02*
X164809214Y-97351819D01*
X166190166Y-97351819D02*
X165618738Y-97351819D01*
X165904452Y-97351819D02*
X165904452Y-96351819D01*
X165904452Y-96351819D02*
X165809214Y-96494676D01*
X165809214Y-96494676D02*
X165713976Y-96589914D01*
X165713976Y-96589914D02*
X165618738Y-96637533D01*
X168762167Y-95785200D02*
X168905024Y-95832819D01*
X168905024Y-95832819D02*
X169143119Y-95832819D01*
X169143119Y-95832819D02*
X169238357Y-95785200D01*
X169238357Y-95785200D02*
X169285976Y-95737580D01*
X169285976Y-95737580D02*
X169333595Y-95642342D01*
X169333595Y-95642342D02*
X169333595Y-95547104D01*
X169333595Y-95547104D02*
X169285976Y-95451866D01*
X169285976Y-95451866D02*
X169238357Y-95404247D01*
X169238357Y-95404247D02*
X169143119Y-95356628D01*
X169143119Y-95356628D02*
X168952643Y-95309009D01*
X168952643Y-95309009D02*
X168857405Y-95261390D01*
X168857405Y-95261390D02*
X168809786Y-95213771D01*
X168809786Y-95213771D02*
X168762167Y-95118533D01*
X168762167Y-95118533D02*
X168762167Y-95023295D01*
X168762167Y-95023295D02*
X168809786Y-94928057D01*
X168809786Y-94928057D02*
X168857405Y-94880438D01*
X168857405Y-94880438D02*
X168952643Y-94832819D01*
X168952643Y-94832819D02*
X169190738Y-94832819D01*
X169190738Y-94832819D02*
X169333595Y-94880438D01*
X169666929Y-94832819D02*
X169905024Y-95832819D01*
X169905024Y-95832819D02*
X170095500Y-95118533D01*
X170095500Y-95118533D02*
X170285976Y-95832819D01*
X170285976Y-95832819D02*
X170524072Y-94832819D01*
X171428833Y-95832819D02*
X170857405Y-95832819D01*
X171143119Y-95832819D02*
X171143119Y-94832819D01*
X171143119Y-94832819D02*
X171047881Y-94975676D01*
X171047881Y-94975676D02*
X170952643Y-95070914D01*
X170952643Y-95070914D02*
X170857405Y-95118533D01*
X158976833Y-109802819D02*
X158643500Y-109326628D01*
X158405405Y-109802819D02*
X158405405Y-108802819D01*
X158405405Y-108802819D02*
X158786357Y-108802819D01*
X158786357Y-108802819D02*
X158881595Y-108850438D01*
X158881595Y-108850438D02*
X158929214Y-108898057D01*
X158929214Y-108898057D02*
X158976833Y-108993295D01*
X158976833Y-108993295D02*
X158976833Y-109136152D01*
X158976833Y-109136152D02*
X158929214Y-109231390D01*
X158929214Y-109231390D02*
X158881595Y-109279009D01*
X158881595Y-109279009D02*
X158786357Y-109326628D01*
X158786357Y-109326628D02*
X158405405Y-109326628D01*
X159357786Y-108898057D02*
X159405405Y-108850438D01*
X159405405Y-108850438D02*
X159500643Y-108802819D01*
X159500643Y-108802819D02*
X159738738Y-108802819D01*
X159738738Y-108802819D02*
X159833976Y-108850438D01*
X159833976Y-108850438D02*
X159881595Y-108898057D01*
X159881595Y-108898057D02*
X159929214Y-108993295D01*
X159929214Y-108993295D02*
X159929214Y-109088533D01*
X159929214Y-109088533D02*
X159881595Y-109231390D01*
X159881595Y-109231390D02*
X159310167Y-109802819D01*
X159310167Y-109802819D02*
X159929214Y-109802819D01*
X171057785Y-84123009D02*
X171200642Y-84170628D01*
X171200642Y-84170628D02*
X171248261Y-84218247D01*
X171248261Y-84218247D02*
X171295880Y-84313485D01*
X171295880Y-84313485D02*
X171295880Y-84456342D01*
X171295880Y-84456342D02*
X171248261Y-84551580D01*
X171248261Y-84551580D02*
X171200642Y-84599200D01*
X171200642Y-84599200D02*
X171105404Y-84646819D01*
X171105404Y-84646819D02*
X170724452Y-84646819D01*
X170724452Y-84646819D02*
X170724452Y-83646819D01*
X170724452Y-83646819D02*
X171057785Y-83646819D01*
X171057785Y-83646819D02*
X171153023Y-83694438D01*
X171153023Y-83694438D02*
X171200642Y-83742057D01*
X171200642Y-83742057D02*
X171248261Y-83837295D01*
X171248261Y-83837295D02*
X171248261Y-83932533D01*
X171248261Y-83932533D02*
X171200642Y-84027771D01*
X171200642Y-84027771D02*
X171153023Y-84075390D01*
X171153023Y-84075390D02*
X171057785Y-84123009D01*
X171057785Y-84123009D02*
X170724452Y-84123009D01*
X171581595Y-83646819D02*
X172153023Y-83646819D01*
X171867309Y-84646819D02*
X171867309Y-83646819D01*
X173010166Y-84646819D02*
X172438738Y-84646819D01*
X172724452Y-84646819D02*
X172724452Y-83646819D01*
X172724452Y-83646819D02*
X172629214Y-83789676D01*
X172629214Y-83789676D02*
X172533976Y-83884914D01*
X172533976Y-83884914D02*
X172438738Y-83932533D01*
D12*
%TO.C,SW2*%
X148561500Y-111646000D02*
X148561500Y-113146000D01*
X149811500Y-115646000D02*
X154311500Y-115646000D01*
X154311500Y-109146000D02*
X149811500Y-109146000D01*
X155561500Y-113146000D02*
X155561500Y-111646000D01*
%TO.C,C1*%
X164613500Y-105842748D02*
X164613500Y-107265252D01*
X166433500Y-105842748D02*
X166433500Y-107265252D01*
%TO.C,C2*%
X167153500Y-105842748D02*
X167153500Y-107265252D01*
X168973500Y-105842748D02*
X168973500Y-107265252D01*
%TO.C,D1*%
X124350500Y-110851000D02*
X124350500Y-113941000D01*
X124350500Y-110851170D02*
G75*
G02*
X129900500Y-112395952I2560000J-1544830D01*
G01*
X129900500Y-112396048D02*
G75*
G02*
X124350500Y-113940830I-2990000J48D01*
G01*
X129410500Y-112396000D02*
G75*
G02*
X124410500Y-112396000I-2500000J0D01*
G01*
X124410500Y-112396000D02*
G75*
G02*
X129410500Y-112396000I2500000J0D01*
G01*
%TO.C,R1*%
X135008564Y-111486000D02*
X133554436Y-111486000D01*
X135008564Y-113306000D02*
X133554436Y-113306000D01*
%TO.C,J1*%
X164193500Y-100966000D02*
X164193500Y-98366000D01*
X166853500Y-98366000D02*
X164193500Y-98366000D01*
X166853500Y-100966000D02*
X164193500Y-100966000D01*
X166853500Y-100966000D02*
X166853500Y-98366000D01*
X166853500Y-102236000D02*
X166853500Y-103566000D01*
X166853500Y-103566000D02*
X165523500Y-103566000D01*
D13*
%TO.C,M1*%
X127789132Y-77618737D02*
X128557475Y-77698160D01*
X129320711Y-77817031D01*
X130076816Y-77975034D01*
X130823785Y-78171752D01*
X131559636Y-78406662D01*
X132282418Y-78679140D01*
X132990216Y-78988466D01*
X133681151Y-79333818D01*
X134353392Y-79714281D01*
X135005156Y-80128845D01*
X135634714Y-80576411D01*
X136240398Y-81055793D01*
X136820600Y-81565720D01*
X137373783Y-82104838D01*
X137898479Y-82671718D01*
X138393297Y-83264858D01*
X138856925Y-83882684D01*
X139288133Y-84523557D01*
X139685779Y-85185779D01*
X140048806Y-85867593D01*
X140376254Y-86567191D01*
X140667252Y-87282719D01*
X140921031Y-88012278D01*
X141136916Y-88753933D01*
X141314335Y-89505719D01*
X141452818Y-90265641D01*
X141551998Y-91031685D01*
X141611611Y-91801819D01*
X141631500Y-92574000D01*
X141611611Y-93346181D01*
X141551998Y-94116315D01*
X141452818Y-94882359D01*
X141314335Y-95642281D01*
X141136916Y-96394067D01*
X140921031Y-97135722D01*
X140667252Y-97865281D01*
X140376254Y-98580809D01*
X140048806Y-99280407D01*
X139685779Y-99962221D01*
X139288133Y-100624443D01*
X138856925Y-101265316D01*
X138393297Y-101883142D01*
X137898479Y-102476282D01*
X137373783Y-103043162D01*
X136820600Y-103582280D01*
X136240398Y-104092207D01*
X135634714Y-104571589D01*
X135005156Y-105019155D01*
X134353392Y-105433719D01*
X133681151Y-105814182D01*
X132990216Y-106159534D01*
X132031500Y-106574000D01*
X131281500Y-106574000D01*
X130631500Y-106574000D01*
X129781500Y-106574000D01*
X128981500Y-106574000D01*
X128181500Y-106574000D01*
X127481500Y-106574000D01*
X126981500Y-106574000D01*
X126181500Y-106574000D01*
X125581500Y-106574000D01*
X124881500Y-106574000D01*
X124031500Y-106574000D01*
X123081500Y-106574000D01*
X122181500Y-106574000D01*
X121231500Y-106574000D01*
X120980582Y-106468860D01*
X120272784Y-106159534D01*
X119581849Y-105814182D01*
X118909608Y-105433719D01*
X118257844Y-105019155D01*
X117628286Y-104571589D01*
X117022602Y-104092207D01*
X116442400Y-103582280D01*
X115889217Y-103043162D01*
X115364521Y-102476282D01*
X114869703Y-101883142D01*
X114406075Y-101265316D01*
X113974867Y-100624443D01*
X113577221Y-99962221D01*
X113214194Y-99280407D01*
X112886746Y-98580809D01*
X112595748Y-97865281D01*
X112341969Y-97135722D01*
X112126084Y-96394067D01*
X111948665Y-95642281D01*
X111810182Y-94882359D01*
X111711002Y-94116315D01*
X111651389Y-93346181D01*
X111631500Y-92574000D01*
X111651389Y-91801819D01*
X111711002Y-91031685D01*
X111810182Y-90265641D01*
X111948665Y-89505719D01*
X112126084Y-88753933D01*
X112341969Y-88012278D01*
X112595748Y-87282719D01*
X112886746Y-86567191D01*
X113214194Y-85867593D01*
X113577221Y-85185779D01*
X113974867Y-84523557D01*
X114406075Y-83882684D01*
X114869703Y-83264858D01*
X115364521Y-82671718D01*
X115889217Y-82104838D01*
X116442400Y-81565720D01*
X117022602Y-81055793D01*
X117628286Y-80576411D01*
X118257844Y-80128845D01*
X118909608Y-79714281D01*
X119581849Y-79333818D01*
X120272784Y-78988466D01*
X120980582Y-78679140D01*
X121703364Y-78406662D01*
X122439215Y-78171752D01*
X123186184Y-77975034D01*
X123942289Y-77817031D01*
X124705525Y-77698160D01*
X125473868Y-77618737D01*
X126245281Y-77578973D01*
X127017719Y-77578973D01*
X127789132Y-77618737D01*
D12*
%TO.C,SW1*%
X172259500Y-95096000D02*
X174559500Y-95096000D01*
X172259500Y-96296000D02*
X172259500Y-95096000D01*
X172259500Y-98096000D02*
X172259500Y-98796000D01*
X172259500Y-100596000D02*
X172259500Y-101296000D01*
X172259500Y-104296000D02*
X172259500Y-103096000D01*
X174559500Y-104296000D02*
X172259500Y-104296000D01*
%TO.C,R2*%
X158233500Y-113365064D02*
X158233500Y-111910936D01*
X160053500Y-113365064D02*
X160053500Y-111910936D01*
%TO.C,BT1*%
X169691500Y-90620000D02*
X169691500Y-91870000D01*
X169691500Y-91870000D02*
X170941500Y-91870000D01*
X169791500Y-89810000D02*
X169791500Y-90110000D01*
X169791500Y-90110000D02*
X169991500Y-90110000D01*
X169891500Y-89810000D02*
X169891500Y-90110000D01*
X169991500Y-85450000D02*
X169991500Y-91570000D01*
X169991500Y-89010000D02*
X170601500Y-89010000D01*
X169991500Y-89810000D02*
X169791500Y-89810000D01*
X169991500Y-91570000D02*
X174711500Y-91570000D01*
X170601500Y-86060000D02*
X170601500Y-88010000D01*
X170601500Y-88010000D02*
X169991500Y-88010000D01*
X170601500Y-89010000D02*
X170601500Y-90960000D01*
X170601500Y-90960000D02*
X174101500Y-90960000D01*
X171301500Y-85450000D02*
X171301500Y-86060000D01*
X171301500Y-91570000D02*
X171301500Y-90960000D01*
X172601500Y-85450000D02*
X172601500Y-86060000D01*
X172601500Y-91570000D02*
X172601500Y-90960000D01*
X173601500Y-88410000D02*
X174101500Y-88410000D01*
X173601500Y-88610000D02*
X173601500Y-88410000D01*
X174101500Y-86060000D02*
X170601500Y-86060000D01*
X174101500Y-88510000D02*
X173601500Y-88510000D01*
X174101500Y-88610000D02*
X173601500Y-88610000D01*
X174101500Y-90960000D02*
X174101500Y-86060000D01*
X174711500Y-85450000D02*
X169991500Y-85450000D01*
X174711500Y-91570000D02*
X174711500Y-85450000D01*
D14*
%TO.C,U1*%
X143537500Y-81979000D02*
G75*
G02*
X143337500Y-81979000I-100000J0D01*
G01*
X143337500Y-81979000D02*
G75*
G02*
X143537500Y-81979000I100000J0D01*
G01*
%TD*%
M02*
